# glbtool toobj from BaseballBat.glb, texture: bat_palette.png
v -0.018780 -0.018780 0.427337
v -0.018780 0.018780 0.427337
v -0.026560 -0.000000 0.427337
v 0.026560 -0.000000 0.427337
v 0.000000 0.026560 0.427337
v 0.018780 0.018780 0.427337
v -0.000000 -0.026560 0.427337
v 0.018780 -0.018780 0.427337
v -0.021680 -0.021680 0.227557
v -0.000000 -0.035066 0.326561
v -0.024795 -0.024795 0.326561
v -0.000000 -0.030660 0.227557
v -0.021680 -0.021680 0.227557
v -0.035066 -0.000000 0.326561
v -0.030660 -0.000000 0.227557
v -0.024795 -0.024795 0.326561
v -0.021680 0.021680 0.227557
v -0.035066 -0.000000 0.326561
v -0.024795 0.024795 0.326561
v -0.030660 -0.000000 0.227557
v -0.021680 0.021680 0.227557
v 0.000000 0.035066 0.326561
v -0.000000 0.030660 0.227557
v -0.024795 0.024795 0.326561
v 0.021680 0.021680 0.227557
v 0.000000 0.035066 0.326561
v 0.024795 0.024795 0.326561
v -0.000000 0.030660 0.227557
v 0.021680 0.021680 0.227557
v 0.035066 -0.000000 0.326561
v 0.030660 -0.000000 0.227557
v 0.024795 0.024795 0.326561
v 0.021680 -0.021680 0.227557
v 0.035066 -0.000000 0.326561
v 0.024795 -0.024795 0.326561
v 0.030660 -0.000000 0.227557
v 0.021680 -0.021680 0.227557
v -0.000000 -0.035066 0.326561
v -0.000000 -0.030660 0.227557
v 0.024795 -0.024795 0.326561
v -0.000000 -0.035066 0.418613
v -0.018780 -0.018780 0.427337
v -0.024795 -0.024795 0.418613
v -0.000000 -0.026560 0.427337
v -0.018780 -0.018780 0.427337
v -0.035066 -0.000000 0.418613
v -0.024795 -0.024795 0.418613
v -0.026560 -0.000000 0.427337
v -0.035066 -0.000000 0.418613
v -0.018780 0.018780 0.427337
v -0.024795 0.024795 0.418613
v -0.026560 -0.000000 0.427337
v -0.018780 0.018780 0.427337
v 0.000000 0.035066 0.418613
v -0.024795 0.024795 0.418613
v 0.000000 0.026560 0.427337
v 0.000000 0.035066 0.418613
v 0.018780 0.018780 0.427337
v 0.024795 0.024795 0.418613
v 0.000000 0.026560 0.427337
v 0.018780 0.018780 0.427337
v 0.035066 -0.000000 0.418613
v 0.024795 0.024795 0.418613
v 0.026560 -0.000000 0.427337
v 0.035066 -0.000000 0.418613
v 0.018780 -0.018780 0.427337
v 0.024795 -0.024795 0.418613
v 0.026560 -0.000000 0.427337
v 0.018780 -0.018780 0.427337
v -0.000000 -0.035066 0.418613
v 0.024795 -0.024795 0.418613
v -0.000000 -0.026560 0.427337
v -0.012063 -0.012063 0.071928
v -0.000000 -0.030660 0.227557
v -0.021680 -0.021680 0.227557
v -0.000000 -0.017060 0.071928
v -0.012063 -0.012063 0.071928
v -0.030660 -0.000000 0.227557
v -0.017060 0.000000 0.071928
v -0.021680 -0.021680 0.227557
v -0.012063 0.012063 0.071928
v -0.030660 -0.000000 0.227557
v -0.021680 0.021680 0.227557
v -0.017060 0.000000 0.071928
v -0.012063 0.012063 0.071928
v -0.000000 0.030660 0.227557
v 0.000000 0.017060 0.071928
v -0.021680 0.021680 0.227557
v 0.012063 0.012063 0.071928
v -0.000000 0.030660 0.227557
v 0.021680 0.021680 0.227557
v 0.000000 0.017060 0.071928
v 0.012063 0.012063 0.071928
v 0.030660 -0.000000 0.227557
v 0.017060 -0.000000 0.071928
v 0.021680 0.021680 0.227557
v 0.012063 -0.012063 0.071928
v 0.030660 -0.000000 0.227557
v 0.021680 -0.021680 0.227557
v 0.017060 -0.000000 0.071928
v 0.012063 -0.012063 0.071928
v -0.000000 -0.030660 0.227557
v -0.000000 -0.017060 0.071928
v 0.021680 -0.021680 0.227557
v -0.008244 -0.008244 -0.058767
v -0.000000 -0.017060 0.071928
v -0.012063 -0.012063 0.071928
v -0.000000 -0.011658 -0.058767
v -0.008244 -0.008244 -0.058767
v -0.017060 0.000000 0.071928
v -0.011658 0.000000 -0.058767
v -0.012063 -0.012063 0.071928
v -0.008244 0.008244 -0.058767
v -0.017060 0.000000 0.071928
v -0.012063 0.012063 0.071928
v -0.011658 0.000000 -0.058767
v -0.008244 0.008244 -0.058767
v 0.000000 0.017060 0.071928
v 0.000000 0.011658 -0.058767
v -0.012063 0.012063 0.071928
v 0.008244 0.008244 -0.058767
v 0.000000 0.017060 0.071928
v 0.012063 0.012063 0.071928
v 0.000000 0.011658 -0.058767
v 0.008244 0.008244 -0.058767
v 0.017060 -0.000000 0.071928
v 0.011658 0.000000 -0.058767
v 0.012063 0.012063 0.071928
v 0.008244 -0.008244 -0.058767
v 0.017060 -0.000000 0.071928
v 0.012063 -0.012063 0.071928
v 0.011658 0.000000 -0.058767
v 0.008244 -0.008244 -0.058767
v -0.000000 -0.017060 0.071928
v -0.000000 -0.011658 -0.058767
v 0.012063 -0.012063 0.071928
v -0.000000 -0.035066 0.326561
v -0.024795 -0.024795 0.418613
v -0.024795 -0.024795 0.326561
v -0.000000 -0.035066 0.418613
v -0.024795 -0.024795 0.326561
v -0.035066 -0.000000 0.418613
v -0.035066 -0.000000 0.326561
v -0.024795 -0.024795 0.418613
v -0.035066 -0.000000 0.326561
v -0.024795 0.024795 0.418613
v -0.024795 0.024795 0.326561
v -0.035066 -0.000000 0.418613
v -0.024795 0.024795 0.326561
v 0.000000 0.035066 0.418613
v 0.000000 0.035066 0.326561
v -0.024795 0.024795 0.418613
v 0.000000 0.035066 0.326561
v 0.024795 0.024795 0.418613
v 0.024795 0.024795 0.326561
v 0.000000 0.035066 0.418613
v 0.024795 0.024795 0.326561
v 0.035066 -0.000000 0.418613
v 0.035066 -0.000000 0.326561
v 0.024795 0.024795 0.418613
v 0.035066 -0.000000 0.326561
v 0.024795 -0.024795 0.418613
v 0.024795 -0.024795 0.326561
v 0.035066 -0.000000 0.418613
v 0.024795 -0.024795 0.326561
v -0.000000 -0.035066 0.418613
v -0.000000 -0.035066 0.326561
v 0.024795 -0.024795 0.418613
v 0.015279 0.015279 -0.351856
v 0.015279 -0.015279 -0.351856
v 0.000000 0.021608 -0.351856
v -0.015279 -0.015279 -0.351856
v -0.000000 -0.021608 -0.351856
v 0.021608 0.000000 -0.351856
v -0.015279 0.015279 -0.351856
v -0.021608 0.000000 -0.351856
v -0.015279 -0.015279 -0.351856
v -0.000000 -0.025829 -0.341178
v -0.018264 -0.018264 -0.341178
v -0.000000 -0.021608 -0.351856
v -0.015279 -0.015279 -0.351856
v -0.025829 0.000000 -0.341178
v -0.021608 0.000000 -0.351856
v -0.018264 -0.018264 -0.341178
v -0.015279 0.015279 -0.351856
v -0.025829 0.000000 -0.341178
v -0.018264 0.018264 -0.341178
v -0.021608 0.000000 -0.351856
v -0.015279 0.015279 -0.351856
v 0.000000 0.025829 -0.341178
v 0.000000 0.021608 -0.351856
v -0.018264 0.018264 -0.341178
v 0.015279 0.015279 -0.351856
v 0.000000 0.025829 -0.341178
v 0.018264 0.018264 -0.341178
v 0.000000 0.021608 -0.351856
v 0.015279 0.015279 -0.351856
v 0.025829 0.000000 -0.341178
v 0.021608 0.000000 -0.351856
v 0.018264 0.018264 -0.341178
v 0.015279 -0.015279 -0.351856
v 0.025829 0.000000 -0.341178
v 0.018264 -0.018264 -0.341178
v 0.021608 0.000000 -0.351856
v 0.015279 -0.015279 -0.351856
v -0.000000 -0.025829 -0.341178
v -0.000000 -0.021608 -0.351856
v 0.018264 -0.018264 -0.341178
v -0.000000 -0.025829 -0.341178
v -0.015279 -0.015279 -0.330500
v -0.018264 -0.018264 -0.341178
v -0.000000 -0.021608 -0.330500
v -0.015279 -0.015279 -0.330500
v -0.025829 0.000000 -0.341178
v -0.018264 -0.018264 -0.341178
v -0.021608 0.000000 -0.330500
v -0.025829 0.000000 -0.341178
v -0.015279 0.015279 -0.330500
v -0.018264 0.018264 -0.341178
v -0.021608 0.000000 -0.330500
v -0.015279 0.015279 -0.330500
v 0.000000 0.025829 -0.341178
v -0.018264 0.018264 -0.341178
v 0.000000 0.021608 -0.330500
v 0.000000 0.025829 -0.341178
v 0.015279 0.015279 -0.330500
v 0.018264 0.018264 -0.341178
v 0.000000 0.021608 -0.330500
v 0.015279 0.015279 -0.330500
v 0.025829 0.000000 -0.341178
v 0.018264 0.018264 -0.341178
v 0.021608 0.000000 -0.330500
v 0.025829 0.000000 -0.341178
v 0.015279 -0.015279 -0.330500
v 0.018264 -0.018264 -0.341178
v 0.021608 0.000000 -0.330500
v 0.015279 -0.015279 -0.330500
v -0.000000 -0.025829 -0.341178
v 0.018264 -0.018264 -0.341178
v -0.000000 -0.021608 -0.330500
v -0.015279 -0.015279 -0.330500
v -0.000000 -0.014070 -0.326580
v -0.009949 -0.009949 -0.326580
v -0.000000 -0.021608 -0.330500
v -0.009949 -0.009949 -0.326580
v -0.021608 0.000000 -0.330500
v -0.015279 -0.015279 -0.330500
v -0.014070 0.000000 -0.326580
v -0.014070 0.000000 -0.326580
v -0.015279 0.015279 -0.330500
v -0.021608 0.000000 -0.330500
v -0.009949 0.009949 -0.326580
v 0.000000 0.021608 -0.330500
v -0.009949 0.009949 -0.326580
v 0.000000 0.014070 -0.326580
v -0.015279 0.015279 -0.330500
v 0.000000 0.014070 -0.326580
v 0.015279 0.015279 -0.330500
v 0.000000 0.021608 -0.330500
v 0.009949 0.009949 -0.326580
v 0.009949 0.009949 -0.326580
v 0.021608 0.000000 -0.330500
v 0.015279 0.015279 -0.330500
v 0.014070 0.000000 -0.326580
v 0.015279 -0.015279 -0.330500
v 0.014070 0.000000 -0.326580
v 0.009949 -0.009949 -0.326580
v 0.021608 0.000000 -0.330500
v 0.009949 -0.009949 -0.326580
v -0.000000 -0.021608 -0.330500
v 0.015279 -0.015279 -0.330500
v -0.000000 -0.014070 -0.326580
v -0.000000 -0.014070 -0.326580
v -0.009949 -0.009949 -0.063115
v -0.009949 -0.009949 -0.326580
v -0.000000 -0.014070 -0.063115
v -0.009949 -0.009949 -0.326580
v -0.014070 0.000000 -0.063115
v -0.014070 0.000000 -0.326580
v -0.009949 -0.009949 -0.063115
v -0.014070 0.000000 -0.326580
v -0.009949 0.009949 -0.063115
v -0.009949 0.009949 -0.326580
v -0.014070 0.000000 -0.063115
v -0.009949 0.009949 -0.326580
v 0.000000 0.014070 -0.063115
v 0.000000 0.014070 -0.326580
v -0.009949 0.009949 -0.063115
v 0.000000 0.014070 -0.326580
v 0.009949 0.009949 -0.063115
v 0.009949 0.009949 -0.326580
v 0.000000 0.014070 -0.063115
v 0.009949 0.009949 -0.326580
v 0.014070 0.000000 -0.063115
v 0.014070 0.000000 -0.326580
v 0.009949 0.009949 -0.063115
v 0.014070 0.000000 -0.326580
v 0.009949 -0.009949 -0.063115
v 0.009949 -0.009949 -0.326580
v 0.014070 0.000000 -0.063115
v 0.009949 -0.009949 -0.326580
v -0.000000 -0.014070 -0.063115
v -0.000000 -0.014070 -0.326580
v 0.009949 -0.009949 -0.063115
v -0.000000 -0.014070 -0.063115
v -0.008244 -0.008244 -0.058767
v -0.009949 -0.009949 -0.063115
v -0.000000 -0.011658 -0.058767
v -0.008244 -0.008244 -0.058767
v -0.014070 0.000000 -0.063115
v -0.009949 -0.009949 -0.063115
v -0.011658 0.000000 -0.058767
v -0.014070 0.000000 -0.063115
v -0.008244 0.008244 -0.058767
v -0.009949 0.009949 -0.063115
v -0.011658 0.000000 -0.058767
v -0.008244 0.008244 -0.058767
v 0.000000 0.014070 -0.063115
v -0.009949 0.009949 -0.063115
v 0.000000 0.011658 -0.058767
v 0.000000 0.014070 -0.063115
v 0.008244 0.008244 -0.058767
v 0.009949 0.009949 -0.063115
v 0.000000 0.011658 -0.058767
v 0.008244 0.008244 -0.058767
v 0.014070 0.000000 -0.063115
v 0.009949 0.009949 -0.063115
v 0.011658 0.000000 -0.058767
v 0.014070 0.000000 -0.063115
v 0.008244 -0.008244 -0.058767
v 0.009949 -0.009949 -0.063115
v 0.011658 0.000000 -0.058767
v 0.008244 -0.008244 -0.058767
v -0.000000 -0.014070 -0.063115
v 0.009949 -0.009949 -0.063115
v -0.000000 -0.011658 -0.058767
vt 0.031250 0.500000
vt 0.031250 0.500000
vt 0.031250 0.500000
vt 0.031250 0.500000
vt 0.031250 0.500000
vt 0.031250 0.500000
vt 0.031250 0.500000
vt 0.031250 0.500000
vt 0.031250 0.500000
vt 0.031250 0.500000
vt 0.031250 0.500000
vt 0.031250 0.500000
vt 0.031250 0.500000
vt 0.031250 0.500000
vt 0.031250 0.500000
vt 0.031250 0.500000
vt 0.031250 0.500000
vt 0.031250 0.500000
vt 0.031250 0.500000
vt 0.031250 0.500000
vt 0.031250 0.500000
vt 0.031250 0.500000
vt 0.031250 0.500000
vt 0.031250 0.500000
vt 0.031250 0.500000
vt 0.031250 0.500000
vt 0.031250 0.500000
vt 0.031250 0.500000
vt 0.031250 0.500000
vt 0.031250 0.500000
vt 0.031250 0.500000
vt 0.031250 0.500000
vt 0.031250 0.500000
vt 0.031250 0.500000
vt 0.031250 0.500000
vt 0.031250 0.500000
vt 0.031250 0.500000
vt 0.031250 0.500000
vt 0.031250 0.500000
vt 0.031250 0.500000
vt 0.031250 0.500000
vt 0.031250 0.500000
vt 0.031250 0.500000
vt 0.031250 0.500000
vt 0.031250 0.500000
vt 0.031250 0.500000
vt 0.031250 0.500000
vt 0.031250 0.500000
vt 0.031250 0.500000
vt 0.031250 0.500000
vt 0.031250 0.500000
vt 0.031250 0.500000
vt 0.031250 0.500000
vt 0.031250 0.500000
vt 0.031250 0.500000
vt 0.031250 0.500000
vt 0.031250 0.500000
vt 0.031250 0.500000
vt 0.031250 0.500000
vt 0.031250 0.500000
vt 0.031250 0.500000
vt 0.031250 0.500000
vt 0.031250 0.500000
vt 0.031250 0.500000
vt 0.031250 0.500000
vt 0.031250 0.500000
vt 0.031250 0.500000
vt 0.031250 0.500000
vt 0.031250 0.500000
vt 0.031250 0.500000
vt 0.031250 0.500000
vt 0.031250 0.500000
vt 0.031250 0.500000
vt 0.031250 0.500000
vt 0.031250 0.500000
vt 0.031250 0.500000
vt 0.031250 0.500000
vt 0.031250 0.500000
vt 0.031250 0.500000
vt 0.031250 0.500000
vt 0.031250 0.500000
vt 0.031250 0.500000
vt 0.031250 0.500000
vt 0.031250 0.500000
vt 0.031250 0.500000
vt 0.031250 0.500000
vt 0.031250 0.500000
vt 0.031250 0.500000
vt 0.031250 0.500000
vt 0.031250 0.500000
vt 0.031250 0.500000
vt 0.031250 0.500000
vt 0.031250 0.500000
vt 0.031250 0.500000
vt 0.031250 0.500000
vt 0.031250 0.500000
vt 0.031250 0.500000
vt 0.031250 0.500000
vt 0.031250 0.500000
vt 0.031250 0.500000
vt 0.031250 0.500000
vt 0.031250 0.500000
vt 0.031250 0.500000
vt 0.031250 0.500000
vt 0.031250 0.500000
vt 0.031250 0.500000
vt 0.031250 0.500000
vt 0.031250 0.500000
vt 0.031250 0.500000
vt 0.031250 0.500000
vt 0.031250 0.500000
vt 0.031250 0.500000
vt 0.031250 0.500000
vt 0.031250 0.500000
vt 0.031250 0.500000
vt 0.031250 0.500000
vt 0.031250 0.500000
vt 0.031250 0.500000
vt 0.031250 0.500000
vt 0.031250 0.500000
vt 0.031250 0.500000
vt 0.031250 0.500000
vt 0.031250 0.500000
vt 0.031250 0.500000
vt 0.031250 0.500000
vt 0.031250 0.500000
vt 0.031250 0.500000
vt 0.031250 0.500000
vt 0.031250 0.500000
vt 0.031250 0.500000
vt 0.031250 0.500000
vt 0.031250 0.500000
vt 0.031250 0.500000
vt 0.031250 0.500000
vt 0.031250 0.500000
vt 0.031250 0.500000
vt 0.031250 0.500000
vt 0.031250 0.500000
vt 0.031250 0.500000
vt 0.031250 0.500000
vt 0.031250 0.500000
vt 0.031250 0.500000
vt 0.031250 0.500000
vt 0.031250 0.500000
vt 0.031250 0.500000
vt 0.031250 0.500000
vt 0.031250 0.500000
vt 0.031250 0.500000
vt 0.031250 0.500000
vt 0.031250 0.500000
vt 0.031250 0.500000
vt 0.031250 0.500000
vt 0.031250 0.500000
vt 0.031250 0.500000
vt 0.031250 0.500000
vt 0.031250 0.500000
vt 0.031250 0.500000
vt 0.031250 0.500000
vt 0.031250 0.500000
vt 0.031250 0.500000
vt 0.031250 0.500000
vt 0.031250 0.500000
vt 0.031250 0.500000
vt 0.031250 0.500000
vt 0.031250 0.500000
vt 0.031250 0.500000
vt 0.031250 0.500000
vt 0.031250 0.500000
vt 0.093750 0.500000
vt 0.093750 0.500000
vt 0.093750 0.500000
vt 0.093750 0.500000
vt 0.093750 0.500000
vt 0.093750 0.500000
vt 0.093750 0.500000
vt 0.093750 0.500000
vt 0.093750 0.500000
vt 0.093750 0.500000
vt 0.093750 0.500000
vt 0.093750 0.500000
vt 0.093750 0.500000
vt 0.093750 0.500000
vt 0.093750 0.500000
vt 0.093750 0.500000
vt 0.093750 0.500000
vt 0.093750 0.500000
vt 0.093750 0.500000
vt 0.093750 0.500000
vt 0.093750 0.500000
vt 0.093750 0.500000
vt 0.093750 0.500000
vt 0.093750 0.500000
vt 0.093750 0.500000
vt 0.093750 0.500000
vt 0.093750 0.500000
vt 0.093750 0.500000
vt 0.093750 0.500000
vt 0.093750 0.500000
vt 0.093750 0.500000
vt 0.093750 0.500000
vt 0.093750 0.500000
vt 0.093750 0.500000
vt 0.093750 0.500000
vt 0.093750 0.500000
vt 0.093750 0.500000
vt 0.093750 0.500000
vt 0.093750 0.500000
vt 0.093750 0.500000
vt 0.093750 0.500000
vt 0.093750 0.500000
vt 0.093750 0.500000
vt 0.093750 0.500000
vt 0.093750 0.500000
vt 0.093750 0.500000
vt 0.093750 0.500000
vt 0.093750 0.500000
vt 0.093750 0.500000
vt 0.093750 0.500000
vt 0.093750 0.500000
vt 0.093750 0.500000
vt 0.093750 0.500000
vt 0.093750 0.500000
vt 0.093750 0.500000
vt 0.093750 0.500000
vt 0.093750 0.500000
vt 0.093750 0.500000
vt 0.093750 0.500000
vt 0.093750 0.500000
vt 0.093750 0.500000
vt 0.093750 0.500000
vt 0.093750 0.500000
vt 0.093750 0.500000
vt 0.093750 0.500000
vt 0.093750 0.500000
vt 0.093750 0.500000
vt 0.093750 0.500000
vt 0.093750 0.500000
vt 0.093750 0.500000
vt 0.093750 0.500000
vt 0.093750 0.500000
vt 0.093750 0.500000
vt 0.093750 0.500000
vt 0.093750 0.500000
vt 0.093750 0.500000
vt 0.093750 0.500000
vt 0.093750 0.500000
vt 0.093750 0.500000
vt 0.093750 0.500000
vt 0.093750 0.500000
vt 0.093750 0.500000
vt 0.093750 0.500000
vt 0.093750 0.500000
vt 0.093750 0.500000
vt 0.093750 0.500000
vt 0.093750 0.500000
vt 0.093750 0.500000
vt 0.093750 0.500000
vt 0.093750 0.500000
vt 0.093750 0.500000
vt 0.093750 0.500000
vt 0.093750 0.500000
vt 0.093750 0.500000
vt 0.093750 0.500000
vt 0.093750 0.500000
vt 0.093750 0.500000
vt 0.093750 0.500000
vt 0.093750 0.500000
vt 0.093750 0.500000
vt 0.093750 0.500000
vt 0.093750 0.500000
vt 0.093750 0.500000
vt 0.093750 0.500000
vt 0.093750 0.500000
vt 0.093750 0.500000
vt 0.093750 0.500000
vt 0.093750 0.500000
vt 0.093750 0.500000
vt 0.093750 0.500000
vt 0.093750 0.500000
vt 0.093750 0.500000
vt 0.093750 0.500000
vt 0.093750 0.500000
vt 0.093750 0.500000
vt 0.093750 0.500000
vt 0.093750 0.500000
vt 0.093750 0.500000
vt 0.093750 0.500000
vt 0.093750 0.500000
vt 0.093750 0.500000
vt 0.093750 0.500000
vt 0.093750 0.500000
vt 0.093750 0.500000
vt 0.093750 0.500000
vt 0.093750 0.500000
vt 0.093750 0.500000
vt 0.093750 0.500000
vt 0.093750 0.500000
vt 0.093750 0.500000
vt 0.093750 0.500000
vt 0.093750 0.500000
vt 0.093750 0.500000
vt 0.093750 0.500000
vt 0.093750 0.500000
vt 0.093750 0.500000
vt 0.093750 0.500000
vt 0.093750 0.500000
vt 0.093750 0.500000
vt 0.093750 0.500000
vt 0.093750 0.500000
vt 0.093750 0.500000
vt 0.093750 0.500000
vt 0.093750 0.500000
vt 0.093750 0.500000
vt 0.093750 0.500000
vt 0.093750 0.500000
vt 0.093750 0.500000
vt 0.093750 0.500000
vt 0.093750 0.500000
vt 0.093750 0.500000
vt 0.093750 0.500000
vt 0.093750 0.500000
vt 0.093750 0.500000
vt 0.093750 0.500000
vt 0.093750 0.500000
vt 0.093750 0.500000
vt 0.093750 0.500000
vt 0.093750 0.500000
vt 0.093750 0.500000
vt 0.093750 0.500000
vt 0.093750 0.500000
vt 0.093750 0.500000
vt 0.093750 0.500000
vt 0.093750 0.500000
vt 0.093750 0.500000
vt 0.093750 0.500000
vt 0.093750 0.500000
vn 0.000000 -0.000000 1.000000
vn 0.000000 -0.000000 1.000000
vn 0.000000 -0.000000 1.000000
vn 0.000000 -0.000000 1.000000
vn 0.000000 -0.000000 1.000000
vn 0.000000 -0.000000 1.000000
vn 0.000000 -0.000000 1.000000
vn 0.000000 -0.000000 1.000000
vn -0.382360 -0.923100 -0.041077
vn -0.382360 -0.923100 -0.041077
vn -0.382360 -0.923100 -0.041077
vn -0.382360 -0.923100 -0.041077
vn -0.923100 -0.382361 -0.041077
vn -0.923100 -0.382361 -0.041077
vn -0.923100 -0.382361 -0.041077
vn -0.923100 -0.382361 -0.041077
vn -0.923100 0.382361 -0.041077
vn -0.923100 0.382361 -0.041077
vn -0.923100 0.382361 -0.041077
vn -0.923100 0.382361 -0.041077
vn -0.382361 0.923100 -0.041077
vn -0.382361 0.923100 -0.041077
vn -0.382361 0.923100 -0.041077
vn -0.382361 0.923100 -0.041077
vn 0.382361 0.923100 -0.041077
vn 0.382361 0.923100 -0.041077
vn 0.382361 0.923100 -0.041077
vn 0.382361 0.923100 -0.041077
vn 0.923100 0.382360 -0.041077
vn 0.923100 0.382360 -0.041077
vn 0.923100 0.382360 -0.041077
vn 0.923100 0.382360 -0.041077
vn 0.923100 -0.382361 -0.041077
vn 0.923100 -0.382361 -0.041077
vn 0.923100 -0.382361 -0.041077
vn 0.923100 -0.382361 -0.041077
vn 0.382360 -0.923100 -0.041077
vn 0.382360 -0.923100 -0.041077
vn 0.382360 -0.923100 -0.041077
vn 0.382360 -0.923100 -0.041077
vn -0.284336 -0.686446 0.669287
vn -0.284336 -0.686446 0.669287
vn -0.284336 -0.686446 0.669287
vn -0.284336 -0.686446 0.669287
vn -0.686445 -0.284336 0.669288
vn -0.686445 -0.284336 0.669288
vn -0.686445 -0.284336 0.669288
vn -0.686445 -0.284336 0.669288
vn -0.686447 0.284335 0.669286
vn -0.686447 0.284335 0.669286
vn -0.686447 0.284335 0.669286
vn -0.686447 0.284335 0.669286
vn -0.284336 0.686446 0.669287
vn -0.284336 0.686446 0.669287
vn -0.284336 0.686446 0.669287
vn -0.284336 0.686446 0.669287
vn 0.284335 0.686446 0.669287
vn 0.284335 0.686446 0.669287
vn 0.284335 0.686446 0.669287
vn 0.284335 0.686446 0.669287
vn 0.686448 0.284334 0.669285
vn 0.686448 0.284334 0.669285
vn 0.686448 0.284334 0.669285
vn 0.686448 0.284334 0.669285
vn 0.686447 -0.284335 0.669286
vn 0.686447 -0.284335 0.669286
vn 0.686447 -0.284335 0.669286
vn 0.686447 -0.284335 0.669286
vn 0.284335 -0.686446 0.669287
vn 0.284335 -0.686446 0.669287
vn 0.284335 -0.686446 0.669287
vn 0.284335 -0.686446 0.669287
vn -0.381442 -0.920883 -0.080474
vn -0.381442 -0.920883 -0.080474
vn -0.381442 -0.920883 -0.080474
vn -0.381442 -0.920883 -0.080474
vn -0.920883 -0.381442 -0.080474
vn -0.920883 -0.381442 -0.080474
vn -0.920883 -0.381442 -0.080474
vn -0.920883 -0.381442 -0.080474
vn -0.920883 0.381442 -0.080474
vn -0.920883 0.381442 -0.080474
vn -0.920883 0.381442 -0.080474
vn -0.920883 0.381442 -0.080474
vn -0.381442 0.920883 -0.080474
vn -0.381442 0.920883 -0.080474
vn -0.381442 0.920883 -0.080474
vn -0.381442 0.920883 -0.080474
vn 0.381442 0.920883 -0.080474
vn 0.381442 0.920883 -0.080474
vn 0.381442 0.920883 -0.080474
vn 0.381442 0.920883 -0.080474
vn 0.920883 0.381442 -0.080474
vn 0.920883 0.381442 -0.080474
vn 0.920883 0.381442 -0.080474
vn 0.920883 0.381442 -0.080474
vn 0.920883 -0.381442 -0.080474
vn 0.920883 -0.381442 -0.080474
vn 0.920883 -0.381442 -0.080474
vn 0.920883 -0.381442 -0.080474
vn 0.381442 -0.920883 -0.080474
vn 0.381442 -0.920883 -0.080474
vn 0.381442 -0.920883 -0.080474
vn 0.381442 -0.920883 -0.080474
vn -0.382405 -0.923207 -0.038157
vn -0.382405 -0.923207 -0.038157
vn -0.382405 -0.923207 -0.038157
vn -0.382405 -0.923207 -0.038157
vn -0.923207 -0.382405 -0.038157
vn -0.923207 -0.382405 -0.038157
vn -0.923207 -0.382405 -0.038157
vn -0.923207 -0.382405 -0.038157
vn -0.923207 0.382405 -0.038157
vn -0.923207 0.382405 -0.038157
vn -0.923207 0.382405 -0.038157
vn -0.923207 0.382405 -0.038157
vn -0.382405 0.923207 -0.038157
vn -0.382405 0.923207 -0.038157
vn -0.382405 0.923207 -0.038157
vn -0.382405 0.923207 -0.038157
vn 0.382405 0.923207 -0.038157
vn 0.382405 0.923207 -0.038157
vn 0.382405 0.923207 -0.038157
vn 0.382405 0.923207 -0.038157
vn 0.923207 0.382405 -0.038157
vn 0.923207 0.382405 -0.038157
vn 0.923207 0.382405 -0.038157
vn 0.923207 0.382405 -0.038157
vn 0.923207 -0.382405 -0.038157
vn 0.923207 -0.382405 -0.038157
vn 0.923207 -0.382405 -0.038157
vn 0.923207 -0.382405 -0.038157
vn 0.382405 -0.923207 -0.038157
vn 0.382405 -0.923207 -0.038157
vn 0.382405 -0.923207 -0.038157
vn 0.382405 -0.923207 -0.038157
vn -0.382683 -0.923880 -0.000000
vn -0.382683 -0.923880 -0.000000
vn -0.382683 -0.923880 -0.000000
vn -0.382683 -0.923880 -0.000000
vn -0.923880 -0.382683 -0.000000
vn -0.923880 -0.382683 -0.000000
vn -0.923880 -0.382683 -0.000000
vn -0.923880 -0.382683 -0.000000
vn -0.923880 0.382683 0.000000
vn -0.923880 0.382683 0.000000
vn -0.923880 0.382683 0.000000
vn -0.923880 0.382683 0.000000
vn -0.382683 0.923880 0.000000
vn -0.382683 0.923880 0.000000
vn -0.382683 0.923880 0.000000
vn -0.382683 0.923880 0.000000
vn 0.382684 0.923879 0.000000
vn 0.382684 0.923879 0.000000
vn 0.382684 0.923879 0.000000
vn 0.382684 0.923879 0.000000
vn 0.923880 0.382683 0.000000
vn 0.923880 0.382683 0.000000
vn 0.923880 0.382683 0.000000
vn 0.923880 0.382683 0.000000
vn 0.923879 -0.382684 -0.000000
vn 0.923879 -0.382684 -0.000000
vn 0.923879 -0.382684 -0.000000
vn 0.923879 -0.382684 -0.000000
vn 0.382683 -0.923880 -0.000000
vn 0.382683 -0.923880 -0.000000
vn 0.382683 -0.923880 -0.000000
vn 0.382683 -0.923880 -0.000000
vn 0.000000 0.000000 -1.000000
vn 0.000000 0.000000 -1.000000
vn 0.000000 0.000000 -1.000000
vn 0.000000 0.000000 -1.000000
vn 0.000000 0.000000 -1.000000
vn 0.000000 0.000000 -1.000000
vn 0.000000 0.000000 -1.000000
vn 0.000000 0.000000 -1.000000
vn -0.359462 -0.867818 -0.343045
vn -0.359462 -0.867818 -0.343045
vn -0.359462 -0.867818 -0.343045
vn -0.359462 -0.867818 -0.343045
vn -0.867818 -0.359461 -0.343044
vn -0.867818 -0.359461 -0.343044
vn -0.867818 -0.359461 -0.343044
vn -0.867818 -0.359461 -0.343044
vn -0.867818 0.359462 -0.343045
vn -0.867818 0.359462 -0.343045
vn -0.867818 0.359462 -0.343045
vn -0.867818 0.359462 -0.343045
vn -0.359462 0.867817 -0.343045
vn -0.359462 0.867817 -0.343045
vn -0.359462 0.867817 -0.343045
vn -0.359462 0.867817 -0.343045
vn 0.359462 0.867818 -0.343045
vn 0.359462 0.867818 -0.343045
vn 0.359462 0.867818 -0.343045
vn 0.359462 0.867818 -0.343045
vn 0.867818 0.359462 -0.343045
vn 0.867818 0.359462 -0.343045
vn 0.867818 0.359462 -0.343045
vn 0.867818 0.359462 -0.343045
vn 0.867818 -0.359461 -0.343044
vn 0.867818 -0.359461 -0.343044
vn 0.867818 -0.359461 -0.343044
vn 0.867818 -0.359461 -0.343044
vn 0.359462 -0.867818 -0.343045
vn 0.359462 -0.867818 -0.343045
vn 0.359462 -0.867818 -0.343045
vn 0.359462 -0.867818 -0.343045
vn -0.359462 -0.867819 0.343042
vn -0.359462 -0.867819 0.343042
vn -0.359462 -0.867819 0.343042
vn -0.359462 -0.867819 0.343042
vn -0.867818 -0.359463 0.343043
vn -0.867818 -0.359463 0.343043
vn -0.867818 -0.359463 0.343043
vn -0.867818 -0.359463 0.343043
vn -0.867819 0.359462 0.343042
vn -0.867819 0.359462 0.343042
vn -0.867819 0.359462 0.343042
vn -0.867819 0.359462 0.343042
vn -0.359462 0.867818 0.343042
vn -0.359462 0.867818 0.343042
vn -0.359462 0.867818 0.343042
vn -0.359462 0.867818 0.343042
vn 0.359462 0.867819 0.343042
vn 0.359462 0.867819 0.343042
vn 0.359462 0.867819 0.343042
vn 0.359462 0.867819 0.343042
vn 0.867819 0.359462 0.343042
vn 0.867819 0.359462 0.343042
vn 0.867819 0.359462 0.343042
vn 0.867819 0.359462 0.343042
vn 0.867818 -0.359463 0.343043
vn 0.867818 -0.359463 0.343043
vn 0.867818 -0.359463 0.343043
vn 0.867818 -0.359463 0.343043
vn 0.359462 -0.867818 0.343042
vn 0.359462 -0.867818 0.343042
vn 0.359462 -0.867818 0.343042
vn 0.359462 -0.867818 0.343042
vn -0.187700 -0.453150 0.871449
vn -0.187700 -0.453150 0.871449
vn -0.187700 -0.453150 0.871449
vn -0.187700 -0.453150 0.871449
vn -0.453152 -0.187700 0.871448
vn -0.453152 -0.187700 0.871448
vn -0.453152 -0.187700 0.871448
vn -0.453152 -0.187700 0.871448
vn -0.453146 0.187701 0.871451
vn -0.453146 0.187701 0.871451
vn -0.453146 0.187701 0.871451
vn -0.453146 0.187701 0.871451
vn -0.187699 0.453150 0.871449
vn -0.187699 0.453150 0.871449
vn -0.187699 0.453150 0.871449
vn -0.187699 0.453150 0.871449
vn 0.187701 0.453150 0.871449
vn 0.187701 0.453150 0.871449
vn 0.187701 0.453150 0.871449
vn 0.187701 0.453150 0.871449
vn 0.453150 0.187701 0.871449
vn 0.453150 0.187701 0.871449
vn 0.453150 0.187701 0.871449
vn 0.453150 0.187701 0.871449
vn 0.453150 -0.187701 0.871449
vn 0.453150 -0.187701 0.871449
vn 0.453150 -0.187701 0.871449
vn 0.453150 -0.187701 0.871449
vn 0.187699 -0.453150 0.871450
vn 0.187699 -0.453150 0.871450
vn 0.187699 -0.453150 0.871450
vn 0.187699 -0.453150 0.871450
vn -0.382684 -0.923879 -0.000000
vn -0.382684 -0.923879 -0.000000
vn -0.382684 -0.923879 -0.000000
vn -0.382684 -0.923879 -0.000000
vn -0.923880 -0.382683 -0.000000
vn -0.923880 -0.382683 -0.000000
vn -0.923880 -0.382683 -0.000000
vn -0.923880 -0.382683 -0.000000
vn -0.923879 0.382684 0.000000
vn -0.923879 0.382684 0.000000
vn -0.923879 0.382684 0.000000
vn -0.923879 0.382684 0.000000
vn -0.382683 0.923880 0.000000
vn -0.382683 0.923880 0.000000
vn -0.382683 0.923880 0.000000
vn -0.382683 0.923880 0.000000
vn 0.382684 0.923879 0.000000
vn 0.382684 0.923879 0.000000
vn 0.382684 0.923879 0.000000
vn 0.382684 0.923879 0.000000
vn 0.923880 0.382683 0.000000
vn 0.923880 0.382683 0.000000
vn 0.923880 0.382683 0.000000
vn 0.923880 0.382683 0.000000
vn 0.923879 -0.382684 -0.000000
vn 0.923879 -0.382684 -0.000000
vn 0.923879 -0.382684 -0.000000
vn 0.923879 -0.382684 -0.000000
vn 0.382683 -0.923880 -0.000000
vn 0.382683 -0.923880 -0.000000
vn 0.382683 -0.923880 -0.000000
vn 0.382683 -0.923880 -0.000000
vn -0.340557 -0.822177 0.456121
vn -0.340557 -0.822177 0.456121
vn -0.340557 -0.822177 0.456121
vn -0.340557 -0.822177 0.456121
vn -0.822177 -0.340557 0.456120
vn -0.822177 -0.340557 0.456120
vn -0.822177 -0.340557 0.456120
vn -0.822177 -0.340557 0.456120
vn -0.822177 0.340557 0.456121
vn -0.822177 0.340557 0.456121
vn -0.822177 0.340557 0.456121
vn -0.822177 0.340557 0.456121
vn -0.340556 0.822177 0.456121
vn -0.340556 0.822177 0.456121
vn -0.340556 0.822177 0.456121
vn -0.340556 0.822177 0.456121
vn 0.340557 0.822177 0.456121
vn 0.340557 0.822177 0.456121
vn 0.340557 0.822177 0.456121
vn 0.340557 0.822177 0.456121
vn 0.822177 0.340556 0.456120
vn 0.822177 0.340556 0.456120
vn 0.822177 0.340556 0.456120
vn 0.822177 0.340556 0.456120
vn 0.822177 -0.340557 0.456121
vn 0.822177 -0.340557 0.456121
vn 0.822177 -0.340557 0.456121
vn 0.822177 -0.340557 0.456121
vn 0.340556 -0.822177 0.456121
vn 0.340556 -0.822177 0.456121
vn 0.340556 -0.822177 0.456121
vn 0.340556 -0.822177 0.456121
f 1/1/1 2/2/2 3/3/3
f 1/1/1 4/4/4 2/2/2
f 5/5/5 4/4/4 6/6/6
f 4/4/4 1/1/1 7/7/7
f 4/4/4 7/7/7 8/8/8
f 4/4/4 5/5/5 2/2/2
f 9/9/9 10/10/10 11/11/11
f 10/10/10 9/9/9 12/12/12
f 13/13/13 14/14/14 15/15/15
f 14/14/14 13/13/13 16/16/16
f 17/17/17 18/18/18 19/19/19
f 18/18/18 17/17/17 20/20/20
f 21/21/21 22/22/22 23/23/23
f 22/22/22 21/21/21 24/24/24
f 25/25/25 26/26/26 27/27/27
f 26/26/26 25/25/25 28/28/28
f 29/29/29 30/30/30 31/31/31
f 30/30/30 29/29/29 32/32/32
f 33/33/33 34/34/34 35/35/35
f 34/34/34 33/33/33 36/36/36
f 37/37/37 38/38/38 39/39/39
f 38/38/38 37/37/37 40/40/40
f 41/41/41 42/42/42 43/43/43
f 42/42/42 41/41/41 44/44/44
f 45/45/45 46/46/46 47/47/47
f 46/46/46 45/45/45 48/48/48
f 49/49/49 50/50/50 51/51/51
f 50/50/50 49/49/49 52/52/52
f 53/53/53 54/54/54 55/55/55
f 54/54/54 53/53/53 56/56/56
f 57/57/57 58/58/58 59/59/59
f 58/58/58 57/57/57 60/60/60
f 61/61/61 62/62/62 63/63/63
f 62/62/62 61/61/61 64/64/64
f 65/65/65 66/66/66 67/67/67
f 66/66/66 65/65/65 68/68/68
f 69/69/69 70/70/70 71/71/71
f 70/70/70 69/69/69 72/72/72
f 73/73/73 74/74/74 75/75/75
f 74/74/74 73/73/73 76/76/76
f 77/77/77 78/78/78 79/79/79
f 78/78/78 77/77/77 80/80/80
f 81/81/81 82/82/82 83/83/83
f 82/82/82 81/81/81 84/84/84
f 85/85/85 86/86/86 87/87/87
f 86/86/86 85/85/85 88/88/88
f 89/89/89 90/90/90 91/91/91
f 90/90/90 89/89/89 92/92/92
f 93/93/93 94/94/94 95/95/95
f 94/94/94 93/93/93 96/96/96
f 97/97/97 98/98/98 99/99/99
f 98/98/98 97/97/97 100/100/100
f 101/101/101 102/102/102 103/103/103
f 102/102/102 101/101/101 104/104/104
f 105/105/105 106/106/106 107/107/107
f 106/106/106 105/105/105 108/108/108
f 109/109/109 110/110/110 111/111/111
f 110/110/110 109/109/109 112/112/112
f 113/113/113 114/114/114 115/115/115
f 114/114/114 113/113/113 116/116/116
f 117/117/117 118/118/118 119/119/119
f 118/118/118 117/117/117 120/120/120
f 121/121/121 122/122/122 123/123/123
f 122/122/122 121/121/121 124/124/124
f 125/125/125 126/126/126 127/127/127
f 126/126/126 125/125/125 128/128/128
f 129/129/129 130/130/130 131/131/131
f 130/130/130 129/129/129 132/132/132
f 133/133/133 134/134/134 135/135/135
f 134/134/134 133/133/133 136/136/136
f 137/137/137 138/138/138 139/139/139
f 138/138/138 137/137/137 140/140/140
f 141/141/141 142/142/142 143/143/143
f 142/142/142 141/141/141 144/144/144
f 145/145/145 146/146/146 147/147/147
f 146/146/146 145/145/145 148/148/148
f 149/149/149 150/150/150 151/151/151
f 150/150/150 149/149/149 152/152/152
f 153/153/153 154/154/154 155/155/155
f 154/154/154 153/153/153 156/156/156
f 157/157/157 158/158/158 159/159/159
f 158/158/158 157/157/157 160/160/160
f 161/161/161 162/162/162 163/163/163
f 162/162/162 161/161/161 164/164/164
f 165/165/165 166/166/166 167/167/167
f 166/166/166 165/165/165 168/168/168
f 169/169/169 170/170/170 171/171/171
f 172/172/172 170/170/170 173/173/173
f 170/170/170 169/169/169 174/174/174
f 170/170/170 175/175/175 171/171/171
f 175/175/175 172/172/172 176/176/176
f 175/175/175 170/170/170 172/172/172
f 177/177/177 178/178/178 179/179/179
f 178/178/178 177/177/177 180/180/180
f 181/181/181 182/182/182 183/183/183
f 182/182/182 181/181/181 184/184/184
f 185/185/185 186/186/186 187/187/187
f 186/186/186 185/185/185 188/188/188
f 189/189/189 190/190/190 191/191/191
f 190/190/190 189/189/189 192/192/192
f 193/193/193 194/194/194 195/195/195
f 194/194/194 193/193/193 196/196/196
f 197/197/197 198/198/198 199/199/199
f 198/198/198 197/197/197 200/200/200
f 201/201/201 202/202/202 203/203/203
f 202/202/202 201/201/201 204/204/204
f 205/205/205 206/206/206 207/207/207
f 206/206/206 205/205/205 208/208/208
f 209/209/209 210/210/210 211/211/211
f 210/210/210 209/209/209 212/212/212
f 213/213/213 214/214/214 215/215/215
f 214/214/214 213/213/213 216/216/216
f 217/217/217 218/218/218 219/219/219
f 218/218/218 217/217/217 220/220/220
f 221/221/221 222/222/222 223/223/223
f 222/222/222 221/221/221 224/224/224
f 225/225/225 226/226/226 227/227/227
f 226/226/226 225/225/225 228/228/228
f 229/229/229 230/230/230 231/231/231
f 230/230/230 229/229/229 232/232/232
f 233/233/233 234/234/234 235/235/235
f 234/234/234 233/233/233 236/236/236
f 237/237/237 238/238/238 239/239/239
f 238/238/238 237/237/237 240/240/240
f 241/241/241 242/242/242 243/243/243
f 242/242/242 241/241/241 244/244/244
f 245/245/245 246/246/246 247/247/247
f 246/246/246 245/245/245 248/248/248
f 249/249/249 250/250/250 251/251/251
f 250/250/250 249/249/249 252/252/252
f 253/253/253 254/254/254 255/255/255
f 254/254/254 253/253/253 256/256/256
f 257/257/257 258/258/258 259/259/259
f 258/258/258 257/257/257 260/260/260
f 261/261/261 262/262/262 263/263/263
f 262/262/262 261/261/261 264/264/264
f 265/265/265 266/266/266 267/267/267
f 266/266/266 265/265/265 268/268/268
f 269/269/269 270/270/270 271/271/271
f 270/270/270 269/269/269 272/272/272
f 273/273/273 274/274/274 275/275/275
f 274/274/274 273/273/273 276/276/276
f 277/277/277 278/278/278 279/279/279
f 278/278/278 277/277/277 280/280/280
f 281/281/281 282/282/282 283/283/283
f 282/282/282 281/281/281 284/284/284
f 285/285/285 286/286/286 287/287/287
f 286/286/286 285/285/285 288/288/288
f 289/289/289 290/290/290 291/291/291
f 290/290/290 289/289/289 292/292/292
f 293/293/293 294/294/294 295/295/295
f 294/294/294 293/293/293 296/296/296
f 297/297/297 298/298/298 299/299/299
f 298/298/298 297/297/297 300/300/300
f 301/301/301 302/302/302 303/303/303
f 302/302/302 301/301/301 304/304/304
f 305/305/305 306/306/306 307/307/307
f 306/306/306 305/305/305 308/308/308
f 309/309/309 310/310/310 311/311/311
f 310/310/310 309/309/309 312/312/312
f 313/313/313 314/314/314 315/315/315
f 314/314/314 313/313/313 316/316/316
f 317/317/317 318/318/318 319/319/319
f 318/318/318 317/317/317 320/320/320
f 321/321/321 322/322/322 323/323/323
f 322/322/322 321/321/321 324/324/324
f 325/325/325 326/326/326 327/327/327
f 326/326/326 325/325/325 328/328/328
f 329/329/329 330/330/330 331/331/331
f 330/330/330 329/329/329 332/332/332
f 333/333/333 334/334/334 335/335/335
f 334/334/334 333/333/333 336/336/336
