# decimated from ../../Assets/Models/Brain.obj, cell 0.042
v 0.074096 -0.120170 0.054965
v 0.124464 -0.094529 0.055371
v 0.128666 -0.129006 0.050731
v -0.041036 -0.079676 0.165268
v 0.076748 -0.165515 0.212366
v 0.070328 -0.244249 0.204547
v 0.064465 -0.229063 0.244760
v 0.046741 -0.038519 0.136709
v 0.046139 -0.081550 0.135448
v 0.046234 -0.040648 0.165208
v -0.082899 -0.052991 0.255451
v -0.042647 -0.051103 0.283959
v 0.159424 -0.166864 0.113860
v 0.163902 -0.087388 0.125310
v 0.131195 -0.060464 0.242671
v 0.083144 -0.054736 0.290238
v 0.117660 -0.055852 0.208584
v 0.079887 -0.041929 0.170602
v 0.067743 -0.043651 0.126862
v 0.081392 -0.085314 0.167759
v 0.051501 0.049251 0.074197
v 0.039821 0.003064 0.083746
v 0.055681 0.066579 0.086256
v 0.086812 -0.002248 0.214827
v 0.073876 0.034685 0.213866
v 0.124685 0.007016 0.213399
v -0.039438 -0.000130 0.260393
v -0.039177 0.039166 0.205630
v 0.000514 -0.008310 0.169973
v 0.040041 -0.001765 0.170753
v -0.045846 -0.071083 0.252386
v 0.072750 -0.036401 0.082774
v 0.081870 -0.004151 0.054446
v -0.044395 -0.161017 0.170358
v 0.036075 -0.167213 0.173024
v -0.039193 -0.163395 0.205385
v -0.015518 0.094004 0.248036
v -0.011625 0.082312 0.212659
v -0.040522 0.084173 0.216638
v 0.006343 -0.074556 0.287982
v 0.044774 -0.075678 0.281970
v 0.048366 -0.054552 0.285789
v 0.086040 -0.089753 0.043083
v 0.084770 -0.043099 0.044702
v 0.040316 -0.126626 0.169074
v 0.003858 -0.121201 0.168901
v -0.168941 -0.042689 0.177019
v -0.156415 -0.072819 0.145953
v 0.002401 -0.037796 0.371592
v 0.005763 -0.042005 0.336927
v 0.083620 -0.000345 0.171053
v 0.043609 -0.085407 0.164888
v 0.040631 -0.124248 0.081813
v 0.088153 -0.171385 0.054907
v 0.083232 0.042688 0.054249
v 0.041640 0.042150 0.328422
v 0.045565 0.007377 0.350374
v 0.005220 -0.131321 0.129925
v 0.039382 -0.120826 0.126695
v 0.122328 0.072514 0.126599
v 0.136321 0.046551 0.125132
v 0.143934 -0.140966 0.305094
v 0.180548 -0.115200 0.288888
v 0.151661 -0.123567 0.318383
v -0.085642 -0.165058 0.165365
v -0.129016 -0.171918 0.169488
v 0.127853 0.051779 0.298362
v 0.006215 -0.053978 0.291671
v 0.084807 -0.171779 0.125294
v 0.125162 -0.200452 0.127000
v 0.084528 -0.212667 0.124231
v -0.176596 -0.042039 0.300666
v -0.191945 -0.012743 0.276928
v 0.060594 -0.132645 0.205418
v 0.042895 -0.171922 0.331773
v -0.037054 0.036339 0.172479
v 0.032770 0.041884 0.170426
v 0.047921 -0.049566 0.212816
v 0.053639 -0.073740 0.211059
v -0.081888 -0.071642 0.211403
v -0.046429 -0.055031 0.206686
v -0.081047 -0.052222 0.209960
v -0.080877 -0.204483 0.164053
v 0.123909 -0.073326 0.070243
v 0.074156 -0.086093 0.082520
v 0.208190 -0.087328 0.251269
v -0.078091 0.042943 0.202251
v -0.125647 -0.199645 0.210377
v -0.075399 -0.201704 0.207125
v -0.140950 -0.190079 0.233581
v -0.083602 -0.126244 0.216814
v 0.083126 -0.073316 0.252292
v -0.044771 -0.049623 0.258377
v 0.122460 -0.131869 0.133799
v 0.129130 -0.158263 0.129463
v 0.040839 -0.211114 0.295702
v 0.080105 -0.074460 0.211839
v 0.041472 -0.089733 0.072123
v 0.203974 -0.158917 0.205428
v 0.200323 -0.160436 0.234585
v 0.040123 -0.216214 0.129203
v -0.041695 -0.206153 0.125644
v 0.001192 -0.209771 0.125529
v -0.047160 0.000367 0.342850
v -0.040335 -0.008490 0.361890
v 0.148522 -0.056372 0.230752
v 0.161894 -0.069743 0.238632
v 0.155510 -0.059974 0.241251
v -0.050758 -0.071712 0.205570
v -0.084432 0.043509 0.119351
v 0.001251 -0.040536 0.133846
v -0.000096 -0.089105 0.127195
v -0.041276 -0.078182 0.371959
v 0.001172 -0.080916 0.372915
v -0.130461 -0.046482 0.337295
v 0.219691 -0.123052 0.211843
v -0.043215 -0.044187 0.166268
v -0.038336 0.051802 0.108913
v -0.073493 0.018648 0.100608
v 0.043658 -0.072542 0.372237
v 0.039124 -0.071598 0.246519
v 0.037538 -0.046909 0.250430
v 0.089176 -0.075398 0.298116
v -0.037942 0.025030 0.236879
v 0.007420 -0.006247 0.278024
v -0.043656 -0.010031 0.277334
v 0.053189 -0.041405 0.041294
v -0.088391 -0.070895 0.252610
v -0.086426 0.073775 0.246793
v -0.038817 0.083849 0.253946
v 0.038843 0.079236 0.223938
v 0.032390 0.041125 0.217658
v 0.152247 -0.105160 0.158233
v 0.114193 -0.119128 0.159017
v -0.202418 -0.041329 0.205038
v -0.179837 -0.003014 0.183787
v -0.194384 -0.043982 0.181177
v 0.006482 0.107809 0.218027
v 0.073015 0.002966 0.246776
v 0.045800 -0.000243 0.250777
v -0.160392 0.041072 0.243023
v -0.195437 0.000577 0.241607
v 0.080971 -0.132085 0.169822
v 0.080165 -0.126403 0.218790
v 0.165977 0.070326 0.235648
v 0.171383 0.051299 0.247443
v 0.167088 -0.035896 0.124992
v 0.130878 0.010294 0.134301
v 0.158765 0.009278 0.120372
v 0.039139 -0.234289 0.259037
v -0.076055 -0.094952 0.133239
v -0.088873 -0.125877 0.134268
v -0.112014 -0.130212 0.136473
v -0.041774 -0.113455 0.125675
v -0.038418 -0.123744 0.162357
v -0.194979 0.017786 0.217529
v 0.043821 -0.048973 0.327714
v 0.205388 -0.072678 0.121357
v 0.175562 -0.128939 0.113314
v -0.039856 -0.073051 0.282052
v 0.200863 -0.134457 0.250936
v 0.126376 0.083791 0.250396
v 0.161719 0.076657 0.201182
v -0.087942 -0.173974 0.118970
v -0.207509 -0.043066 0.238664
v -0.172117 -0.069383 0.262295
v 0.138323 -0.223152 0.203409
v 0.116863 -0.222660 0.157851
v -0.041543 -0.217804 0.163235
v 0.128395 -0.071123 0.290100
v 0.136814 0.052572 0.072495
v 0.121410 0.074691 0.083884
v -0.194983 -0.116088 0.277944
v -0.180898 -0.087290 0.298259
v -0.190127 -0.092153 0.283398
v 0.001078 0.004891 0.347002
v -0.040744 -0.075600 0.133811
v 0.005924 -0.164711 0.238427
v 0.001564 -0.169850 0.214584
v -0.009454 -0.208457 0.217297
v -0.087717 0.047357 0.285166
v -0.121857 0.028772 0.299283
v -0.085076 0.029819 0.317101
v 0.039129 -0.001132 0.127083
v 0.016542 0.074478 0.297223
v 0.003152 0.032191 0.325942
v -0.094860 -0.075837 0.179689
v -0.112684 -0.038849 0.217310
v 0.079713 -0.132819 0.140155
v 0.235672 -0.088824 0.170557
v 0.222165 -0.125692 0.167776
v -0.006412 -0.081086 0.168507
v -0.121776 -0.000946 0.326083
v -0.139692 0.002048 0.304633
v 0.131195 -0.074835 0.242671
v 0.004512 -0.043720 0.171503
v -0.035317 -0.164275 0.331328
v 0.001078 -0.140191 0.347002
v -0.040335 -0.126809 0.361890
v -0.046119 -0.053454 0.371360
v -0.088217 -0.009342 0.346912
v 0.025366 -0.224055 0.236840
v 0.208190 -0.047971 0.251269
v 0.124569 -0.134034 0.329055
v 0.084058 -0.168527 0.333153
v -0.170802 -0.084736 0.176825
v -0.128836 -0.076860 0.222806
v -0.091599 -0.004915 0.131255
v 0.082155 -0.078693 0.367153
v 0.090230 -0.120106 0.349777
v 0.121175 -0.085018 0.352452
v 0.143934 0.005666 0.305094
v 0.124569 -0.001265 0.329055
v 0.042399 -0.045297 0.372073
v 0.082820 -0.053160 0.250087
v 0.025804 0.062812 0.295138
v 0.011880 -0.081637 0.341816
v -0.040052 -0.043767 0.131947
v -0.090828 0.036829 0.169864
v -0.073541 0.071879 0.210540
v 0.090227 -0.218221 0.282557
v 0.171241 0.003943 0.074828
v 0.163479 0.037706 0.114813
v 0.115073 0.036975 0.321267
v 0.154598 0.028198 0.297484
v -0.154565 0.023813 0.287070
v 0.014115 -0.020309 0.104085
v 0.206207 -0.069143 0.172680
v 0.215150 -0.068390 0.206257
v -0.044254 -0.150767 0.093664
v -0.047577 -0.131343 0.098520
v -0.036715 -0.163398 0.111876
v 0.134057 -0.023349 0.145317
v 0.206626 -0.125083 0.125918
v 0.044839 -0.137134 0.354170
v 0.066745 -0.122974 0.359785
v -0.076055 -0.040347 0.133239
v -0.121478 -0.033742 0.160179
v -0.035317 0.028976 0.331328
v 0.143216 -0.003062 0.053431
v 0.091527 0.071382 0.062519
v 0.147599 0.068108 0.274785
v -0.047160 -0.135667 0.342850
v -0.088217 -0.125958 0.346912
v 0.084801 0.079650 0.121139
v 0.156955 -0.053324 0.320332
v 0.121175 -0.050282 0.352452
v 0.003345 -0.072577 0.257049
v -0.039523 -0.213128 0.214477
v -0.175884 0.031233 0.208536
v -0.149368 0.029659 0.182716
v 0.165521 -0.197178 0.245068
v 0.147599 -0.203407 0.274785
v 0.078423 -0.047497 0.365700
v -0.081039 -0.070620 0.325418
v -0.032251 -0.071697 0.332532
v 0.206626 -0.010216 0.125918
v -0.079208 0.002059 0.166649
v -0.002082 -0.107737 0.370722
v 0.043052 -0.111171 0.368341
v -0.116283 -0.070787 0.295575
v 0.043145 0.033553 0.119217
v 0.014253 0.045763 0.119504
v 0.167771 -0.037437 0.088916
v 0.164562 0.002859 0.062631
v 0.154146 -0.071033 0.208197
v 0.005875 0.010601 0.130595
v -0.043834 0.001955 0.162860
v -0.158273 -0.157604 0.183790
v 0.193060 -0.050799 0.288149
v 0.180107 -0.036991 0.296440
v 0.172570 0.002610 0.289557
v -0.043517 -0.116220 0.276054
v 0.042611 -0.115335 0.256554
v -0.002815 -0.047373 0.246134
v -0.053028 -0.183347 0.295261
v -0.089672 -0.177383 0.287417
v -0.083527 -0.193956 0.280343
v 0.038169 -0.159926 0.243320
v 0.161175 -0.158951 0.291652
v -0.046353 0.003200 0.096731
v -0.030233 0.001172 0.107466
v 0.173826 0.058953 0.203982
v 0.064769 -0.000837 0.357647
v -0.038023 0.087472 0.168311
v -0.009988 0.095931 0.167506
v -0.086303 -0.055174 0.362006
v -0.002557 0.079821 0.130961
v -0.046030 0.079179 0.136775
v -0.038307 -0.156123 0.236487
v -0.004119 -0.068611 0.209111
v -0.003178 -0.057952 0.209385
v 0.005916 0.032089 0.238364
v 0.038045 0.006817 0.273661
v 0.081417 -0.233263 0.170558
v -0.082170 -0.127532 0.167057
v -0.112382 -0.125759 0.208847
v 0.198200 -0.060183 0.170040
v 0.182775 -0.067649 0.160512
v -0.112014 -0.005087 0.136473
v -0.183461 -0.070134 0.217384
v -0.175884 -0.166532 0.208536
v -0.158980 0.002019 0.292469
v 0.124029 -0.041769 0.165672
v 0.083376 -0.079702 0.005643
v -0.179906 0.004015 0.269083
v 0.154875 0.051184 0.093765
v 0.131215 -0.082934 0.164145
v 0.038289 0.029158 0.242342
v 0.031759 -0.173870 0.218136
v 0.035384 -0.209525 0.223039
v -0.000628 0.040986 0.215131
v 0.177859 -0.071463 0.294055
v 0.132116 0.090003 0.202576
v 0.116863 0.087361 0.157851
v 0.078233 -0.049536 0.209335
v 0.082804 0.038062 0.125312
v 0.040425 0.112256 0.205755
v 0.081417 0.097964 0.170558
v 0.039297 0.096559 0.165674
v 0.109579 -0.237665 0.206850
v -0.196008 -0.148551 0.246458
v -0.194979 -0.153085 0.217529
v -0.162053 -0.172117 0.248972
v 0.046928 -0.165144 0.117436
v -0.154527 -0.044811 0.325771
v 0.150873 -0.131505 0.056679
v 0.127015 -0.182989 0.071763
v -0.203694 -0.116606 0.235286
v -0.187380 -0.128791 0.266627
v 0.126376 -0.219090 0.250396
v 0.129095 -0.049821 0.072256
v -0.160319 -0.131373 0.295480
v -0.154527 -0.090489 0.325771
v 0.174885 -0.184789 0.165158
v 0.168358 -0.202248 0.202718
v 0.096887 -0.235709 0.255705
v -0.121776 -0.134353 0.326083
v -0.139997 -0.130511 0.299236
v -0.123895 0.044630 0.166456
v -0.076929 0.072149 0.157552
v 0.090227 0.082922 0.282557
v 0.035546 0.096320 0.253246
v 0.191845 0.032095 0.134926
v 0.056801 -0.189799 0.076478
v 0.083633 -0.202133 0.082713
v 0.049797 -0.175869 0.082995
v -0.044457 -0.125795 0.259914
v -0.085076 -0.165118 0.317101
v -0.126959 -0.159428 0.303396
v 0.010235 -0.163256 0.128321
v 0.085629 0.081012 0.082940
v -0.123136 0.048963 0.253199
v 0.064223 -0.149305 0.254866
v 0.075449 -0.134422 0.244239
v 0.215443 -0.003327 0.211315
v 0.218206 -0.002916 0.163792
v 0.084536 0.097878 0.251536
v 0.070327 0.108949 0.204547
v 0.096423 -0.148823 0.177000
v 0.209983 -0.055916 0.119157
v 0.047276 -0.071652 0.327806
v 0.059863 -0.173611 0.062281
v -0.130461 -0.088818 0.337295
v -0.087022 -0.079509 0.361684
v -0.072581 -0.060973 0.309156
v 0.084344 0.039978 0.329873
v -0.013932 0.044293 0.099992
v 0.042118 -0.030063 0.075232
v -0.125647 0.064346 0.210377
v 0.201312 -0.156782 0.162798
v -0.038817 -0.219148 0.253946
v -0.086426 -0.209074 0.246793
v -0.113220 0.001154 0.215221
v 0.013076 -0.083222 0.079444
v 0.014547 -0.041529 0.078384
v -0.015518 -0.229304 0.248036
v 0.151312 -0.024525 0.056151
v -0.013932 -0.179592 0.099992
v 0.235672 -0.046475 0.170557
v 0.031904 -0.234879 0.168535
v 0.049154 -0.227831 0.161859
v 0.047855 0.081882 0.295965
v 0.152247 -0.030139 0.158233
v 0.118279 -0.009765 0.155829
v 0.115073 -0.172275 0.321267
v -0.114753 -0.181525 0.262430
v 0.123482 -0.137665 0.210707
v 0.200930 0.027506 0.195715
v 0.057541 0.010809 0.200304
v -0.073493 -0.153948 0.100608
v -0.113002 -0.196667 0.163287
v -0.202135 -0.088688 0.208093
v -0.015961 0.052889 0.293404
v -0.053028 0.048048 0.295261
v 0.016542 -0.209777 0.297223
v 0.068372 -0.076181 0.124822
v -0.077122 0.005984 0.222553
v 0.161676 -0.193615 0.135245
v -0.105726 -0.091728 0.358738
v -0.142481 -0.188437 0.210655
v 0.053252 -0.085588 0.041481
v 0.079166 -0.044513 0.005563
v 0.108384 0.106577 0.212772
v -0.077483 -0.171953 0.203405
v 0.081954 0.009706 0.136927
v -0.203676 -0.083493 0.242205
v 0.151661 -0.011732 0.318383
v 0.121574 -0.061649 0.300668
v -0.006678 -0.237877 0.207673
v -0.005716 -0.228092 0.162733
v -0.000021 -0.239729 0.181500
v 0.169220 -0.087741 0.088304
v 0.156955 -0.081975 0.320332
v -0.097682 -0.046364 0.173098
v -0.137735 0.007895 0.183239
v 0.018491 0.106649 0.185949
v -0.105726 -0.043572 0.358738
v 0.142292 -0.180246 0.294082
v -0.002212 -0.127775 0.278383
v 0.174885 0.049490 0.165158
v -0.154565 -0.159112 0.287070
v 0.003152 -0.167491 0.325942
v 0.038045 -0.142117 0.273661
v 0.128093 -0.155493 0.221028
v 0.164094 -0.156346 0.084256
v -0.194681 -0.035706 0.281382
v 0.152226 -0.134336 0.226030
v -0.194384 -0.091318 0.181177
v 0.044741 -0.243563 0.213075
v -0.154572 -0.048695 0.146314
v -0.015961 -0.188188 0.293404
v 0.200863 -0.000842 0.250936
v 0.233727 -0.101216 0.143685
v 0.123818 -0.196524 0.085831
v -0.088337 -0.125723 0.252943
v -0.109250 -0.056147 0.290336
v 0.138475 -0.102694 0.139897
v 0.196158 0.023957 0.181623
v 0.184182 -0.170452 0.245424
v 0.115222 -0.029671 0.053983
v 0.193060 -0.084500 0.288149
v -0.072581 -0.074326 0.309156
v 0.159654 -0.089430 0.062937
v -0.142481 0.053138 0.210655
v -0.039047 -0.053482 0.325165
v 0.200323 0.025137 0.234585
v -0.135974 -0.071165 0.252635
v 0.112698 -0.200119 0.301005
v 0.085295 -0.197781 0.318940
v 0.040123 0.080915 0.129203
v 0.223263 -0.039109 0.222386
v -0.122920 -0.054291 0.259169
v 0.089301 0.002166 0.348833
v 0.089304 -0.032358 0.348354
v -0.133498 -0.118863 0.176599
v 0.156912 -0.203163 0.157132
v 0.191845 -0.167394 0.134926
v 0.117660 -0.079448 0.208584
v -0.176416 -0.114798 0.180010
v -0.187403 -0.057218 0.189562
v -0.045953 -0.144258 0.230592
v -0.081771 -0.002826 0.253412
v -0.081631 -0.050422 0.315140
v 0.152226 -0.000963 0.226030
v -0.032157 -0.231050 0.176769
v -0.111879 -0.096563 0.150530
v -0.164354 -0.055517 0.238527
v 0.110978 0.079722 0.297076
v -0.203437 -0.112991 0.194042
v 0.233727 -0.034083 0.143685
v 0.156912 0.067864 0.157132
v 0.168512 -0.118255 0.066497
v 0.084049 -0.074724 0.341251
vt 0.031250 0.500000
vt 0.031250 0.500000
vt 0.031250 0.500000
vt 0.031250 0.500000
vt 0.031250 0.500000
vt 0.031250 0.500000
vt 0.031250 0.500000
vt 0.031250 0.500000
vt 0.031250 0.500000
vt 0.031250 0.500000
vt 0.031250 0.500000
vt 0.031250 0.500000
vt 0.031250 0.500000
vt 0.031250 0.500000
vt 0.031250 0.500000
vt 0.031250 0.500000
vt 0.031250 0.500000
vt 0.031250 0.500000
vt 0.031250 0.500000
vt 0.031250 0.500000
vt 0.031250 0.500000
vt 0.031250 0.500000
vt 0.031250 0.500000
vt 0.031250 0.500000
vt 0.031250 0.500000
vt 0.031250 0.500000
vt 0.031250 0.500000
vt 0.031250 0.500000
vt 0.031250 0.500000
vt 0.031250 0.500000
vt 0.031250 0.500000
vt 0.031250 0.500000
vt 0.031250 0.500000
vt 0.031250 0.500000
vt 0.031250 0.500000
vt 0.031250 0.500000
vt 0.031250 0.500000
vt 0.031250 0.500000
vt 0.031250 0.500000
vt 0.031250 0.500000
vt 0.031250 0.500000
vt 0.031250 0.500000
vt 0.031250 0.500000
vt 0.031250 0.500000
vt 0.031250 0.500000
vt 0.031250 0.500000
vt 0.031250 0.500000
vt 0.031250 0.500000
vt 0.031250 0.500000
vt 0.031250 0.500000
vt 0.031250 0.500000
vt 0.031250 0.500000
vt 0.031250 0.500000
vt 0.031250 0.500000
vt 0.031250 0.500000
vt 0.031250 0.500000
vt 0.031250 0.500000
vt 0.031250 0.500000
vt 0.031250 0.500000
vt 0.031250 0.500000
vt 0.031250 0.500000
vt 0.031250 0.500000
vt 0.031250 0.500000
vt 0.031250 0.500000
vt 0.031250 0.500000
vt 0.031250 0.500000
vt 0.031250 0.500000
vt 0.031250 0.500000
vt 0.031250 0.500000
vt 0.031250 0.500000
vt 0.031250 0.500000
vt 0.031250 0.500000
vt 0.031250 0.500000
vt 0.031250 0.500000
vt 0.031250 0.500000
vt 0.031250 0.500000
vt 0.031250 0.500000
vt 0.031250 0.500000
vt 0.031250 0.500000
vt 0.031250 0.500000
vt 0.031250 0.500000
vt 0.031250 0.500000
vt 0.031250 0.500000
vt 0.031250 0.500000
vt 0.031250 0.500000
vt 0.031250 0.500000
vt 0.031250 0.500000
vt 0.031250 0.500000
vt 0.031250 0.500000
vt 0.031250 0.500000
vt 0.031250 0.500000
vt 0.031250 0.500000
vt 0.031250 0.500000
vt 0.031250 0.500000
vt 0.031250 0.500000
vt 0.031250 0.500000
vt 0.031250 0.500000
vt 0.031250 0.500000
vt 0.031250 0.500000
vt 0.031250 0.500000
vt 0.031250 0.500000
vt 0.031250 0.500000
vt 0.031250 0.500000
vt 0.031250 0.500000
vt 0.031250 0.500000
vt 0.031250 0.500000
vt 0.031250 0.500000
vt 0.031250 0.500000
vt 0.031250 0.500000
vt 0.031250 0.500000
vt 0.031250 0.500000
vt 0.031250 0.500000
vt 0.031250 0.500000
vt 0.031250 0.500000
vt 0.031250 0.500000
vt 0.031250 0.500000
vt 0.031250 0.500000
vt 0.031250 0.500000
vt 0.031250 0.500000
vt 0.031250 0.500000
vt 0.031250 0.500000
vt 0.031250 0.500000
vt 0.031250 0.500000
vt 0.031250 0.500000
vt 0.031250 0.500000
vt 0.031250 0.500000
vt 0.031250 0.500000
vt 0.031250 0.500000
vt 0.031250 0.500000
vt 0.031250 0.500000
vt 0.031250 0.500000
vt 0.031250 0.500000
vt 0.031250 0.500000
vt 0.031250 0.500000
vt 0.031250 0.500000
vt 0.031250 0.500000
vt 0.031250 0.500000
vt 0.031250 0.500000
vt 0.031250 0.500000
vt 0.031250 0.500000
vt 0.031250 0.500000
vt 0.031250 0.500000
vt 0.031250 0.500000
vt 0.031250 0.500000
vt 0.031250 0.500000
vt 0.031250 0.500000
vt 0.031250 0.500000
vt 0.031250 0.500000
vt 0.031250 0.500000
vt 0.031250 0.500000
vt 0.031250 0.500000
vt 0.031250 0.500000
vt 0.031250 0.500000
vt 0.031250 0.500000
vt 0.031250 0.500000
vt 0.031250 0.500000
vt 0.031250 0.500000
vt 0.031250 0.500000
vt 0.031250 0.500000
vt 0.031250 0.500000
vt 0.031250 0.500000
vt 0.031250 0.500000
vt 0.031250 0.500000
vt 0.031250 0.500000
vt 0.031250 0.500000
vt 0.031250 0.500000
vt 0.031250 0.500000
vt 0.031250 0.500000
vt 0.031250 0.500000
vt 0.031250 0.500000
vt 0.031250 0.500000
vt 0.031250 0.500000
vt 0.031250 0.500000
vt 0.031250 0.500000
vt 0.031250 0.500000
vt 0.031250 0.500000
vt 0.031250 0.500000
vt 0.031250 0.500000
vt 0.031250 0.500000
vt 0.031250 0.500000
vt 0.031250 0.500000
vt 0.031250 0.500000
vt 0.031250 0.500000
vt 0.031250 0.500000
vt 0.031250 0.500000
vt 0.031250 0.500000
vt 0.031250 0.500000
vt 0.031250 0.500000
vt 0.031250 0.500000
vt 0.031250 0.500000
vt 0.031250 0.500000
vt 0.031250 0.500000
vt 0.031250 0.500000
vt 0.031250 0.500000
vt 0.031250 0.500000
vt 0.031250 0.500000
vt 0.031250 0.500000
vt 0.031250 0.500000
vt 0.031250 0.500000
vt 0.031250 0.500000
vt 0.031250 0.500000
vt 0.031250 0.500000
vt 0.031250 0.500000
vt 0.031250 0.500000
vt 0.031250 0.500000
vt 0.031250 0.500000
vt 0.031250 0.500000
vt 0.031250 0.500000
vt 0.031250 0.500000
vt 0.031250 0.500000
vt 0.031250 0.500000
vt 0.031250 0.500000
vt 0.031250 0.500000
vt 0.031250 0.500000
vt 0.031250 0.500000
vt 0.031250 0.500000
vt 0.031250 0.500000
vt 0.031250 0.500000
vt 0.031250 0.500000
vt 0.031250 0.500000
vt 0.031250 0.500000
vt 0.031250 0.500000
vt 0.031250 0.500000
vt 0.031250 0.500000
vt 0.031250 0.500000
vt 0.031250 0.500000
vt 0.031250 0.500000
vt 0.031250 0.500000
vt 0.031250 0.500000
vt 0.031250 0.500000
vt 0.031250 0.500000
vt 0.031250 0.500000
vt 0.031250 0.500000
vt 0.031250 0.500000
vt 0.031250 0.500000
vt 0.031250 0.500000
vt 0.031250 0.500000
vt 0.031250 0.500000
vt 0.031250 0.500000
vt 0.031250 0.500000
vt 0.031250 0.500000
vt 0.031250 0.500000
vt 0.031250 0.500000
vt 0.031250 0.500000
vt 0.031250 0.500000
vt 0.031250 0.500000
vt 0.031250 0.500000
vt 0.031250 0.500000
vt 0.031250 0.500000
vt 0.031250 0.500000
vt 0.031250 0.500000
vt 0.031250 0.500000
vt 0.031250 0.500000
vt 0.031250 0.500000
vt 0.031250 0.500000
vt 0.031250 0.500000
vt 0.031250 0.500000
vt 0.031250 0.500000
vt 0.031250 0.500000
vt 0.031250 0.500000
vt 0.031250 0.500000
vt 0.031250 0.500000
vt 0.031250 0.500000
vt 0.031250 0.500000
vt 0.031250 0.500000
vt 0.031250 0.500000
vt 0.031250 0.500000
vt 0.031250 0.500000
vt 0.031250 0.500000
vt 0.031250 0.500000
vt 0.031250 0.500000
vt 0.031250 0.500000
vt 0.031250 0.500000
vt 0.031250 0.500000
vt 0.031250 0.500000
vt 0.031250 0.500000
vt 0.031250 0.500000
vt 0.031250 0.500000
vt 0.031250 0.500000
vt 0.031250 0.500000
vt 0.031250 0.500000
vt 0.031250 0.500000
vt 0.031250 0.500000
vt 0.031250 0.500000
vt 0.031250 0.500000
vt 0.031250 0.500000
vt 0.031250 0.500000
vt 0.031250 0.500000
vt 0.031250 0.500000
vt 0.031250 0.500000
vt 0.031250 0.500000
vt 0.031250 0.500000
vt 0.031250 0.500000
vt 0.031250 0.500000
vt 0.031250 0.500000
vt 0.031250 0.500000
vt 0.031250 0.500000
vt 0.031250 0.500000
vt 0.031250 0.500000
vt 0.031250 0.500000
vt 0.031250 0.500000
vt 0.031250 0.500000
vt 0.031250 0.500000
vt 0.031250 0.500000
vt 0.031250 0.500000
vt 0.031250 0.500000
vt 0.031250 0.500000
vt 0.031250 0.500000
vt 0.031250 0.500000
vt 0.031250 0.500000
vt 0.031250 0.500000
vt 0.031250 0.500000
vt 0.031250 0.500000
vt 0.031250 0.500000
vt 0.031250 0.500000
vt 0.031250 0.500000
vt 0.031250 0.500000
vt 0.031250 0.500000
vt 0.031250 0.500000
vt 0.031250 0.500000
vt 0.031250 0.500000
vt 0.031250 0.500000
vt 0.031250 0.500000
vt 0.031250 0.500000
vt 0.031250 0.500000
vt 0.031250 0.500000
vt 0.031250 0.500000
vt 0.031250 0.500000
vt 0.031250 0.500000
vt 0.031250 0.500000
vt 0.031250 0.500000
vt 0.031250 0.500000
vt 0.031250 0.500000
vt 0.031250 0.500000
vt 0.031250 0.500000
vt 0.031250 0.500000
vt 0.031250 0.500000
vt 0.031250 0.500000
vt 0.031250 0.500000
vt 0.031250 0.500000
vt 0.031250 0.500000
vt 0.031250 0.500000
vt 0.031250 0.500000
vt 0.031250 0.500000
vt 0.031250 0.500000
vt 0.031250 0.500000
vt 0.031250 0.500000
vt 0.031250 0.500000
vt 0.031250 0.500000
vt 0.031250 0.500000
vt 0.031250 0.500000
vt 0.031250 0.500000
vt 0.031250 0.500000
vt 0.031250 0.500000
vt 0.031250 0.500000
vt 0.031250 0.500000
vt 0.031250 0.500000
vt 0.031250 0.500000
vt 0.031250 0.500000
vt 0.031250 0.500000
vt 0.031250 0.500000
vt 0.031250 0.500000
vt 0.031250 0.500000
vt 0.031250 0.500000
vt 0.031250 0.500000
vt 0.031250 0.500000
vt 0.031250 0.500000
vt 0.031250 0.500000
vt 0.031250 0.500000
vt 0.031250 0.500000
vt 0.031250 0.500000
vt 0.031250 0.500000
vt 0.031250 0.500000
vt 0.031250 0.500000
vt 0.031250 0.500000
vt 0.031250 0.500000
vt 0.031250 0.500000
vt 0.031250 0.500000
vt 0.031250 0.500000
vt 0.031250 0.500000
vt 0.031250 0.500000
vt 0.031250 0.500000
vt 0.031250 0.500000
vt 0.031250 0.500000
vt 0.031250 0.500000
vt 0.031250 0.500000
vt 0.031250 0.500000
vt 0.031250 0.500000
vt 0.031250 0.500000
vt 0.031250 0.500000
vt 0.031250 0.500000
vt 0.031250 0.500000
vt 0.031250 0.500000
vt 0.031250 0.500000
vt 0.031250 0.500000
vt 0.031250 0.500000
vt 0.031250 0.500000
vt 0.031250 0.500000
vt 0.031250 0.500000
vt 0.031250 0.500000
vt 0.031250 0.500000
vt 0.031250 0.500000
vt 0.031250 0.500000
vt 0.031250 0.500000
vt 0.031250 0.500000
vt 0.031250 0.500000
vt 0.031250 0.500000
vt 0.031250 0.500000
vt 0.031250 0.500000
vt 0.031250 0.500000
vt 0.031250 0.500000
vt 0.031250 0.500000
vt 0.031250 0.500000
vt 0.031250 0.500000
vt 0.031250 0.500000
vt 0.031250 0.500000
vt 0.031250 0.500000
vt 0.031250 0.500000
vt 0.031250 0.500000
vt 0.031250 0.500000
vt 0.031250 0.500000
vt 0.031250 0.500000
vt 0.031250 0.500000
vt 0.031250 0.500000
vt 0.031250 0.500000
vt 0.031250 0.500000
vt 0.031250 0.500000
vt 0.031250 0.500000
vt 0.031250 0.500000
vt 0.031250 0.500000
vt 0.031250 0.500000
vt 0.031250 0.500000
vt 0.031250 0.500000
vt 0.031250 0.500000
vt 0.031250 0.500000
vt 0.031250 0.500000
vt 0.031250 0.500000
vt 0.031250 0.500000
vt 0.031250 0.500000
vt 0.031250 0.500000
vt 0.031250 0.500000
vt 0.031250 0.500000
vt 0.031250 0.500000
vt 0.031250 0.500000
vt 0.031250 0.500000
vt 0.031250 0.500000
vt 0.031250 0.500000
vt 0.031250 0.500000
vt 0.031250 0.500000
vt 0.031250 0.500000
vt 0.031250 0.500000
vt 0.031250 0.500000
vt 0.031250 0.500000
vt 0.031250 0.500000
vt 0.031250 0.500000
vt 0.031250 0.500000
vt 0.031250 0.500000
vt 0.031250 0.500000
vt 0.031250 0.500000
vt 0.031250 0.500000
vt 0.031250 0.500000
vt 0.031250 0.500000
vt 0.031250 0.500000
vt 0.031250 0.500000
vt 0.031250 0.500000
vt 0.031250 0.500000
vt 0.031250 0.500000
vt 0.031250 0.500000
vt 0.031250 0.500000
vt 0.031250 0.500000
vt 0.031250 0.500000
vt 0.031250 0.500000
vt 0.031250 0.500000
vt 0.031250 0.500000
vn -0.323543 -0.020309 -0.945996
vn 0.197933 0.326189 -0.924350
vn 0.024812 0.040545 -0.998870
vn 0.237184 0.901378 -0.362299
vn -0.183267 0.983006 -0.010645
vn 0.051087 -0.993003 -0.106467
vn -0.151724 -0.834243 -0.530112
vn 0.844361 0.478958 0.240114
vn 0.687761 -0.361721 0.629399
vn 0.845263 -0.503017 0.180290
vn 0.158880 -0.844284 -0.511802
vn 0.215687 -0.793803 -0.568644
vn 0.528881 -0.608075 -0.592055
vn 0.754393 0.325443 0.570069
vn 0.010488 -0.999728 0.020815
vn 0.042346 -0.998858 -0.022111
vn -0.292830 -0.916307 -0.273189
vn -0.393419 -0.542923 0.741927
vn -0.886740 -0.449281 -0.108807
vn -0.443092 0.383646 0.810238
vn -0.762584 0.353434 -0.541803
vn -0.849323 0.053985 -0.525105
vn -0.698489 0.712817 -0.063285
vn -0.966611 0.075051 -0.245011
vn -0.096873 -0.979807 -0.174909
vn -0.903903 0.427462 -0.015339
vn -0.278777 0.657188 0.700277
vn -0.168269 0.959831 -0.224520
vn -0.265750 0.907623 0.324958
vn 0.270170 0.005992 -0.962794
vn 0.542954 0.440445 -0.714989
vn -0.304860 -0.128224 -0.943726
vn -0.216488 0.025383 -0.975955
vn -0.588933 0.710222 0.385672
vn 0.236091 -0.784049 -0.574046
vn -0.208757 -0.976715 0.049484
vn -0.044615 0.958594 0.281259
vn 0.130593 0.959891 -0.248102
vn -0.290564 0.956815 -0.008854
vn -0.036624 0.933078 0.357804
vn 0.285487 0.535246 0.794990
vn 0.244077 -0.750044 0.614704
vn 0.168871 0.032684 -0.985096
vn 0.917647 0.041319 -0.395242
vn 0.408696 -0.095836 -0.907625
vn -0.234880 -0.819294 0.523058
vn -0.413296 -0.386320 -0.824587
vn -0.386176 -0.287190 -0.876579
vn -0.052872 0.130817 0.989996
vn 0.048138 -0.838378 0.542959
vn -0.954524 -0.099861 0.280912
vn 0.904661 0.320137 0.281247
vn -0.744746 -0.217254 -0.630995
vn -0.053095 -0.250547 -0.966647
vn -0.136551 0.123185 -0.982944
vn -0.072694 0.532363 0.843389
vn 0.042166 0.495989 0.867304
vn 0.347011 0.371816 -0.861009
vn -0.742296 -0.475219 0.472401
vn 0.403478 0.914876 -0.014431
vn 0.499336 0.815854 0.291626
vn 0.554380 0.104884 0.825629
vn 0.729863 -0.268429 0.628686
vn 0.573049 -0.493310 0.654416
vn 0.954495 -0.064616 0.291143
vn -0.793521 -0.198154 -0.575377
vn 0.507066 0.502086 0.700567
vn -0.022974 -0.977710 -0.208700
vn -0.008076 0.412515 -0.910915
vn 0.369381 -0.871852 -0.321608
vn 0.046978 -0.916925 -0.396285
vn -0.764505 -0.045792 0.642989
vn -0.703757 0.591731 0.393166
vn 0.920022 0.255895 -0.296778
vn -0.078529 -0.535199 0.841068
vn -0.419219 -0.896294 0.144615
vn 0.039681 0.995294 -0.088401
vn 0.048550 -0.995861 -0.076840
vn -0.821552 0.344372 -0.454378
vn -0.008308 0.116613 -0.993143
vn 0.158950 -0.940426 0.300556
vn 0.700346 -0.474038 -0.533669
vn -0.138538 -0.940644 -0.309831
vn 0.218665 0.357281 -0.908040
vn -0.401596 0.265646 -0.876443
vn 0.740361 0.514674 0.432407
vn 0.660696 -0.500090 -0.559812
vn -0.168012 -0.980263 0.104195
vn -0.494042 -0.819241 0.291147
vn -0.316892 -0.932124 0.175281
vn -0.828219 -0.505812 0.241263
vn 0.844234 0.184477 0.503227
vn 0.253821 -0.930147 -0.265334
vn -0.357386 -0.683668 0.636297
vn -0.346720 0.326352 -0.879363
vn -0.201899 -0.774047 0.600074
vn 0.303096 0.279874 -0.910935
vn -0.631157 0.125950 -0.765361
vn 0.838608 -0.544670 0.008382
vn 0.792559 -0.489023 0.364290
vn 0.004297 -0.750206 -0.661191
vn -0.337852 -0.775054 -0.533992
vn 0.057746 -0.525743 -0.848681
vn -0.036100 0.672770 0.738971
vn -0.144237 0.429030 0.891700
vn -0.175654 -0.982274 -0.065452
vn -0.219230 0.877686 0.426152
vn -0.105441 -0.994390 -0.008367
vn -0.151070 0.954741 0.256217
vn -0.481587 0.488686 -0.727502
vn -0.984238 0.176247 -0.014567
vn -0.907558 -0.313598 -0.279276
vn -0.096723 0.129209 0.986889
vn 0.017999 -0.097104 0.995111
vn -0.551667 -0.151962 0.820104
vn 0.908361 -0.368775 0.197192
vn 0.467496 -0.865350 -0.180600
vn -0.277099 0.503357 -0.818442
vn -0.475003 0.453143 -0.754343
vn 0.101432 0.158585 0.982121
vn -0.617469 0.005666 -0.786575
vn -0.523496 0.162864 -0.836318
vn 0.042783 0.980065 -0.194018
vn -0.946977 -0.318704 -0.040771
vn 0.247759 -0.968135 -0.036472
vn 0.267895 -0.307031 -0.913217
vn -0.468241 0.795015 -0.385618
vn -0.736095 0.192761 0.648851
vn -0.259169 0.941883 0.213747
vn -0.279115 0.846563 0.453240
vn -0.291445 0.395588 0.870959
vn 0.087564 -0.446037 0.890721
vn -0.560613 0.250782 -0.789191
vn -0.218373 0.504778 -0.835172
vn -0.901844 -0.309365 -0.301613
vn -0.490600 0.338174 -0.803088
vn -0.896895 -0.222892 -0.381966
vn -0.348310 0.720535 0.599591
vn 0.439792 -0.620296 -0.649473
vn 0.490326 0.077543 0.868083
vn -0.588901 0.781396 0.206435
vn -0.881445 0.444491 0.159632
vn -0.948267 -0.304236 0.090722
vn -0.829019 -0.543236 -0.132748
vn 0.694376 0.696411 0.181254
vn 0.746880 0.554348 0.367243
vn 0.813129 -0.354057 0.462023
vn -0.304905 -0.310295 -0.900417
vn -0.668046 -0.403413 -0.625278
vn 0.007317 -0.986600 0.162991
vn -0.142931 0.753596 -0.641610
vn -0.612055 0.338261 -0.714820
vn -0.956504 0.279948 -0.082034
vn 0.438414 0.486985 -0.755407
vn 0.005780 -0.537759 -0.843079
vn -0.811991 0.574007 -0.105769
vn 0.102325 -0.973589 -0.204093
vn 0.191922 0.338222 -0.921288
vn 0.038245 0.210539 -0.976837
vn 0.039237 0.855024 0.517102
vn 0.804492 -0.356061 0.475409
vn 0.362015 0.885247 0.292033
vn 0.717508 0.696545 -0.002648
vn -0.510457 -0.441861 -0.737694
vn -0.942060 -0.335395 -0.005808
vn -0.768799 0.617001 0.168101
vn 0.552348 -0.813718 -0.181039
vn 0.337831 -0.813689 -0.473055
vn -0.195362 -0.835957 -0.512844
vn -0.184305 0.982800 -0.011694
vn 0.528411 0.570556 -0.628687
vn 0.394990 0.844105 -0.362587
vn -0.813924 -0.375531 0.443287
vn -0.753485 0.300506 0.584771
vn -0.842970 0.377218 0.383547
vn 0.116168 0.581013 0.805561
vn -0.280198 -0.954644 -0.100714
vn -0.043015 0.227966 -0.972718
vn 0.124063 -0.514112 -0.848703
vn 0.397284 -0.916447 -0.047856
vn -0.219147 0.854674 0.470645
vn -0.263166 0.792049 0.550819
vn -0.101305 0.771259 0.628409
vn -0.880256 0.084212 0.466966
vn 0.071299 0.761864 0.643801
vn -0.148417 0.564817 0.811760
vn 0.610703 0.445781 0.654463
vn 0.983297 -0.053336 0.174018
vn 0.560498 -0.771201 0.301814
vn 0.997911 -0.002410 0.064552
vn 0.858689 -0.496859 -0.125636
vn -0.371163 0.729326 -0.574735
vn -0.450804 0.335739 0.827076
vn -0.566682 0.285326 0.772956
vn 0.010488 0.999728 0.020815
vn -0.075481 -0.867953 0.490876
vn -0.089783 -0.568873 0.817510
vn 0.116168 -0.581013 0.805561
vn -0.144237 -0.429030 0.891700
vn -0.069462 -0.160724 0.984552
vn -0.285257 0.519074 0.805724
vn 0.188929 -0.422901 -0.886262
vn 0.740361 -0.514674 0.432407
vn 0.644142 -0.465011 0.607327
vn 0.297224 -0.436247 0.849321
vn -0.463691 0.784493 -0.411779
vn 0.559832 0.821684 -0.106878
vn -0.634291 -0.183417 -0.751021
vn 0.305649 0.388238 0.869396
vn 0.222191 -0.266351 0.937917
vn 0.495582 0.271307 0.825101
vn 0.554380 -0.104884 0.825629
vn 0.644142 0.465011 0.607327
vn 0.035091 -0.105880 0.993760
vn 0.726191 -0.594712 0.344912
vn -0.155434 0.702111 0.694896
vn 0.283280 0.665368 0.690680
vn 0.259541 0.666598 -0.698775
vn 0.939011 0.343846 0.005315
vn -0.522905 0.850669 0.054162
vn 0.295962 -0.736608 0.608125
vn 0.842376 0.236991 -0.483981
vn 0.572451 0.575142 -0.584390
vn 0.408485 0.374469 0.832414
vn 0.582905 0.489861 0.648273
vn -0.738247 0.429083 0.520462
vn -0.632212 0.772472 -0.059949
vn 0.222877 0.740143 -0.634441
vn 0.889905 0.238049 0.389103
vn 0.255217 0.076484 -0.963854
vn 0.131409 0.254880 -0.958002
vn 0.145531 -0.149090 -0.978056
vn 0.354218 0.549363 0.756789
vn 0.691512 -0.357425 -0.627740
vn 0.104423 -0.470626 0.876132
vn 0.172927 -0.314259 0.933455
vn -0.142931 -0.753596 -0.641610
vn -0.210132 0.426143 -0.879913
vn -0.089783 0.568873 0.817510
vn 0.156010 -0.007881 -0.987724
vn 0.071668 0.651465 -0.755286
vn 0.591136 0.689484 0.418534
vn -0.036100 -0.672770 0.738971
vn -0.285257 -0.519074 0.805724
vn -0.038461 0.985621 -0.164533
vn 0.667731 -0.463511 0.582488
vn 0.495582 -0.271307 0.825101
vn -0.187748 0.622856 -0.759474
vn -0.154035 -0.879121 -0.451021
vn -0.632014 0.757860 -0.161886
vn -0.404213 0.210952 -0.890006
vn 0.754592 -0.588365 0.290546
vn 0.591136 -0.689484 0.418534
vn 0.367817 -0.099912 0.924515
vn 0.251461 0.394571 -0.883788
vn 0.228542 0.689414 -0.687370
vn 0.691512 0.357425 -0.627740
vn -0.321111 0.919157 0.228120
vn -0.102287 -0.098912 0.989825
vn 0.115519 -0.274998 0.954480
vn 0.467434 0.860875 -0.200997
vn -0.465631 0.155098 -0.871282
vn 0.234273 -0.158206 -0.959212
vn 0.784013 -0.534899 -0.314971
vn 0.636300 0.188234 -0.748124
vn -0.013162 0.986644 0.162361
vn 0.328997 -0.483662 -0.811069
vn -0.971427 0.232928 -0.045534
vn -0.396039 -0.277716 -0.875230
vn 0.920259 0.025783 0.390460
vn 0.733708 0.000452 0.679464
vn 0.720888 0.297387 0.626004
vn 0.219310 -0.040799 -0.974802
vn 0.856433 0.354371 0.375424
vn -0.144499 -0.720880 0.677828
vn -0.304658 -0.731570 0.609909
vn -0.169616 -0.943286 0.285379
vn -0.285797 -0.578690 0.763831
vn -0.723150 -0.521842 0.452477
vn 0.673834 -0.354915 0.648061
vn 0.177822 -0.190457 -0.965456
vn 0.483582 -0.374601 -0.791089
vn 0.642297 0.754121 -0.136955
vn -0.080196 0.062331 0.994828
vn -0.208563 0.848046 -0.487154
vn -0.249435 0.948658 -0.194501
vn -0.240201 -0.474971 0.846585
vn 0.021403 0.704099 -0.709779
vn -0.386100 0.862598 -0.326880
vn -0.955920 0.286412 -0.064690
vn -0.131298 0.984251 0.118372
vn 0.141941 -0.892981 -0.427128
vn -0.037587 -0.227776 -0.972988
vn -0.238740 -0.521972 -0.818870
vn 0.069251 -0.994255 -0.081616
vn -0.954032 0.129213 -0.270418
vn 0.996425 -0.037540 0.075686
vn 0.103675 -0.992695 0.061707
vn 0.378658 0.000000 0.925537
vn -0.956504 -0.279948 -0.082034
vn -0.820349 0.571682 0.014368
vn -0.632014 -0.757860 -0.161886
vn -0.444983 0.712055 0.543109
vn -0.357043 -0.746120 -0.561983
vn 0.349720 -0.603760 -0.716359
vn -0.626590 0.504979 0.593617
vn 0.716254 0.658433 -0.231184
vn -0.244030 0.934599 -0.258793
vn -0.985575 0.166034 0.032781
vn 0.068157 0.607910 0.791075
vn -0.884878 -0.219486 0.410873
vn -0.101763 0.741374 0.663332
vn 0.766455 0.250019 0.591639
vn 0.530072 0.816835 -0.227606
vn 0.337831 0.813689 -0.473055
vn -0.028747 -0.337093 -0.941032
vn -0.028983 -0.390151 -0.920295
vn -0.028471 0.998494 0.046888
vn 0.069251 0.994255 -0.081616
vn 0.054602 0.940994 -0.333988
vn 0.435451 -0.881828 -0.181004
vn -0.848538 -0.482818 0.216497
vn -0.811991 -0.574007 -0.105769
vn -0.567371 -0.749362 0.341390
vn -0.765246 -0.526968 -0.369733
vn -0.550586 -0.200151 0.810429
vn 0.423884 -0.195702 -0.884321
vn 0.402104 -0.633725 -0.660837
vn -0.948701 -0.314700 0.030497
vn -0.773445 -0.505805 0.382028
vn 0.362015 -0.885247 0.292033
vn 0.357501 -0.414322 -0.836977
vn -0.493749 -0.658582 0.567874
vn -0.550586 0.200151 0.810429
vn 0.729725 -0.669150 -0.140500
vn 0.680324 -0.729227 -0.073395
vn 0.288064 -0.905855 0.310557
vn -0.450804 -0.335739 0.827076
vn -0.606539 -0.276551 0.745406
vn -0.864519 0.400099 -0.304184
vn -0.306664 0.899064 -0.312477
vn 0.295962 0.736608 0.608124
vn 0.065084 0.988865 -0.133832
vn 0.788019 0.501836 -0.356631
vn -0.606851 -0.698467 -0.379310
vn -0.225196 -0.924206 -0.308432
vn -0.884455 -0.426877 -0.188457
vn -0.391442 -0.628743 0.671905
vn -0.101305 -0.771259 0.628409
vn -0.336441 -0.692030 0.638672
vn 0.287032 0.396728 -0.871905
vn -0.141473 0.933928 -0.328275
vn -0.175117 0.900543 0.397940
vn -0.524261 0.517422 -0.676332
vn 0.800832 -0.590417 -0.100380
vn 0.874246 0.454157 0.171566
vn 0.833875 0.523515 -0.174883
vn 0.141743 0.989903 0.000707
vn 0.051087 0.993003 -0.106467
vn -0.530440 0.710756 0.462017
vn 0.298025 -0.499955 -0.813158
vn -0.008158 0.398625 -0.917078
vn -0.454620 -0.341686 -0.822539
vn -0.551667 0.151962 0.820104
vn -0.239162 0.474900 0.846919
vn -0.150599 -0.918228 0.366302
vn 0.287943 0.476864 0.830476
vn 0.286008 0.014363 -0.958120
vn -0.437781 0.386787 -0.811630
vn -0.168012 0.980263 0.104195
vn 0.666199 -0.698962 -0.260061
vn -0.279115 -0.846563 0.453239
vn -0.259169 -0.941883 0.213748
vn 0.948236 -0.290684 -0.127873
vn -0.698205 -0.286875 -0.655906
vn -0.630352 0.438341 -0.640713
vn -0.044615 -0.958594 0.281259
vn 0.360290 -0.302980 -0.882266
vn 0.286008 -0.014363 -0.958120
vn 0.997911 0.002410 0.064552
vn 0.005343 -0.987843 -0.155361
vn 0.119106 -0.820068 -0.559734
vn -0.217319 0.796152 0.564725
vn -0.560613 -0.250782 -0.789191
vn -0.262165 -0.449312 -0.854042
vn 0.408485 -0.374469 0.832414
vn -0.101615 -0.862223 0.496232
vn -0.680271 -0.719232 0.141198
vn 0.770240 0.626828 -0.117550
vn 0.837571 -0.189884 -0.512268
vn -0.475003 -0.453143 -0.754343
vn -0.801896 -0.594956 0.054693
vn -0.880265 0.425977 -0.208992
vn -0.145012 0.773281 0.617259
vn -0.304657 0.731570 0.609909
vn 0.071299 -0.761864 0.643801
vn -0.887206 0.440650 -0.136724
vn -0.590102 0.664959 0.457830
vn 0.281339 -0.800043 -0.529886
vn -0.428432 -0.299259 0.852578
vn -0.578143 -0.807033 -0.120202
vn -0.470274 -0.805662 -0.360211
vn -0.235701 0.713715 -0.659588
vn 0.417279 0.908041 -0.036593
vn 0.567878 0.427224 -0.703558
vn 0.903747 0.327612 0.275520
vn -0.814124 0.579950 0.029310
vn 0.573049 0.493310 0.654416
vn -0.163100 -0.986049 0.033254
vn -0.363537 -0.761545 0.536554
vn -0.253764 -0.956935 -0.140998
vn -0.111273 -0.910682 -0.397841
vn 0.857317 0.382226 -0.344834
vn 0.667731 0.463511 0.582488
vn 0.490421 -0.599376 0.632641
vn -0.351218 -0.033738 -0.935686
vn 0.006148 0.875167 -0.483783
vn -0.428432 0.299260 0.852578
vn 0.501362 -0.434825 0.748040
vn -0.335634 0.882079 -0.330585
vn 0.729725 0.669150 -0.140501
vn -0.738247 -0.429082 0.520461
vn -0.148417 -0.564817 0.811760
vn -0.238740 0.521972 -0.818870
vn -0.350457 0.848846 -0.395779
vn 0.790382 -0.483307 -0.376445
vn -0.881638 -0.186660 0.433442
vn -0.880541 -0.399729 -0.254686
vn -0.896896 0.222892 -0.381965
vn 0.009584 -0.931478 0.363672
vn -0.140728 0.513850 -0.846259
vn -0.145012 -0.773281 0.617259
vn 0.804492 0.356061 0.475409
vn 0.952241 -0.081400 -0.294297
vn 0.503972 -0.776424 -0.378389
vn 0.580429 0.246520 -0.776099
vn 0.088956 -0.994842 -0.048737
vn 0.447957 -0.467331 0.762192
vn 0.533598 0.831659 -0.153675
vn 0.695417 -0.568221 0.439910
vn 0.311222 -0.322013 -0.894119
vn 0.920259 -0.025782 0.390459
vn -0.150599 0.918228 0.366302
vn 0.432239 0.503505 -0.748099
vn -0.578143 0.807033 -0.120202
vn 0.144113 -0.985228 -0.092504
vn 0.792559 0.489023 0.364290
vn 0.468003 0.883721 0.003289
vn 0.514307 -0.653876 0.554918
vn 0.253071 -0.603654 0.756013
vn 0.004297 0.750206 -0.661191
vn 0.881314 -0.307022 0.359198
vn 0.149140 -0.988641 -0.018601
vn 0.272525 0.225634 0.935318
vn 0.227973 0.005432 0.973652
vn -0.286705 -0.328023 -0.900112
vn 0.425617 -0.813666 -0.395976
vn 0.788019 -0.501836 -0.356631
vn -0.292830 0.916307 -0.273189
vn -0.328325 -0.408736 -0.851550
vn -0.407426 -0.902445 -0.139989
vn -0.229778 -0.807574 0.543163
vn 0.448061 -0.662065 -0.600759
vn 0.037162 -0.975374 -0.217403
vn -0.880540 0.399728 -0.254687
vn -0.228150 -0.864758 -0.447371
vn -0.130606 -0.328070 -0.935581
vn 0.032115 -0.999482 0.002147
vn 0.488387 0.829479 0.271002
vn -0.846323 -0.066169 -0.528545
vn 0.952241 0.081400 -0.294297
vn 0.425617 0.813666 -0.395976
vn 0.737362 -0.017286 -0.675276
vn 0.117307 0.989206 0.087806
f 1/1/1 2/2/2 3/3/3
f 5/5/5 6/6/6 7/7/7
f 8/8/8 9/9/9 10/10/10
f 15/15/15 16/16/16 17/17/17
f 18/18/18 19/19/19 20/20/20
f 21/21/21 22/22/22 23/23/23
f 24/24/24 25/25/25 26/26/26
f 29/29/29 30/30/30 10/10/10
f 32/32/32 22/22/22 33/33/33
f 34/34/34 35/35/35 36/36/36
f 37/37/37 38/38/38 39/39/39
f 40/40/40 41/41/41 42/42/42
f 10/10/10 51/51/51 30/30/30
f 53/53/53 1/1/1 54/54/54
f 58/58/58 52/52/52 59/59/59
f 62/62/62 63/63/63 64/64/64
f 69/69/69 70/70/70 71/71/71
f 35/35/35 74/74/74 5/5/5
f 80/80/80 81/81/81 82/82/82
f 32/32/32 84/84/84 85/85/85
f 88/88/88 89/89/89 90/90/90
f 91/91/91 31/31/31 80/80/80
f 11/11/11 12/12/12 93/93/93
f 78/78/78 79/79/79 97/97/97
f 59/59/59 98/98/98 53/53/53
f 101/101/101 102/102/102 103/103/103
f 106/106/106 107/107/107 108/108/108
f 80/80/80 4/4/4 109/109/109
f 124/124/124 125/125/125 126/126/126
f 129/129/129 130/130/130 39/39/39
f 25/25/25 131/131/131 132/132/132
f 133/133/133 14/14/14 134/134/134
f 135/135/135 136/136/136 137/137/137
f 143/143/143 144/144/144 97/97/97
f 147/147/147 148/148/148 149/149/149
f 32/32/32 8/8/8 9/9/9
f 151/151/151 152/152/152 153/153/153
f 65/65/65 154/154/154 155/155/155
f 142/142/142 141/141/141 156/156/156
f 157/157/157 50/50/50 42/42/42
f 162/162/162 145/145/145 163/163/163
f 102/102/102 83/83/83 164/164/164
f 170/170/170 15/15/15 108/108/108
f 173/173/173 174/174/174 175/175/175
f 176/176/176 50/50/50 49/49/49
f 112/112/112 53/53/53 59/59/59
f 178/178/178 179/179/179 180/180/180
f 181/181/181 182/182/182 183/183/183
f 18/18/18 184/184/184 10/10/10
f 56/56/56 185/185/185 186/186/186
f 187/187/187 82/82/82 188/188/188
f 189/189/189 95/95/95 69/69/69
f 190/190/190 116/116/116 191/191/191
f 107/107/107 195/195/195 170/170/170
f 196/196/196 29/29/29 111/111/111
f 197/197/197 198/198/198 199/199/199
f 200/200/200 105/105/105 201/201/201
f 179/179/179 202/202/202 180/180/180
f 209/209/209 210/210/210 211/211/211
f 92/92/92 215/215/215 121/121/121
f 56/56/56 216/216/216 185/185/185
f 41/41/41 40/40/40 217/217/217
f 99/99/99 161/161/161 100/100/100
f 224/224/224 212/212/212 225/225/225
f 207/207/207 135/135/135 47/47/47
f 228/228/228 107/107/107 229/229/229
f 230/230/230 231/231/231 232/232/232
f 233/233/233 147/147/147 148/148/148
f 235/235/235 236/236/236 210/210/210
f 237/237/237 238/238/238 117/117/117
f 201/201/201 239/239/239 193/193/193
f 79/79/79 97/97/97 143/143/143
f 240/240/240 241/241/241 171/171/171
f 158/158/158 95/95/95 14/14/14
f 190/190/190 229/229/229 116/116/116
f 89/89/89 249/249/249 180/180/180
f 136/136/136 250/250/250 251/251/251
f 259/259/259 260/260/260 114/114/114
f 166/166/166 174/174/174 261/261/261
f 264/264/264 265/265/265 222/222/222
f 40/40/40 248/248/248 31/31/31
f 130/130/130 38/38/38 37/37/37
f 267/267/267 268/268/268 29/29/29
f 270/270/270 271/271/271 272/272/272
f 273/273/273 31/31/31 274/274/274
f 78/78/78 275/275/275 121/121/121
f 276/276/276 277/277/277 278/278/278
f 281/281/281 263/263/263 282/282/282
f 21/21/21 23/23/23 241/241/241
f 178/178/178 179/179/179 290/290/290
f 291/291/291 292/292/292 121/121/121
f 293/293/293 294/294/294 125/125/125
f 65/65/65 296/296/296 297/297/297
f 298/298/298 266/266/266 299/299/299
f 16/16/16 42/42/42 68/68/68
f 300/300/300 110/110/110 208/208/208
f 48/48/48 301/301/301 206/206/206
f 80/80/80 248/248/248 31/31/31
f 85/85/85 2/2/2 43/43/43
f 200/200/200 113/113/113 114/114/114
f 217/217/217 113/113/113 259/259/259
f 141/141/141 142/142/142 306/306/306
f 171/171/171 307/307/307 222/222/222
f 308/308/308 158/158/158 14/14/14
f 5/5/5 310/310/310 311/311/311
f 124/124/124 312/312/312 293/293/293
f 246/246/246 313/313/313 271/271/271
f 61/61/61 60/60/60 317/317/317
f 196/196/196 111/111/111 192/192/192
f 236/236/236 75/75/75 205/205/205
f 268/268/268 208/208/208 117/117/117
f 34/34/34 91/91/91 296/296/296
f 148/148/148 61/61/61 317/317/317
f 93/93/93 275/275/275 82/82/82
f 322/322/322 323/323/323 324/324/324
f 325/325/325 69/69/69 94/94/94
f 54/54/54 327/327/327 328/328/328
f 329/329/329 322/322/322 330/330/330
f 253/253/253 331/331/331 252/252/252
f 335/335/335 99/99/99 336/336/336
f 51/51/51 316/316/316 24/24/24
f 121/121/121 79/79/79 97/97/97
f 110/110/110 340/340/340 341/341/341
f 123/123/123 209/209/209 211/211/211
f 4/4/4 117/117/117 218/218/218
f 344/344/344 257/257/257 223/223/223
f 345/345/345 346/346/346 347/347/347
f 235/235/235 75/75/75 236/236/236
f 59/59/59 20/20/20 52/52/52
f 277/277/277 349/349/349 350/350/350
f 45/45/45 189/189/189 351/351/351
f 352/352/352 23/23/23 245/245/245
f 353/353/353 226/226/226 182/182/182
f 354/354/354 355/355/355 144/144/144
f 3/3/3 54/54/54 1/1/1
f 129/129/129 181/181/181 130/130/130
f 343/343/343 38/38/38 130/130/130
f 360/360/360 143/143/143 35/35/35
f 147/147/147 361/361/361 158/158/158
f 41/41/41 248/248/248 121/121/121
f 64/64/64 63/63/63 313/313/313
f 282/282/282 218/218/218 237/237/237
f 187/187/187 4/4/4 297/297/297
f 121/121/121 31/31/31 40/40/40
f 345/345/345 363/363/363 346/346/346
f 255/255/255 364/364/364 365/365/365
f 366/366/366 128/128/128 12/12/12
f 224/224/224 67/67/67 367/367/367
f 281/281/281 118/118/118 368/368/368
f 28/28/28 27/27/27 124/124/124
f 19/19/19 369/369/369 32/32/32
f 59/59/59 9/9/9 85/85/85
f 70/70/70 69/69/69 13/13/13
f 353/353/353 87/87/87 370/370/370
f 155/155/155 4/4/4 46/46/46
f 298/298/298 106/106/106 266/266/266
f 361/361/361 147/147/147 257/257/257
f 234/234/234 191/191/191 371/371/371
f 372/372/372 278/278/278 373/373/373
f 30/30/30 196/196/196 10/10/10
f 71/71/71 70/70/70 168/168/168
f 211/211/211 210/210/210 204/204/204
f 87/87/87 374/374/374 219/219/219
f 99/99/99 335/335/335 371/371/371
f 375/375/375 376/376/376 369/369/369
f 240/240/240 171/171/171 265/265/265
f 372/372/372 150/150/150 377/377/377
f 258/258/258 208/208/208 268/268/268
f 245/245/245 61/61/61 317/317/317
f 265/265/265 378/378/378 240/240/240
f 103/103/103 379/379/379 351/351/351
f 362/362/362 120/120/120 123/123/123
f 381/381/381 103/103/103 382/382/382
f 17/17/17 16/16/16 215/215/215
f 178/178/178 179/179/179 310/310/310
f 154/154/154 58/58/58 351/351/351
f 384/384/384 385/385/385 147/147/147
f 342/342/342 358/358/358 343/343/343
f 62/62/62 205/205/205 386/386/386
f 297/297/297 80/80/80 207/207/207
f 179/179/179 178/178/178 36/36/36
f 259/259/259 198/198/198 235/235/235
f 148/148/148 147/147/147 61/61/61
f 217/217/217 49/49/49 114/114/114
f 301/301/301 165/165/165 135/135/135
f 4/4/4 151/151/151 152/152/152
f 25/25/25 139/139/139 390/390/390
f 117/117/117 29/29/29 268/268/268
f 230/230/230 391/391/391 231/231/231
f 248/248/248 140/140/140 275/275/275
f 79/79/79 121/121/121 92/92/92
f 217/217/217 114/114/114 113/113/113
f 109/109/109 81/81/81 292/292/292
f 143/143/143 52/52/52 20/20/20
f 121/121/121 79/79/79 78/78/78
f 392/392/392 66/66/66 164/164/164
f 53/53/53 85/85/85 59/59/59
f 333/333/333 339/339/339 338/338/338
f 207/207/207 393/393/393 301/301/301
f 394/394/394 395/395/395 239/239/239
f 9/9/9 59/59/59 397/397/397
f 258/258/258 219/219/219 208/208/208
f 13/13/13 399/399/399 70/70/70
f 365/365/365 400/400/400 244/244/244
f 105/105/105 200/200/200 104/104/104
f 312/312/312 76/76/76 132/132/132
f 302/302/302 401/401/401 324/324/324
f 305/305/305 402/402/402 403/403/403
f 27/27/27 28/28/28 398/398/398
f 405/405/405 36/36/36 249/249/249
f 30/30/30 406/406/406 51/51/51
f 378/378/378 332/332/332 240/240/240
f 153/153/153 66/66/66 152/152/152
f 408/408/408 272/272/272 212/212/212
f 53/53/53 375/375/375 98/98/98
f 409/409/409 246/246/246 123/123/123
f 410/410/410 89/89/89 83/83/83
f 323/323/323 302/302/302 324/324/324
f 33/33/33 55/55/55 240/240/240
f 232/232/232 102/102/102 164/164/164
f 245/245/245 315/315/315 60/60/60
f 95/95/95 94/94/94 14/14/14
f 204/204/204 414/414/414 211/211/211
f 215/215/215 122/122/122 68/68/68
f 415/415/415 258/258/258 188/188/188
f 340/340/340 416/416/416 251/251/251
f 131/131/131 318/318/318 138/138/138
f 50/50/50 49/49/49 200/200/200
f 338/338/338 333/333/333 244/244/244
f 22/22/22 262/262/262 23/23/23
f 248/248/248 274/274/274 31/31/31
f 276/276/276 349/349/349 277/277/277
f 65/65/65 297/297/297 405/405/405
f 28/28/28 38/38/38 312/312/312
f 61/61/61 223/223/223 60/60/60
f 238/238/238 258/258/258 237/237/237
f 150/150/150 7/7/7 337/337/337
f 201/201/201 418/418/418 287/287/287
f 122/122/122 121/121/121 68/68/68
f 38/38/38 39/39/39 312/312/312
f 252/252/252 280/280/280 419/419/419
f 410/410/410 311/311/311 180/180/180
f 66/66/66 83/83/83 88/88/88
f 5/5/5 35/35/35 310/310/310
f 372/372/372 180/180/180 150/150/150
f 42/42/42 16/16/16 157/157/157
f 82/82/82 275/275/275 31/31/31
f 40/40/40 123/123/123 41/41/41
f 351/351/351 46/46/46 155/155/155
f 170/170/170 195/195/195 123/123/123
f 264/264/264 147/147/147 14/14/14
f 417/417/417 286/286/286 318/318/318
f 109/109/109 275/275/275 81/81/81
f 390/390/390 78/78/78 30/30/30
f 11/11/11 82/82/82 188/188/188
f 355/355/355 424/424/424 274/274/274
f 80/80/80 128/128/128 109/109/109
f 425/425/425 144/144/144 388/388/388
f 187/187/187 81/81/81 82/82/82
f 78/78/78 316/316/316 79/79/79
f 13/13/13 70/70/70 426/426/426
f 290/290/290 249/249/249 36/36/36
f 116/116/116 161/161/161 99/99/99
f 352/352/352 245/245/245 172/172/172
f 314/314/314 163/163/163 315/315/315
f 295/295/295 381/381/381 382/382/382
f 267/267/267 262/262/262 406/406/406
f 427/427/427 73/73/73 165/165/165
f 425/425/425 428/428/428 388/388/388
f 91/91/91 34/34/34 36/36/36
f 346/346/346 54/54/54 328/328/328
f 32/32/32 332/332/332 84/84/84
f 102/102/102 169/169/169 83/83/83
f 214/214/214 57/57/57 49/49/49
f 233/233/233 304/304/304 147/147/147
f 275/275/275 109/109/109 248/248/248
f 155/155/155 34/34/34 351/351/351
f 80/80/80 4/4/4 296/296/296
f 393/393/393 301/301/301 429/429/429
f 430/430/430 6/6/6 5/5/5
f 132/132/132 25/25/25 77/77/77
f 275/275/275 93/93/93 122/122/122
f 47/47/47 431/431/431 48/48/48
f 188/188/188 117/117/117 415/415/415
f 314/314/314 162/162/162 163/163/163
f 49/49/49 217/217/217 120/120/120
f 187/187/187 65/65/65 155/155/155
f 213/213/213 246/246/246 408/408/408
f 267/267/267 10/10/10 111/111/111
f 103/103/103 325/325/325 101/101/101
f 293/293/293 343/343/343 131/131/131
f 154/154/154 151/151/151 4/4/4
f 88/88/88 83/83/83 89/89/89
f 259/259/259 114/114/114 217/217/217
f 224/224/224 367/367/367 212/212/212
f 187/187/187 206/206/206 207/207/207
f 196/196/196 10/10/10 78/78/78
f 81/81/81 187/187/187 415/415/415
f 120/120/120 217/217/217 114/114/114
f 31/31/31 109/109/109 80/80/80
f 290/290/290 279/279/279 348/348/348
f 196/196/196 78/78/78 292/292/292
f 305/305/305 43/43/43 402/402/402
f 12/12/12 11/11/11 31/31/31
f 298/298/298 361/361/361 228/228/228
f 114/114/114 256/256/256 113/113/113
f 81/81/81 117/117/117 109/109/109
f 432/432/432 276/276/276 377/377/377
f 143/143/143 134/134/134 94/94/94
f 433/433/433 271/271/271 203/203/203
f 208/208/208 258/258/258 238/238/238
f 434/434/434 234/234/234 158/158/158
f 275/275/275 93/93/93 31/31/31
f 346/346/346 328/328/328 435/435/435
f 12/12/12 122/122/122 93/93/93
f 181/181/181 395/395/395 130/130/130
f 81/81/81 93/93/93 82/82/82
f 275/275/275 78/78/78 93/93/93
f 122/122/122 294/294/294 139/139/139
f 35/35/35 34/34/34 46/46/46
f 305/305/305 44/44/44 43/43/43
f 128/128/128 366/366/366 437/437/437
f 315/315/315 163/163/163 60/60/60
f 14/14/14 438/438/438 94/94/94
f 38/38/38 220/220/220 39/39/39
f 52/52/52 291/291/291 292/292/292
f 325/325/325 70/70/70 69/69/69
f 389/389/389 439/439/439 421/421/421
f 423/423/423 75/75/75 235/235/235
f 252/252/252 336/336/336 440/440/440
f 7/7/7 311/311/311 5/5/5
f 224/224/224 225/225/225 67/67/67
f 31/31/31 93/93/93 248/248/248
f 189/189/189 143/143/143 95/95/95
f 86/86/86 442/442/442 63/63/63
f 66/66/66 89/89/89 65/65/65
f 78/78/78 215/215/215 68/68/68
f 207/207/207 128/128/128 436/436/436
f 175/175/175 174/174/174 166/166/166
f 256/256/256 40/40/40 443/443/443
f 76/76/76 268/268/268 267/267/267
f 164/164/164 391/391/391 232/232/232
f 126/126/126 125/125/125 12/12/12
f 29/29/29 51/51/51 77/77/77
f 337/337/337 321/321/321 331/331/331
f 11/11/11 128/128/128 188/188/188
f 197/197/197 199/199/199 243/243/243
f 141/141/141 445/445/445 250/250/250
f 81/81/81 93/93/93 109/109/109
f 7/7/7 6/6/6 337/337/337
f 132/132/132 139/139/139 25/25/25
f 272/272/272 225/225/225 212/212/212
f 273/273/273 290/290/290 436/436/436
f 355/355/355 310/310/310 5/5/5
f 381/381/381 6/6/6 412/412/412
f 187/187/187 297/297/297 296/296/296
f 228/228/228 190/190/190 434/434/434
f 163/163/163 314/314/314 283/283/283
f 249/249/249 290/290/290 179/179/179
f 446/446/446 200/200/200 256/256/256
f 356/356/356 447/447/447 433/433/433
f 312/312/312 38/38/38 293/293/293
f 346/346/346 53/53/53 347/347/347
f 5/5/5 354/354/354 144/144/144
f 123/123/123 246/246/246 247/247/247
f 214/214/214 362/362/362 157/157/157
f 20/20/20 52/52/52 97/97/97
f 221/221/221 150/150/150 337/337/337
f 316/316/316 78/78/78 122/122/122
f 100/100/100 336/336/336 99/99/99
f 30/30/30 24/24/24 51/51/51
f 131/131/131 25/25/25 359/359/359
f 185/185/185 343/343/343 37/37/37
f 310/310/310 178/178/178 424/424/424
f 121/121/121 41/41/41 92/92/92
f 353/353/353 182/182/182 181/181/181
f 262/262/262 267/267/267 263/263/263
f 274/274/274 420/420/420 273/273/273
f 316/316/316 215/215/215 92/92/92
f 189/189/189 325/325/325 351/351/351
f 20/20/20 308/308/308 18/18/18
f 362/362/362 214/214/214 120/120/120
f 145/145/145 146/146/146 163/163/163
f 326/326/326 261/261/261 115/115/115
f 90/90/90 387/387/387 324/324/324
f 364/364/364 244/244/244 400/400/400
f 97/97/97 215/215/215 78/78/78
f 452/452/452 380/380/380 356/356/356
f 112/112/112 9/9/9 46/46/46
f 453/453/453 128/128/128 437/437/437
f 19/19/19 18/18/18 10/10/10
f 152/152/152 66/66/66 456/456/456
f 406/406/406 317/317/317 148/148/148
f 276/276/276 372/372/372 377/377/377
f 396/396/396 377/377/377 150/150/150
f 457/457/457 336/336/336 70/70/70
f 167/167/167 168/168/168 336/336/336
f 121/121/121 40/40/40 79/79/79
f 177/177/177 4/4/4 154/154/154
f 249/249/249 179/179/179 180/180/180
f 415/415/415 187/187/187 47/47/47
f 201/201/201 303/303/303 193/193/193
f 396/396/396 432/432/432 377/377/377
f 213/213/213 367/367/367 454/454/454
f 70/70/70 399/399/399 457/457/457
f 441/441/441 240/240/240 332/332/332
f 251/251/251 250/250/250 445/445/445
f 139/139/139 140/140/140 125/125/125
f 458/458/458 234/234/234 371/371/371
f 73/73/73 306/306/306 142/142/142
f 123/123/123 247/247/247 254/254/254
f 456/456/456 296/296/296 152/152/152
f 320/320/320 315/315/315 451/451/451
f 58/58/58 112/112/112 52/52/52
f 208/208/208 218/218/218 258/258/258
f 399/399/399 13/13/13 458/458/458
f 78/78/78 140/140/140 121/121/121
f 51/51/51 316/316/316 78/78/78
f 44/44/44 403/403/403 127/127/127
f 390/390/390 30/30/30 77/77/77
f 385/385/385 30/30/30 51/51/51
f 285/285/285 341/341/341 38/38/38
f 198/198/198 259/259/259 217/217/217
f 388/388/388 143/143/143 360/360/360
f 46/46/46 143/143/143 45/45/45
f 12/12/12 128/128/128 11/11/11
f 179/179/179 36/36/36 35/35/35
f 308/308/308 438/438/438 14/14/14
f 96/96/96 221/221/221 449/449/449
f 451/451/451 263/263/263 118/118/118
f 134/134/134 14/14/14 94/94/94
f 14/14/14 69/69/69 95/95/95
f 2/2/2 444/444/444 327/327/327
f 125/125/125 275/275/275 139/139/139
f 459/459/459 20/20/20 97/97/97
f 152/152/152 66/66/66 65/65/65
f 273/273/273 420/420/420 290/290/290
f 188/188/188 374/374/374 11/11/11
f 125/125/125 93/93/93 275/275/275
f 424/424/424 355/355/355 354/354/354
f 109/109/109 292/292/292 291/291/291
f 282/282/282 281/281/281 267/267/267
f 44/44/44 9/9/9 85/85/85
f 397/397/397 52/52/52 20/20/20
f 239/239/239 104/104/104 105/105/105
f 59/59/59 45/45/45 351/351/351
f 271/271/271 408/408/408 246/246/246
f 218/218/218 111/111/111 117/117/117
f 104/104/104 49/49/49 105/105/105
f 86/86/86 116/116/116 229/229/229
f 433/433/433 447/447/447 146/146/146
f 52/52/52 192/192/192 46/46/46
f 24/24/24 26/26/26 316/316/316
f 315/315/315 320/320/320 319/319/319
f 165/165/165 73/73/73 142/142/142
f 272/272/272 146/146/146 225/225/225
f 283/283/283 421/421/421 163/163/163
f 10/10/10 52/52/52 9/9/9
f 38/38/38 131/131/131 138/138/138
f 381/381/381 412/412/412 411/411/411
f 320/320/320 451/451/451 288/288/288
f 276/276/276 197/197/197 338/338/338
f 279/279/279 355/355/355 274/274/274
f 260/260/260 120/120/120 114/114/114
f 208/208/208 110/110/110 119/119/119
f 178/178/178 310/310/310 311/311/311
f 85/85/85 43/43/43 1/1/1
f 320/320/320 359/359/359 319/319/319
f 47/47/47 461/461/461 48/48/48
f 217/217/217 256/256/256 114/114/114
f 97/97/97 92/92/92 459/459/459
f 109/109/109 31/31/31 81/81/81
f 448/448/448 207/207/207 166/166/166
f 47/47/47 48/48/48 137/137/137
f 103/103/103 351/351/351 325/325/325
f 13/13/13 69/69/69 95/95/95
f 448/448/448 207/207/207 187/187/187
f 179/179/179 310/310/310 34/34/34
f 424/424/424 354/354/354 279/279/279
f 266/266/266 15/15/15 17/17/17
f 96/96/96 150/150/150 221/221/221
f 17/17/17 215/215/215 316/316/316
f 295/295/295 382/382/382 168/168/168
f 35/35/35 143/143/143 46/46/46
f 195/195/195 107/107/107 266/266/266
f 78/78/78 10/10/10 30/30/30
f 322/322/322 329/329/329 323/323/323
f 91/91/91 462/462/462 348/348/348
f 197/197/197 243/243/243 244/244/244
f 192/192/192 4/4/4 291/291/291
f 105/105/105 176/176/176 239/239/239
f 25/25/25 24/24/24 139/139/139
f 305/305/305 403/403/403 44/44/44
f 74/74/74 274/274/274 355/355/355
f 325/325/325 69/69/69 101/101/101
f 71/71/71 168/168/168 101/101/101
f 154/154/154 296/296/296 151/151/151
f 192/192/192 46/46/46 4/4/4
f 72/72/72 73/73/73 427/427/427
f 364/364/364 334/334/334 338/338/338
f 463/463/463 374/374/374 87/87/87
f 229/229/229 203/203/203 452/452/452
f 139/139/139 24/24/24 122/122/122
f 196/196/196 112/112/112 192/192/192
f 205/205/205 449/449/449 386/386/386
f 451/451/451 315/315/315 245/245/245
f 145/145/145 242/242/242 146/146/146
f 309/309/309 293/293/293 124/124/124
f 446/446/446 50/50/50 256/256/256
f 304/304/304 147/147/147 158/158/158
f 65/65/65 83/83/83 66/66/66
f 15/15/15 266/266/266 106/106/106
f 93/93/93 82/82/82 11/11/11
f 39/39/39 130/130/130 37/37/37
f 199/199/199 198/198/198 259/259/259
f 135/135/135 461/461/461 47/47/47
f 290/290/290 420/420/420 178/178/178
f 433/433/433 146/146/146 272/272/272
f 166/166/166 427/427/427 165/165/165
f 255/255/255 365/365/365 113/113/113
f 159/159/159 234/234/234 13/13/13
f 26/26/26 51/51/51 316/316/316
f 84/84/84 413/413/413 444/444/444
f 383/383/383 342/342/342 343/343/343
f 292/292/292 78/78/78 121/121/121
f 464/464/464 255/255/255 437/437/437
f 248/248/248 31/31/31 160/160/160
f 105/105/105 49/49/49 176/176/176
f 317/317/317 262/262/262 406/406/406
f 60/60/60 61/61/61 245/245/245
f 384/384/384 147/147/147 304/304/304
f 423/423/423 197/197/197 432/432/432
f 350/350/350 422/422/422 387/387/387
f 256/256/256 255/255/255 113/113/113
f 295/295/295 167/167/167 321/321/321
f 407/407/407 173/173/173 175/175/175
f 307/307/307 60/60/60 223/223/223
f 296/296/296 152/152/152 65/65/65
f 85/85/85 402/402/402 43/43/43
f 78/78/78 79/79/79 10/10/10
f 358/358/358 25/25/25 131/131/131
f 221/221/221 337/337/337 331/331/331
f 252/252/252 440/440/440 280/280/280
f 42/42/42 215/215/215 16/16/16
f 419/419/419 280/280/280 386/386/386
f 169/169/169 411/411/411 466/466/466
f 460/460/460 456/456/456 269/269/269
f 11/11/11 80/80/80 128/128/128
f 262/262/262 317/317/317 60/60/60
f 467/467/467 4/4/4 151/151/151
f 45/45/45 143/143/143 189/189/189
f 251/251/251 445/445/445 340/340/340
f 29/29/29 10/10/10 111/111/111
f 332/332/332 264/264/264 413/413/413
f 31/31/31 91/91/91 348/348/348
f 372/372/372 377/377/377 180/180/180
f 159/159/159 413/413/413 14/14/14
f 301/301/301 468/468/468 166/166/166
f 16/16/16 123/123/123 362/362/362
f 446/446/446 68/68/68 50/50/50
f 167/167/167 331/331/331 321/321/321
f 216/216/216 56/56/56 383/383/383
f 383/383/383 367/367/367 469/469/469
f 312/312/312 39/39/39 87/87/87
f 203/203/203 108/108/108 107/107/107
f 76/76/76 77/77/77 132/132/132
f 266/266/266 459/459/459 195/195/195
f 352/352/352 21/21/21 23/23/23
f 262/262/262 184/184/184 406/406/406
f 389/389/389 283/283/283 447/447/447
f 348/348/348 462/462/462 290/290/290
f 248/248/248 40/40/40 68/68/68
f 405/405/405 436/436/436 290/290/290
f 304/304/304 158/158/158 299/299/299
f 170/170/170 313/313/313 409/409/409
f 93/93/93 275/275/275 248/248/248
f 395/395/395 37/37/37 130/130/130
f 151/151/151 231/231/231 152/152/152
f 366/366/366 68/68/68 446/446/446
f 111/111/111 10/10/10 8/8/8
f 122/122/122 248/248/248 275/275/275
f 127/127/127 98/98/98 369/369/369
f 470/470/470 429/429/429 460/460/460
f 396/396/396 150/150/150 96/96/96
f 307/307/307 171/171/171 172/172/172
f 52/52/52 192/192/192 291/291/291
f 48/48/48 206/206/206 187/187/187
f 48/48/48 431/431/431 237/237/237
f 74/74/74 35/35/35 45/45/45
f 271/271/271 272/272/272 408/408/408
f 288/288/288 286/286/286 320/320/320
f 32/32/32 369/369/369 22/22/22
f 291/291/291 121/121/121 79/79/79
f 267/267/267 77/77/77 76/76/76
f 119/119/119 281/281/281 208/208/208
f 390/390/390 77/77/77 25/25/25
f 291/291/291 4/4/4 81/81/81
f 238/238/238 47/47/47 416/416/416
f 31/31/31 275/275/275 81/81/81
f 45/45/45 143/143/143 144/144/144
f 331/331/331 419/419/419 221/221/221
f 264/264/264 332/332/332 378/378/378
f 87/87/87 76/76/76 312/312/312
f 141/141/141 303/303/303 226/226/226
f 117/117/117 237/237/237 218/218/218
f 309/309/309 27/27/27 140/140/140
f 217/217/217 362/362/362 120/120/120
f 89/89/89 66/66/66 392/392/392
f 411/411/411 412/412/412 466/466/466
f 18/18/18 51/51/51 304/304/304
f 14/14/14 94/94/94 69/69/69
f 189/189/189 59/59/59 325/325/325
f 17/17/17 304/304/304 266/266/266
f 296/296/296 4/4/4 155/155/155
f 127/127/127 403/403/403 402/402/402
f 466/466/466 410/410/410 83/83/83
f 292/292/292 81/81/81 196/196/196
f 267/267/267 29/29/29 77/77/77
f 184/184/184 304/304/304 406/406/406
f 293/293/293 312/312/312 28/28/28
f 112/112/112 4/4/4 192/192/192
f 256/256/256 217/217/217 40/40/40
f 192/192/192 52/52/52 112/112/112
f 144/144/144 143/143/143 388/388/388
f 111/111/111 375/375/375 112/112/112
f 361/361/361 471/471/471 228/228/228
f 453/453/453 437/437/437 261/261/261
f 249/249/249 89/89/89 410/410/410
f 287/287/287 418/418/418 115/115/115
f 257/257/257 147/147/147 149/149/149
f 371/371/371 335/335/335 458/458/458
f 369/369/369 376/376/376 22/22/22
f 373/373/373 387/387/387 90/90/90
f 313/313/313 63/63/63 442/442/442
f 309/309/309 294/294/294 132/132/132
f 168/168/168 70/70/70 336/336/336
f 158/158/158 234/234/234 159/159/159
f 60/60/60 307/307/307 172/172/172
f 464/464/464 446/446/446 255/255/255
f 158/158/158 298/298/298 299/299/299
f 155/155/155 4/4/4 187/187/187
f 106/106/106 298/298/298 228/228/228
f 472/472/472 60/60/60 163/163/163
f 275/275/275 140/140/140 139/139/139
f 27/27/27 125/125/125 140/140/140
f 185/185/185 394/394/394 186/186/186
f 309/309/309 25/25/25 139/139/139
f 229/229/229 107/107/107 86/86/86
f 293/293/293 312/312/312 343/343/343
f 398/398/398 28/28/28 258/258/258
f 308/308/308 299/299/299 158/158/158
f 36/36/36 462/462/462 91/91/91
f 425/425/425 5/5/5 144/144/144
f 59/59/59 189/189/189 20/20/20
f 8/8/8 10/10/10 184/184/184
f 247/247/247 213/213/213 455/455/455
f 156/156/156 141/141/141 250/250/250
f 471/471/471 380/380/380 228/228/228
f 362/362/362 217/217/217 256/256/256
f 46/46/46 192/192/192 112/112/112
f 166/166/166 261/261/261 448/448/448
f 34/34/34 155/155/155 296/296/296
f 287/287/287 200/200/200 201/201/201
f 456/456/456 66/66/66 269/269/269
f 284/284/284 367/367/367 57/57/57
f 194/194/194 193/193/193 182/182/182
f 103/103/103 411/411/411 102/102/102
f 291/291/291 196/196/196 292/292/292
f 121/121/121 215/215/215 97/97/97
f 384/384/384 304/304/304 385/385/385
f 4/4/4 218/218/218 177/177/177
f 213/213/213 247/247/247 246/246/246
f 141/141/141 353/353/353 370/370/370
f 66/66/66 88/88/88 401/401/401
f 274/274/274 79/79/79 121/121/121
f 285/285/285 286/286/286 289/289/289
f 82/82/82 93/93/93 463/463/463
f 260/260/260 259/259/259 235/235/235
f 275/275/275 93/93/93 81/81/81
f 188/188/188 82/82/82 80/80/80
f 277/277/277 387/387/387 278/278/278
f 253/253/253 419/419/419 331/331/331
f 196/196/196 52/52/52 10/10/10
f 441/441/441 332/332/332 32/32/32
f 115/115/115 201/201/201 193/193/193
f 28/28/28 268/268/268 258/258/258
f 121/121/121 42/42/42 41/41/41
f 310/310/310 180/180/180 311/311/311
f 98/98/98 85/85/85 53/53/53
f 309/309/309 132/132/132 293/293/293
f 76/76/76 77/77/77 29/29/29
f 441/441/441 44/44/44 33/33/33
f 323/323/323 470/470/470 460/460/460
f 135/135/135 142/142/142 156/156/156
f 192/192/192 117/117/117 196/196/196
f 431/431/431 47/47/47 238/238/238
f 40/40/40 160/160/160 443/443/443
f 123/123/123 16/16/16 409/409/409
f 115/115/115 261/261/261 255/255/255
f 434/434/434 190/190/190 191/191/191
f 120/120/120 260/260/260 236/236/236
f 75/75/75 450/450/450 205/205/205
f 426/426/426 473/473/473 413/413/413
f 226/226/226 303/303/303 194/194/194
f 367/367/367 213/213/213 212/212/212
f 112/112/112 177/177/177 218/218/218
f 109/109/109 151/151/151 187/187/187
f 325/325/325 189/189/189 69/69/69
f 31/31/31 128/128/128 160/160/160
f 87/87/87 220/220/220 219/219/219
f 223/223/223 147/147/147 264/264/264
f 262/262/262 60/60/60 245/245/245
f 329/329/329 173/173/173 407/407/407
f 361/361/361 148/148/148 147/147/147
f 20/20/20 19/19/19 397/397/397
f 48/48/48 467/467/467 456/456/456
f 451/451/451 262/262/262 263/263/263
f 265/265/265 171/171/171 222/222/222
f 444/444/444 473/473/473 327/327/327
f 445/445/445 141/141/141 370/370/370
f 335/335/335 336/336/336 457/457/457
f 202/202/202 150/150/150 180/180/180
f 57/57/57 254/254/254 455/455/455
f 146/146/146 67/67/67 225/225/225
f 387/387/387 422/422/422 324/324/324
f 110/110/110 118/118/118 119/119/119
f 248/248/248 40/40/40 41/41/41
f 296/296/296 456/456/456 467/467/467
f 80/80/80 109/109/109 187/187/187
f 290/290/290 178/178/178 279/279/279
f 116/116/116 86/86/86 161/161/161
f 52/52/52 45/45/45 59/59/59
f 50/50/50 68/68/68 42/42/42
f 78/78/78 291/291/291 292/292/292
f 229/229/229 228/228/228 380/380/380
f 52/52/52 143/143/143 45/45/45
f 82/82/82 81/81/81 117/117/117
f 109/109/109 81/81/81 80/80/80
f 136/136/136 156/156/156 250/250/250
f 45/45/45 143/143/143 134/134/134
f 202/202/202 7/7/7 150/150/150
f 79/79/79 10/10/10 52/52/52
f 254/254/254 214/214/214 120/120/120
f 28/28/28 87/87/87 39/39/39
f 268/268/268 28/28/28 76/76/76
f 281/281/281 282/282/282 237/237/237
f 179/179/179 35/35/35 310/310/310
f 355/355/355 274/274/274 121/121/121
f 196/196/196 111/111/111 112/112/112
f 54/54/54 363/363/363 53/53/53
f 237/237/237 208/208/208 281/281/281
f 456/456/456 460/460/460 48/48/48
f 38/38/38 28/28/28 39/39/39
f 334/334/334 364/364/364 261/261/261
f 122/122/122 125/125/125 294/294/294
f 316/316/316 51/51/51 10/10/10
f 310/310/310 424/424/424 279/279/279
f 346/346/346 71/71/71 325/325/325
f 125/125/125 27/27/27 93/93/93
f 171/171/171 241/241/241 352/352/352
f 299/299/299 266/266/266 304/304/304
f 8/8/8 52/52/52 9/9/9
f 231/231/231 151/151/151 154/154/154
f 208/208/208 219/219/219 340/340/340
f 452/452/452 203/203/203 107/107/107
f 151/151/151 296/296/296 467/467/467
f 52/52/52 9/9/9 59/59/59
f 67/67/67 342/342/342 469/469/469
f 206/206/206 301/301/301 393/393/393
f 334/334/334 261/261/261 174/174/174
f 461/461/461 137/137/137 48/48/48
f 165/165/165 301/301/301 166/166/166
f 441/441/441 32/32/32 44/44/44
f 376/376/376 227/227/227 22/22/22
f 121/121/121 144/144/144 355/355/355
f 37/37/37 394/394/394 185/185/185
f 94/94/94 438/438/438 20/20/20
f 252/252/252 100/100/100 440/440/440
f 148/148/148 385/385/385 51/51/51
f 10/10/10 184/184/184 30/30/30
f 36/36/36 178/178/178 290/290/290
f 131/131/131 132/132/132 293/293/293
f 134/134/134 459/459/459 308/308/308
f 261/261/261 448/448/448 453/453/453
f 268/268/268 76/76/76 29/29/29
f 429/429/429 48/48/48 206/206/206
f 4/4/4 177/177/177 151/151/151
f 68/68/68 93/93/93 78/78/78
f 454/454/454 367/367/367 284/284/284
f 57/57/57 186/186/186 176/176/176
f 77/77/77 51/51/51 25/25/25
f 110/110/110 341/341/341 289/289/289
f 318/318/318 286/286/286 138/138/138
f 452/452/452 433/433/433 203/203/203
f 161/161/161 280/280/280 440/440/440
f 57/57/57 455/455/455 284/284/284
f 102/102/102 379/379/379 103/103/103
f 316/316/316 10/10/10 18/18/18
f 414/414/414 64/64/64 313/313/313
f 72/72/72 326/326/326 303/303/303
f 238/238/238 237/237/237 431/431/431
f 415/415/415 48/48/48 237/237/237
f 219/219/219 374/374/374 258/258/258
f 249/249/249 89/89/89 405/405/405
f 81/81/81 237/237/237 117/117/117
f 132/132/132 294/294/294 293/293/293
f 79/79/79 40/40/40 97/97/97
f 205/205/205 450/450/450 449/449/449
f 167/167/167 336/336/336 331/331/331
f 53/53/53 363/363/363 347/347/347
f 405/405/405 297/297/297 436/436/436
f 393/393/393 407/407/407 301/301/301
f 128/128/128 80/80/80 31/31/31
f 348/348/348 279/279/279 420/420/420
f 308/308/308 14/14/14 133/133/133
f 14/14/14 95/95/95 13/13/13
f 449/449/449 221/221/221 419/419/419
f 27/27/27 398/398/398 463/463/463
f 117/117/117 258/258/258 415/415/415
f 334/334/334 174/174/174 333/333/333
f 300/300/300 208/208/208 237/237/237
f 393/393/393 429/429/429 470/470/470
f 408/408/408 212/212/212 213/213/213
f 80/80/80 82/82/82 31/31/31
f 99/99/99 371/371/371 191/191/191
f 223/223/223 257/257/257 149/149/149
f 264/264/264 222/222/222 223/223/223
f 285/285/285 38/38/38 286/286/286
f 389/389/389 447/447/447 356/356/356
f 249/249/249 180/180/180 377/377/377
f 382/382/382 103/103/103 101/101/101
f 76/76/76 87/87/87 219/219/219
f 412/412/412 410/410/410 466/466/466
f 131/131/131 25/25/25 309/309/309
f 79/79/79 74/74/74 45/45/45
f 220/220/220 129/129/129 39/39/39
f 297/297/297 4/4/4 80/80/80
f 184/184/184 10/10/10 267/267/267
f 34/34/34 155/155/155 46/46/46
f 324/324/324 422/422/422 333/333/333
f 68/68/68 366/366/366 12/12/12
f 117/117/117 82/82/82 258/258/258
f 466/466/466 83/83/83 169/169/169
f 70/70/70 325/325/325 71/71/71
f 128/128/128 453/453/453 188/188/188
f 329/329/329 330/330/330 173/173/173
f 277/277/277 350/350/350 387/387/387
f 243/243/243 199/199/199 244/244/244
f 459/459/459 92/92/92 123/123/123
f 87/87/87 124/124/124 463/463/463
f 304/304/304 308/308/308 147/147/147
f 274/274/274 121/121/121 248/248/248
f 261/261/261 128/128/128 448/448/448
f 246/246/246 409/409/409 313/313/313
f 40/40/40 121/121/121 97/97/97
f 279/279/279 311/311/311 310/310/310
f 62/62/62 204/204/204 205/205/205
f 53/53/53 85/85/85 1/1/1
f 167/167/167 295/295/295 168/168/168
f 301/301/301 207/207/207 468/468/468
f 464/464/464 437/437/437 366/366/366
f 34/34/34 310/310/310 35/35/35
f 373/373/373 90/90/90 89/89/89
f 284/284/284 455/455/455 454/454/454
f 320/320/320 286/286/286 417/417/417
f 40/40/40 31/31/31 68/68/68
f 394/394/394 37/37/37 395/395/395
f 375/375/375 53/53/53 112/112/112
f 70/70/70 346/346/346 435/435/435
f 191/191/191 116/116/116 99/99/99
f 220/220/220 87/87/87 39/39/39
f 273/273/273 436/436/436 128/128/128
f 343/343/343 216/216/216 383/383/383
f 36/36/36 34/34/34 155/155/155
f 382/382/382 101/101/101 168/168/168
f 136/136/136 251/251/251 47/47/47
f 111/111/111 8/8/8 227/227/227
f 161/161/161 86/86/86 63/63/63
f 93/93/93 68/68/68 31/31/31
f 471/471/471 361/361/361 257/257/257
f 199/199/199 243/243/243 113/113/113
f 102/102/102 232/232/232 391/391/391
f 120/120/120 123/123/123 455/455/455
f 160/160/160 128/128/128 443/443/443
f 120/120/120 474/474/474 123/123/123
f 128/128/128 207/207/207 448/448/448
f 397/397/397 85/85/85 9/9/9
f 12/12/12 11/11/11 126/126/126
f 419/419/419 253/253/253 252/252/252
f 65/65/65 34/34/34 296/296/296
f 421/421/421 439/439/439 357/357/357
f 344/344/344 421/421/421 357/357/357
f 68/68/68 40/40/40 42/42/42
f 77/77/77 30/30/30 29/29/29
f 222/222/222 307/307/307 223/223/223
f 202/202/202 179/179/179 178/178/178
f 65/65/65 89/89/89 34/34/34
f 203/203/203 271/271/271 270/270/270
f 389/389/389 357/357/357 439/439/439
f 416/416/416 208/208/208 238/238/238
f 67/67/67 146/146/146 242/242/242
f 61/61/61 223/223/223 317/317/317
f 308/308/308 14/14/14 147/147/147
f 395/395/395 181/181/181 183/183/183
f 358/358/358 404/404/404 359/359/359
f 239/239/239 201/201/201 104/104/104
f 267/267/267 282/282/282 263/263/263
f 258/258/258 82/82/82 398/398/398
f 262/262/262 451/451/451 317/317/317
f 415/415/415 47/47/47 48/48/48
f 119/119/119 118/118/118 281/281/281
f 87/87/87 353/353/353 220/220/220
f 402/402/402 85/85/85 98/98/98
f 363/363/363 54/54/54 346/346/346
f 326/326/326 193/193/193 303/303/303
f 107/107/107 229/229/229 452/452/452
f 128/128/128 207/207/207 80/80/80
f 286/286/286 38/38/38 138/138/138
f 166/166/166 468/468/468 448/448/448
f 134/134/134 20/20/20 459/459/459
f 200/200/200 287/287/287 255/255/255
f 355/355/355 5/5/5 74/74/74
f 387/387/387 373/373/373 278/278/278
f 255/255/255 287/287/287 115/115/115
f 174/174/174 173/173/173 333/333/333
f 437/437/437 255/255/255 261/261/261
f 415/415/415 237/237/237 81/81/81
f 207/207/207 47/47/47 187/187/187
f 367/367/367 56/56/56 57/57/57
f 152/152/152 296/296/296 154/154/154
f 309/309/309 124/124/124 27/27/27
f 86/86/86 313/313/313 442/442/442
f 304/304/304 17/17/17 18/18/18
f 462/462/462 36/36/36 290/290/290
f 32/32/32 127/127/127 369/369/369
f 385/385/385 148/148/148 147/147/147
f 22/22/22 55/55/55 33/33/33
f 31/31/31 11/11/11 128/128/128
f 111/111/111 196/196/196 117/117/117
f 12/12/12 160/160/160 68/68/68
f 318/318/318 131/131/131 359/359/359
f 126/126/126 463/463/463 124/124/124
f 115/115/115 193/193/193 326/326/326
f 91/91/91 80/80/80 296/296/296
f 145/145/145 162/162/162 242/242/242
f 473/473/473 426/426/426 327/327/327
f 31/31/31 420/420/420 248/248/248
f 218/218/218 282/282/282 267/267/267
f 304/304/304 51/51/51 385/385/385
f 177/177/177 154/154/154 151/151/151
f 4/4/4 112/112/112 154/154/154
f 317/317/317 451/451/451 245/245/245
f 89/89/89 249/249/249 373/373/373
f 312/312/312 293/293/293 132/132/132
f 162/162/162 342/342/342 67/67/67
f 141/141/141 226/226/226 353/353/353
f 326/326/326 72/72/72 261/261/261
f 362/362/362 41/41/41 217/217/217
f 448/448/448 187/187/187 188/188/188
f 73/73/73 72/72/72 303/303/303
f 11/11/11 374/374/374 463/463/463
f 71/71/71 101/101/101 69/69/69
f 364/364/364 255/255/255 261/261/261
f 325/325/325 94/94/94 189/189/189
f 61/61/61 472/472/472 223/223/223
f 152/152/152 154/154/154 65/65/65
f 303/303/303 193/193/193 194/194/194
f 232/232/232 231/231/231 351/351/351
f 339/339/339 422/422/422 350/350/350
f 4/4/4 117/117/117 192/192/192
f 308/308/308 266/266/266 299/299/299
f 333/333/333 330/330/330 324/324/324
f 262/262/262 245/245/245 23/23/23
f 413/413/413 159/159/159 426/426/426
f 269/269/269 401/401/401 302/302/302
f 134/134/134 143/143/143 20/20/20
f 283/283/283 146/146/146 447/447/447
f 240/240/240 55/55/55 241/241/241
f 196/196/196 111/111/111 10/10/10
f 258/258/258 268/268/268 219/219/219
f 455/455/455 254/254/254 120/120/120
f 362/362/362 256/256/256 50/50/50
f 410/410/410 412/412/412 430/430/430
f 184/184/184 267/267/267 30/30/30
f 57/57/57 176/176/176 49/49/49
f 159/159/159 13/13/13 426/426/426
f 131/131/131 343/343/343 358/358/358
f 172/172/172 171/171/171 352/352/352
f 312/312/312 38/38/38 343/343/343
f 220/220/220 353/353/353 129/129/129
f 45/45/45 35/35/35 46/46/46
f 397/397/397 19/19/19 85/85/85
f 397/397/397 9/9/9 52/52/52
f 460/460/460 206/206/206 48/48/48
f 327/327/327 426/426/426 328/328/328
f 201/201/201 105/105/105 104/104/104
f 325/325/325 53/53/53 346/346/346
f 162/162/162 314/314/314 404/404/404
f 340/340/340 110/110/110 300/300/300
f 236/236/236 260/260/260 235/235/235
f 187/187/187 207/207/207 80/80/80
f 18/18/18 10/10/10 51/51/51
f 218/218/218 237/237/237 258/258/258
f 426/426/426 70/70/70 435/435/435
f 66/66/66 401/401/401 269/269/269
f 63/63/63 280/280/280 161/161/161
f 314/314/314 359/359/359 404/404/404
f 228/228/228 107/107/107 106/106/106
f 409/409/409 16/16/16 15/15/15
f 162/162/162 404/404/404 358/358/358
f 369/369/369 8/8/8 32/32/32
f 92/92/92 79/79/79 97/97/97
f 2/2/2 1/1/1 43/43/43
f 369/369/369 184/184/184 22/22/22
f 419/419/419 386/386/386 449/449/449
f 53/53/53 325/325/325 59/59/59
f 226/226/226 194/194/194 182/182/182
f 336/336/336 252/252/252 331/331/331
f 338/338/338 244/244/244 364/364/364
f 264/264/264 378/378/378 265/265/265
f 107/107/107 170/170/170 313/313/313
f 310/310/310 279/279/279 178/178/178
f 137/137/137 461/461/461 135/135/135
f 427/427/427 166/166/166 72/72/72
f 204/204/204 210/210/210 205/205/205
f 77/77/77 312/312/312 132/132/132
f 155/155/155 4/4/4 152/152/152
f 89/89/89 180/180/180 179/179/179
f 324/324/324 330/330/330 322/322/322
f 75/75/75 423/423/423 396/396/396
f 52/52/52 196/196/196 192/192/192
f 350/350/350 338/338/338 339/339/339
f 200/200/200 256/256/256 113/113/113
f 198/198/198 423/423/423 235/235/235
f 399/399/399 335/335/335 457/457/457
f 272/272/272 271/271/271 433/433/433
f 351/351/351 379/379/379 230/230/230
f 279/279/279 354/354/354 5/5/5
f 300/300/300 208/208/208 340/340/340
f 446/446/446 464/464/464 366/366/366
f 29/29/29 117/117/117 196/196/196
f 76/76/76 219/219/219 268/268/268
f 79/79/79 122/122/122 78/78/78
f 165/165/165 142/142/142 135/135/135
f 2/2/2 84/84/84 444/444/444
f 77/77/77 28/28/28 312/312/312
f 233/233/233 148/148/148 406/406/406
f 452/452/452 229/229/229 380/380/380
f 181/181/181 129/129/129 353/353/353
f 109/109/109 93/93/93 31/31/31
f 8/8/8 184/184/184 19/19/19
f 85/85/85 19/19/19 32/32/32
f 313/313/313 170/170/170 414/414/414
f 316/316/316 18/18/18 17/17/17
f 18/18/18 304/304/304 184/184/184
f 52/52/52 85/85/85 9/9/9
f 248/248/248 420/420/420 274/274/274
f 24/24/24 51/51/51 26/26/26
f 122/122/122 121/121/121 248/248/248
f 405/405/405 83/83/83 65/65/65
f 275/275/275 31/31/31 121/121/121
f 278/278/278 372/372/372 276/276/276
f 254/254/254 247/247/247 455/455/455
f 336/336/336 100/100/100 440/440/440
f 112/112/112 59/59/59 9/9/9
f 471/471/471 357/357/357 380/380/380
f 375/375/375 369/369/369 98/98/98
f 31/31/31 248/248/248 109/109/109
f 382/382/382 295/295/295 6/6/6
f 6/6/6 321/321/321 337/337/337
f 357/357/357 389/389/389 356/356/356
f 151/151/151 48/48/48 187/187/187
f 362/362/362 123/123/123 41/41/41
f 283/283/283 389/389/389 421/421/421
f 316/316/316 97/97/97 79/79/79
f 81/81/81 109/109/109 291/291/291
f 117/117/117 258/258/258 268/268/268
f 289/289/289 286/286/286 288/288/288
f 139/139/139 132/132/132 140/140/140
f 249/249/249 377/377/377 372/372/372
f 61/61/61 147/147/147 223/223/223
f 132/132/132 309/309/309 140/140/140
f 348/348/348 420/420/420 31/31/31
f 87/87/87 219/219/219 370/370/370
f 45/45/45 46/46/46 9/9/9
f 52/52/52 79/79/79 45/45/45
f 80/80/80 11/11/11 188/188/188
f 134/134/134 308/308/308 133/133/133
f 420/420/420 279/279/279 274/274/274
f 197/197/197 276/276/276 432/432/432
f 55/55/55 21/21/21 241/241/241
f 443/443/443 261/261/261 255/255/255
f 124/124/124 87/87/87 28/28/28
f 203/203/203 313/313/313 108/108/108
f 9/9/9 397/397/397 19/19/19
f 393/393/393 323/323/323 329/329/329
f 9/9/9 44/44/44 32/32/32
f 170/170/170 123/123/123 414/414/414
f 313/313/313 170/170/170 108/108/108
f 37/37/37 343/343/343 130/130/130
f 351/351/351 34/34/34 35/35/35
f 369/369/369 22/22/22 8/8/8
f 154/154/154 4/4/4 155/155/155
f 126/126/126 11/11/11 463/463/463
f 288/288/288 451/451/451 118/118/118
f 162/162/162 67/67/67 242/242/242
f 440/440/440 100/100/100 161/161/161
f 124/124/124 293/293/293 125/125/125
f 79/79/79 274/274/274 74/74/74
f 208/208/208 237/237/237 117/117/117
f 413/413/413 264/264/264 14/14/14
f 179/179/179 180/180/180 310/310/310
f 320/320/320 417/417/417 359/359/359
f 228/228/228 434/434/434 158/158/158
f 51/51/51 24/24/24 25/25/25
f 77/77/77 76/76/76 28/28/28
f 394/394/394 239/239/239 186/186/186
f 258/258/258 374/374/374 188/188/188
f 109/109/109 117/117/117 4/4/4
f 166/166/166 207/207/207 301/301/301
f 183/183/183 193/193/193 395/395/395
f 312/312/312 124/124/124 28/28/28
f 365/365/365 244/244/244 113/113/113
f 136/136/136 47/47/47 137/137/137
f 198/198/198 197/197/197 423/423/423
f 199/199/199 259/259/259 243/243/243
f 208/208/208 416/416/416 340/340/340
f 308/308/308 20/20/20 438/438/438
f 261/261/261 443/443/443 128/128/128
f 289/289/289 288/288/288 118/118/118
f 164/164/164 83/83/83 392/392/392
f 302/302/302 323/323/323 269/269/269
f 420/420/420 424/424/424 178/178/178
f 233/233/233 406/406/406 304/304/304
f 412/412/412 6/6/6 430/430/430
f 127/127/127 402/402/402 98/98/98
f 367/367/367 383/383/383 56/56/56
f 68/68/68 121/121/121 40/40/40
f 188/188/188 82/82/82 117/117/117
f 70/70/70 71/71/71 346/346/346
f 5/5/5 360/360/360 35/35/35
f 422/422/422 339/339/339 333/333/333
f 117/117/117 218/218/218 258/258/258
f 361/361/361 298/298/298 158/158/158
f 188/188/188 453/453/453 448/448/448
f 75/75/75 96/96/96 450/450/450
f 121/121/121 122/122/122 79/79/79
f 333/333/333 338/338/338 334/334/334
f 24/24/24 316/316/316 122/122/122
f 350/350/350 349/349/349 338/338/338
f 50/50/50 157/157/157 362/362/362
f 449/449/449 450/450/450 96/96/96
f 84/84/84 332/332/332 413/413/413
f 248/248/248 121/121/121 140/140/140
f 132/132/132 131/131/131 309/309/309
f 33/33/33 240/240/240 441/441/441
f 149/149/149 148/148/148 223/223/223
f 13/13/13 234/234/234 458/458/458
f 301/301/301 48/48/48 429/429/429
f 38/38/38 341/341/341 220/220/220
f 289/289/289 118/118/118 110/110/110
f 452/452/452 356/356/356 433/433/433
f 460/460/460 429/429/429 206/206/206
f 158/158/158 159/159/159 95/95/95
f 123/123/123 92/92/92 41/41/41
f 60/60/60 172/172/172 245/245/245
f 303/303/303 141/141/141 306/306/306
f 210/210/210 236/236/236 205/205/205
f 152/152/152 231/231/231 391/391/391
f 351/351/351 35/35/35 46/46/46
f 113/113/113 244/244/244 199/199/199
f 256/256/256 255/255/255 446/446/446
f 36/36/36 405/405/405 290/290/290
f 318/318/318 359/359/359 417/417/417
f 4/4/4 196/196/196 81/81/81
f 347/347/347 363/363/363 345/345/345
f 263/263/263 281/281/281 368/368/368
f 259/259/259 113/113/113 243/243/243
f 214/214/214 49/49/49 120/120/120
f 114/114/114 49/49/49 200/200/200
f 82/82/82 463/463/463 398/398/398
f 467/467/467 48/48/48 151/151/151
f 357/357/357 471/471/471 257/257/257
f 206/206/206 393/393/393 207/207/207
f 157/157/157 16/16/16 362/362/362
f 25/25/25 358/358/358 359/359/359
f 309/309/309 139/139/139 294/294/294
f 357/357/357 356/356/356 380/380/380
f 340/340/340 220/220/220 341/341/341
f 93/93/93 27/27/27 463/463/463
f 59/59/59 351/351/351 58/58/58
f 10/10/10 8/8/8 19/19/19
f 64/64/64 414/414/414 204/204/204
f 474/474/474 209/209/209 123/123/123
f 79/79/79 52/52/52 291/291/291
f 469/469/469 367/367/367 67/67/67
f 216/216/216 343/343/343 185/185/185
f 140/140/140 78/78/78 390/390/390
f 131/131/131 312/312/312 132/132/132
f 315/315/315 319/319/319 314/314/314
f 140/140/140 390/390/390 139/139/139
f 97/97/97 52/52/52 143/143/143
f 455/455/455 123/123/123 254/254/254
f 396/396/396 423/423/423 432/432/432
f 293/293/293 28/28/28 124/124/124
f 289/289/289 341/341/341 285/285/285
f 176/176/176 186/186/186 239/239/239
f 118/118/118 263/263/263 368/368/368
f 30/30/30 29/29/29 196/196/196
f 444/444/444 413/413/413 473/473/473
f 256/256/256 200/200/200 255/255/255
f 158/158/158 299/299/299 228/228/228
f 154/154/154 351/351/351 231/231/231
f 267/267/267 111/111/111 218/218/218
f 311/311/311 202/202/202 178/178/178
f 104/104/104 200/200/200 49/49/49
f 127/127/127 32/32/32 44/44/44
f 364/364/364 400/400/400 365/365/365
f 395/395/395 193/193/193 239/239/239
f 229/229/229 190/190/190 228/228/228
f 52/52/52 46/46/46 45/45/45
f 5/5/5 425/425/425 388/388/388
f 223/223/223 472/472/472 421/421/421
f 9/9/9 52/52/52 45/45/45
f 123/123/123 211/211/211 414/414/414
f 94/94/94 95/95/95 143/143/143
f 215/215/215 121/121/121 122/122/122
f 59/59/59 85/85/85 98/98/98
f 344/344/344 357/357/357 257/257/257
f 159/159/159 13/13/13 95/95/95
f 393/393/393 329/329/329 407/407/407
f 122/122/122 12/12/12 125/125/125
f 156/156/156 136/136/136 135/135/135
f 436/436/436 297/297/297 207/207/207
f 10/10/10 52/52/52 8/8/8
f 109/109/109 4/4/4 151/151/151
f 22/22/22 184/184/184 262/262/262
f 388/388/388 360/360/360 5/5/5
f 97/97/97 316/316/316 92/92/92
f 179/179/179 34/34/34 89/89/89
f 234/234/234 434/434/434 191/191/191
f 111/111/111 376/376/376 375/375/375
f 219/219/219 220/220/220 340/340/340
f 232/232/232 351/351/351 230/230/230
f 254/254/254 57/57/57 214/214/214
f 2/2/2 85/85/85 84/84/84
f 459/459/459 266/266/266 308/308/308
f 196/196/196 4/4/4 192/192/192
f 155/155/155 152/152/152 296/296/296
f 386/386/386 280/280/280 62/62/62
f 54/54/54 3/3/3 327/327/327
f 57/57/57 56/56/56 186/186/186
f 342/342/342 162/162/162 358/358/358
f 407/407/407 166/166/166 301/301/301
f 75/75/75 396/396/396 96/96/96
f 180/180/180 249/249/249 410/410/410
f 324/324/324 88/88/88 90/90/90
f 276/276/276 338/338/338 349/349/349
f 460/460/460 269/269/269 323/323/323
f 421/421/421 472/472/472 163/163/163
f 30/30/30 267/267/267 406/406/406
f 381/381/381 411/411/411 103/103/103
f 335/335/335 399/399/399 458/458/458
f 445/445/445 370/370/370 340/340/340
f 308/308/308 304/304/304 18/18/18
f 95/95/95 69/69/69 70/70/70
f 213/213/213 454/454/454 455/455/455
f 148/148/148 317/317/317 223/223/223
f 204/204/204 62/62/62 64/64/64
f 249/249/249 372/372/372 373/373/373
f 59/59/59 85/85/85 52/52/52
f 228/228/228 266/266/266 107/107/107
f 15/15/15 170/170/170 409/409/409
f 340/340/340 370/370/370 219/219/219
f 120/120/120 209/209/209 474/474/474
f 43/43/43 44/44/44 85/85/85
f 30/30/30 51/51/51 29/29/29
f 5/5/5 311/311/311 430/430/430
f 102/102/102 411/411/411 169/169/169
f 383/383/383 469/469/469 342/342/342
f 443/443/443 255/255/255 256/256/256
f 164/164/164 153/153/153 152/152/152
f 426/426/426 435/435/435 328/328/328
f 13/13/13 95/95/95 70/70/70
f 160/160/160 248/248/248 68/68/68
f 330/330/330 333/333/333 173/173/173
f 215/215/215 42/42/42 121/121/121
f 111/111/111 227/227/227 376/376/376
f 33/33/33 44/44/44 32/32/32
f 401/401/401 88/88/88 324/324/324
f 209/209/209 120/120/120 236/236/236
f 7/7/7 202/202/202 311/311/311
f 261/261/261 72/72/72 166/166/166
f 31/31/31 273/273/273 128/128/128
f 313/313/313 203/203/203 271/271/271
f 306/306/306 73/73/73 303/303/303
f 314/314/314 319/319/319 359/359/359
f 299/299/299 266/266/266 228/228/228
f 148/148/148 51/51/51 406/406/406
f 106/106/106 108/108/108 15/15/15
f 310/310/310 355/355/355 279/279/279
f 321/321/321 6/6/6 295/295/295
f 424/424/424 420/420/420 274/274/274
f 55/55/55 22/22/22 21/21/21
f 60/60/60 472/472/472 61/61/61
f 6/6/6 381/381/381 382/382/382
f 421/421/421 344/344/344 223/223/223
f 338/338/338 197/197/197 244/244/244
f 195/195/195 459/459/459 123/123/123
f 40/40/40 248/248/248 160/160/160
f 22/22/22 227/227/227 8/8/8
f 20/20/20 189/189/189 94/94/94
f 83/83/83 405/405/405 89/89/89
f 448/448/448 468/468/468 207/207/207
f 38/38/38 312/312/312 131/131/131
f 236/236/236 210/210/210 209/209/209
f 14/14/14 13/13/13 159/159/159
f 146/146/146 283/283/283 163/163/163
f 311/311/311 279/279/279 5/5/5
f 327/327/327 3/3/3 2/2/2
f 66/66/66 153/153/153 164/164/164
f 369/369/369 19/19/19 184/184/184
f 410/410/410 430/430/430 311/311/311
f 392/392/392 83/83/83 89/89/89
f 58/58/58 154/154/154 112/112/112
f 160/160/160 12/12/12 31/31/31
f 86/86/86 107/107/107 313/313/313
f 193/193/193 183/183/183 182/182/182
f 207/207/207 301/301/301 135/135/135
f 251/251/251 416/416/416 47/47/47
f 166/166/166 407/407/407 175/175/175
f 230/230/230 379/379/379 102/102/102
f 144/144/144 121/121/121 97/97/97
f 65/65/65 187/187/187 296/296/296
f 62/62/62 280/280/280 63/63/63
f 164/164/164 152/152/152 391/391/391
f 230/230/230 102/102/102 391/391/391
f 418/418/418 201/201/201 115/115/115
f 352/352/352 241/241/241 23/23/23
f 470/470/470 323/323/323 393/393/393
