# glbtool toobj from Fence.glb, texture: fence_palette.png
v 2.502446 0.030924 0.102921
v 2.502446 0.030924 0.975462
v 2.502446 -0.030924 0.975462
v 2.502446 -0.030924 0.102921
v 2.397320 -0.030924 0.102921
v 2.397320 -0.030924 1.164035
v 2.292193 -0.030924 0.975462
v 2.292193 -0.030924 0.102921
v 2.292193 -0.030924 0.102921
v 2.292193 -0.030924 0.975462
v 2.292193 0.030924 0.975462
v 2.292193 0.030924 0.102921
v 2.397320 0.030924 0.102921
v 2.397320 0.030924 1.164035
v 2.502446 0.030924 0.975462
v 2.502446 0.030924 0.102921
v 2.397320 -0.030924 0.102921
v 2.292193 -0.030924 0.102921
v 2.292193 0.030924 0.102921
v 2.397320 0.030924 0.102921
v 2.397320 -0.030924 1.164035
v 2.502446 -0.030924 0.975462
v 2.502446 0.030924 0.975462
v 2.397320 0.030924 1.164035
v 2.292193 -0.030924 0.975462
v 2.397320 -0.030924 1.164035
v 2.397320 0.030924 1.164035
v 2.292193 0.030924 0.975462
v 2.502446 -0.030924 0.102921
v 2.502446 0.030924 0.102921
v 2.292193 0.030924 0.102921
v 2.292193 0.030924 0.975462
v 2.502446 -0.030924 0.102921
v 2.502446 -0.030924 0.975462
v 2.123992 0.030924 0.102921
v 2.123992 0.030924 0.975462
v 2.123992 -0.030924 0.975462
v 2.123992 -0.030924 0.102921
v 2.018865 -0.030924 0.102921
v 2.018865 -0.030924 1.164035
v 1.913739 -0.030924 0.975462
v 1.913739 -0.030924 0.102921
v 1.913739 -0.030924 0.102921
v 1.913739 -0.030924 0.975462
v 1.913739 0.030924 0.975462
v 1.913739 0.030924 0.102921
v 2.018865 0.030924 0.102921
v 2.018865 0.030924 1.164035
v 2.123992 0.030924 0.975462
v 2.123992 0.030924 0.102921
v 2.018865 -0.030924 0.102921
v 1.913739 -0.030924 0.102921
v 1.913739 0.030924 0.102921
v 2.018865 0.030924 0.102921
v 2.018865 -0.030924 1.164035
v 2.123992 -0.030924 0.975462
v 2.123992 0.030924 0.975462
v 2.018865 0.030924 1.164035
v 1.913739 -0.030924 0.975462
v 2.018865 -0.030924 1.164035
v 2.018865 0.030924 1.164035
v 1.913739 0.030924 0.975462
v 2.123992 -0.030924 0.102921
v 2.123992 0.030924 0.102921
v 1.913739 0.030924 0.102921
v 1.913739 0.030924 0.975462
v 2.123992 -0.030924 0.102921
v 2.123992 -0.030924 0.975462
v 1.745538 0.030924 0.102921
v 1.745538 0.030924 0.975462
v 1.745537 -0.030924 0.975462
v 1.745537 -0.030924 0.102921
v 1.640411 -0.030924 0.102921
v 1.640411 -0.030924 1.164035
v 1.535285 -0.030924 0.975462
v 1.535285 -0.030924 0.102921
v 1.535285 -0.030924 0.102921
v 1.535285 -0.030924 0.975462
v 1.535285 0.030924 0.975462
v 1.535285 0.030924 0.102921
v 1.640411 0.030924 0.102921
v 1.640411 0.030924 1.164035
v 1.745538 0.030924 0.975462
v 1.745538 0.030924 0.102921
v 1.640411 -0.030924 0.102921
v 1.535285 -0.030924 0.102921
v 1.535285 0.030924 0.102921
v 1.640411 0.030924 0.102921
v 1.640411 -0.030924 1.164035
v 1.745537 -0.030924 0.975462
v 1.745538 0.030924 0.975462
v 1.640411 0.030924 1.164035
v 1.535285 -0.030924 0.975462
v 1.640411 -0.030924 1.164035
v 1.640411 0.030924 1.164035
v 1.535285 0.030924 0.975462
v 1.745537 -0.030924 0.102921
v 1.745538 0.030924 0.102921
v 1.535285 0.030924 0.102921
v 1.535285 0.030924 0.975462
v 1.745537 -0.030924 0.102921
v 1.745537 -0.030924 0.975462
v 1.367083 0.030924 0.102921
v 1.367083 0.030924 0.975462
v 1.367083 -0.030924 0.975462
v 1.367083 -0.030924 0.102921
v 1.261957 -0.030924 0.102921
v 1.261957 -0.030924 1.164035
v 1.156831 -0.030924 0.975462
v 1.156831 -0.030924 0.102921
v 1.156831 -0.030924 0.102921
v 1.156831 -0.030924 0.975462
v 1.156831 0.030924 0.975462
v 1.156831 0.030924 0.102921
v 1.261957 0.030924 0.102921
v 1.261957 0.030924 1.164035
v 1.367083 0.030924 0.975462
v 1.367083 0.030924 0.102921
v 1.261957 -0.030924 0.102921
v 1.156831 -0.030924 0.102921
v 1.156831 0.030924 0.102921
v 1.261957 0.030924 0.102921
v 1.261957 -0.030924 1.164035
v 1.367083 -0.030924 0.975462
v 1.367083 0.030924 0.975462
v 1.261957 0.030924 1.164035
v 1.156831 -0.030924 0.975462
v 1.261957 -0.030924 1.164035
v 1.261957 0.030924 1.164035
v 1.156831 0.030924 0.975462
v 1.367083 -0.030924 0.102921
v 1.367083 0.030924 0.102921
v 1.156831 0.030924 0.102921
v 1.156831 0.030924 0.975462
v 1.367083 -0.030924 0.102921
v 1.367083 -0.030924 0.975462
v 0.988629 0.030924 0.102921
v 0.988629 0.030924 0.975462
v 0.988629 -0.030924 0.975462
v 0.988629 -0.030924 0.102921
v 0.883503 -0.030924 0.102921
v 0.883503 -0.030924 1.164035
v 0.778377 -0.030924 0.975462
v 0.778377 -0.030924 0.102921
v 0.778377 -0.030924 0.102921
v 0.778377 -0.030924 0.975462
v 0.778377 0.030924 0.975462
v 0.778377 0.030924 0.102921
v 0.883503 0.030924 0.102921
v 0.883503 0.030924 1.164035
v 0.988629 0.030924 0.975462
v 0.988629 0.030924 0.102921
v 0.883503 -0.030924 0.102921
v 0.778377 -0.030924 0.102921
v 0.778377 0.030924 0.102921
v 0.883503 0.030924 0.102921
v 0.883503 -0.030924 1.164035
v 0.988629 -0.030924 0.975462
v 0.988629 0.030924 0.975462
v 0.883503 0.030924 1.164035
v 0.778377 -0.030924 0.975462
v 0.883503 -0.030924 1.164035
v 0.883503 0.030924 1.164035
v 0.778377 0.030924 0.975462
v 0.988629 -0.030924 0.102921
v 0.988629 0.030924 0.102921
v 0.778377 0.030924 0.102921
v 0.778377 0.030924 0.975462
v 0.988629 -0.030924 0.102921
v 0.988629 -0.030924 0.975462
v 0.610175 0.030924 0.102921
v 0.610175 0.030924 0.975462
v 0.610175 -0.030924 0.975462
v 0.610175 -0.030924 0.102921
v 0.505049 -0.030924 0.102921
v 0.505049 -0.030924 1.164035
v 0.399922 -0.030924 0.975462
v 0.399922 -0.030924 0.102921
v 0.399922 -0.030924 0.102921
v 0.399922 -0.030924 0.975462
v 0.399922 0.030924 0.975462
v 0.399922 0.030924 0.102921
v 0.505049 0.030924 0.102921
v 0.505049 0.030924 1.164035
v 0.610175 0.030924 0.975462
v 0.610175 0.030924 0.102921
v 0.505049 -0.030924 0.102921
v 0.399922 -0.030924 0.102921
v 0.399922 0.030924 0.102921
v 0.505049 0.030924 0.102921
v 0.505049 -0.030924 1.164035
v 0.610175 -0.030924 0.975462
v 0.610175 0.030924 0.975462
v 0.505049 0.030924 1.164035
v 0.399922 -0.030924 0.975462
v 0.505049 -0.030924 1.164035
v 0.505049 0.030924 1.164035
v 0.399922 0.030924 0.975462
v 0.610175 -0.030924 0.102921
v 0.610175 0.030924 0.102921
v 0.399922 0.030924 0.102921
v 0.399922 0.030924 0.975462
v 0.610175 -0.030924 0.102921
v 0.610175 -0.030924 0.975462
v -2.502446 0.030924 0.102921
v -2.502446 -0.030924 0.102921
v -2.502446 -0.030924 0.975462
v -2.502446 0.030924 0.975462
v -2.397320 -0.030924 0.102921
v -2.292193 -0.030924 0.102921
v -2.292193 -0.030924 0.975462
v -2.397320 -0.030924 1.164035
v -2.292193 -0.030924 0.102921
v -2.292193 0.030924 0.102921
v -2.292193 0.030924 0.975462
v -2.292193 -0.030924 0.975462
v -2.397320 0.030924 0.102921
v -2.502446 0.030924 0.102921
v -2.502446 0.030924 0.975462
v -2.397320 0.030924 1.164035
v -2.397320 -0.030924 0.102921
v -2.397320 0.030924 0.102921
v -2.292193 0.030924 0.102921
v -2.292193 -0.030924 0.102921
v -2.397320 -0.030924 1.164035
v -2.397320 0.030924 1.164035
v -2.502446 0.030924 0.975462
v -2.502446 -0.030924 0.975462
v -2.292193 -0.030924 0.975462
v -2.292193 0.030924 0.975462
v -2.397320 0.030924 1.164035
v -2.397320 -0.030924 1.164035
v -2.502446 -0.030924 0.102921
v -2.502446 0.030924 0.102921
v -2.292193 0.030924 0.102921
v -2.292193 0.030924 0.975462
v -2.502446 -0.030924 0.102921
v -2.502446 -0.030924 0.975462
v -2.123992 0.030924 0.102921
v -2.123992 -0.030924 0.102921
v -2.123992 -0.030924 0.975462
v -2.123992 0.030924 0.975462
v -2.018865 -0.030924 0.102921
v -1.913739 -0.030924 0.102921
v -1.913739 -0.030924 0.975462
v -2.018865 -0.030924 1.164035
v -1.913739 -0.030924 0.102921
v -1.913739 0.030924 0.102921
v -1.913739 0.030924 0.975462
v -1.913739 -0.030924 0.975462
v -2.018865 0.030924 0.102921
v -2.123992 0.030924 0.102921
v -2.123992 0.030924 0.975462
v -2.018865 0.030924 1.164035
v -2.018865 -0.030924 0.102921
v -2.018865 0.030924 0.102921
v -1.913739 0.030924 0.102921
v -1.913739 -0.030924 0.102921
v -2.018865 -0.030924 1.164035
v -2.018865 0.030924 1.164035
v -2.123992 0.030924 0.975462
v -2.123992 -0.030924 0.975462
v -1.913739 -0.030924 0.975462
v -1.913739 0.030924 0.975462
v -2.018865 0.030924 1.164035
v -2.018865 -0.030924 1.164035
v -2.123992 -0.030924 0.102921
v -2.123992 0.030924 0.102921
v -1.913739 0.030924 0.102921
v -1.913739 0.030924 0.975462
v -2.123992 -0.030924 0.102921
v -2.123992 -0.030924 0.975462
v -1.745537 0.030924 0.102921
v -1.745537 -0.030924 0.102921
v -1.745537 -0.030924 0.975462
v -1.745537 0.030924 0.975462
v -1.640411 -0.030924 0.102921
v -1.535285 -0.030924 0.102921
v -1.535285 -0.030924 0.975462
v -1.640411 -0.030924 1.164035
v -1.535285 -0.030924 0.102921
v -1.535285 0.030924 0.102921
v -1.535285 0.030924 0.975462
v -1.535285 -0.030924 0.975462
v -1.640411 0.030924 0.102921
v -1.745537 0.030924 0.102921
v -1.745537 0.030924 0.975462
v -1.640411 0.030924 1.164035
v -1.640411 -0.030924 0.102921
v -1.640411 0.030924 0.102921
v -1.535285 0.030924 0.102921
v -1.535285 -0.030924 0.102921
v -1.640411 -0.030924 1.164035
v -1.640411 0.030924 1.164035
v -1.745537 0.030924 0.975462
v -1.745537 -0.030924 0.975462
v -1.535285 -0.030924 0.975462
v -1.535285 0.030924 0.975462
v -1.640411 0.030924 1.164035
v -1.640411 -0.030924 1.164035
v -1.745537 -0.030924 0.102921
v -1.745537 0.030924 0.102921
v -1.535285 0.030924 0.102921
v -1.535285 0.030924 0.975462
v -1.745537 -0.030924 0.102921
v -1.745537 -0.030924 0.975462
v -1.367083 0.030924 0.102921
v -1.367083 -0.030924 0.102921
v -1.367083 -0.030924 0.975462
v -1.367083 0.030924 0.975462
v -1.261957 -0.030924 0.102921
v -1.156831 -0.030924 0.102921
v -1.156831 -0.030924 0.975462
v -1.261957 -0.030924 1.164035
v -1.156831 -0.030924 0.102921
v -1.156831 0.030924 0.102921
v -1.156831 0.030924 0.975462
v -1.156831 -0.030924 0.975462
v -1.261957 0.030924 0.102921
v -1.367083 0.030924 0.102921
v -1.367083 0.030924 0.975462
v -1.261957 0.030924 1.164035
v -1.261957 -0.030924 0.102921
v -1.261957 0.030924 0.102921
v -1.156831 0.030924 0.102921
v -1.156831 -0.030924 0.102921
v -1.261957 -0.030924 1.164035
v -1.261957 0.030924 1.164035
v -1.367083 0.030924 0.975462
v -1.367083 -0.030924 0.975462
v -1.156831 -0.030924 0.975462
v -1.156831 0.030924 0.975462
v -1.261957 0.030924 1.164035
v -1.261957 -0.030924 1.164035
v -1.367083 -0.030924 0.102921
v -1.367083 0.030924 0.102921
v -1.156831 0.030924 0.102921
v -1.156831 0.030924 0.975462
v -1.367083 -0.030924 0.102921
v -1.367083 -0.030924 0.975462
v -0.988629 0.030924 0.102921
v -0.988629 -0.030924 0.102921
v -0.988629 -0.030924 0.975462
v -0.988629 0.030924 0.975462
v -0.883503 -0.030924 0.102921
v -0.778377 -0.030924 0.102921
v -0.778377 -0.030924 0.975462
v -0.883503 -0.030924 1.164035
v -0.778377 -0.030924 0.102921
v -0.778377 0.030924 0.102921
v -0.778377 0.030924 0.975462
v -0.778377 -0.030924 0.975462
v -0.883503 0.030924 0.102921
v -0.988629 0.030924 0.102921
v -0.988629 0.030924 0.975462
v -0.883503 0.030924 1.164035
v -0.883503 -0.030924 0.102921
v -0.883503 0.030924 0.102921
v -0.778377 0.030924 0.102921
v -0.778377 -0.030924 0.102921
v -0.883503 -0.030924 1.164035
v -0.883503 0.030924 1.164035
v -0.988629 0.030924 0.975462
v -0.988629 -0.030924 0.975462
v -0.778377 -0.030924 0.975462
v -0.778377 0.030924 0.975462
v -0.883503 0.030924 1.164035
v -0.883503 -0.030924 1.164035
v -0.988629 -0.030924 0.102921
v -0.988629 0.030924 0.102921
v -0.778377 0.030924 0.102921
v -0.778377 0.030924 0.975462
v -0.988629 -0.030924 0.102921
v -0.988629 -0.030924 0.975462
v -0.610175 0.030924 0.102921
v -0.610175 -0.030924 0.102921
v -0.610175 -0.030924 0.975462
v -0.610175 0.030924 0.975462
v -0.505049 -0.030924 0.102921
v -0.399922 -0.030924 0.102921
v -0.399922 -0.030924 0.975462
v -0.505049 -0.030924 1.164035
v -0.399922 -0.030924 0.102921
v -0.399922 0.030924 0.102921
v -0.399922 0.030924 0.975462
v -0.399922 -0.030924 0.975462
v -0.505049 0.030924 0.102921
v -0.610175 0.030924 0.102921
v -0.610175 0.030924 0.975462
v -0.505049 0.030924 1.164035
v -0.505049 -0.030924 0.102921
v -0.505049 0.030924 0.102921
v -0.399922 0.030924 0.102921
v -0.399922 -0.030924 0.102921
v -0.505049 -0.030924 1.164035
v -0.505049 0.030924 1.164035
v -0.610175 0.030924 0.975462
v -0.610175 -0.030924 0.975462
v -0.399922 -0.030924 0.975462
v -0.399922 0.030924 0.975462
v -0.505049 0.030924 1.164035
v -0.505049 -0.030924 1.164035
v -0.610175 -0.030924 0.102921
v -0.610175 0.030924 0.102921
v -0.399922 0.030924 0.102921
v -0.399922 0.030924 0.975462
v -0.610175 -0.030924 0.102921
v -0.610175 -0.030924 0.975462
v 2.945063 0.082752 -0.009340
v 2.945063 0.082752 1.087723
v 2.945063 -0.082753 1.087723
v 2.945063 -0.082753 -0.009340
v 2.945063 -0.082753 -0.009340
v 2.945063 -0.082753 1.087723
v 2.777726 -0.082753 1.087723
v 2.777726 -0.082753 -0.009340
v 2.777726 -0.082753 -0.009340
v 2.777726 -0.082753 1.087723
v 2.777726 0.082752 1.087723
v 2.777726 0.082752 -0.009340
v 2.777726 0.082752 -0.009340
v 2.777726 0.082752 1.087723
v 2.945063 0.082752 1.087723
v 2.945063 0.082752 -0.009340
v 2.945063 -0.082753 -0.009340
v 2.777726 -0.082753 -0.009340
v 2.777726 0.082752 -0.009340
v 2.945063 0.082752 -0.009340
v 2.777726 -0.082753 1.087723
v 2.945063 -0.082753 1.087723
v 2.945063 0.082752 1.087723
v 2.777726 0.082752 1.087723
v 0.000000 -0.082753 1.087723
v 0.084498 -0.082753 1.087723
v 0.084498 0.082753 1.087723
v 0.000000 0.082753 1.087723
v 0.000000 0.082753 -0.009340
v 0.000000 0.082753 1.087723
v 0.084498 0.082753 1.087723
v 0.084498 0.082753 -0.009340
v 2.941604 0.035312 0.406336
v 0.000000 0.050155 0.406336
v 0.000000 -0.050155 0.406336
v 2.941604 -0.035313 0.406336
v 2.941604 -0.035313 0.406336
v 0.000000 -0.050155 0.406336
v 0.000000 -0.050155 0.197310
v 2.941604 -0.035313 0.197310
v 2.941604 -0.035313 0.197310
v 0.000000 -0.050155 0.197310
v 0.000000 0.050155 0.197310
v 2.941604 0.035312 0.197310
v 2.941604 0.035312 0.197310
v 0.000000 0.050155 0.197310
v 0.000000 0.050155 0.406336
v 2.941604 0.035312 0.406336
v 2.941604 -0.035313 0.406336
v 2.941604 -0.035313 0.197310
v 2.941604 0.035312 0.197310
v 2.941604 0.035312 0.406336
v 2.941604 0.035312 0.871450
v 0.000000 0.050155 0.871450
v 0.000000 -0.050155 0.871450
v 2.941604 -0.035313 0.871450
v 2.941604 -0.035313 0.871450
v 0.000000 -0.050155 0.871450
v 0.000000 -0.050155 0.662424
v 2.941604 -0.035313 0.662424
v 2.941604 -0.035313 0.662424
v 0.000000 -0.050155 0.662424
v 0.000000 0.050155 0.662424
v 2.941604 0.035312 0.662424
v 2.941604 0.035312 0.662424
v 0.000000 0.050155 0.662424
v 0.000000 0.050155 0.871450
v 2.941604 0.035312 0.871450
v 2.941604 -0.035313 0.871450
v 2.941604 -0.035313 0.662424
v 2.941604 0.035312 0.662424
v 2.941604 0.035312 0.871450
v 0.084498 0.082753 -0.009340
v 0.084498 0.082753 1.087723
v 0.084498 -0.082753 1.087723
v 0.084498 -0.082753 -0.009340
v 0.084498 -0.082753 -0.009340
v 0.084498 -0.082753 1.087723
v 0.000000 -0.082753 1.087723
v 0.000000 -0.082753 -0.009340
v 0.084498 -0.082753 -0.009340
v 0.000000 -0.082753 -0.009340
v 0.000000 0.082753 -0.009340
v 0.084498 0.082753 -0.009340
v -2.945063 0.082753 -0.009340
v -2.945063 -0.082753 -0.009340
v -2.945063 -0.082753 1.087723
v -2.945063 0.082753 1.087723
v -2.945063 -0.082753 -0.009340
v -2.777726 -0.082753 -0.009340
v -2.777726 -0.082753 1.087723
v -2.945063 -0.082753 1.087723
v -2.777726 -0.082753 -0.009340
v -2.777726 0.082753 -0.009340
v -2.777726 0.082753 1.087723
v -2.777726 -0.082753 1.087723
v -2.777726 0.082753 -0.009340
v -2.945063 0.082753 -0.009340
v -2.945063 0.082753 1.087723
v -2.777726 0.082753 1.087723
v -2.945063 -0.082753 -0.009340
v -2.945063 0.082753 -0.009340
v -2.777726 0.082753 -0.009340
v -2.777726 -0.082753 -0.009340
v -2.777726 -0.082753 1.087723
v -2.777726 0.082753 1.087723
v -2.945063 0.082753 1.087723
v -2.945063 -0.082753 1.087723
v -0.084498 0.082753 1.087723
v -0.084498 -0.082753 1.087723
v -0.084498 0.082753 -0.009340
v -0.084498 0.082753 1.087723
v -2.941604 0.035313 0.406336
v -2.941604 -0.035312 0.406336
v -2.941604 -0.035312 0.406336
v -2.941604 -0.035312 0.197310
v 0.000000 -0.050155 0.197310
v 0.000000 -0.050155 0.406336
v -2.941604 -0.035312 0.197310
v -2.941604 0.035313 0.197310
v -2.941604 0.035313 0.197310
v -2.941604 0.035313 0.406336
v 0.000000 0.050155 0.406336
v 0.000000 0.050155 0.197310
v -2.941604 -0.035312 0.406336
v -2.941604 0.035313 0.406336
v -2.941604 0.035313 0.197310
v -2.941604 -0.035312 0.197310
v -2.941604 0.035313 0.871450
v -2.941604 -0.035312 0.871450
v -2.941604 -0.035312 0.871450
v -2.941604 -0.035312 0.662424
v 0.000000 -0.050155 0.662424
v 0.000000 -0.050155 0.871450
v -2.941604 -0.035312 0.662424
v -2.941604 0.035313 0.662424
v -2.941604 0.035313 0.662424
v -2.941604 0.035313 0.871450
v 0.000000 0.050155 0.871450
v 0.000000 0.050155 0.662424
v -2.941604 -0.035312 0.871450
v -2.941604 0.035313 0.871450
v -2.941604 0.035313 0.662424
v -2.941604 -0.035312 0.662424
v -0.084498 0.082753 -0.009340
v -0.084498 -0.082753 -0.009340
v -0.084498 -0.082753 1.087723
v -0.084498 0.082753 1.087723
v -0.084498 -0.082753 -0.009340
v -0.084498 -0.082753 1.087723
v -0.084498 -0.082753 -0.009340
v -0.084498 0.082753 -0.009340
vt 0.031250 0.500000
vt 0.031250 0.500000
vt 0.031250 0.500000
vt 0.031250 0.500000
vt 0.031250 0.500000
vt 0.031250 0.500000
vt 0.031250 0.500000
vt 0.031250 0.500000
vt 0.031250 0.500000
vt 0.031250 0.500000
vt 0.031250 0.500000
vt 0.031250 0.500000
vt 0.031250 0.500000
vt 0.031250 0.500000
vt 0.031250 0.500000
vt 0.031250 0.500000
vt 0.031250 0.500000
vt 0.031250 0.500000
vt 0.031250 0.500000
vt 0.031250 0.500000
vt 0.031250 0.500000
vt 0.031250 0.500000
vt 0.031250 0.500000
vt 0.031250 0.500000
vt 0.031250 0.500000
vt 0.031250 0.500000
vt 0.031250 0.500000
vt 0.031250 0.500000
vt 0.031250 0.500000
vt 0.031250 0.500000
vt 0.031250 0.500000
vt 0.031250 0.500000
vt 0.031250 0.500000
vt 0.031250 0.500000
vt 0.031250 0.500000
vt 0.031250 0.500000
vt 0.031250 0.500000
vt 0.031250 0.500000
vt 0.031250 0.500000
vt 0.031250 0.500000
vt 0.031250 0.500000
vt 0.031250 0.500000
vt 0.031250 0.500000
vt 0.031250 0.500000
vt 0.031250 0.500000
vt 0.031250 0.500000
vt 0.031250 0.500000
vt 0.031250 0.500000
vt 0.031250 0.500000
vt 0.031250 0.500000
vt 0.031250 0.500000
vt 0.031250 0.500000
vt 0.031250 0.500000
vt 0.031250 0.500000
vt 0.031250 0.500000
vt 0.031250 0.500000
vt 0.031250 0.500000
vt 0.031250 0.500000
vt 0.031250 0.500000
vt 0.031250 0.500000
vt 0.031250 0.500000
vt 0.031250 0.500000
vt 0.031250 0.500000
vt 0.031250 0.500000
vt 0.031250 0.500000
vt 0.031250 0.500000
vt 0.031250 0.500000
vt 0.031250 0.500000
vt 0.031250 0.500000
vt 0.031250 0.500000
vt 0.031250 0.500000
vt 0.031250 0.500000
vt 0.031250 0.500000
vt 0.031250 0.500000
vt 0.031250 0.500000
vt 0.031250 0.500000
vt 0.031250 0.500000
vt 0.031250 0.500000
vt 0.031250 0.500000
vt 0.031250 0.500000
vt 0.031250 0.500000
vt 0.031250 0.500000
vt 0.031250 0.500000
vt 0.031250 0.500000
vt 0.031250 0.500000
vt 0.031250 0.500000
vt 0.031250 0.500000
vt 0.031250 0.500000
vt 0.031250 0.500000
vt 0.031250 0.500000
vt 0.031250 0.500000
vt 0.031250 0.500000
vt 0.031250 0.500000
vt 0.031250 0.500000
vt 0.031250 0.500000
vt 0.031250 0.500000
vt 0.031250 0.500000
vt 0.031250 0.500000
vt 0.031250 0.500000
vt 0.031250 0.500000
vt 0.031250 0.500000
vt 0.031250 0.500000
vt 0.031250 0.500000
vt 0.031250 0.500000
vt 0.031250 0.500000
vt 0.031250 0.500000
vt 0.031250 0.500000
vt 0.031250 0.500000
vt 0.031250 0.500000
vt 0.031250 0.500000
vt 0.031250 0.500000
vt 0.031250 0.500000
vt 0.031250 0.500000
vt 0.031250 0.500000
vt 0.031250 0.500000
vt 0.031250 0.500000
vt 0.031250 0.500000
vt 0.031250 0.500000
vt 0.031250 0.500000
vt 0.031250 0.500000
vt 0.031250 0.500000
vt 0.031250 0.500000
vt 0.031250 0.500000
vt 0.031250 0.500000
vt 0.031250 0.500000
vt 0.031250 0.500000
vt 0.031250 0.500000
vt 0.031250 0.500000
vt 0.031250 0.500000
vt 0.031250 0.500000
vt 0.031250 0.500000
vt 0.031250 0.500000
vt 0.031250 0.500000
vt 0.031250 0.500000
vt 0.031250 0.500000
vt 0.031250 0.500000
vt 0.031250 0.500000
vt 0.031250 0.500000
vt 0.031250 0.500000
vt 0.031250 0.500000
vt 0.031250 0.500000
vt 0.031250 0.500000
vt 0.031250 0.500000
vt 0.031250 0.500000
vt 0.031250 0.500000
vt 0.031250 0.500000
vt 0.031250 0.500000
vt 0.031250 0.500000
vt 0.031250 0.500000
vt 0.031250 0.500000
vt 0.031250 0.500000
vt 0.031250 0.500000
vt 0.031250 0.500000
vt 0.031250 0.500000
vt 0.031250 0.500000
vt 0.031250 0.500000
vt 0.031250 0.500000
vt 0.031250 0.500000
vt 0.031250 0.500000
vt 0.031250 0.500000
vt 0.031250 0.500000
vt 0.031250 0.500000
vt 0.031250 0.500000
vt 0.031250 0.500000
vt 0.031250 0.500000
vt 0.031250 0.500000
vt 0.031250 0.500000
vt 0.031250 0.500000
vt 0.031250 0.500000
vt 0.031250 0.500000
vt 0.031250 0.500000
vt 0.031250 0.500000
vt 0.031250 0.500000
vt 0.031250 0.500000
vt 0.031250 0.500000
vt 0.031250 0.500000
vt 0.031250 0.500000
vt 0.031250 0.500000
vt 0.031250 0.500000
vt 0.031250 0.500000
vt 0.031250 0.500000
vt 0.031250 0.500000
vt 0.031250 0.500000
vt 0.031250 0.500000
vt 0.031250 0.500000
vt 0.031250 0.500000
vt 0.031250 0.500000
vt 0.031250 0.500000
vt 0.031250 0.500000
vt 0.031250 0.500000
vt 0.031250 0.500000
vt 0.031250 0.500000
vt 0.031250 0.500000
vt 0.031250 0.500000
vt 0.031250 0.500000
vt 0.031250 0.500000
vt 0.031250 0.500000
vt 0.031250 0.500000
vt 0.031250 0.500000
vt 0.031250 0.500000
vt 0.031250 0.500000
vt 0.031250 0.500000
vt 0.031250 0.500000
vt 0.031250 0.500000
vt 0.031250 0.500000
vt 0.031250 0.500000
vt 0.031250 0.500000
vt 0.031250 0.500000
vt 0.031250 0.500000
vt 0.031250 0.500000
vt 0.031250 0.500000
vt 0.031250 0.500000
vt 0.031250 0.500000
vt 0.031250 0.500000
vt 0.031250 0.500000
vt 0.031250 0.500000
vt 0.031250 0.500000
vt 0.031250 0.500000
vt 0.031250 0.500000
vt 0.031250 0.500000
vt 0.031250 0.500000
vt 0.031250 0.500000
vt 0.031250 0.500000
vt 0.031250 0.500000
vt 0.031250 0.500000
vt 0.031250 0.500000
vt 0.031250 0.500000
vt 0.031250 0.500000
vt 0.031250 0.500000
vt 0.031250 0.500000
vt 0.031250 0.500000
vt 0.031250 0.500000
vt 0.031250 0.500000
vt 0.031250 0.500000
vt 0.031250 0.500000
vt 0.031250 0.500000
vt 0.031250 0.500000
vt 0.031250 0.500000
vt 0.031250 0.500000
vt 0.031250 0.500000
vt 0.031250 0.500000
vt 0.031250 0.500000
vt 0.031250 0.500000
vt 0.031250 0.500000
vt 0.031250 0.500000
vt 0.031250 0.500000
vt 0.031250 0.500000
vt 0.031250 0.500000
vt 0.031250 0.500000
vt 0.031250 0.500000
vt 0.031250 0.500000
vt 0.031250 0.500000
vt 0.031250 0.500000
vt 0.031250 0.500000
vt 0.031250 0.500000
vt 0.031250 0.500000
vt 0.031250 0.500000
vt 0.031250 0.500000
vt 0.031250 0.500000
vt 0.031250 0.500000
vt 0.031250 0.500000
vt 0.031250 0.500000
vt 0.031250 0.500000
vt 0.031250 0.500000
vt 0.031250 0.500000
vt 0.031250 0.500000
vt 0.031250 0.500000
vt 0.031250 0.500000
vt 0.031250 0.500000
vt 0.031250 0.500000
vt 0.031250 0.500000
vt 0.031250 0.500000
vt 0.031250 0.500000
vt 0.031250 0.500000
vt 0.031250 0.500000
vt 0.031250 0.500000
vt 0.031250 0.500000
vt 0.031250 0.500000
vt 0.031250 0.500000
vt 0.031250 0.500000
vt 0.031250 0.500000
vt 0.031250 0.500000
vt 0.031250 0.500000
vt 0.031250 0.500000
vt 0.031250 0.500000
vt 0.031250 0.500000
vt 0.031250 0.500000
vt 0.031250 0.500000
vt 0.031250 0.500000
vt 0.031250 0.500000
vt 0.031250 0.500000
vt 0.031250 0.500000
vt 0.031250 0.500000
vt 0.031250 0.500000
vt 0.031250 0.500000
vt 0.031250 0.500000
vt 0.031250 0.500000
vt 0.031250 0.500000
vt 0.031250 0.500000
vt 0.031250 0.500000
vt 0.031250 0.500000
vt 0.031250 0.500000
vt 0.031250 0.500000
vt 0.031250 0.500000
vt 0.031250 0.500000
vt 0.031250 0.500000
vt 0.031250 0.500000
vt 0.031250 0.500000
vt 0.031250 0.500000
vt 0.031250 0.500000
vt 0.031250 0.500000
vt 0.031250 0.500000
vt 0.031250 0.500000
vt 0.031250 0.500000
vt 0.031250 0.500000
vt 0.031250 0.500000
vt 0.031250 0.500000
vt 0.031250 0.500000
vt 0.031250 0.500000
vt 0.031250 0.500000
vt 0.031250 0.500000
vt 0.031250 0.500000
vt 0.031250 0.500000
vt 0.031250 0.500000
vt 0.031250 0.500000
vt 0.031250 0.500000
vt 0.031250 0.500000
vt 0.031250 0.500000
vt 0.031250 0.500000
vt 0.031250 0.500000
vt 0.031250 0.500000
vt 0.031250 0.500000
vt 0.031250 0.500000
vt 0.031250 0.500000
vt 0.031250 0.500000
vt 0.031250 0.500000
vt 0.031250 0.500000
vt 0.031250 0.500000
vt 0.031250 0.500000
vt 0.031250 0.500000
vt 0.031250 0.500000
vt 0.031250 0.500000
vt 0.031250 0.500000
vt 0.031250 0.500000
vt 0.031250 0.500000
vt 0.031250 0.500000
vt 0.031250 0.500000
vt 0.031250 0.500000
vt 0.031250 0.500000
vt 0.031250 0.500000
vt 0.031250 0.500000
vt 0.031250 0.500000
vt 0.031250 0.500000
vt 0.031250 0.500000
vt 0.031250 0.500000
vt 0.031250 0.500000
vt 0.031250 0.500000
vt 0.031250 0.500000
vt 0.031250 0.500000
vt 0.031250 0.500000
vt 0.031250 0.500000
vt 0.031250 0.500000
vt 0.031250 0.500000
vt 0.031250 0.500000
vt 0.031250 0.500000
vt 0.031250 0.500000
vt 0.031250 0.500000
vt 0.031250 0.500000
vt 0.031250 0.500000
vt 0.031250 0.500000
vt 0.031250 0.500000
vt 0.031250 0.500000
vt 0.031250 0.500000
vt 0.031250 0.500000
vt 0.031250 0.500000
vt 0.031250 0.500000
vt 0.031250 0.500000
vt 0.031250 0.500000
vt 0.031250 0.500000
vt 0.031250 0.500000
vt 0.031250 0.500000
vt 0.031250 0.500000
vt 0.031250 0.500000
vt 0.031250 0.500000
vt 0.031250 0.500000
vt 0.031250 0.500000
vt 0.031250 0.500000
vt 0.031250 0.500000
vt 0.031250 0.500000
vt 0.031250 0.500000
vt 0.031250 0.500000
vt 0.031250 0.500000
vt 0.031250 0.500000
vt 0.031250 0.500000
vt 0.031250 0.500000
vt 0.031250 0.500000
vt 0.031250 0.500000
vt 0.031250 0.500000
vt 0.031250 0.500000
vt 0.031250 0.500000
vt 0.031250 0.500000
vt 0.031250 0.500000
vt 0.031250 0.500000
vt 0.031250 0.500000
vt 0.031250 0.500000
vt 0.031250 0.500000
vt 0.031250 0.500000
vt 0.031250 0.500000
vt 0.031250 0.500000
vt 0.031250 0.500000
vt 0.031250 0.500000
vt 0.031250 0.500000
vt 0.031250 0.500000
vt 0.031250 0.500000
vt 0.031250 0.500000
vt 0.031250 0.500000
vt 0.031250 0.500000
vt 0.031250 0.500000
vt 0.031250 0.500000
vt 0.031250 0.500000
vt 0.031250 0.500000
vt 0.031250 0.500000
vt 0.031250 0.500000
vt 0.031250 0.500000
vt 0.031250 0.500000
vt 0.031250 0.500000
vt 0.031250 0.500000
vt 0.031250 0.500000
vt 0.031250 0.500000
vt 0.031250 0.500000
vt 0.031250 0.500000
vt 0.031250 0.500000
vt 0.031250 0.500000
vt 0.031250 0.500000
vt 0.031250 0.500000
vt 0.031250 0.500000
vt 0.031250 0.500000
vt 0.031250 0.500000
vt 0.031250 0.500000
vt 0.031250 0.500000
vt 0.031250 0.500000
vt 0.031250 0.500000
vt 0.031250 0.500000
vt 0.031250 0.500000
vt 0.031250 0.500000
vt 0.031250 0.500000
vt 0.031250 0.500000
vt 0.031250 0.500000
vt 0.031250 0.500000
vt 0.031250 0.500000
vt 0.031250 0.500000
vt 0.031250 0.500000
vt 0.031250 0.500000
vt 0.031250 0.500000
vt 0.031250 0.500000
vt 0.031250 0.500000
vt 0.031250 0.500000
vt 0.031250 0.500000
vt 0.031250 0.500000
vt 0.031250 0.500000
vt 0.031250 0.500000
vt 0.031250 0.500000
vt 0.031250 0.500000
vt 0.031250 0.500000
vt 0.031250 0.500000
vt 0.031250 0.500000
vt 0.031250 0.500000
vt 0.031250 0.500000
vt 0.031250 0.500000
vt 0.031250 0.500000
vt 0.031250 0.500000
vt 0.031250 0.500000
vt 0.031250 0.500000
vt 0.031250 0.500000
vt 0.031250 0.500000
vt 0.031250 0.500000
vt 0.031250 0.500000
vt 0.031250 0.500000
vt 0.031250 0.500000
vt 0.031250 0.500000
vt 0.031250 0.500000
vt 0.031250 0.500000
vt 0.031250 0.500000
vt 0.031250 0.500000
vt 0.031250 0.500000
vt 0.031250 0.500000
vt 0.031250 0.500000
vt 0.031250 0.500000
vt 0.031250 0.500000
vt 0.031250 0.500000
vt 0.031250 0.500000
vt 0.031250 0.500000
vt 0.031250 0.500000
vt 0.031250 0.500000
vt 0.031250 0.500000
vt 0.031250 0.500000
vt 0.031250 0.500000
vt 0.031250 0.500000
vt 0.031250 0.500000
vt 0.031250 0.500000
vt 0.031250 0.500000
vt 0.031250 0.500000
vt 0.031250 0.500000
vt 0.031250 0.500000
vt 0.031250 0.500000
vt 0.031250 0.500000
vt 0.031250 0.500000
vt 0.031250 0.500000
vt 0.031250 0.500000
vt 0.031250 0.500000
vt 0.031250 0.500000
vt 0.031250 0.500000
vt 0.031250 0.500000
vt 0.031250 0.500000
vt 0.031250 0.500000
vt 0.031250 0.500000
vt 0.031250 0.500000
vt 0.031250 0.500000
vt 0.031250 0.500000
vt 0.031250 0.500000
vt 0.031250 0.500000
vt 0.031250 0.500000
vt 0.031250 0.500000
vt 0.031250 0.500000
vt 0.031250 0.500000
vt 0.031250 0.500000
vt 0.031250 0.500000
vt 0.031250 0.500000
vt 0.031250 0.500000
vt 0.031250 0.500000
vt 0.031250 0.500000
vt 0.031250 0.500000
vt 0.031250 0.500000
vt 0.031250 0.500000
vt 0.031250 0.500000
vt 0.031250 0.500000
vt 0.031250 0.500000
vt 0.031250 0.500000
vt 0.031250 0.500000
vt 0.031250 0.500000
vt 0.031250 0.500000
vt 0.031250 0.500000
vt 0.031250 0.500000
vt 0.031250 0.500000
vt 0.031250 0.500000
vt 0.031250 0.500000
vt 0.031250 0.500000
vt 0.031250 0.500000
vt 0.031250 0.500000
vt 0.031250 0.500000
vt 0.031250 0.500000
vt 0.031250 0.500000
vt 0.031250 0.500000
vt 0.031250 0.500000
vt 0.031250 0.500000
vt 0.031250 0.500000
vt 0.031250 0.500000
vt 0.031250 0.500000
vt 0.031250 0.500000
vt 0.031250 0.500000
vn 1.000000 -0.000000 0.000000
vn 1.000000 -0.000000 0.000000
vn 1.000000 -0.000000 0.000000
vn 1.000000 -0.000000 0.000000
vn 0.000000 -1.000000 0.000000
vn 0.000000 -1.000000 0.000000
vn 0.000000 -1.000000 0.000000
vn 0.000000 -1.000000 0.000000
vn -1.000000 -0.000000 0.000000
vn -1.000000 -0.000000 0.000000
vn -1.000000 -0.000000 0.000000
vn -1.000000 -0.000000 0.000000
vn 0.000000 1.000000 0.000000
vn 0.000000 1.000000 0.000000
vn 0.000000 1.000000 0.000000
vn 0.000000 1.000000 0.000000
vn 0.000000 -0.000000 -1.000000
vn 0.000000 -0.000000 -1.000000
vn 0.000000 -0.000000 -1.000000
vn 0.000000 -0.000000 -1.000000
vn 0.873444 -0.000000 0.486925
vn 0.873444 -0.000000 0.486925
vn 0.873444 -0.000000 0.486925
vn 0.873444 -0.000000 0.486925
vn -0.873444 -0.000000 0.486925
vn -0.873444 -0.000000 0.486925
vn -0.873444 -0.000000 0.486925
vn -0.873444 -0.000000 0.486925
vn 0.000000 -0.000000 -1.000000
vn 0.000000 -0.000000 -1.000000
vn 0.000000 1.000000 0.000000
vn 0.000000 1.000000 0.000000
vn 0.000000 -1.000000 0.000000
vn 0.000000 -1.000000 0.000000
vn 1.000000 -0.000000 0.000000
vn 1.000000 -0.000000 0.000000
vn 1.000000 -0.000000 0.000000
vn 1.000000 -0.000000 0.000000
vn 0.000000 -1.000000 0.000000
vn 0.000000 -1.000000 0.000000
vn 0.000000 -1.000000 0.000000
vn 0.000000 -1.000000 0.000000
vn -1.000000 -0.000000 0.000000
vn -1.000000 -0.000000 0.000000
vn -1.000000 -0.000000 0.000000
vn -1.000000 -0.000000 0.000000
vn 0.000000 1.000000 0.000000
vn 0.000000 1.000000 0.000000
vn 0.000000 1.000000 0.000000
vn 0.000000 1.000000 0.000000
vn 0.000000 -0.000000 -1.000000
vn 0.000000 -0.000000 -1.000000
vn 0.000000 -0.000000 -1.000000
vn 0.000000 -0.000000 -1.000000
vn 0.873444 -0.000000 0.486925
vn 0.873444 -0.000000 0.486925
vn 0.873444 -0.000000 0.486925
vn 0.873444 -0.000000 0.486925
vn -0.873444 -0.000000 0.486925
vn -0.873444 -0.000000 0.486925
vn -0.873444 -0.000000 0.486925
vn -0.873444 -0.000000 0.486925
vn 0.000000 -0.000000 -1.000000
vn 0.000000 -0.000000 -1.000000
vn 0.000000 1.000000 0.000000
vn 0.000000 1.000000 0.000000
vn 0.000000 -1.000000 0.000000
vn 0.000000 -1.000000 0.000000
vn 1.000000 -0.000000 0.000000
vn 1.000000 -0.000000 0.000000
vn 1.000000 -0.000000 0.000000
vn 1.000000 -0.000000 0.000000
vn 0.000000 -1.000000 0.000000
vn 0.000000 -1.000000 0.000000
vn 0.000000 -1.000000 0.000000
vn 0.000000 -1.000000 0.000000
vn -1.000000 -0.000000 0.000000
vn -1.000000 -0.000000 0.000000
vn -1.000000 -0.000000 0.000000
vn -1.000000 -0.000000 0.000000
vn 0.000000 1.000000 0.000000
vn 0.000000 1.000000 0.000000
vn 0.000000 1.000000 0.000000
vn 0.000000 1.000000 0.000000
vn 0.000000 -0.000000 -1.000000
vn 0.000000 -0.000000 -1.000000
vn 0.000000 -0.000000 -1.000000
vn 0.000000 -0.000000 -1.000000
vn 0.873444 -0.000000 0.486925
vn 0.873444 -0.000000 0.486925
vn 0.873444 -0.000000 0.486925
vn 0.873444 -0.000000 0.486925
vn -0.873444 -0.000000 0.486925
vn -0.873444 -0.000000 0.486925
vn -0.873444 -0.000000 0.486925
vn -0.873444 -0.000000 0.486925
vn 0.000000 -0.000000 -1.000000
vn 0.000000 -0.000000 -1.000000
vn 0.000000 1.000000 0.000000
vn 0.000000 1.000000 0.000000
vn 0.000000 -1.000000 0.000000
vn 0.000000 -1.000000 0.000000
vn 1.000000 -0.000000 0.000000
vn 1.000000 -0.000000 0.000000
vn 1.000000 -0.000000 0.000000
vn 1.000000 -0.000000 0.000000
vn 0.000000 -1.000000 0.000000
vn 0.000000 -1.000000 0.000000
vn 0.000000 -1.000000 0.000000
vn 0.000000 -1.000000 0.000000
vn -1.000000 -0.000000 0.000000
vn -1.000000 -0.000000 0.000000
vn -1.000000 -0.000000 0.000000
vn -1.000000 -0.000000 0.000000
vn 0.000000 1.000000 0.000000
vn 0.000000 1.000000 0.000000
vn 0.000000 1.000000 0.000000
vn 0.000000 1.000000 0.000000
vn 0.000000 -0.000000 -1.000000
vn 0.000000 -0.000000 -1.000000
vn 0.000000 -0.000000 -1.000000
vn 0.000000 -0.000000 -1.000000
vn 0.873444 -0.000000 0.486925
vn 0.873444 -0.000000 0.486925
vn 0.873444 -0.000000 0.486925
vn 0.873444 -0.000000 0.486925
vn -0.873444 -0.000000 0.486925
vn -0.873444 -0.000000 0.486925
vn -0.873444 -0.000000 0.486925
vn -0.873444 -0.000000 0.486925
vn 0.000000 -0.000000 -1.000000
vn 0.000000 -0.000000 -1.000000
vn 0.000000 1.000000 0.000000
vn 0.000000 1.000000 0.000000
vn 0.000000 -1.000000 0.000000
vn 0.000000 -1.000000 0.000000
vn 1.000000 -0.000000 0.000000
vn 1.000000 -0.000000 0.000000
vn 1.000000 -0.000000 0.000000
vn 1.000000 -0.000000 0.000000
vn 0.000000 -1.000000 0.000000
vn 0.000000 -1.000000 0.000000
vn 0.000000 -1.000000 0.000000
vn 0.000000 -1.000000 0.000000
vn -1.000000 -0.000000 0.000000
vn -1.000000 -0.000000 0.000000
vn -1.000000 -0.000000 0.000000
vn -1.000000 -0.000000 0.000000
vn 0.000000 1.000000 0.000000
vn 0.000000 1.000000 0.000000
vn 0.000000 1.000000 0.000000
vn 0.000000 1.000000 0.000000
vn 0.000000 -0.000000 -1.000000
vn 0.000000 -0.000000 -1.000000
vn 0.000000 -0.000000 -1.000000
vn 0.000000 -0.000000 -1.000000
vn 0.873444 -0.000000 0.486925
vn 0.873444 -0.000000 0.486925
vn 0.873444 -0.000000 0.486925
vn 0.873444 -0.000000 0.486925
vn -0.873444 -0.000000 0.486925
vn -0.873444 -0.000000 0.486925
vn -0.873444 -0.000000 0.486925
vn -0.873444 -0.000000 0.486925
vn 0.000000 -0.000000 -1.000000
vn 0.000000 -0.000000 -1.000000
vn 0.000000 1.000000 0.000000
vn 0.000000 1.000000 0.000000
vn 0.000000 -1.000000 0.000000
vn 0.000000 -1.000000 0.000000
vn 1.000000 -0.000000 0.000000
vn 1.000000 -0.000000 0.000000
vn 1.000000 -0.000000 0.000000
vn 1.000000 -0.000000 0.000000
vn 0.000000 -1.000000 0.000000
vn 0.000000 -1.000000 0.000000
vn 0.000000 -1.000000 0.000000
vn 0.000000 -1.000000 0.000000
vn -1.000000 -0.000000 0.000000
vn -1.000000 -0.000000 0.000000
vn -1.000000 -0.000000 0.000000
vn -1.000000 -0.000000 0.000000
vn 0.000000 1.000000 0.000000
vn 0.000000 1.000000 0.000000
vn 0.000000 1.000000 0.000000
vn 0.000000 1.000000 0.000000
vn 0.000000 -0.000000 -1.000000
vn 0.000000 -0.000000 -1.000000
vn 0.000000 -0.000000 -1.000000
vn 0.000000 -0.000000 -1.000000
vn 0.873444 -0.000000 0.486925
vn 0.873444 -0.000000 0.486925
vn 0.873444 -0.000000 0.486925
vn 0.873444 -0.000000 0.486925
vn -0.873444 -0.000000 0.486925
vn -0.873444 -0.000000 0.486925
vn -0.873444 -0.000000 0.486925
vn -0.873444 -0.000000 0.486925
vn 0.000000 -0.000000 -1.000000
vn 0.000000 -0.000000 -1.000000
vn 0.000000 1.000000 0.000000
vn 0.000000 1.000000 0.000000
vn 0.000000 -1.000000 0.000000
vn 0.000000 -1.000000 0.000000
vn -1.000000 -0.000000 0.000000
vn -1.000000 -0.000000 0.000000
vn -1.000000 -0.000000 0.000000
vn -1.000000 -0.000000 0.000000
vn 0.000000 -1.000000 0.000000
vn 0.000000 -1.000000 0.000000
vn 0.000000 -1.000000 0.000000
vn 0.000000 -1.000000 0.000000
vn 1.000000 -0.000000 0.000000
vn 1.000000 -0.000000 0.000000
vn 1.000000 -0.000000 0.000000
vn 1.000000 -0.000000 0.000000
vn 0.000000 1.000000 0.000000
vn 0.000000 1.000000 0.000000
vn 0.000000 1.000000 0.000000
vn 0.000000 1.000000 0.000000
vn 0.000000 -0.000000 -1.000000
vn 0.000000 -0.000000 -1.000000
vn 0.000000 -0.000000 -1.000000
vn 0.000000 -0.000000 -1.000000
vn -0.873444 -0.000000 0.486925
vn -0.873444 -0.000000 0.486925
vn -0.873444 -0.000000 0.486925
vn -0.873444 -0.000000 0.486925
vn 0.873444 -0.000000 0.486925
vn 0.873444 -0.000000 0.486925
vn 0.873444 -0.000000 0.486925
vn 0.873444 -0.000000 0.486925
vn 0.000000 -0.000000 -1.000000
vn 0.000000 -0.000000 -1.000000
vn 0.000000 1.000000 0.000000
vn 0.000000 1.000000 0.000000
vn 0.000000 -1.000000 0.000000
vn 0.000000 -1.000000 0.000000
vn -1.000000 -0.000000 0.000000
vn -1.000000 -0.000000 0.000000
vn -1.000000 -0.000000 0.000000
vn -1.000000 -0.000000 0.000000
vn 0.000000 -1.000000 0.000000
vn 0.000000 -1.000000 0.000000
vn 0.000000 -1.000000 0.000000
vn 0.000000 -1.000000 0.000000
vn 1.000000 -0.000000 0.000000
vn 1.000000 -0.000000 0.000000
vn 1.000000 -0.000000 0.000000
vn 1.000000 -0.000000 0.000000
vn 0.000000 1.000000 0.000000
vn 0.000000 1.000000 0.000000
vn 0.000000 1.000000 0.000000
vn 0.000000 1.000000 0.000000
vn 0.000000 -0.000000 -1.000000
vn 0.000000 -0.000000 -1.000000
vn 0.000000 -0.000000 -1.000000
vn 0.000000 -0.000000 -1.000000
vn -0.873444 -0.000000 0.486925
vn -0.873444 -0.000000 0.486925
vn -0.873444 -0.000000 0.486925
vn -0.873444 -0.000000 0.486925
vn 0.873444 -0.000000 0.486925
vn 0.873444 -0.000000 0.486925
vn 0.873444 -0.000000 0.486925
vn 0.873444 -0.000000 0.486925
vn 0.000000 -0.000000 -1.000000
vn 0.000000 -0.000000 -1.000000
vn 0.000000 1.000000 0.000000
vn 0.000000 1.000000 0.000000
vn 0.000000 -1.000000 0.000000
vn 0.000000 -1.000000 0.000000
vn -1.000000 -0.000000 0.000000
vn -1.000000 -0.000000 0.000000
vn -1.000000 -0.000000 0.000000
vn -1.000000 -0.000000 0.000000
vn 0.000000 -1.000000 0.000000
vn 0.000000 -1.000000 0.000000
vn 0.000000 -1.000000 0.000000
vn 0.000000 -1.000000 0.000000
vn 1.000000 -0.000000 0.000000
vn 1.000000 -0.000000 0.000000
vn 1.000000 -0.000000 0.000000
vn 1.000000 -0.000000 0.000000
vn 0.000000 1.000000 0.000000
vn 0.000000 1.000000 0.000000
vn 0.000000 1.000000 0.000000
vn 0.000000 1.000000 0.000000
vn 0.000000 -0.000000 -1.000000
vn 0.000000 -0.000000 -1.000000
vn 0.000000 -0.000000 -1.000000
vn 0.000000 -0.000000 -1.000000
vn -0.873444 -0.000000 0.486925
vn -0.873444 -0.000000 0.486925
vn -0.873444 -0.000000 0.486925
vn -0.873444 -0.000000 0.486925
vn 0.873444 -0.000000 0.486925
vn 0.873444 -0.000000 0.486925
vn 0.873444 -0.000000 0.486925
vn 0.873444 -0.000000 0.486925
vn 0.000000 -0.000000 -1.000000
vn 0.000000 -0.000000 -1.000000
vn 0.000000 1.000000 0.000000
vn 0.000000 1.000000 0.000000
vn 0.000000 -1.000000 0.000000
vn 0.000000 -1.000000 0.000000
vn -1.000000 -0.000000 0.000000
vn -1.000000 -0.000000 0.000000
vn -1.000000 -0.000000 0.000000
vn -1.000000 -0.000000 0.000000
vn 0.000000 -1.000000 0.000000
vn 0.000000 -1.000000 0.000000
vn 0.000000 -1.000000 0.000000
vn 0.000000 -1.000000 0.000000
vn 1.000000 -0.000000 0.000000
vn 1.000000 -0.000000 0.000000
vn 1.000000 -0.000000 0.000000
vn 1.000000 -0.000000 0.000000
vn 0.000000 1.000000 0.000000
vn 0.000000 1.000000 0.000000
vn 0.000000 1.000000 0.000000
vn 0.000000 1.000000 0.000000
vn 0.000000 -0.000000 -1.000000
vn 0.000000 -0.000000 -1.000000
vn 0.000000 -0.000000 -1.000000
vn 0.000000 -0.000000 -1.000000
vn -0.873444 -0.000000 0.486925
vn -0.873444 -0.000000 0.486925
vn -0.873444 -0.000000 0.486925
vn -0.873444 -0.000000 0.486925
vn 0.873444 -0.000000 0.486925
vn 0.873444 -0.000000 0.486925
vn 0.873444 -0.000000 0.486925
vn 0.873444 -0.000000 0.486925
vn 0.000000 -0.000000 -1.000000
vn 0.000000 -0.000000 -1.000000
vn 0.000000 1.000000 0.000000
vn 0.000000 1.000000 0.000000
vn 0.000000 -1.000000 0.000000
vn 0.000000 -1.000000 0.000000
vn -1.000000 -0.000000 0.000000
vn -1.000000 -0.000000 0.000000
vn -1.000000 -0.000000 0.000000
vn -1.000000 -0.000000 0.000000
vn 0.000000 -1.000000 0.000000
vn 0.000000 -1.000000 0.000000
vn 0.000000 -1.000000 0.000000
vn 0.000000 -1.000000 0.000000
vn 1.000000 -0.000000 0.000000
vn 1.000000 -0.000000 0.000000
vn 1.000000 -0.000000 0.000000
vn 1.000000 -0.000000 0.000000
vn 0.000000 1.000000 0.000000
vn 0.000000 1.000000 0.000000
vn 0.000000 1.000000 0.000000
vn 0.000000 1.000000 0.000000
vn 0.000000 -0.000000 -1.000000
vn 0.000000 -0.000000 -1.000000
vn 0.000000 -0.000000 -1.000000
vn 0.000000 -0.000000 -1.000000
vn -0.873444 -0.000000 0.486925
vn -0.873444 -0.000000 0.486925
vn -0.873444 -0.000000 0.486925
vn -0.873444 -0.000000 0.486925
vn 0.873444 -0.000000 0.486925
vn 0.873444 -0.000000 0.486925
vn 0.873444 -0.000000 0.486925
vn 0.873444 -0.000000 0.486925
vn 0.000000 -0.000000 -1.000000
vn 0.000000 -0.000000 -1.000000
vn 0.000000 1.000000 0.000000
vn 0.000000 1.000000 0.000000
vn 0.000000 -1.000000 0.000000
vn 0.000000 -1.000000 0.000000
vn -1.000000 -0.000000 0.000000
vn -1.000000 -0.000000 0.000000
vn -1.000000 -0.000000 0.000000
vn -1.000000 -0.000000 0.000000
vn 0.000000 -1.000000 0.000000
vn 0.000000 -1.000000 0.000000
vn 0.000000 -1.000000 0.000000
vn 0.000000 -1.000000 0.000000
vn 1.000000 -0.000000 0.000000
vn 1.000000 -0.000000 0.000000
vn 1.000000 -0.000000 0.000000
vn 1.000000 -0.000000 0.000000
vn 0.000000 1.000000 0.000000
vn 0.000000 1.000000 0.000000
vn 0.000000 1.000000 0.000000
vn 0.000000 1.000000 0.000000
vn 0.000000 -0.000000 -1.000000
vn 0.000000 -0.000000 -1.000000
vn 0.000000 -0.000000 -1.000000
vn 0.000000 -0.000000 -1.000000
vn -0.873444 -0.000000 0.486925
vn -0.873444 -0.000000 0.486925
vn -0.873444 -0.000000 0.486925
vn -0.873444 -0.000000 0.486925
vn 0.873444 -0.000000 0.486925
vn 0.873444 -0.000000 0.486925
vn 0.873444 -0.000000 0.486925
vn 0.873444 -0.000000 0.486925
vn 0.000000 -0.000000 -1.000000
vn 0.000000 -0.000000 -1.000000
vn 0.000000 1.000000 0.000000
vn 0.000000 1.000000 0.000000
vn 0.000000 -1.000000 0.000000
vn 0.000000 -1.000000 0.000000
vn 1.000000 -0.000000 0.000000
vn 1.000000 -0.000000 0.000000
vn 1.000000 -0.000000 0.000000
vn 1.000000 -0.000000 0.000000
vn 0.000000 -1.000000 0.000000
vn 0.000000 -1.000000 0.000000
vn 0.000000 -1.000000 0.000000
vn 0.000000 -1.000000 0.000000
vn -1.000000 -0.000000 0.000000
vn -1.000000 -0.000000 0.000000
vn -1.000000 -0.000000 0.000000
vn -1.000000 -0.000000 0.000000
vn 0.000000 1.000000 0.000000
vn 0.000000 1.000000 0.000000
vn 0.000000 1.000000 0.000000
vn 0.000000 1.000000 0.000000
vn 0.000000 -0.000000 -1.000000
vn 0.000000 -0.000000 -1.000000
vn 0.000000 -0.000000 -1.000000
vn 0.000000 -0.000000 -1.000000
vn 0.000000 -0.000000 1.000000
vn 0.000000 -0.000000 1.000000
vn 0.000000 -0.000000 1.000000
vn 0.000000 -0.000000 1.000000
vn 0.000000 -0.000000 1.000000
vn 0.000000 -0.000000 1.000000
vn 0.000000 -0.000000 1.000000
vn 0.000000 -0.000000 1.000000
vn 0.000000 1.000000 0.000000
vn 0.000000 1.000000 0.000000
vn 0.000000 1.000000 0.000000
vn 0.000000 1.000000 0.000000
vn 0.000000 -0.000000 1.000000
vn 0.000000 -0.000000 1.000000
vn 0.000000 -0.000000 1.000000
vn 0.000000 -0.000000 1.000000
vn 0.005000 -0.999988 0.000000
vn 0.005000 -0.999988 0.000000
vn 0.005000 -0.999988 0.000000
vn 0.005000 -0.999988 0.000000
vn 0.000000 -0.000000 -1.000000
vn 0.000000 -0.000000 -1.000000
vn 0.000000 -0.000000 -1.000000
vn 0.000000 -0.000000 -1.000000
vn 0.005000 0.999988 0.000000
vn 0.005000 0.999988 0.000000
vn 0.005000 0.999988 0.000000
vn 0.005000 0.999988 0.000000
vn 1.000000 -0.000000 0.000000
vn 1.000000 -0.000000 0.000000
vn 1.000000 -0.000000 0.000000
vn 1.000000 -0.000000 0.000000
vn 0.000000 -0.000000 1.000000
vn 0.000000 -0.000000 1.000000
vn 0.000000 -0.000000 1.000000
vn 0.000000 -0.000000 1.000000
vn 0.005000 -0.999988 0.000000
vn 0.005000 -0.999988 0.000000
vn 0.005000 -0.999988 0.000000
vn 0.005000 -0.999988 0.000000
vn 0.000000 -0.000000 -1.000000
vn 0.000000 -0.000000 -1.000000
vn 0.000000 -0.000000 -1.000000
vn 0.000000 -0.000000 -1.000000
vn 0.005000 0.999988 0.000000
vn 0.005000 0.999988 0.000000
vn 0.005000 0.999988 0.000000
vn 0.005000 0.999988 0.000000
vn 1.000000 -0.000000 0.000000
vn 1.000000 -0.000000 0.000000
vn 1.000000 -0.000000 0.000000
vn 1.000000 -0.000000 0.000000
vn 1.000000 -0.000000 0.000000
vn 1.000000 -0.000000 0.000000
vn 1.000000 -0.000000 0.000000
vn 1.000000 -0.000000 0.000000
vn 0.000000 -1.000000 0.000000
vn 0.000000 -1.000000 0.000000
vn 0.000000 -1.000000 0.000000
vn 0.000000 -1.000000 0.000000
vn 0.000000 -0.000000 -1.000000
vn 0.000000 -0.000000 -1.000000
vn 0.000000 -0.000000 -1.000000
vn 0.000000 -0.000000 -1.000000
vn -1.000000 -0.000000 0.000000
vn -1.000000 -0.000000 0.000000
vn -1.000000 -0.000000 0.000000
vn -1.000000 -0.000000 0.000000
vn 0.000000 -1.000000 0.000000
vn 0.000000 -1.000000 0.000000
vn 0.000000 -1.000000 0.000000
vn 0.000000 -1.000000 0.000000
vn 1.000000 -0.000000 0.000000
vn 1.000000 -0.000000 0.000000
vn 1.000000 -0.000000 0.000000
vn 1.000000 -0.000000 0.000000
vn 0.000000 1.000000 0.000000
vn 0.000000 1.000000 0.000000
vn 0.000000 1.000000 0.000000
vn 0.000000 1.000000 0.000000
vn 0.000000 -0.000000 -1.000000
vn 0.000000 -0.000000 -1.000000
vn 0.000000 -0.000000 -1.000000
vn 0.000000 -0.000000 -1.000000
vn 0.000000 -0.000000 1.000000
vn 0.000000 -0.000000 1.000000
vn 0.000000 -0.000000 1.000000
vn 0.000000 -0.000000 1.000000
vn 0.000000 -0.000000 1.000000
vn 0.000000 -0.000000 1.000000
vn 0.000000 1.000000 0.000000
vn 0.000000 1.000000 0.000000
vn 0.000000 -0.000000 1.000000
vn 0.000000 -0.000000 1.000000
vn -0.005000 -0.999988 0.000000
vn -0.005000 -0.999988 0.000000
vn -0.005000 -0.999988 0.000000
vn -0.005000 -0.999988 0.000000
vn 0.000000 -0.000000 -1.000000
vn 0.000000 -0.000000 -1.000000
vn -0.005000 0.999988 0.000000
vn -0.005000 0.999988 0.000000
vn -0.005000 0.999988 0.000000
vn -0.005000 0.999988 0.000000
vn -1.000000 -0.000000 0.000000
vn -1.000000 -0.000000 0.000000
vn -1.000000 -0.000000 0.000000
vn -1.000000 -0.000000 0.000000
vn 0.000000 -0.000000 1.000000
vn 0.000000 -0.000000 1.000000
vn -0.005000 -0.999988 0.000000
vn -0.005000 -0.999988 0.000000
vn -0.005000 -0.999988 0.000000
vn -0.005000 -0.999988 0.000000
vn 0.000000 -0.000000 -1.000000
vn 0.000000 -0.000000 -1.000000
vn -0.005000 0.999988 0.000000
vn -0.005000 0.999988 0.000000
vn -0.005000 0.999988 0.000000
vn -0.005000 0.999988 0.000000
vn -1.000000 -0.000000 0.000000
vn -1.000000 -0.000000 0.000000
vn -1.000000 -0.000000 0.000000
vn -1.000000 -0.000000 0.000000
vn -1.000000 -0.000000 0.000000
vn -1.000000 -0.000000 0.000000
vn -1.000000 -0.000000 0.000000
vn -1.000000 -0.000000 0.000000
vn 0.000000 -1.000000 0.000000
vn 0.000000 -1.000000 0.000000
vn 0.000000 -0.000000 -1.000000
vn 0.000000 -0.000000 -1.000000
f 3/3/3 4/4/4 1/1/1
f 1/1/1 2/2/2 3/3/3
f 7/7/7 8/8/8 5/5/5
f 5/5/5 6/6/6 7/7/7
f 10/10/10 12/12/12 9/9/9
f 12/12/12 10/10/10 11/11/11
f 14/14/14 16/16/16 13/13/13
f 16/16/16 14/14/14 15/15/15
f 19/19/19 20/20/20 17/17/17
f 17/17/17 18/18/18 19/19/19
f 23/23/23 24/24/24 21/21/21
f 21/21/21 22/22/22 23/23/23
f 26/26/26 28/28/28 25/25/25
f 28/28/28 26/26/26 27/27/27
f 20/20/20 30/30/30 29/29/29
f 29/29/29 17/17/17 20/20/20
f 32/32/32 13/13/13 31/31/31
f 13/13/13 32/32/32 14/14/14
f 6/6/6 5/5/5 33/33/33
f 33/33/33 34/34/34 6/6/6
f 37/37/37 38/38/38 35/35/35
f 35/35/35 36/36/36 37/37/37
f 41/41/41 42/42/42 39/39/39
f 39/39/39 40/40/40 41/41/41
f 44/44/44 46/46/46 43/43/43
f 46/46/46 44/44/44 45/45/45
f 48/48/48 50/50/50 47/47/47
f 50/50/50 48/48/48 49/49/49
f 53/53/53 54/54/54 51/51/51
f 51/51/51 52/52/52 53/53/53
f 57/57/57 58/58/58 55/55/55
f 55/55/55 56/56/56 57/57/57
f 60/60/60 62/62/62 59/59/59
f 62/62/62 60/60/60 61/61/61
f 54/54/54 64/64/64 63/63/63
f 63/63/63 51/51/51 54/54/54
f 66/66/66 47/47/47 65/65/65
f 47/47/47 66/66/66 48/48/48
f 40/40/40 39/39/39 67/67/67
f 67/67/67 68/68/68 40/40/40
f 71/71/71 72/72/72 69/69/69
f 69/69/69 70/70/70 71/71/71
f 75/75/75 76/76/76 73/73/73
f 73/73/73 74/74/74 75/75/75
f 78/78/78 80/80/80 77/77/77
f 80/80/80 78/78/78 79/79/79
f 82/82/82 84/84/84 81/81/81
f 84/84/84 82/82/82 83/83/83
f 87/87/87 88/88/88 85/85/85
f 85/85/85 86/86/86 87/87/87
f 91/91/91 92/92/92 89/89/89
f 89/89/89 90/90/90 91/91/91
f 94/94/94 96/96/96 93/93/93
f 96/96/96 94/94/94 95/95/95
f 88/88/88 98/98/98 97/97/97
f 97/97/97 85/85/85 88/88/88
f 100/100/100 81/81/81 99/99/99
f 81/81/81 100/100/100 82/82/82
f 74/74/74 73/73/73 101/101/101
f 101/101/101 102/102/102 74/74/74
f 105/105/105 106/106/106 103/103/103
f 103/103/103 104/104/104 105/105/105
f 109/109/109 110/110/110 107/107/107
f 107/107/107 108/108/108 109/109/109
f 112/112/112 114/114/114 111/111/111
f 114/114/114 112/112/112 113/113/113
f 116/116/116 118/118/118 115/115/115
f 118/118/118 116/116/116 117/117/117
f 121/121/121 122/122/122 119/119/119
f 119/119/119 120/120/120 121/121/121
f 125/125/125 126/126/126 123/123/123
f 123/123/123 124/124/124 125/125/125
f 128/128/128 130/130/130 127/127/127
f 130/130/130 128/128/128 129/129/129
f 122/122/122 132/132/132 131/131/131
f 131/131/131 119/119/119 122/122/122
f 134/134/134 115/115/115 133/133/133
f 115/115/115 134/134/134 116/116/116
f 108/108/108 107/107/107 135/135/135
f 135/135/135 136/136/136 108/108/108
f 139/139/139 140/140/140 137/137/137
f 137/137/137 138/138/138 139/139/139
f 143/143/143 144/144/144 141/141/141
f 141/141/141 142/142/142 143/143/143
f 146/146/146 148/148/148 145/145/145
f 148/148/148 146/146/146 147/147/147
f 150/150/150 152/152/152 149/149/149
f 152/152/152 150/150/150 151/151/151
f 155/155/155 156/156/156 153/153/153
f 153/153/153 154/154/154 155/155/155
f 159/159/159 160/160/160 157/157/157
f 157/157/157 158/158/158 159/159/159
f 162/162/162 164/164/164 161/161/161
f 164/164/164 162/162/162 163/163/163
f 156/156/156 166/166/166 165/165/165
f 165/165/165 153/153/153 156/156/156
f 168/168/168 149/149/149 167/167/167
f 149/149/149 168/168/168 150/150/150
f 142/142/142 141/141/141 169/169/169
f 169/169/169 170/170/170 142/142/142
f 173/173/173 174/174/174 171/171/171
f 171/171/171 172/172/172 173/173/173
f 177/177/177 178/178/178 175/175/175
f 175/175/175 176/176/176 177/177/177
f 180/180/180 182/182/182 179/179/179
f 182/182/182 180/180/180 181/181/181
f 184/184/184 186/186/186 183/183/183
f 186/186/186 184/184/184 185/185/185
f 189/189/189 190/190/190 187/187/187
f 187/187/187 188/188/188 189/189/189
f 193/193/193 194/194/194 191/191/191
f 191/191/191 192/192/192 193/193/193
f 196/196/196 198/198/198 195/195/195
f 198/198/198 196/196/196 197/197/197
f 190/190/190 200/200/200 199/199/199
f 199/199/199 187/187/187 190/190/190
f 202/202/202 183/183/183 201/201/201
f 183/183/183 202/202/202 184/184/184
f 176/176/176 175/175/175 203/203/203
f 203/203/203 204/204/204 176/176/176
f 206/206/206 208/208/208 205/205/205
f 208/208/208 206/206/206 207/207/207
f 211/211/211 212/212/212 209/209/209
f 209/209/209 210/210/210 211/211/211
f 215/215/215 216/216/216 213/213/213
f 213/213/213 214/214/214 215/215/215
f 218/218/218 220/220/220 217/217/217
f 220/220/220 218/218/218 219/219/219
f 223/223/223 224/224/224 221/221/221
f 221/221/221 222/222/222 223/223/223
f 226/226/226 228/228/228 225/225/225
f 228/228/228 226/226/226 227/227/227
f 231/231/231 232/232/232 229/229/229
f 229/229/229 230/230/230 231/231/231
f 222/222/222 221/221/221 233/233/233
f 233/233/233 234/234/234 222/222/222
f 217/217/217 236/236/236 235/235/235
f 236/236/236 217/217/217 220/220/220
f 212/212/212 238/238/238 237/237/237
f 237/237/237 209/209/209 212/212/212
f 240/240/240 242/242/242 239/239/239
f 242/242/242 240/240/240 241/241/241
f 245/245/245 246/246/246 243/243/243
f 243/243/243 244/244/244 245/245/245
f 249/249/249 250/250/250 247/247/247
f 247/247/247 248/248/248 249/249/249
f 252/252/252 254/254/254 251/251/251
f 254/254/254 252/252/252 253/253/253
f 257/257/257 258/258/258 255/255/255
f 255/255/255 256/256/256 257/257/257
f 260/260/260 262/262/262 259/259/259
f 262/262/262 260/260/260 261/261/261
f 265/265/265 266/266/266 263/263/263
f 263/263/263 264/264/264 265/265/265
f 256/256/256 255/255/255 267/267/267
f 267/267/267 268/268/268 256/256/256
f 251/251/251 270/270/270 269/269/269
f 270/270/270 251/251/251 254/254/254
f 246/246/246 272/272/272 271/271/271
f 271/271/271 243/243/243 246/246/246
f 274/274/274 276/276/276 273/273/273
f 276/276/276 274/274/274 275/275/275
f 279/279/279 280/280/280 277/277/277
f 277/277/277 278/278/278 279/279/279
f 283/283/283 284/284/284 281/281/281
f 281/281/281 282/282/282 283/283/283
f 286/286/286 288/288/288 285/285/285
f 288/288/288 286/286/286 287/287/287
f 291/291/291 292/292/292 289/289/289
f 289/289/289 290/290/290 291/291/291
f 294/294/294 296/296/296 293/293/293
f 296/296/296 294/294/294 295/295/295
f 299/299/299 300/300/300 297/297/297
f 297/297/297 298/298/298 299/299/299
f 290/290/290 289/289/289 301/301/301
f 301/301/301 302/302/302 290/290/290
f 285/285/285 304/304/304 303/303/303
f 304/304/304 285/285/285 288/288/288
f 280/280/280 306/306/306 305/305/305
f 305/305/305 277/277/277 280/280/280
f 308/308/308 310/310/310 307/307/307
f 310/310/310 308/308/308 309/309/309
f 313/313/313 314/314/314 311/311/311
f 311/311/311 312/312/312 313/313/313
f 317/317/317 318/318/318 315/315/315
f 315/315/315 316/316/316 317/317/317
f 320/320/320 322/322/322 319/319/319
f 322/322/322 320/320/320 321/321/321
f 325/325/325 326/326/326 323/323/323
f 323/323/323 324/324/324 325/325/325
f 328/328/328 330/330/330 327/327/327
f 330/330/330 328/328/328 329/329/329
f 333/333/333 334/334/334 331/331/331
f 331/331/331 332/332/332 333/333/333
f 324/324/324 323/323/323 335/335/335
f 335/335/335 336/336/336 324/324/324
f 319/319/319 338/338/338 337/337/337
f 338/338/338 319/319/319 322/322/322
f 314/314/314 340/340/340 339/339/339
f 339/339/339 311/311/311 314/314/314
f 342/342/342 344/344/344 341/341/341
f 344/344/344 342/342/342 343/343/343
f 347/347/347 348/348/348 345/345/345
f 345/345/345 346/346/346 347/347/347
f 351/351/351 352/352/352 349/349/349
f 349/349/349 350/350/350 351/351/351
f 354/354/354 356/356/356 353/353/353
f 356/356/356 354/354/354 355/355/355
f 359/359/359 360/360/360 357/357/357
f 357/357/357 358/358/358 359/359/359
f 362/362/362 364/364/364 361/361/361
f 364/364/364 362/362/362 363/363/363
f 367/367/367 368/368/368 365/365/365
f 365/365/365 366/366/366 367/367/367
f 358/358/358 357/357/357 369/369/369
f 369/369/369 370/370/370 358/358/358
f 353/353/353 372/372/372 371/371/371
f 372/372/372 353/353/353 356/356/356
f 348/348/348 374/374/374 373/373/373
f 373/373/373 345/345/345 348/348/348
f 376/376/376 378/378/378 375/375/375
f 378/378/378 376/376/376 377/377/377
f 381/381/381 382/382/382 379/379/379
f 379/379/379 380/380/380 381/381/381
f 385/385/385 386/386/386 383/383/383
f 383/383/383 384/384/384 385/385/385
f 388/388/388 390/390/390 387/387/387
f 390/390/390 388/388/388 389/389/389
f 393/393/393 394/394/394 391/391/391
f 391/391/391 392/392/392 393/393/393
f 396/396/396 398/398/398 395/395/395
f 398/398/398 396/396/396 397/397/397
f 401/401/401 402/402/402 399/399/399
f 399/399/399 400/400/400 401/401/401
f 392/392/392 391/391/391 403/403/403
f 403/403/403 404/404/404 392/392/392
f 387/387/387 406/406/406 405/405/405
f 406/406/406 387/387/387 390/390/390
f 382/382/382 408/408/408 407/407/407
f 407/407/407 379/379/379 382/382/382
f 411/411/411 412/412/412 409/409/409
f 409/409/409 410/410/410 411/411/411
f 415/415/415 416/416/416 413/413/413
f 413/413/413 414/414/414 415/415/415
f 418/418/418 420/420/420 417/417/417
f 420/420/420 418/418/418 419/419/419
f 422/422/422 424/424/424 421/421/421
f 424/424/424 422/422/422 423/423/423
f 427/427/427 428/428/428 425/425/425
f 425/425/425 426/426/426 427/427/427
f 430/430/430 432/432/432 429/429/429
f 432/432/432 430/430/430 431/431/431
f 434/434/434 436/436/436 433/433/433
f 436/436/436 434/434/434 435/435/435
f 438/438/438 440/440/440 437/437/437
f 440/440/440 438/438/438 439/439/439
f 442/442/442 444/444/444 441/441/441
f 444/444/444 442/442/442 443/443/443
f 447/447/447 448/448/448 445/445/445
f 445/445/445 446/446/446 447/447/447
f 451/451/451 452/452/452 449/449/449
f 449/449/449 450/450/450 451/451/451
f 454/454/454 456/456/456 453/453/453
f 456/456/456 454/454/454 455/455/455
f 459/459/459 460/460/460 457/457/457
f 457/457/457 458/458/458 459/459/459
f 462/462/462 464/464/464 461/461/461
f 464/464/464 462/462/462 463/463/463
f 467/467/467 468/468/468 465/465/465
f 465/465/465 466/466/466 467/467/467
f 471/471/471 472/472/472 469/469/469
f 469/469/469 470/470/470 471/471/471
f 474/474/474 476/476/476 473/473/473
f 476/476/476 474/474/474 475/475/475
f 479/479/479 480/480/480 477/477/477
f 477/477/477 478/478/478 479/479/479
f 483/483/483 484/484/484 481/481/481
f 481/481/481 482/482/482 483/483/483
f 487/487/487 488/488/488 485/485/485
f 485/485/485 486/486/486 487/487/487
f 491/491/491 492/492/492 489/489/489
f 489/489/489 490/490/490 491/491/491
f 494/494/494 496/496/496 493/493/493
f 496/496/496 494/494/494 495/495/495
f 499/499/499 500/500/500 497/497/497
f 497/497/497 498/498/498 499/499/499
f 503/503/503 504/504/504 501/501/501
f 501/501/501 502/502/502 503/503/503
f 506/506/506 508/508/508 505/505/505
f 508/508/508 506/506/506 507/507/507
f 511/511/511 512/512/512 509/509/509
f 509/509/509 510/510/510 511/511/511
f 514/514/514 516/516/516 513/513/513
f 516/516/516 514/514/514 515/515/515
f 436/436/436 518/518/518 433/433/433
f 518/518/518 436/436/436 517/517/517
f 519/519/519 438/438/438 437/437/437
f 438/438/438 519/519/519 520/520/520
f 522/522/522 442/442/442 521/521/521
f 442/442/442 522/522/522 443/443/443
f 525/525/525 526/526/526 523/523/523
f 523/523/523 524/524/524 525/525/525
f 451/451/451 450/450/450 527/527/527
f 527/527/527 528/528/528 451/451/451
f 530/530/530 532/532/532 529/529/529
f 532/532/532 530/530/530 531/531/531
f 534/534/534 536/536/536 533/533/533
f 536/536/536 534/534/534 535/535/535
f 538/538/538 462/462/462 537/537/537
f 462/462/462 538/538/538 463/463/463
f 541/541/541 542/542/542 539/539/539
f 539/539/539 540/540/540 541/541/541
f 471/471/471 470/470/470 543/543/543
f 543/543/543 544/544/544 471/471/471
f 546/546/546 548/548/548 545/545/545
f 548/548/548 546/546/546 547/547/547
f 550/550/550 552/552/552 549/549/549
f 552/552/552 550/550/550 551/551/551
f 554/554/554 556/556/556 553/553/553
f 556/556/556 554/554/554 555/555/555
f 487/487/487 558/558/558 557/557/557
f 557/557/557 488/488/488 487/487/487
f 491/491/491 490/490/490 559/559/559
f 559/559/559 560/560/560 491/491/491
