# Shared OBJ attributes; Tools/Art/compact_obj.py
v -25.713 -4.358 25.71
v -24.064 -11.1 24.909
v -19.807 -9.857 34.149
v -26.573 -4.273 30.465
v -15.497 -0.416 27.184
v -22.173 -0.427 26.882
v -19.344 0.323 30.251
v -22.3 -0.033 34.125
v -23.364 -1.073 19.515
v -14.781 -0.753 40.835
v -15.604 -13.846 20.09
v -11.243 -13.605 21.961
v -18.161 -14.616 27.501
v -14.552 -6.877 14.445
v -8.779 -15.504 13.717
v -17.404 -5.98 21.221
v -9.658 -4.65 17.111
v -19.22 -0.118 16.303
v -11.6 -17.064 20.233
v -9.861 -11.104 19.191
v -8.568 -15.427 24.591
v -5.893 -12.329 11.359
v -15.887 -6.587 23.958
v -11.379 -7.567 30.804
v -8.535 -4.558 12.354
v -9.452 -7.944 19.775
v -9.936 -2.193 22.904
v -7.885 -4.671 32.462
v -12.787 -5.016 26.83
v -12.021 -1.866 27.628
v -7.381 -0.99 22.365
v -13.047 -0.19 16.952
v -0.922 -19.542 19.629
v -13.155 -14.7 31.149
v -6.516 -18.756 27.3
v -8.486 -13.961 34.834
v -2.4 -13.611 25.772
v -0.916 -11.184 17.325
v -7.029 -0.641 43.85
v -16.658 -6.264 39.542
v -5.587 -10.314 39.857
v -5.792 2.318 13.381
v -5.722 -2.74 17.37
v -7.308 2.141 16.883
v -5.816 1.745 19.36
v -5.272 -2.024 18.735
v -6.748 0.326 18.777
v -6.686 2.347 21.906
v -5.999 -0.159 25.692
v -8.788 0.852 23.045
v 8.315 -0.803 32.056
v -5.351 -0.063 33.469
v -10.225 -1.315 38.186
v -6.314 1.267 38.841
v 2.347 -17.709 14.556
v -2.368 -17.334 25.319
v -3.776 -11.879 19.369
v 0.737 -20.284 30.117
v -1.138 -10.505 39.276
v -7.079 -10.902 24.443
v -4.796 -6.011 19.082
v -1.451 -11.604 27.762
v -0.088 -10.474 14.693
v -1.195 -3.824 17.988
v 2.234 -0.29 27.725
v 1.797 1.056 38.504
v 2.998 -16.557 26.237
v 2.7 -12.229 39.443
v 4.689 -12.194 26.232
v -1.522 -11.314 28.144
v -1.463 -11.16 27.872
v -1.651 -11.117 27.905
v 6.431 -10.985 22.893
v 4.165 -7.809 20.901
v 3.156 -9.102 31.383
v -0.816 -3.49 43.745
v 5.032 -3.294 19.017
v 7.235 -6.091 29.922
v 3.162 -3.216 28.166
v -24.27 4.877 21.205
v -23.563 1.056 22.234
v -26.376 3.719 28.191
v -24.529 10.895 25.351
v -16 12.831 20.244
v -20.999 9.366 32.776
v -17.609 6.285 21.528
v -17.921 2.303 40.109
v -17.108 7.904 38.139
v -18.417 14.557 27.308
v -8.171 8.31 41.872
v -13.198 14.44 31.112
v -14.308 1.403 35.023
v -12.462 4.454 15.695
v -13.408 16.737 19.694
v -12.663 12.722 13.734
v -11.027 13.269 22.301
v -12.795 4.609 22.137
v -16.089 5.753 25.831
v -7.492 1.307 30.406
v -9.425 9.542 20.474
v -12.76 5.951 26.766
v -12.483 7.55 30.376
v -6.805 5.673 32.674
v -8.01 5.186 11.86
v -5.779 12.3 11.131
v -8.875 9.862 18.518
v -6.764 12.062 24.388
v -8.206 13.92 34.748
v -5.073 11.193 39.657
v -8.216 17.151 17.44
v -8.611 16.635 24.825
v -7.928 0.668 43.976
v -0.395 3.56 29.127
v -7.955 4.997 31.672
v -7.995 5.047 31.525
v -8.259 5.035 31.658
v -4.037 10.851 27.801
v -7.404 14.246 24.143
v 2.974 1.002 33.42
v -1.894 2.195 19.032
v -4.483 6.148 18.9
v -5.022 5.839 19.209
v 4.924 10.992 22.274
v -0.245 6.906 19.946
v 0.264 11.417 16.988
v -4.481 11.86 19.486
v -1.63 15.893 25.643
v 3.757 12.881 26.049
v -1.31 15.03 35.345
v -5.679 19.078 28.194
v 2.704 2.533 27.169
v 2.247 0.457 23.139
v 0.75 10.75 14.918
v 2.159 5.326 16.388
v 5.629 3.699 28.828
v 6.976 16.287 13.601
v 8.367 20.266 21.586
v 0.419 18.028 15.568
v -0.606 -21.196 23.487
v 6.141 -19.382 27.407
v 1.851 -6.008 12.071
v 8.419 -1.758 21.286
v 10.521 -15.712 8.007
v 4.994 -14.709 11.154
v 5.813 -8.242 6.503
v 8.225 -14.724 13.288
v 9.013 -14.434 38.362
v 8.366 -9.545 16.978
v 9.022 -9.065 20.184
v 3.998 -11.088 27.713
v 3.619 -10.86 27.958
v 3.859 -11.334 27.897
v 9.245 -4.656 17.666
v 6.052 -5.764 24.657
v 7.076 -4.868 27.225
v 6.402 -0.146 43.959
v 6.055 -6.569 41.816
v 1.239 -0.14 43.196
v 3.461 -1.204 38.575
v 11.734 -20.033 24.244
v 13.663 -7.761 39.099
v 14.308 -9.136 25.571
v 7.663 -4.093 18.3
v 7.293 -3.56 18.488
v 7.172 -3.772 18.62
v 3.15 -2.554 6.757
v 8.171 2.575 0.422
v 9.097 -2.41 1.215
v 10.808 -1.035 35.164
v 6.357 0.003 39.279
v 9.905 0.908 35.942
v 10.112 -18.593 32.705
v 16.611 -13.724 13.514
v 18.027 -8.78 7.806
v 14.223 -2.664 19.642
v 17.192 -17.854 25.256
v 17.614 -13.871 32.365
v 17.924 -3.564 14.997
v 15.381 -11.591 14.453
v 19.701 -0.129 19.917
v 19.965 -0.664 36.216
v 22.917 -8.992 28.055
v 13.06 -2.994 6.114
v 20.875 -3.544 12.408
v 15.678 0.644 10
v 18.001 -0.539 26.709
v 25.116 -0.646 17.334
v 23.852 -2.637 29.91
v 18.89 0.582 16.7
v 20.885 -14.089 23.485
v 17.394 -16.181 22.12
v 22.326 -9.486 15.474
v 26.812 -3.873 17.282
v 23.481 -0.126 12.965
v 23.915 -0.138 24.225
v 5.801 4.111 19.588
v 5.43 3.836 43.386
v 2.663 8.362 31.994
v 2.116 7.516 32.359
v 3.365 7.89 31.167
v 2.541 7.226 32.17
v 0.139 6.888 32.674
v 0.149 6.82 32.605
v 0.3 6.906 32.692
v -1.313 3.903 43.892
v 2.61 12.147 39.413
v 1.233 20.616 26.815
v 1.817 20.071 29.14
v 4.957 -1.406 18.867
v 9.37 1.337 8.682
v 6.814 -2.515 10.798
v 8.1 1.822 23.093
v 7.127 6.536 22.803
v 6.309 14.727 6.653
v 9.839 4.14 5.874
v 3.304 6.683 10.396
v 8.801 8.443 29.026
v 6.261 15.318 38.156
v 2.967 12.741 11.213
v 4.202 9.899 14.785
v 11.811 18.754 10.832
v 6.059 19.167 27.572
v 14.165 6.775 39.572
v 14.756 9.1 25.524
v 13.069 17.515 17.259
v 11.362 19.21 31.308
v 11.823 15.552 36
v 11.349 4.394 19.317
v 12.752 0.812 28.232
v 19.505 0.7 36.4
v 10.679 4.946 19.097
v 11.178 4.781 19.231
v 10.797 4.87 18.886
v 10.124 9.986 15.689
v 13.049 6.176 16.78
v 16.23 7.663 15.106
v 6.726 10.831 14.946
v 8.93 9.313 15.629
v 10.032 7.57 18.678
v 14.751 6.997 16.596
v 18.56 9.833 34.293
v 17.995 13.375 13.45
v 16.493 17.963 24.378
v 16.085 6.102 16.324
v 19.723 4.454 13.536
v 12.938 12.488 14.91
v 18.495 5.757 6.576
v 19.858 14.882 27.357
v 23.917 2.479 30.091
v 25.702 2.459 15.519
v 23.522 10.035 25.752
v 21.36 11.228 15.088
v 26.591 4.384 22.146
v -2.437 0.397 13.999
v 3.302 4.082 7.171
v 5.398 -11.752 25.797
v 6.117 -11.455 25.964
v 5.913 -11.106 26.094
v 12.609 -17.636 17.185
v 5.101 11.361 14.889
v 4.522 10.86 14.727
v 4.718 10.853 14.585
vt 0.13737 0.59303
vt 0.1085 0.60676
vt 0.10254 0.57181
vt 0.32589 0.02804
vt 0.28385 0.03145
vt 0.31055 0.01247
vt 0.32737 0.55322
vt 0.30741 0.52988
vt 0.32796 0.53035
vt 0.16719 0.70693
vt 0.16409 0.68576
vt 0.16719 0.66683
vt 0.27756 0.54661
vt 0.41722 0.03241
vt 0.35986 0.05382
vt 0.37694 0.01247
vt 0.32799 0.08572
vt 0.3094 0.09725
vt 0.30804 0.05731
vt 0.83585 0.4335
vt 0.83585 0.47636
vt 0.80229 0.45809
vt 0.58705 0.29521
vt 0.56456 0.32116
vt 0.56271 0.26971
vt 0.61271 0.31527
vt 0.80268 0.47486
vt 0.10354 0.96741
vt 0.11402 0.95384
vt 0.11402 0.97844
vt 0.78199 0.9324
vt 0.76908 0.95995
vt 0.76551 0.9324
vt 0.50354 0.37295
vt 0.5192 0.386
vt 0.47935 0.40855
vt 0.70493 0.193
vt 0.68871 0.18825
vt 0.70493 0.1542
vt 0.1931 0.74473
vt 0.22554 0.73309
vt 0.20842 0.77926
vt 0.46865 0.38142
vt 0.67992 0.17802
vt 0.67166 0.15568
vt 0.84943 0.81113
vt 0.83745 0.85081
vt 0.82473 0.83451
vt 0.46865 0.66719
vt 0.48773 0.64758
vt 0.49749 0.66605
vt 0.33285 0.59645
vt 0.2986 0.59094
vt 0.74788 0.07828
vt 0.72725 0.09695
vt 0.726 0.06929
vt 0.31963 0.10216
vt 0.33492 0.12885
vt 0.29583 0.1454
vt 0.28148 0.06687
vt 0.28161 0.10403
vt 0.25497 0.07463
vt 0.35986 0.64386
vt 0.397 0.61208
vt 0.39702 0.6418
vt 0.65616 0.21451
vt 0.13417 0.07565
vt 0.16215 0.04746
vt 0.16815 0.09986
vt 0.06225 0.9522
vt 0.06225 0.92275
vt 0.07589 0.94128
vt 0.32936 0.60968
vt 0.06842 0.92192
vt 0.07684 0.92972
vt 0.25049 0.72052
vt 0.25076 0.72682
vt 0.25049 0.74885
vt 0.02855 0.95345
vt 0.01722 0.96682
vt 0.01247 0.94979
vt 0.58861 0.06567
vt 0.61215 0.05572
vt 0.61997 0.06903
vt 0.14956 0.95849
vt 0.16434 0.97351
vt 0.14956 0.97431
vt 0.42163 0.1462
vt 0.40411 0.0856
vt 0.41374 0.05655
vt 0.87166 0.59282
vt 0.87166 0.55249
vt 0.89133 0.58503
vt 0.30438 0.16991
vt 0.96922 0.74959
vt 0.95595 0.7651
vt 0.95595 0.7351
vt 0.42214 0.62373
vt 0.25341 0.12498
vt 0.21633 0.08916
vt 0.22575 0.07073
vt 0.91927 0.52115
vt 0.89792 0.52631
vt 0.89792 0.50327
vt 0.38757 0.60476
vt 0.49974 0.34389
vt 0.32612 0.29176
vt 0.3344 0.33349
vt 0.31852 0.3108
vt 0.01247 0.97199
vt 0.74001 0.05064
vt 0.74788 0.01247
vt 0.74056 0.75415
vt 0.74056 0.81028
vt 0.71541 0.79405
vt 0.53293 0.33568
vt 0.81832 0.12372
vt 0.81726 0.10748
vt 0.83925 0.10569
vt 0.20706 0.10414
vt 0.83309 0.31646
vt 0.80496 0.3192
vt 0.80496 0.26971
vt 0.40151 0.5792
vt 0.8496 0.5243
vt 0.85001 0.52538
vt 0.84911 0.52538
vt 0.87245 0.61847
vt 0.87166 0.61887
vt 0.87166 0.61776
vt 0.49554 0.77549
vt 0.49554 0.82438
vt 0.46865 0.82797
vt 0.83428 0.71015
vt 0.8187 0.69475
vt 0.83428 0.66848
vt 0.37454 0.5792
vt 0.51203 0.6007
vt 0.1931 0.0752
vt 0.3344 0.26378
vt 0.04096 0.67274
vt 0.04096 0.74305
vt 0.02699 0.72596
vt 0.01247 0.68751
vt 0.01365 0.72083
vt 0.22221 0.58205
vt 0.19358 0.58528
vt 0.20534 0.57506
vt 0.22344 0.54802
vt 0.25261 0.56895
vt 0.25261 0.6033
vt 0.24926 0.53955
vt 0.85923 0.67347
vt 0.87624 0.64711
vt 0.87624 0.70011
vt 0.22113 0.50513
vt 0.24445 0.51964
vt 0.50375 0.55618
vt 0.48165 0.5285
vt 0.50538 0.52457
vt 0.44153 0.78408
vt 0.41547 0.80105
vt 0.41591 0.76632
vt 0.12783 0.02932
vt 0.09447 0.06027
vt 0.10033 0.02699
vt 0.50042 0.49582
vt 0.46865 0.50321
vt 0.09153 0.52428
vt 0.04798 0.54631
vt 0.02198 0.52355
vt 0.06141 0.48063
vt 0.03337 0.46447
vt 0.02976 0.44059
vt 0.60374 0.78001
vt 0.56988 0.74833
vt 0.60374 0.74933
vt 0.60246 0.79807
vt 0.57145 0.78747
vt 0.58815 0.95028
vt 0.58815 0.969
vt 0.56988 0.96071
vt 0.54161 0.50448
vt 0.95624 0.52631
vt 0.94422 0.5076
vt 0.95624 0.49381
vt 0.31914 0.94556
vt 0.32715 0.94013
vt 0.32715 0.97417
vt 0.56988 0.68222
vt 0.59852 0.70068
vt 0.56988 0.72338
vt 0.01247 0.45785
vt 0.35934 0.8642
vt 0.35465 0.83996
vt 0.37406 0.83143
vt 0.76551 0.90746
vt 0.76947 0.8738
vt 0.78819 0.90746
vt 0.33127 0.44677
vt 0.31696 0.46369
vt 0.32768 0.40897
vt 0.27756 0.88489
vt 0.29351 0.86849
vt 0.29351 0.91333
vt 0.86532 0.01247
vt 0.88234 0.02303
vt 0.88343 0.05728
vt 0.1931 0.65559
vt 0.21907 0.67302
vt 0.19667 0.69306
vt 0.86407 0.05728
vt 0.84032 0.2059
vt 0.84032 0.1542
vt 0.85915 0.20167
vt 0.08904 0.4117
vt 0.10126 0.3887
vt 0.11988 0.41237
vt 0.88409 0.23021
vt 0.89958 0.22453
vt 0.89958 0.24115
vt 0.39449 0.43737
vt 0.41379 0.44917
vt 0.37873 0.44711
vt 0.58823 0.33005
vt 0.59819 0.34994
vt 0.5718 0.35332
vt 0.5635 0.34696
vt 0.79376 0.8085
vt 0.79376 0.84886
vt 0.76931 0.84603
vt 0.01769 0.54499
vt 0.37286 0.90373
vt 0.37195 0.91632
vt 0.35303 0.89623
vt 0.01247 0.54216
vt 0.23805 0.97269
vt 0.23805 0.94315
vt 0.24898 0.96566
vt 0.93329 0.89605
vt 0.92036 0.91773
vt 0.92036 0.8787
vt 0.22036 0.28579
vt 0.23755 0.30219
vt 0.22322 0.33675
vt 0.35303 0.87128
vt 0.65935 0.07946
vt 0.69409 0.06977
vt 0.70106 0.07946
vt 0.29357 0.4479
vt 0.29357 0.40346
vt 0.16717 0.76118
vt 0.16778 0.76135
vt 0.16717 0.76256
vt 0.63207 0.60725
vt 0.59115 0.60332
vt 0.61388 0.58456
vt 0.06707 0.85363
vt 0.07684 0.83981
vt 0.07684 0.89697
vt 0.12972 0.06983
vt 0.07579 0.07176
vt 0.31845 0.86849
vt 0.32715 0.90923
vt 0.31845 0.91519
vt 0.60882 0.07512
vt 0.60596 0.69276
vt 0.59335 0.68503
vt 0.58643 0.65294
vt 0.26862 0.27614
vt 0.24165 0.35147
vt 0.54577 0.13895
vt 0.56366 0.10588
vt 0.56353 0.13198
vt 0.74481 0.57483
vt 0.74454 0.57165
vt 0.75329 0.55249
vt 0.65993 0.01247
vt 0.62203 0.82302
vt 0.63186 0.85008
vt 0.62203 0.88001
vt 0.53698 0.63533
vt 0.53698 0.58113
vt 0.54163 0.59976
vt 0.71891 0.56318
vt 0.72336 0.58778
vt 0.75329 0.58951
vt 0.24316 0.67867
vt 0.22664 0.69558
vt 0.13526 0.38212
vt 0.38099 0.71342
vt 0.39052 0.69217
vt 0.39052 0.73953
vt 0.5066 0.43817
vt 0.52405 0.467
vt 0.49599 0.46861
vt 0.48424 0.44822
vt 0.54493 0.45739
vt 0.54493 0.51684
vt 0.5337 0.48729
vt 0.75315 0.36227
vt 0.7653 0.36227
vt 0.75844 0.38237
vt 0.52085 0.09775
vt 0.54625 0.0896
vt 0.56988 0.55249
vt 0.6272 0.5717
vt 0.49308 0.07102
vt 0.51239 0.13025
vt 0.08771 0.3099
vt 0.11299 0.3496
vt 0.82577 0.0903
vt 0.84943 0.08951
vt 0.9179 0.68865
vt 0.90119 0.66724
vt 0.9179 0.64711
vt 0.47262 0.31533
vt 0.44354 0.84561
vt 0.44354 0.87762
vt 0.41547 0.85352
vt 0.03641 0.78609
vt 0.01247 0.81487
vt 0.01247 0.77023
vt 0.03939 0.57912
vt 0.06126 0.57126
vt 0.07347 0.60227
vt 0.51992 0.30845
vt 0.84875 0.12372
vt 0.19628 0.13195
vt 0.77824 0.58017
vt 0.79877 0.58731
vt 0.77983 0.62072
vt 0.14407 0.47546
vt 0.15974 0.47066
vt 0.14647 0.51733
vt 0.16545 0.73257
vt 0.16409 0.73431
vt 0.16409 0.73188
vt 0.76708 0.23414
vt 0.7656 0.23398
vt 0.76708 0.23219
vt 0.49704 0.71994
vt 0.50555 0.75054
vt 0.46865 0.75054
vt 0.71541 0.83523
vt 0.73603 0.83742
vt 0.71541 0.8793
vt 0.10254 0.7843
vt 0.14222 0.78063
vt 0.14039 0.8011
vt 0.79159 0.38029
vt 0.77508 0.40383
vt 0.03237 0.74528
vt 0.79102 0.36773
vt 0.65819 0.40663
vt 0.64824 0.40008
vt 0.67132 0.37726
vt 0.11804 0.13186
vt 0.13959 0.10619
vt 0.1427 0.14184
vt 0.62869 0.75902
vt 0.63113 0.74833
vt 0.63113 0.78384
vt 0.45588 0.09614
vt 0.46814 0.11669
vt 0.43961 0.11394
vt 0.2459 0.18161
vt 0.28216 0.13749
vt 0.30279 0.82617
vt 0.30609 0.84354
vt 0.27756 0.83556
vt 0.72988 0.19306
vt 0.72988 0.15488
vt 0.74126 0.1542
vt 0.16815 0.16934
vt 0.13589 0.17882
vt 0.82643 0.64711
vt 0.10254 0.76424
vt 0.14148 0.76118
vt 0.78075 0.75193
vt 0.76551 0.78356
vt 0.77258 0.74463
vt 0.68403 0.24237
vt 0.68278 0.23965
vt 0.68403 0.23946
vt 0.63199 0.71898
vt 0.63199 0.72186
vt 0.6309 0.71949
vt 0.57887 0.48838
vt 0.59181 0.52755
vt 0.56988 0.51936
vt 0.43865 0.15123
vt 0.44886 0.12488
vt 0.97438 0.26971
vt 0.98218 0.28776
vt 0.97438 0.29441
vt 0.96284 0.01247
vt 0.96284 0.05242
vt 0.95417 0.0468
vt 0.21775 0.15288
vt 0.24841 0.15194
vt 0.27756 0.79675
vt 0.0205 0.62226
vt 0.15293 0.43732
vt 0.79978 0.78356
vt 0.27756 0.7287
vt 0.31041 0.75331
vt 0.28837 0.75154
vt 0.37632 0.16603
vt 0.37884 0.19368
vt 0.35986 0.17625
vt 0.22596 0.1985
vt 0.19528 0.17968
vt 0.14817 0.21163
vt 0.7695 0.20725
vt 0.31296 0.72237
vt 0.5305 0.69213
vt 0.5442 0.70603
vt 0.5305 0.74526
vt 0.39222 0.21625
vt 0.09495 0.19866
vt 0.11569 0.23195
vt 0.05287 0.638
vt 0.01361 0.64703
vt 0.91627 0.5731
vt 0.93518 0.55249
vt 0.93518 0.58646
vt 0.92036 0.94268
vt 0.93717 0.94268
vt 0.92046 0.96743
vt 0.41689 0.19689
vt 0.39057 0.24391
vt 0.09029 0.22488
vt 0.60883 0.18955
vt 0.61463 0.20827
vt 0.5894 0.20273
vt 0.21959 0.21509
vt 0.23558 0.20649
vt 0.24147 0.23883
vt 0.39204 0.38362
vt 0.42752 0.41242
vt 0.38779 0.40533
vt 0.44273 0.38653
vt 0.38706 0.36798
vt 0.36609 0.37004
vt 0.37015 0.24476
vt 0.41576 0.35506
vt 0.4437 0.35784
vt 0.94235 0.18541
vt 0.92517 0.1542
vt 0.94256 0.16469
vt 0.52049 0.92627
vt 0.5406 0.92627
vt 0.53585 0.94993
vt 0.719 0.96179
vt 0.719 0.9843
vt 0.71541 0.96434
vt 0.07509 0.8084
vt 0.07266 0.80455
vt 0.07589 0.80082
vt 0.44163 0.69283
vt 0.42897 0.71092
vt 0.43683 0.69025
vt 0.92301 0.61844
vt 0.92267 0.61862
vt 0.92267 0.61777
vt 0.80229 0.50131
vt 0.82417 0.50131
vt 0.81027 0.52538
vt 0.07759 0.80263
vt 0.07266 0.76118
vt 0.10885 0.09343
vt 0.06327 0.1033
vt 0.04937 0.08702
vt 0.12659 0.32114
vt 0.35986 0.71906
vt 0.01581 0.09995
vt 0.53453 0.4335
vt 0.7286 0.44027
vt 0.72927 0.52046
vt 0.71691 0.48409
vt 0.73172 0.47733
vt 0.04646 0.79469
vt 0.03088 0.81486
vt 0.75667 0.51279
vt 0.76388 0.48231
vt 0.77734 0.49129
vt 0.79155 0.10805
vt 0.77538 0.12856
vt 0.77282 0.10805
vt 0.2131 0.86979
vt 0.19845 0.90825
vt 0.1931 0.89205
vt 0.2131 0.90125
vt 0.31262 0.69743
vt 0.27756 0.66122
vt 0.30862 0.65591
vt 0.67636 0.8899
vt 0.67636 0.92553
vt 0.65702 0.90209
vt 0.88409 0.19958
vt 0.88409 0.1542
vt 0.90023 0.18315
vt 0.42093 0.6688
vt 0.44177 0.69213
vt 0.1013 0.12271
vt 0.04414 0.11568
vt 0.968 0.22776
vt 0.97745 0.21036
vt 0.97745 0.24026
vt 0.49341 0.85292
vt 0.49341 0.88767
vt 0.46865 0.88783
vt 0.06076 0.31851
vt 0.0605 0.34028
vt 0.70574 0.52134
vt 0.68427 0.55249
vt 0.67322 0.60136
vt 0.65702 0.56012
vt 0.16504 0.82605
vt 0.16504 0.87577
vt 0.14956 0.86582
vt 0.07417 0.15981
vt 0.56988 0.82302
vt 0.59708 0.85669
vt 0.56988 0.86193
vt 0.38939 0.51062
vt 0.41482 0.49172
vt 0.3721 0.55426
vt 0.4706 0.86387
vt 0.11195 0.2913
vt 0.01247 0.13933
vt 0.03421 0.14133
vt 0.68775 0.69931
vt 0.65702 0.67851
vt 0.68775 0.67836
vt 0.65992 0.65283
vt 0.1931 0.3459
vt 0.21789 0.37556
vt 0.19741 0.41479
vt 0.84032 0.23312
vt 0.84032 0.23085
vt 0.84143 0.2328
vt 0.8692 0.3781
vt 0.88237 0.39595
vt 0.8692 0.40808
vt 0.50306 0.17814
vt 0.51991 0.209
vt 0.50854 0.18871
vt 0.67834 0.78371
vt 0.66504 0.78106
vt 0.68471 0.76453
vt 0.7127 0.67663
vt 0.74056 0.7007
vt 0.7316 0.72921
vt 0.12461 0.87101
vt 0.10254 0.83931
vt 0.12461 0.82605
vt 0.04902 0.17992
vt 0.84448 0.7351
vt 0.84448 0.78618
vt 0.82473 0.75495
vt 0.08122 0.27259
vt 0.68877 0.29481
vt 0.66478 0.26971
vt 0.69271 0.2802
vt 0.67514 0.73506
vt 0.24378 0.40231
vt 0.16115 0.35886
vt 0.16491 0.38865
vt 0.16115 0.40998
vt 0.53595 0.0525
vt 0.56366 0.01247
vt 0.55052 0.04563
vt 0.97884 0.64711
vt 0.98512 0.66173
vt 0.97884 0.67344
vt 0.24782 0.83605
vt 0.24782 0.80571
vt 0.25142 0.82236
vt 0.51925 0.19214
vt 0.51459 0.21545
vt 0.50833 0.22265
vt 0.91722 0.83888
vt 0.92501 0.83411
vt 0.93012 0.85293
vt 0.65702 0.76557
vt 0.68998 0.76
vt 0.66206 0.35231
vt 0.64811 0.29278
vt 0.69271 0.34405
vt 0.0465 0.29274
vt 0.07232 0.2573
vt 0.66671 0.4335
vt 0.6808 0.4528
vt 0.64853 0.44541
vt 0.56988 0.92533
vt 0.56988 0.88688
vt 0.58744 0.90693
vt 0.24093 0.42763
vt 0.2128 0.44468
vt 0.08988 0.19457
vt 0.66222 0.51869
vt 0.64853 0.48717
vt 0.01632 0.18587
vt 0.26862 0.48018
vt 0.4437 0.29296
vt 0.40962 0.30911
vt 0.40803 0.28233
vt 0.38874 0.26971
vt 0.35986 0.3164
vt 0.87297 0.4335
vt 0.87297 0.49427
vt 0.8608 0.48277
vt 0.40301 0.34144
vt 0.37571 0.35784
vt 0.43823 0.33581
vt 0.33018 0.03985
vt 0.15974 0.61851
vt 0.10254 0.64188
vt 0.28951 0.52171
vt 0.30386 0.50513
vt 0.33285 0.50882
vt 0.25265 0.02757
vt 0.62317 0.30006
vt 0.15127 0.01247
vt 0.1339 0.02059
vt 0.13855 0.04619
vt 0.90732 0.39188
vt 0.91812 0.35463
vt 0.91812 0.40662
vt 0.31519 0.35579
vt 0.31284 0.32885
vt 0.19859 0.72052
vt 0.29419 0.10153
vt 0.36238 0.97799
vt 0.35303 0.96797
vt 0.36238 0.95449
vt 0.22554 0.78076
vt 0.87438 0.08951
vt 0.89795 0.1195
vt 0.87531 0.12338
vt 0.10254 0.72442
vt 0.13914 0.70303
vt 0.13101 0.73623
vt 0.89884 0.08951
vt 0.16806 0.93069
vt 0.14956 0.93355
vt 0.14956 0.90071
vt 0.58787 0.38251
vt 0.56271 0.40638
vt 0.56271 0.37948
vt 0.56271 0.35453
vt 0.53936 0.89776
vt 0.52946 0.86199
vt 0.53936 0.86084
vt 0.29357 0.30657
vt 0.84943 0.85328
vt 0.63441 0.01247
vt 0.62384 0.04947
vt 0.27679 0.12409
vt 0.13186 0.5238
vt 0.11648 0.54686
vt 0.89541 0.91343
vt 0.87438 0.89598
vt 0.89541 0.8787
vt 0.65817 0.18457
vt 0.10254 0.66683
vt 0.92888 0.01936
vt 0.90838 0.03888
vt 0.90838 0.01247
vt 0.46865 0.60148
vt 0.9502 0.36736
vt 0.95842 0.35463
vt 0.95842 0.38389
vt 0.88572 0.84869
vt 0.87438 0.81113
vt 0.89227 0.83327
vt 0.82831 0.28733
vt 0.96751 0.18541
vt 0.96751 0.15101
vt 0.97454 0.17115
vt 0.47922 0.78635
vt 0.60314 0.45415
vt 0.56988 0.45995
vt 0.58771 0.4335
vt 0.61599 0.43526
vt 0.49917 0.58113
vt 0.72821 0.37331
vt 0.72066 0.34766
vt 0.72409 0.31138
vt 0.06591 0.68009
vt 0.07623 0.67274
vt 0.07623 0.73547
vt 0.12238 0.11076
vt 0.20134 0.5552
vt 0.20862 0.52383
vt 0.1931 0.60516
vt 0.98118 0.49381
vt 0.98753 0.50751
vt 0.98118 0.52002
vt 0.54034 0.52928
vt 0.08881 0.51017
vt 0.04368 0.43732
vt 0.07048 0.4607
vt 0.52049 0.80658
vt 0.54144 0.77549
vt 0.54144 0.83589
vt 0.44153 0.82066
vt 0.22287 0.84484
vt 0.1931 0.84484
vt 0.22215 0.80571
vt 0.24788 0.26378
vt 0.03658 0.89706
vt 0.03658 0.92484
vt 0.01247 0.91735
vt 0.37828 0.87128
vt 0.38358 0.45307
vt 0.54066 0.4853
vt 0.35303 0.92955
vt 0.72988 0.24449
vt 0.73652 0.23219
vt 0.74065 0.24449
vt 0.35303 0.76447
vt 0.39052 0.76447
vt 0.35535 0.80648
vt 0.95823 0.89502
vt 0.97137 0.8787
vt 0.97137 0.9087
vt 0.63441 0.10375
vt 0.59751 0.1081
vt 0.60375 0.08299
vt 0.41547 0.90257
vt 0.44012 0.90257
vt 0.4382 0.92892
vt 0.76551 0.83812
vt 0.16779 0.78751
vt 0.16779 0.78887
vt 0.16717 0.78876
vt 0.21552 0.65482
vt 0.41547 0.95387
vt 0.42363 0.96055
vt 0.41547 0.97968
vt 0.65702 0.97224
vt 0.65702 0.95047
vt 0.67027 0.96003
vt 0.84185 0.87822
vt 0.84185 0.91886
vt 0.82473 0.91366
vt 0.12461 0.89596
vt 0.12461 0.9289
vt 0.10354 0.9231
vt 0.40542 0.46877
vt 0.35986 0.45886
vt 0.92923 0.04578
vt 0.1931 0.95975
vt 0.19472 0.9332
vt 0.21032 0.95975
vt 0.71766 0.26971
vt 0.96561 0.11882
vt 0.95926 0.12173
vt 0.95926 0.08017
vt 0.79376 0.71015
vt 0.76551 0.67842
vt 0.79376 0.65283
vt 0.74056 0.65283
vt 0.73625 0.67225
vt 0.89377 0.77035
vt 0.86942 0.7351
vt 0.88931 0.74622
vt 0.86942 0.76482
vt 0.82371 0.59118
vt 0.84671 0.55249
vt 0.84671 0.60191
vt 0.75178 0.61328
vt 0.24316 0.6301
vt 0.59674 0.628
vt 0.37117 0.50341
vt 0.56988 0.61952
vt 0.60869 0.49458
vt 0.62358 0.48377
vt 0.92379 0.08017
vt 0.93431 0.09916
vt 0.92379 0.12338
vt 0.3783 0.6688
vt 0.87438 0.85375
vt 0.46865 0.93983
vt 0.46865 0.91278
vt 0.48879 0.92001
vt 0.49018 0.69213
vt 0.82473 0.95431
vt 0.84198 0.94381
vt 0.84198 0.96779
vt 0.53789 0.66027
vt 0.53884 0.66316
vt 0.53698 0.66316
vt 0.65723 0.24303
vt 0.65616 0.23946
vt 0.65783 0.23946
vt 0.16697 0.13822
vt 0.71541 0.90424
vt 0.7342 0.91939
vt 0.71541 0.93684
vt 0.49991 0.30371
vt 0.97675 0.4335
vt 0.98369 0.43866
vt 0.97675 0.4588
vt 0.46865 0.29801
vt 0.931 0.77798
vt 0.91871 0.75441
vt 0.931 0.7351
vt 0.64811 0.37726
vt 0.43977 0.48625
vt 0.43977 0.43737
vt 0.44102 0.4596
vt 0.78934 0.7351
vt 0.66431 0.84015
vt 0.68852 0.83243
vt 0.67813 0.86496
vt 0.65702 0.83243
vt 0.83912 0.01247
vt 0.83798 0.03388
vt 0.81726 0.02023
vt 0.89668 0.28239
vt 0.91066 0.26971
vt 0.91066 0.3182
vt 0.76663 0.40289
vt 0.2676 0.20189
vt 0.11648 0.45123
vt 0.07347 0.64779
vt 0.69396 0.60603
vt 0.65702 0.62789
vt 0.87438 0.93838
vt 0.89004 0.94928
vt 0.87438 0.96547
vt 0.27756 0.7718
vt 0.81726 0.06456
vt 0.5179 0.26971
vt 0.53776 0.28739
vt 0.79877 0.55249
vt 0.76752 0.1712
vt 0.67591 0.1044
vt 0.68164 0.12841
vt 0.65935 0.12841
vt 0.45953 0.18819
vt 0.26731 0.22448
vt 0.23805 0.9182
vt 0.23805 0.86979
vt 0.248 0.90584
vt 0.01247 0.59593
vt 0.04213 0.87211
vt 0.01247 0.86677
vt 0.04213 0.83981
vt 0.61282 0.24423
vt 0.37821 0.21852
vt 0.1931 0.20833
vt 0.75315 0.30147
vt 0.76154 0.26971
vt 0.77903 0.31773
vt 0.78001 0.33733
vt 0.75315 0.3341
vt 0.62127 0.37948
vt 0.62127 0.40689
vt 0.61281 0.39539
vt 0.63121 0.19452
vt 0.43832 0.21615
vt 0.41746 0.22642
vt 0.44177 0.74137
vt 0.41547 0.70008
vt 0.75667 0.4335
vt 0.32789 0.63462
vt 0.32789 0.67646
vt 0.49308 0.1639
vt 0.53286 0.1639
vt 0.50913 0.16869
vt 0.29422 0.38073
vt 0.94305 0.22405
vt 0.92517 0.23815
vt 0.92517 0.21036
vt 0.77802 0.04
vt 0.77282 0.01247
vt 0.79232 0.02991
vt 0.89772 0.61776
vt 0.89772 0.61862
vt 0.89739 0.61843
vt 0.87174 0.30901
vt 0.85804 0.32967
vt 0.85804 0.26971
vt 0.77282 0.03883
vt 0.78072 0.08311
vt 0.96133 0.8082
vt 0.96133 0.85293
vt 0.95507 0.83828
vt 0.93846 0.45203
vt 0.95181 0.4335
vt 0.95181 0.46853
vt 0.01692 0.31494
vt 0.05085 0.3369
vt 0.01247 0.33245
vt 0.70574 0.4335
vt 0.29351 0.93828
vt 0.29351 0.96216
vt 0.27489 0.94127
vt 0.97176 0.94268
vt 0.97176 0.97341
vt 0.96211 0.96609
vt 0.19368 0.34147
vt 0.21209 0.35467
vt 0.53261 0.20107
vt 0.92517 0.18014
vt 0.5237 0.08199
vt 0.73345 0.12535
vt 0.73345 0.12831
vt 0.73249 0.12776
vt 0.70659 0.12535
vt 0.70754 0.12784
vt 0.70659 0.12841
vt 0.96013 0.55249
vt 0.97423 0.56616
vt 0.96013 0.57773
vt 0.71766 0.39796
vt 0.84425 0.37177
vt 0.84425 0.40808
vt 0.81807 0.37927
vt 0.28081 0.64311
vt 0.81654 0.36227
vt 0.50465 0.1929
vt 0.66637 0.78724
vt 0.6309 0.68206
vt 0.63163 0.65294
vt 0.63163 0.69404
vt 0.65702 0.80748
vt 0.56445 0.19405
vt 0.53922 0.17737
vt 0.55497 0.24423
vt 0.2516 0.77613
vt 0.25049 0.77579
vt 0.2516 0.7738
vt 0.51682 0.24346
vt 0.68628 0.77306
vt 0.87662 0.35463
vt 0.43977 0.55394
vt 0.43977 0.5112
vt 0.44314 0.52634
vt 0.94944 0.2855
vt 0.93561 0.30424
vt 0.93561 0.26971
vt 0.35986 0.52534
vt 0.13526 0.27204
vt 0.89792 0.45636
vt 0.91351 0.4335
vt 0.91351 0.47833
vt 0.13151 0.2569
vt 0.66264 0.7282
vt 0.5894 0.1542
vt 0.62434 0.17211
vt 0.93012 0.81113
vt 0.95389 0.64711
vt 0.95389 0.68595
vt 0.94285 0.6742
vt 0.16115 0.2569
vt 0.16815 0.29903
vt 0.16115 0.33391
vt 0.23908 0.45693
vt 0.0687 0.21769
vt 0.79444 0.15762
vt 0.80938 0.1542
vt 0.81538 0.17947
vt 0.80422 0.21897
vt 0.79444 0.202
vt 0.61441 0.93761
vt 0.61704 0.90496
vt 0.63186 0.93761
vt 0.52049 0.90132
vt 0.94307 0.36728
vn -0.99 0.097 -0.105
vn -0.812 -0.563 -0.153
vn -0.564 -0.622 0.543
vn -0.984 -0.056 0.167
vn -0.103 0.993 -0.053
vn -0.795 0.373 -0.478
vn 0.852 -0.363 0.377
vn -0.753 0.049 0.657
vn -0.832 -0.097 -0.546
vn -0.526 -0.136 0.839
vn -0.567 -0.704 -0.429
vn 0.842 -0.447 0.3
vn -0.324 -0.94 0.111
vn -0.855 0.404 -0.326
vn -0.375 -0.639 -0.671
vn -0.05 -0.165 -0.985
vn -0.361 0.683 -0.635
vn -0.351 -0.075 -0.933
vn -0.577 -0.786 0.222
vn 0.348 0.243 0.905
vn -0.928 -0.312 -0.205
vn 0.025 -0.125 -0.992
vn 0.983 -0.074 0.17
vn 0.562 0.28 -0.778
vn -0.139 0.642 -0.754
vn 0.132 -0.712 0.689
vn 0.109 -0.22 0.97
vn -0.15 -0.432 -0.889
vn -0.963 0.071 0.259
vn 0.588 -0.751 -0.302
vn -0.628 0.723 0.287
vn 0.167 -0.129 -0.977
vn -0.084 -0.926 -0.369
vn -0.302 -0.905 0.3
vn -0.326 -0.922 -0.209
vn -0.226 -0.767 0.6
vn 0.252 0.967 -0.048
vn -0.166 0.423 0.891
vn -0.366 0.175 0.914
vn -0.474 -0.346 0.81
vn -0.084 -0.639 0.765
vn -0.076 0.336 -0.939
vn -0.234 0.619 -0.75
vn -0.827 -0.127 -0.547
vn -0.789 0.559 0.256
vn 0.583 -0.786 0.203
vn -0.497 -0.817 0.291
vn -0.969 -0.213 -0.124
vn -0.552 0.827 0.108
vn 0.918 0.016 -0.397
vn 0.242 0.911 0.333
vn 0.042 0.339 0.94
vn 0.279 0.676 -0.682
vn 0.165 -0.979 -0.122
vn 0.019 -0.661 -0.75
vn 0.177 -0.863 0.472
vn -0.267 0.962 0.054
vn -0.117 -0.993 -0.014
vn -0.134 -0.63 0.765
vn -0.476 -0.876 0.076
vn -0.028 -0.981 0.194
vn -0.364 -0.182 -0.913
vn 0.305 0.255 -0.918
vn -0.689 0.537 -0.487
vn 0.1 -0.747 -0.657
vn 0.09 -0.764 -0.639
vn -0.777 -0.553 0.299
vn -0.149 -0.583 0.799
vn -0.966 -0.258 -0.036
vn 0.668 -0.552 0.499
vn 0.674 -0.546 0.498
vn 0.678 -0.538 0.501
vn 0.157 0.952 -0.262
vn 0.797 -0.492 0.35
vn -0.952 -0.021 -0.304
vn -0.009 -0.251 0.968
vn 0.741 0.068 0.668
vn -0.14 0.118 -0.983
vn 0.314 0.478 0.82
vn -0.736 0.184 -0.651
vn -0.702 -0.708 0.077
vn -0.976 -0.147 0.16
vn -0.788 0.602 -0.128
vn -0.521 0.617 -0.589
vn -0.647 0.541 0.537
vn -0.317 0.219 -0.923
vn -0.658 -0.162 0.735
vn -0.494 0.539 0.682
vn -0.312 0.947 0.08
vn -0.039 0.479 0.877
vn -0.3 0.912 0.28
vn 0.117 -0.982 -0.145
vn -0.036 -0.082 -0.996
vn -0.697 0.715 0.059
vn -0.7 0.252 -0.669
vn -0.155 0.59 0.793
vn 0.28 0.322 0.904
vn 0.987 0.15 -0.05
vn 0.187 0.776 -0.602
vn -0.367 0.508 -0.779
vn -0.881 -0.163 0.444
vn 0.57 -0.274 -0.775
vn -0.193 -0.327 -0.925
vn -0.315 -0.523 -0.792
vn -0.037 0.206 -0.978
vn 0.39 -0.387 0.835
vn 0.194 0.934 0.3
vn -0.253 0.789 0.56
vn -0.012 0.668 0.744
vn -0.202 0.887 -0.415
vn -0.501 0.558 0.662
vn -0.204 -0.513 0.834
vn 0.142 -0.614 0.776
vn 0.039 0.377 -0.926
vn 0.035 0.395 -0.918
vn 0.031 0.359 -0.933
vn -0.194 0.649 -0.736
vn -0.518 -0.851 0.084
vn 0.049 -0.858 0.511
vn -0.273 -0.217 -0.937
vn -0.035 0.177 0.984
vn 0.842 0.434 0.32
vn 0.198 -0.883 -0.426
vn -0.467 0.788 0.402
vn -0.213 -0.446 0.869
vn 0.028 -0.997 -0.069
vn 0.264 -0.153 0.952
vn -0.885 0.446 0.137
vn -0.116 0.767 0.631
vn -0.267 0.955 -0.128
vn 0.907 0.368 -0.205
vn 0.967 -0.028 0.252
vn 0.276 -0.358 -0.892
vn -0.45 0.469 -0.76
vn -0.474 0.701 -0.533
vn -0.199 0.895 -0.399
vn 0.11 0.98 -0.167
vn -0.089 0.862 -0.5
vn -0.169 -0.947 0.274
vn -0.055 -0.987 0.149
vn -0.825 -0.517 -0.226
vn -0.641 0.682 0.353
vn 0.05 -0.818 -0.573
vn -0.685 -0.728 0.036
vn -0.502 -0.017 -0.865
vn -0.18 -0.851 -0.493
vn 0.201 -0.599 0.776
vn 0.018 0.451 -0.892
vn -0.624 0.251 0.74
vn 0 0 0
vn 0.687 -0.716 -0.122
vn -0.397 0.71 -0.581
vn -0.756 0.164 0.633
vn -0.025 0.184 0.983
vn 0.163 -0.353 0.922
vn 0.212 0.109 0.971
vn 0.152 0.932 -0.329
vn 0.241 -0.971 -0.01
vn 0.493 -0.285 0.822
vn -0.976 0.166 -0.141
vn -0.083 -0.965 0.249
vn -0.104 -0.973 0.208
vn -0.1 -0.975 0.2
vn -0.527 -0.619 -0.583
vn 0.188 0.515 -0.836
vn 0.417 -0.596 -0.686
vn 0.02 0.998 -0.066
vn -0.927 0.069 -0.368
vn 0.041 -0.981 -0.189
vn 0.257 -0.875 0.41
vn 0.564 -0.737 -0.373
vn 0.672 -0.241 -0.7
vn -0.348 0.766 -0.54
vn 0.721 -0.688 0.089
vn 0.642 -0.582 0.499
vn -0.214 0.977 -0.019
vn -0.684 0.707 0.183
vn 0.327 0.617 0.716
vn 0.608 0.579 0.543
vn 0.857 -0.381 0.347
vn 0.187 0.258 -0.948
vn 0.53 0.278 -0.801
vn 0.659 -0.089 -0.747
vn -0.164 0.745 0.647
vn 0.779 0.566 -0.27
vn 0.842 0.362 0.401
vn -0.753 -0.095 -0.651
vn 0.696 -0.718 0.014
vn 0.639 -0.74 -0.209
vn 0.68 -0.504 -0.533
vn 0.967 -0.06 -0.248
vn 0.407 0.12 -0.905
vn 0.938 -0.036 0.346
vn 0.186 -0.789 0.586
vn 0.104 0.049 0.993
vn 0.157 -0.92 -0.359
vn -0.314 0.358 0.879
vn 0.478 -0.607 0.635
vn 0.58 -0.053 -0.813
vn 0.996 -0.052 -0.068
vn 0.996 -0.055 -0.068
vn -0.004 0.255 0.967
vn -0.196 0.569 0.799
vn -0.39 0.824 0.411
vn -0.249 0.963 0.099
vn 0.752 0.189 0.631
vn 0.314 0.005 -0.949
vn -0.381 0.028 -0.924
vn -0.038 -0.695 -0.718
vn -0.21 0.654 0.727
vn -0.413 0.516 -0.751
vn -0.213 -0.363 -0.907
vn -0.788 0.265 -0.555
vn -0.154 -0.461 -0.874
vn -0.005 0.662 0.75
vn -0.909 0.414 -0.05
vn -0.937 -0.197 0.289
vn 0.207 0.976 -0.071
vn 0.106 0.993 0.059
vn 0.485 0.284 0.827
vn -0.987 -0.158 -0.006
vn 0.309 0.861 -0.405
vn 0.267 0.903 0.335
vn 0.409 0.52 0.749
vn 0.164 -0.939 0.303
vn 0.005 -0.997 -0.083
vn 0.6 -0.625 0.499
vn 0.488 -0.35 -0.8
vn 0.247 0.241 0.939
vn -0.82 -0.148 0.552
vn -0.242 0.966 0.086
vn -0.45 -0.877 -0.169
vn -0.065 -0.469 -0.881
vn 0.422 -0.42 -0.803
vn 0.677 0.402 0.617
vn 0.669 0.652 -0.358
vn 0.522 0.852 -0.041
vn -0.399 0.282 -0.872
vn 0.643 -0.196 -0.74
vn -0.215 -0.964 0.158
vn 0.677 -0.109 -0.728
vn 0.731 0.652 0.203
vn 0.791 -0.388 0.474
vn 0.846 -0.152 -0.51
vn 0.856 0.481 0.191
vn 0.696 0.478 -0.537
vn 0.995 0.075 0.07
vn -0.964 0.068 -0.256
vn -0.402 0.656 -0.64
vn 0.287 -0.862 -0.417
f 1/1/1 2/2/2 3/3/3
f 1/4/1 3/5/3 4/6/4
f 5/7/5 6/8/6 7/9/7
f 5/10/5 7/11/7 8/12/8
f 6/8/6 5/7/5 9/13/9
f 10/14/10 5/15/5 8/16/8
f 11/17/11 12/18/12 13/19/13
f 14/20/14 15/21/15 11/22/11
f 16/23/16 17/24/17 11/25/11
f 17/24/17 16/23/16 18/26/18
f 11/22/11 15/21/15 19/27/19
f 12/28/12 19/29/19 20/30/20
f 21/31/21 20/32/20 19/33/19
f 22/34/22 15/35/15 14/36/14
f 12/37/12 20/38/20 23/39/23
f 23/40/23 24/41/24 12/42/12
f 25/43/25 22/34/22 14/36/14
f 23/39/23 26/44/26 27/45/27
f 28/46/28 27/47/27 29/48/29
f 30/49/30 28/50/28 24/51/24
f 5/7/5 31/52/31 32/53/32
f 30/54/30 23/55/23 27/56/27
f 19/57/19 15/58/15 33/59/33
f 34/60/34 35/61/35 36/62/36
f 24/63/24 37/64/37 21/65/21
f 20/38/20 38/66/38 26/44/26
f 23/39/23 20/38/20 26/44/26
f 39/67/39 40/68/40 41/69/41
f 42/70/42 43/71/43 44/72/44
f 45/73/45 32/53/32 31/52/31
f 43/71/43 46/74/46 47/75/47
f 45/76/45 47/77/47 17/78/17
f 31/79/31 46/80/46 45/81/45
f 43/82/43 31/83/31 48/84/48
f 49/85/49 27/86/27 50/87/50
f 51/88/51 52/89/52 53/90/53
f 54/91/54 10/92/10 39/93/39
f 33/59/33 15/58/15 55/94/55
f 35/95/35 21/96/21 56/97/56
f 57/98/57 21/65/21 37/64/37
f 36/62/36 58/99/58 59/100/59
f 41/101/41 36/62/36 59/100/59
f 60/102/60 26/103/26 61/104/61
f 24/63/24 62/105/62 37/64/37
f 25/43/25 63/106/63 22/34/22
f 64/107/64 25/108/25 43/109/43
f 45/81/45 46/80/46 43/110/43
f 30/54/30 49/111/49 65/112/65
f 66/113/66 53/114/53 39/115/39
f 63/106/63 55/116/55 22/34/22
f 37/117/37 56/118/56 67/119/67
f 59/100/59 58/99/58 68/120/68
f 60/121/60 57/122/57 69/123/69
f 37/64/37 69/124/69 57/98/57
f 70/125/70 71/126/71 72/127/72
f 72/128/72 71/129/71 70/130/70
f 73/131/73 57/132/57 61/133/61
f 61/134/61 38/135/38 74/136/74
f 24/63/24 75/137/75 62/105/62
f 28/50/28 75/138/75 24/51/24
f 76/139/76 41/101/41 59/100/59
f 64/107/64 77/140/77 25/108/25
f 28/141/28 78/142/78 79/143/79
f 49/144/49 79/143/79 65/145/65
f 80/146/80 9/147/9 81/148/81
f 80/146/80 81/148/81 82/149/82
f 80/146/80 82/149/82 83/150/83
f 84/151/84 80/146/80 83/150/83
f 83/150/83 82/149/82 85/152/85
f 86/153/86 80/154/80 84/155/84
f 85/152/85 87/156/87 88/157/88
f 83/158/83 85/159/85 89/160/89
f 86/161/86 18/162/18 80/163/80
f 87/164/87 90/165/90 88/166/88
f 91/167/91 89/160/89 88/168/88
f 9/169/9 32/170/32 50/171/50
f 7/172/7 92/173/92 10/174/10
f 84/175/84 93/176/93 86/177/86
f 94/178/94 95/179/95 93/176/93
f 84/180/84 96/181/96 94/182/94
f 91/167/91 96/183/96 89/160/89
f 50/184/50 97/185/97 98/186/98
f 50/187/50 31/188/31 5/189/5
f 99/190/99 50/191/50 98/192/98
f 53/193/53 10/174/10 92/173/92
f 100/194/100 97/195/97 101/196/101
f 102/197/102 99/198/99 98/199/98
f 101/200/101 97/201/97 103/202/103
f 104/203/104 93/204/93 105/205/105
f 98/206/98 97/207/97 106/208/106
f 103/209/103 107/210/107 101/211/101
f 96/212/96 98/206/98 106/208/106
f 108/213/108 88/214/88 109/215/109
f 94/216/94 110/217/110 95/218/95
f 96/219/96 111/220/111 94/221/94
f 96/222/96 106/223/106 111/224/111
f 32/225/32 93/226/93 44/227/44
f 47/228/47 32/225/32 44/227/44
f 50/229/50 93/230/93 106/231/106
f 50/171/50 32/170/32 47/232/47
f 45/233/45 44/234/44 50/235/50
f 45/236/45 50/171/50 47/232/47
f 48/237/48 97/238/97 50/239/50
f 53/240/53 92/241/92 54/242/54
f 112/243/112 54/244/54 66/245/66
f 97/195/97 100/194/100 106/246/106
f 100/247/100 48/248/48 50/249/50
f 103/202/103 97/201/97 48/250/48
f 103/202/103 48/250/48 113/251/113
f 114/252/114 115/253/115 116/254/116
f 102/255/102 117/256/117 103/257/103
f 90/258/90 109/259/109 88/260/88
f 90/165/90 112/261/112 109/262/109
f 102/263/102 107/264/107 118/265/118
f 45/266/45 43/82/43 48/84/48
f 48/267/48 49/268/49 113/269/113
f 54/244/54 92/270/92 119/271/119
f 104/272/104 120/273/120 44/274/44
f 121/275/121 122/276/122 48/277/48
f 48/248/48 100/247/100 123/278/123
f 123/279/123 124/280/124 48/281/48
f 125/282/125 48/283/48 122/284/122
f 100/285/100 122/276/122 121/275/121
f 126/286/126 121/275/121 124/287/124
f 126/288/126 100/289/100 107/210/107
f 110/217/110 105/290/105 95/218/95
f 127/291/127 118/292/118 128/293/128
f 129/294/129 130/295/130 108/296/108
f 108/296/108 109/297/109 129/294/129
f 127/298/127 94/299/94 111/300/111
f 131/301/131 65/302/65 132/303/132
f 133/304/133 134/305/134 104/272/104
f 103/257/103 135/306/135 99/307/99
f 136/308/136 133/304/133 105/309/105
f 137/310/137 138/311/138 110/217/110
f 67/119/67 139/312/139 140/313/140
f 62/314/62 67/315/67 58/316/58
f 77/317/77 63/106/63 25/43/25
f 64/318/64 141/319/141 77/320/77
f 76/139/76 59/100/59 68/120/68
f 65/321/65 142/322/142 78/323/78
f 143/324/143 144/325/144 145/326/145
f 63/106/63 146/327/146 55/116/55
f 37/117/37 67/119/67 69/328/69
f 68/120/68 58/99/58 147/329/147
f 148/330/148 146/331/146 63/332/63
f 73/333/73 149/334/149 38/335/38
f 150/336/150 151/337/150 152/338/150
f 150/339/150 152/340/150 151/341/150
f 141/342/141 145/343/145 144/344/144
f 153/345/151 77/346/77 144/347/144
f 79/348/79 74/349/74 77/350/77
f 65/302/65 154/351/152 77/352/77
f 155/353/153 65/145/65 79/143/79
f 154/351/152 65/302/65 155/354/153
f 142/355/142 77/356/77 149/357/149
f 156/358/154 76/359/76 157/360/155
f 155/361/153 78/362/78 142/363/142
f 158/364/156 156/365/154 159/366/157
f 160/367/158 139/368/139 33/59/33
f 146/369/146 144/370/144 143/371/143
f 153/372/151 144/373/144 146/374/146
f 157/360/155 147/375/147 161/376/159
f 149/377/149 74/136/74 38/135/38
f 78/378/78 73/379/73 74/349/74
f 155/380/153 162/381/160 78/382/78
f 163/383/161 164/384/162 165/385/163
f 164/386/162 163/387/161 165/388/163
f 156/358/154 157/360/155 161/376/159
f 166/389/164 167/390/165 168/391/166
f 159/366/157 169/392/167 51/88/51
f 169/392/167 159/366/157 170/393/168
f 170/394/168 171/395/169 169/396/167
f 156/397/154 169/398/167 171/399/169
f 172/400/170 140/401/140 160/367/158
f 146/369/146 143/371/143 173/402/171
f 145/326/145 174/403/172 143/324/143
f 149/334/149 73/333/73 162/404/160
f 155/380/153 149/405/149 162/381/160
f 175/406/173 148/407/148 153/408/151
f 142/409/142 175/410/173 153/411/151
f 142/409/142 51/88/51 175/410/173
f 176/412/174 177/413/175 160/367/158
f 147/329/147 172/400/170 177/413/175
f 147/375/147 177/414/175 161/376/159
f 153/372/151 146/374/146 178/415/176
f 175/406/173 179/416/177 148/407/148
f 142/417/142 153/418/151 178/419/176
f 180/420/178 175/410/173 51/88/51
f 156/358/154 161/376/159 181/421/179
f 181/421/179 177/414/175 182/422/180
f 161/376/159 177/414/175 181/421/179
f 183/423/181 184/424/182 174/403/172
f 185/425/183 184/426/182 183/427/181
f 178/428/176 184/429/182 185/430/183
f 186/431/184 187/432/185 180/420/178
f 188/433/186 181/421/179 182/422/180
f 189/434/187 178/435/176 175/436/173
f 190/437/188 191/438/189 192/439/190
f 193/440/191 190/441/188 192/442/190
f 182/443/180 190/441/188 193/440/191
f 187/444/185 193/440/191 194/445/192
f 187/432/185 194/446/192 180/420/178
f 195/447/193 193/440/191 187/444/185
f 188/448/186 182/443/180 193/440/191
f 193/440/191 195/447/193 188/448/186
f 196/449/194 131/450/131 132/451/132
f 197/452/195 158/453/156 159/454/157
f 198/455/196 113/456/113 199/457/197
f 200/458/198 198/459/196 199/460/197
f 201/461/199 113/462/113 200/463/198
f 202/464/200 203/465/201 204/466/201
f 199/467/197 113/468/113 135/469/135
f 201/470/199 199/460/197 103/471/103
f 205/472/202 206/473/203 129/474/129
f 105/290/105 138/311/138 136/475/136
f 127/291/127 128/293/128 207/476/204
f 206/473/203 208/477/205 129/474/129
f 130/295/130 129/294/129 208/478/205
f 209/479/206 168/480/166 210/481/207
f 168/480/166 209/479/206 211/482/208
f 131/483/131 142/322/142 65/321/65
f 212/484/209 142/322/142 131/483/131
f 212/485/209 131/486/131 135/487/135
f 197/488/195 170/489/168 156/490/154
f 135/491/135 196/492/194 212/493/209
f 213/494/210 196/492/194 135/491/135
f 214/495/211 215/496/212 216/497/213
f 213/498/210 124/499/124 123/500/123
f 123/501/123 131/502/131 213/503/210
f 113/462/113 217/504/214 200/463/198
f 198/505/196 200/463/198 217/504/214
f 206/473/203 197/506/195 218/507/215
f 219/508/216 220/509/217 136/510/136
f 221/511/218 214/512/211 219/513/216
f 222/514/219 137/310/137 207/515/204
f 210/481/207 168/480/166 167/516/165
f 196/517/194 211/518/208 142/519/142
f 51/520/51 142/521/142 212/522/209
f 223/523/220 197/506/195 156/358/154
f 131/524/131 123/525/123 217/526/214
f 123/527/123 125/528/125 224/529/221
f 219/513/216 136/530/136 221/511/218
f 136/475/136 138/311/138 225/531/222
f 137/310/137 225/531/222 138/311/138
f 226/532/223 218/507/215 227/533/224
f 228/534/225 229/535/226 212/536/209
f 212/536/209 229/535/226 51/537/51
f 156/538/154 171/539/169 230/540/227
f 231/541/150 232/542/150 233/543/150
f 234/544/228 235/545/229 236/546/230
f 237/547/231 235/548/229 238/549/232
f 239/550/233 234/551/228 240/552/234
f 125/553/125 213/554/210 224/555/221
f 224/556/221 213/557/210 135/558/135
f 218/507/215 223/523/220 241/559/235
f 227/533/224 218/507/215 241/559/235
f 218/507/215 197/506/195 223/523/220
f 136/560/136 242/561/236 221/562/218
f 243/563/237 225/531/222 137/310/137
f 215/564/212 185/565/183 210/566/207
f 229/535/226 228/534/225 189/567/187
f 171/539/169 229/568/226 230/540/227
f 239/569/233 244/570/238 245/571/239
f 239/572/233 189/573/187 228/574/225
f 236/575/230 235/576/229 239/577/233
f 244/578/238 239/579/233 235/580/229
f 239/581/233 240/582/234 236/583/230
f 244/584/238 236/585/230 245/586/239
f 246/587/240 244/588/238 240/552/234
f 234/551/228 246/587/240 240/552/234
f 221/589/218 247/590/241 214/591/211
f 226/592/223 248/593/242 243/563/237
f 226/592/223 243/563/237 137/310/137
f 185/594/183 247/595/241 245/596/239
f 245/597/239 178/598/176 185/599/183
f 229/568/226 186/600/184 249/601/243
f 223/523/220 230/602/227 241/559/235
f 221/603/218 242/604/236 247/595/241
f 226/532/223 227/533/224 248/605/242
f 229/568/226 250/606/244 186/600/184
f 230/540/227 229/568/226 249/601/243
f 241/607/235 251/608/245 248/609/242
f 243/610/237 251/608/245 252/611/246
f 186/612/184 250/613/244 187/614/185
f 253/615/247 250/616/244 252/611/246
f 249/617/243 253/615/247 251/608/245
f 3/5/3 2/618/2 13/19/13
f 9/619/9 11/620/11 2/2/2
f 1/1/1 9/619/9 2/2/2
f 1/621/1 6/8/6 9/13/9
f 4/622/4 6/8/6 1/621/1
f 4/622/4 8/623/8 6/8/6
f 3/5/3 40/624/40 4/6/4
f 16/23/16 11/25/11 9/625/9
f 18/26/18 16/23/16 9/625/9
f 4/626/4 40/68/40 8/627/8
f 3/5/3 13/19/13 34/60/34
f 13/19/13 2/618/2 11/17/11
f 10/628/10 8/627/8 40/68/40
f 36/62/36 3/5/3 34/60/34
f 40/624/40 3/5/3 36/62/36
f 14/629/14 11/630/11 17/631/17
f 14/632/14 17/633/17 25/108/25
f 24/41/24 23/40/23 30/634/30
f 5/7/5 32/53/32 9/13/9
f 5/15/5 10/14/10 53/90/53
f 34/60/34 13/19/13 12/18/12
f 21/635/21 34/60/34 12/18/12
f 19/636/19 12/637/12 11/638/11
f 12/42/12 24/41/24 21/639/21
f 41/101/41 40/624/40 36/62/36
f 29/640/29 26/641/26 60/642/60
f 60/643/60 28/644/28 29/645/29
f 27/646/27 26/641/26 29/640/29
f 39/67/39 10/628/10 40/68/40
f 32/225/32 17/24/17 18/26/18
f 53/90/53 52/89/52 5/15/5
f 19/57/19 139/368/139 21/635/21
f 21/647/21 35/648/35 34/649/34
f 21/650/21 57/651/57 20/652/20
f 25/108/25 17/633/17 43/109/43
f 32/225/32 45/653/45 17/24/17
f 128/654/128 208/655/205 207/656/204
f 47/75/47 44/72/44 43/71/43
f 17/633/17 31/657/31 43/109/43
f 28/46/28 31/658/31 27/47/27
f 28/659/28 49/660/49 31/83/31
f 30/54/30 27/56/27 49/111/49
f 139/368/139 19/57/19 33/59/33
f 56/661/56 21/635/21 139/368/139
f 36/62/36 35/61/35 58/99/58
f 22/34/22 55/116/55 15/35/15
f 57/662/57 38/335/38 20/663/20
f 61/664/61 57/665/57 60/666/60
f 61/667/61 26/44/26 38/66/38
f 75/668/75 28/644/28 60/643/60
f 76/359/76 39/67/39 41/69/41
f 43/669/43 120/670/120 64/671/64
f 28/141/28 79/143/79 49/144/49
f 28/50/28 30/49/30 65/672/65
f 205/472/202 39/67/39 76/359/76
f 47/673/47 31/674/31 17/675/17
f 35/61/35 56/661/56 58/99/58
f 67/119/67 56/118/56 139/312/139
f 37/676/37 58/677/58 56/678/56
f 62/679/62 60/121/60 69/123/69
f 75/680/75 60/681/60 62/682/62
f 61/133/61 74/683/74 73/131/73
f 254/684/248 166/389/164 141/685/141
f 141/685/141 64/686/64 254/684/248
f 120/687/120 254/684/248 64/686/64
f 65/672/65 78/688/78 28/50/28
f 51/689/51 119/690/119 52/691/52
f 51/88/51 53/90/53 159/366/157
f 66/692/66 159/693/157 53/694/53
f 158/695/156 205/472/202 76/359/76
f 6/696/6 82/149/82 81/148/81
f 8/697/8 82/149/82 6/696/6
f 82/149/82 8/697/8 87/156/87
f 82/149/82 87/156/87 85/152/85
f 18/698/18 9/147/9 80/146/80
f 7/699/7 6/700/6 81/701/81
f 89/160/89 84/702/84 83/158/83
f 89/160/89 85/159/85 88/168/88
f 81/703/81 9/169/9 50/171/50
f 87/704/87 8/705/8 7/172/7
f 10/174/10 87/704/87 7/172/7
f 50/171/50 7/172/7 81/703/81
f 92/173/92 7/172/7 50/171/50
f 5/706/5 92/707/92 50/708/50
f 10/628/10 112/261/112 87/164/87
f 86/161/86 93/709/93 18/162/18
f 95/710/95 105/711/105 93/712/93
f 94/178/94 93/176/93 84/175/84
f 88/168/88 108/296/108 91/167/91
f 84/702/84 89/160/89 96/183/96
f 18/26/18 93/226/93 32/225/32
f 54/244/54 112/243/112 10/713/10
f 90/165/90 87/164/87 112/261/112
f 102/714/102 98/715/98 96/716/96
f 96/717/96 100/194/100 101/196/101
f 118/718/118 111/224/111 106/223/106
f 91/167/91 108/296/108 130/295/130
f 91/167/91 118/719/118 96/183/96
f 91/167/91 130/295/130 118/719/118
f 44/234/44 93/720/93 50/235/50
f 50/721/50 27/722/27 31/723/31
f 48/84/48 31/83/31 49/660/49
f 99/190/99 49/268/49 50/191/50
f 92/724/92 5/725/5 52/726/52
f 54/727/54 39/728/39 53/729/53
f 106/730/106 104/731/104 44/732/44
f 106/733/106 93/734/93 104/735/104
f 45/266/45 106/730/106 44/732/44
f 100/736/100 50/229/50 106/231/106
f 102/255/102 103/257/103 99/307/99
f 116/737/116 115/738/115 114/739/114
f 107/210/107 103/209/103 117/740/117
f 118/741/118 107/742/107 100/743/100
f 118/744/118 100/745/100 96/746/96
f 101/747/101 107/748/107 96/749/96
f 102/750/102 96/751/96 107/752/107
f 126/753/126 118/718/118 106/223/106
f 130/754/130 111/224/111 118/718/118
f 42/755/42 120/670/120 43/669/43
f 44/756/44 120/757/120 42/758/42
f 119/690/119 92/759/92 52/691/52
f 39/760/39 112/761/112 66/762/66
f 205/472/202 112/261/112 39/67/39
f 104/272/104 134/305/134 120/273/120
f 48/84/48 106/730/106 45/266/45
f 121/275/121 48/277/48 124/287/124
f 109/262/109 112/261/112 205/472/202
f 105/309/105 133/304/133 104/272/104
f 125/763/125 106/764/106 48/765/48
f 125/553/125 122/766/122 124/767/124
f 100/768/100 124/769/124 122/770/122
f 126/771/126 124/769/124 100/768/100
f 126/772/126 123/773/123 121/774/121
f 123/775/123 100/285/100 121/275/121
f 126/753/126 106/223/106 125/528/125
f 128/776/128 126/288/126 107/210/107
f 102/255/102 118/777/118 117/256/117
f 128/778/128 118/718/118 126/753/126
f 118/777/118 127/779/127 117/256/117
f 110/217/110 138/311/138 105/290/105
f 130/295/130 127/298/127 111/300/111
f 254/684/248 255/780/249 166/389/164
f 99/190/99 113/269/113 49/268/49
f 66/245/66 54/244/54 119/271/119
f 216/781/213 255/780/249 254/684/248
f 120/687/120 216/781/213 254/684/248
f 120/782/120 134/783/134 216/784/213
f 123/527/123 126/753/126 125/528/125
f 128/776/128 107/210/107 117/740/117
f 129/474/129 109/262/109 205/472/202
f 207/476/204 94/785/94 127/291/127
f 208/478/205 127/298/127 130/295/130
f 62/786/62 58/677/58 37/676/37
f 62/787/62 69/788/69 67/789/67
f 73/333/73 38/335/38 57/662/57
f 77/790/77 141/342/141 144/344/144
f 55/94/55 160/367/158 33/59/33
f 140/401/140 172/400/170 58/99/58
f 67/791/67 140/792/140 58/793/58
f 256/794/150 257/795/150 258/796/150
f 256/797/150 258/798/150 257/799/150
f 76/359/76 68/800/68 157/360/155
f 141/801/141 211/802/208 145/803/145
f 77/317/77 148/804/148 63/106/63
f 209/805/206 77/806/77 153/807/151
f 77/317/77 142/808/142 148/804/148
f 77/809/77 154/810/152 79/811/79
f 149/357/149 77/356/77 74/812/74
f 149/813/149 79/814/79 154/815/152
f 155/380/153 79/816/79 149/405/149
f 154/817/152 142/818/142 149/819/149
f 155/820/153 142/818/142 154/817/152
f 141/821/141 166/822/164 211/823/208
f 209/824/206 142/825/142 211/826/208
f 209/827/206 132/303/132 77/352/77
f 132/303/132 65/302/65 77/352/77
f 159/366/157 156/365/154 170/393/168
f 158/695/156 76/359/76 156/358/154
f 259/828/250 160/367/158 55/94/55
f 140/401/140 139/368/139 160/367/158
f 147/329/147 58/99/58 172/400/170
f 157/360/155 68/800/68 147/375/147
f 79/348/79 78/378/78 74/349/74
f 162/404/160 73/333/73 78/829/78
f 145/326/145 210/830/207 183/423/181
f 211/518/208 210/831/207 145/832/145
f 142/833/142 209/834/206 148/835/148
f 153/408/151 148/407/148 209/836/206
f 211/823/208 166/822/164 168/837/166
f 55/116/55 146/327/146 173/838/171
f 259/839/250 55/116/55 173/838/171
f 148/330/148 179/840/177 146/331/146
f 51/88/51 169/392/167 186/431/184
f 259/828/250 176/412/174 160/367/158
f 259/828/250 191/438/189 176/412/174
f 177/413/175 172/400/170 160/367/158
f 183/423/181 174/403/172 145/326/145
f 178/415/176 146/374/146 179/841/177
f 185/842/183 183/843/181 210/844/207
f 186/431/184 180/420/178 51/88/51
f 169/392/167 181/845/179 186/431/184
f 156/365/154 181/845/179 169/392/167
f 191/438/189 259/828/250 173/846/171
f 191/847/189 177/848/175 176/849/174
f 174/403/172 173/850/171 143/324/143
f 174/851/172 184/852/182 173/853/171
f 175/436/173 178/435/176 179/854/177
f 180/420/178 189/855/187 175/410/173
f 191/438/189 173/846/171 192/439/190
f 190/437/188 177/413/175 191/438/189
f 190/437/188 182/856/180 177/413/175
f 192/857/190 173/858/171 184/859/182
f 184/859/182 194/860/192 193/861/191
f 178/862/176 194/863/192 184/864/182
f 189/434/187 194/865/192 178/435/176
f 181/845/179 188/866/186 186/431/184
f 193/861/191 192/857/190 184/859/182
f 188/866/186 195/867/193 186/431/184
f 113/462/113 99/868/99 131/869/131
f 99/870/99 135/487/135 131/486/131
f 205/472/202 158/695/156 197/506/195
f 217/504/214 113/462/113 131/869/131
f 133/304/133 239/572/233 134/305/134
f 216/497/213 134/871/134 219/872/216
f 219/873/216 134/874/134 220/875/217
f 198/876/196 103/202/103 113/251/113
f 201/877/199 135/878/135 113/879/113
f 201/470/199 200/458/198 199/460/197
f 201/880/199 217/881/214 135/882/135
f 204/883/201 203/884/201 202/885/200
f 199/886/197 135/887/135 103/888/103
f 198/889/196 201/880/199 103/890/103
f 206/473/203 205/472/202 197/506/195
f 239/891/233 133/892/133 220/893/217
f 127/894/127 208/895/205 117/896/117
f 218/897/215 208/898/205 206/899/203
f 94/216/94 137/310/137 110/217/110
f 207/515/204 137/310/137 94/216/94
f 255/780/249 167/390/165 166/389/164
f 196/900/194 209/479/206 210/481/207
f 209/901/206 196/902/194 132/903/132
f 66/245/66 119/271/119 229/568/226
f 197/904/195 159/905/157 66/906/66
f 197/907/195 66/245/66 170/908/168
f 228/909/225 220/875/217 134/874/134
f 239/572/233 228/574/225 134/305/134
f 213/910/210 131/450/131 196/449/194
f 124/767/124 213/554/210 125/553/125
f 201/880/199 198/889/196 217/881/214
f 133/304/133 136/308/136 220/911/217
f 260/912/150 261/913/150 262/914/150
f 260/915/150 262/916/150 261/917/150
f 219/872/216 214/495/211 216/497/213
f 208/898/205 222/514/219 207/515/204
f 210/831/207 211/518/208 196/517/194
f 228/918/225 212/919/209 196/920/194
f 51/689/51 229/921/226 119/690/119
f 171/539/169 66/245/66 229/568/226
f 66/245/66 171/539/169 170/908/168
f 210/922/207 167/923/165 255/924/249
f 210/925/207 216/497/213 215/496/212
f 210/922/207 255/924/249 216/926/213
f 220/875/217 228/909/225 237/547/231
f 237/547/231 238/549/232 234/927/228
f 246/587/240 234/551/228 238/928/232
f 237/929/231 246/930/240 220/931/217
f 246/587/240 238/928/232 220/932/217
f 208/898/205 218/897/215 226/592/223
f 208/898/205 226/592/223 222/514/219
f 142/933/142 228/909/225 196/934/194
f 228/909/225 142/933/142 178/935/176
f 231/936/150 233/937/150 232/938/150
f 245/939/239 235/548/229 228/909/225
f 220/932/217 238/928/232 235/940/229
f 234/544/228 220/941/217 235/545/229
f 236/942/230 237/943/231 234/944/228
f 239/550/233 220/932/217 234/551/228
f 235/548/229 237/547/231 228/909/225
f 217/945/214 224/946/221 135/947/135
f 217/948/214 123/527/123 224/529/221
f 242/949/236 136/475/136 225/531/222
f 222/514/219 226/592/223 137/310/137
f 228/909/225 178/935/176 245/939/239
f 223/523/220 156/358/154 230/602/227
f 214/591/211 247/590/241 215/564/212
f 247/590/241 185/565/183 215/564/212
f 240/582/234 245/939/239 236/583/230
f 235/548/229 245/939/239 240/582/234
f 244/588/238 235/940/229 240/552/234
f 246/950/240 237/951/231 236/952/230
f 243/563/237 252/953/246 225/531/222
f 229/535/226 189/567/187 180/954/178
f 189/434/187 239/955/233 245/956/239
f 236/585/230 244/584/238 246/957/240
f 225/958/222 252/959/246 242/960/236
f 248/605/242 227/533/224 241/559/235
f 189/434/187 245/956/239 194/865/192
f 229/961/226 180/962/178 250/963/244
f 195/964/193 249/601/243 186/600/184
f 241/559/235 230/602/227 249/965/243
f 250/966/244 194/967/192 245/968/239
f 242/604/236 245/596/239 247/595/241
f 242/969/236 252/970/246 245/968/239
f 249/617/243 251/608/245 241/607/235
f 243/610/237 248/609/242 251/608/245
f 250/971/244 180/972/178 194/973/192
f 253/615/247 249/617/243 195/447/193
f 245/968/239 252/970/246 250/966/244
f 251/608/245 253/615/247 252/611/246
f 187/444/185 250/616/244 253/615/247
f 195/447/193 187/444/185 253/615/247
f 128/654/128 117/974/117 208/655/205
f 47/673/47 46/975/46 31/674/31
