v 88.000 0.000 0
v 87.660 35.200 0
v 79.691 32.000 0
v 80.000 0.000 0
vt 0.96700 0.12000
vt 0.96700 0.12000
vt 0.96700 0.12000
vt 0.96700 0.12000
vn 0 0 1
vn 0 0 1
vn 0 0 1
vn 0 0 1
f 1/1/1 2/2/2 3/3/3
f 1/1/1 3/3/3 4/4/4
v 87.660 35.200 0
v 86.638 47.899 0
v 78.762 43.545 0
v 79.691 32.000 0
vt 0.96700 0.12000
vt 0.96700 0.12000
vt 0.96700 0.12000
vt 0.96700 0.12000
vn 0 0 1
vn 0 0 1
vn 0 0 1
vn 0 0 1
f 5/5/5 6/6/6 7/7/7
f 5/5/5 7/7/7 8/8/8
v 86.638 47.899 0
v 84.920 57.116 0
v 77.200 51.924 0
v 78.762 43.545 0
vt 0.96700 0.12000
vt 0.96700 0.12000
vt 0.96700 0.12000
vt 0.96700 0.12000
vn 0 0 1
vn 0 0 1
vn 0 0 1
vn 0 0 1
f 9/9/9 10/10/10 11/11/11
f 9/9/9 11/11/11 12/12/12
v 84.920 57.116 0
v 82.484 64.420 0
v 74.986 58.563 0
v 77.200 51.924 0
vt 0.96700 0.12000
vt 0.96700 0.12000
vt 0.96700 0.12000
vt 0.96700 0.12000
vn 0 0 1
vn 0 0 1
vn 0 0 1
vn 0 0 1
f 13/13/13 14/14/14 15/15/15
f 13/13/13 15/15/15 16/16/16
v 82.484 64.420 0
v 79.294 70.386 0
v 72.086 63.987 0
v 74.986 58.563 0
vt 0.96700 0.12000
vt 0.96700 0.12000
vt 0.96700 0.12000
vt 0.96700 0.12000
vn 0 0 1
vn 0 0 1
vn 0 0 1
vn 0 0 1
f 17/17/17 18/18/18 19/19/19
f 17/17/17 19/19/19 20/20/20
v 79.294 70.386 0
v 75.292 75.292 0
v 68.448 68.448 0
v 72.086 63.987 0
vt 0.96700 0.12000
vt 0.96700 0.12000
vt 0.96700 0.12000
vt 0.96700 0.12000
vn 0 0 1
vn 0 0 1
vn 0 0 1
vn 0 0 1
f 21/21/21 22/22/22 23/23/23
f 21/21/21 23/23/23 24/24/24
v 75.292 75.292 0
v 70.386 79.294 0
v 63.987 72.086 0
v 68.448 68.448 0
vt 0.96700 0.12000
vt 0.96700 0.12000
vt 0.96700 0.12000
vt 0.96700 0.12000
vn 0 0 1
vn 0 0 1
vn 0 0 1
vn 0 0 1
f 25/25/25 26/26/26 27/27/27
f 25/25/25 27/27/27 28/28/28
v 70.386 79.294 0
v 64.420 82.484 0
v 58.563 74.986 0
v 63.987 72.086 0
vt 0.96700 0.12000
vt 0.96700 0.12000
vt 0.96700 0.12000
vt 0.96700 0.12000
vn 0 0 1
vn 0 0 1
vn 0 0 1
vn 0 0 1
f 29/29/29 30/30/30 31/31/31
f 29/29/29 31/31/31 32/32/32
v 64.420 82.484 0
v 57.116 84.920 0
v 51.924 77.200 0
v 58.563 74.986 0
vt 0.96700 0.12000
vt 0.96700 0.12000
vt 0.96700 0.12000
vt 0.96700 0.12000
vn 0 0 1
vn 0 0 1
vn 0 0 1
vn 0 0 1
f 33/33/33 34/34/34 35/35/35
f 33/33/33 35/35/35 36/36/36
v 57.116 84.920 0
v 47.899 86.638 0
v 43.545 78.762 0
v 51.924 77.200 0
vt 0.96700 0.12000
vt 0.96700 0.12000
vt 0.96700 0.12000
vt 0.96700 0.12000
vn 0 0 1
vn 0 0 1
vn 0 0 1
vn 0 0 1
f 37/37/37 38/38/38 39/39/39
f 37/37/37 39/39/39 40/40/40
v 47.899 86.638 0
v 35.200 87.660 0
v 32.000 79.691 0
v 43.545 78.762 0
vt 0.96700 0.12000
vt 0.96700 0.12000
vt 0.96700 0.12000
vt 0.96700 0.12000
vn 0 0 1
vn 0 0 1
vn 0 0 1
vn 0 0 1
f 41/41/41 42/42/42 43/43/43
f 41/41/41 43/43/43 44/44/44
v 35.200 87.660 0
v 0.000 88.000 0
v 0.000 80.000 0
v 32.000 79.691 0
vt 0.96700 0.12000
vt 0.96700 0.12000
vt 0.96700 0.12000
vt 0.96700 0.12000
vn 0 0 1
vn 0 0 1
vn 0 0 1
vn 0 0 1
f 45/45/45 46/46/46 47/47/47
f 45/45/45 47/47/47 48/48/48
v 0.000 88.000 0
v -35.200 87.660 0
v -32.000 79.691 0
v 0.000 80.000 0
vt 0.96700 0.12000
vt 0.96700 0.12000
vt 0.96700 0.12000
vt 0.96700 0.12000
vn 0 0 1
vn 0 0 1
vn 0 0 1
vn 0 0 1
f 49/49/49 50/50/50 51/51/51
f 49/49/49 51/51/51 52/52/52
v -35.200 87.660 0
v -47.899 86.638 0
v -43.545 78.762 0
v -32.000 79.691 0
vt 0.96700 0.12000
vt 0.96700 0.12000
vt 0.96700 0.12000
vt 0.96700 0.12000
vn 0 0 1
vn 0 0 1
vn 0 0 1
vn 0 0 1
f 53/53/53 54/54/54 55/55/55
f 53/53/53 55/55/55 56/56/56
v -47.899 86.638 0
v -57.116 84.920 0
v -51.924 77.200 0
v -43.545 78.762 0
vt 0.96700 0.12000
vt 0.96700 0.12000
vt 0.96700 0.12000
vt 0.96700 0.12000
vn 0 0 1
vn 0 0 1
vn 0 0 1
vn 0 0 1
f 57/57/57 58/58/58 59/59/59
f 57/57/57 59/59/59 60/60/60
v -57.116 84.920 0
v -64.420 82.484 0
v -58.563 74.986 0
v -51.924 77.200 0
vt 0.96700 0.12000
vt 0.96700 0.12000
vt 0.96700 0.12000
vt 0.96700 0.12000
vn 0 0 1
vn 0 0 1
vn 0 0 1
vn 0 0 1
f 61/61/61 62/62/62 63/63/63
f 61/61/61 63/63/63 64/64/64
v -64.420 82.484 0
v -70.386 79.294 0
v -63.987 72.086 0
v -58.563 74.986 0
vt 0.96700 0.12000
vt 0.96700 0.12000
vt 0.96700 0.12000
vt 0.96700 0.12000
vn 0 0 1
vn 0 0 1
vn 0 0 1
vn 0 0 1
f 65/65/65 66/66/66 67/67/67
f 65/65/65 67/67/67 68/68/68
v -70.386 79.294 0
v -75.292 75.292 0
v -68.448 68.448 0
v -63.987 72.086 0
vt 0.96700 0.12000
vt 0.96700 0.12000
vt 0.96700 0.12000
vt 0.96700 0.12000
vn 0 0 1
vn 0 0 1
vn 0 0 1
vn 0 0 1
f 69/69/69 70/70/70 71/71/71
f 69/69/69 71/71/71 72/72/72
v -75.292 75.292 0
v -79.294 70.386 0
v -72.086 63.987 0
v -68.448 68.448 0
vt 0.96700 0.12000
vt 0.96700 0.12000
vt 0.96700 0.12000
vt 0.96700 0.12000
vn 0 0 1
vn 0 0 1
vn 0 0 1
vn 0 0 1
f 73/73/73 74/74/74 75/75/75
f 73/73/73 75/75/75 76/76/76
v -79.294 70.386 0
v -82.484 64.420 0
v -74.986 58.563 0
v -72.086 63.987 0
vt 0.96700 0.12000
vt 0.96700 0.12000
vt 0.96700 0.12000
vt 0.96700 0.12000
vn 0 0 1
vn 0 0 1
vn 0 0 1
vn 0 0 1
f 77/77/77 78/78/78 79/79/79
f 77/77/77 79/79/79 80/80/80
v -82.484 64.420 0
v -84.920 57.116 0
v -77.200 51.924 0
v -74.986 58.563 0
vt 0.96700 0.12000
vt 0.96700 0.12000
vt 0.96700 0.12000
vt 0.96700 0.12000
vn 0 0 1
vn 0 0 1
vn 0 0 1
vn 0 0 1
f 81/81/81 82/82/82 83/83/83
f 81/81/81 83/83/83 84/84/84
v -84.920 57.116 0
v -86.638 47.899 0
v -78.762 43.545 0
v -77.200 51.924 0
vt 0.96700 0.12000
vt 0.96700 0.12000
vt 0.96700 0.12000
vt 0.96700 0.12000
vn 0 0 1
vn 0 0 1
vn 0 0 1
vn 0 0 1
f 85/85/85 86/86/86 87/87/87
f 85/85/85 87/87/87 88/88/88
v -86.638 47.899 0
v -87.660 35.200 0
v -79.691 32.000 0
v -78.762 43.545 0
vt 0.96700 0.12000
vt 0.96700 0.12000
vt 0.96700 0.12000
vt 0.96700 0.12000
vn 0 0 1
vn 0 0 1
vn 0 0 1
vn 0 0 1
f 89/89/89 90/90/90 91/91/91
f 89/89/89 91/91/91 92/92/92
v -87.660 35.200 0
v -88.000 0.000 0
v -80.000 0.000 0
v -79.691 32.000 0
vt 0.96700 0.12000
vt 0.96700 0.12000
vt 0.96700 0.12000
vt 0.96700 0.12000
vn 0 0 1
vn 0 0 1
vn 0 0 1
vn 0 0 1
f 93/93/93 94/94/94 95/95/95
f 93/93/93 95/95/95 96/96/96
v -88.000 0.000 0
v -87.660 -35.200 0
v -79.691 -32.000 0
v -80.000 0.000 0
vt 0.96700 0.12000
vt 0.96700 0.12000
vt 0.96700 0.12000
vt 0.96700 0.12000
vn 0 0 1
vn 0 0 1
vn 0 0 1
vn 0 0 1
f 97/97/97 98/98/98 99/99/99
f 97/97/97 99/99/99 100/100/100
v -87.660 -35.200 0
v -86.638 -47.899 0
v -78.762 -43.545 0
v -79.691 -32.000 0
vt 0.96700 0.12000
vt 0.96700 0.12000
vt 0.96700 0.12000
vt 0.96700 0.12000
vn 0 0 1
vn 0 0 1
vn 0 0 1
vn 0 0 1
f 101/101/101 102/102/102 103/103/103
f 101/101/101 103/103/103 104/104/104
v -86.638 -47.899 0
v -84.920 -57.116 0
v -77.200 -51.924 0
v -78.762 -43.545 0
vt 0.96700 0.12000
vt 0.96700 0.12000
vt 0.96700 0.12000
vt 0.96700 0.12000
vn 0 0 1
vn 0 0 1
vn 0 0 1
vn 0 0 1
f 105/105/105 106/106/106 107/107/107
f 105/105/105 107/107/107 108/108/108
v -84.920 -57.116 0
v -82.484 -64.420 0
v -74.986 -58.563 0
v -77.200 -51.924 0
vt 0.96700 0.12000
vt 0.96700 0.12000
vt 0.96700 0.12000
vt 0.96700 0.12000
vn 0 0 1
vn 0 0 1
vn 0 0 1
vn 0 0 1
f 109/109/109 110/110/110 111/111/111
f 109/109/109 111/111/111 112/112/112
v -82.484 -64.420 0
v -79.294 -70.386 0
v -72.086 -63.987 0
v -74.986 -58.563 0
vt 0.96700 0.12000
vt 0.96700 0.12000
vt 0.96700 0.12000
vt 0.96700 0.12000
vn 0 0 1
vn 0 0 1
vn 0 0 1
vn 0 0 1
f 113/113/113 114/114/114 115/115/115
f 113/113/113 115/115/115 116/116/116
v -79.294 -70.386 0
v -75.292 -75.292 0
v -68.448 -68.448 0
v -72.086 -63.987 0
vt 0.96700 0.12000
vt 0.96700 0.12000
vt 0.96700 0.12000
vt 0.96700 0.12000
vn 0 0 1
vn 0 0 1
vn 0 0 1
vn 0 0 1
f 117/117/117 118/118/118 119/119/119
f 117/117/117 119/119/119 120/120/120
v -75.292 -75.292 0
v -70.386 -79.294 0
v -63.987 -72.086 0
v -68.448 -68.448 0
vt 0.96700 0.12000
vt 0.96700 0.12000
vt 0.96700 0.12000
vt 0.96700 0.12000
vn 0 0 1
vn 0 0 1
vn 0 0 1
vn 0 0 1
f 121/121/121 122/122/122 123/123/123
f 121/121/121 123/123/123 124/124/124
v -70.386 -79.294 0
v -64.420 -82.484 0
v -58.563 -74.986 0
v -63.987 -72.086 0
vt 0.96700 0.12000
vt 0.96700 0.12000
vt 0.96700 0.12000
vt 0.96700 0.12000
vn 0 0 1
vn 0 0 1
vn 0 0 1
vn 0 0 1
f 125/125/125 126/126/126 127/127/127
f 125/125/125 127/127/127 128/128/128
v -64.420 -82.484 0
v -57.116 -84.920 0
v -51.924 -77.200 0
v -58.563 -74.986 0
vt 0.96700 0.12000
vt 0.96700 0.12000
vt 0.96700 0.12000
vt 0.96700 0.12000
vn 0 0 1
vn 0 0 1
vn 0 0 1
vn 0 0 1
f 129/129/129 130/130/130 131/131/131
f 129/129/129 131/131/131 132/132/132
v -57.116 -84.920 0
v -47.899 -86.638 0
v -43.545 -78.762 0
v -51.924 -77.200 0
vt 0.96700 0.12000
vt 0.96700 0.12000
vt 0.96700 0.12000
vt 0.96700 0.12000
vn 0 0 1
vn 0 0 1
vn 0 0 1
vn 0 0 1
f 133/133/133 134/134/134 135/135/135
f 133/133/133 135/135/135 136/136/136
v -47.899 -86.638 0
v -35.200 -87.660 0
v -32.000 -79.691 0
v -43.545 -78.762 0
vt 0.96700 0.12000
vt 0.96700 0.12000
vt 0.96700 0.12000
vt 0.96700 0.12000
vn 0 0 1
vn 0 0 1
vn 0 0 1
vn 0 0 1
f 137/137/137 138/138/138 139/139/139
f 137/137/137 139/139/139 140/140/140
v -35.200 -87.660 0
v -0.000 -88.000 0
v -0.000 -80.000 0
v -32.000 -79.691 0
vt 0.96700 0.12000
vt 0.96700 0.12000
vt 0.96700 0.12000
vt 0.96700 0.12000
vn 0 0 1
vn 0 0 1
vn 0 0 1
vn 0 0 1
f 141/141/141 142/142/142 143/143/143
f 141/141/141 143/143/143 144/144/144
v -0.000 -88.000 0
v 35.200 -87.660 0
v 32.000 -79.691 0
v -0.000 -80.000 0
vt 0.96700 0.12000
vt 0.96700 0.12000
vt 0.96700 0.12000
vt 0.96700 0.12000
vn 0 0 1
vn 0 0 1
vn 0 0 1
vn 0 0 1
f 145/145/145 146/146/146 147/147/147
f 145/145/145 147/147/147 148/148/148
v 35.200 -87.660 0
v 47.899 -86.638 0
v 43.545 -78.762 0
v 32.000 -79.691 0
vt 0.96700 0.12000
vt 0.96700 0.12000
vt 0.96700 0.12000
vt 0.96700 0.12000
vn 0 0 1
vn 0 0 1
vn 0 0 1
vn 0 0 1
f 149/149/149 150/150/150 151/151/151
f 149/149/149 151/151/151 152/152/152
v 47.899 -86.638 0
v 57.116 -84.920 0
v 51.924 -77.200 0
v 43.545 -78.762 0
vt 0.96700 0.12000
vt 0.96700 0.12000
vt 0.96700 0.12000
vt 0.96700 0.12000
vn 0 0 1
vn 0 0 1
vn 0 0 1
vn 0 0 1
f 153/153/153 154/154/154 155/155/155
f 153/153/153 155/155/155 156/156/156
v 57.116 -84.920 0
v 64.420 -82.484 0
v 58.563 -74.986 0
v 51.924 -77.200 0
vt 0.96700 0.12000
vt 0.96700 0.12000
vt 0.96700 0.12000
vt 0.96700 0.12000
vn 0 0 1
vn 0 0 1
vn 0 0 1
vn 0 0 1
f 157/157/157 158/158/158 159/159/159
f 157/157/157 159/159/159 160/160/160
v 64.420 -82.484 0
v 70.386 -79.294 0
v 63.987 -72.086 0
v 58.563 -74.986 0
vt 0.96700 0.12000
vt 0.96700 0.12000
vt 0.96700 0.12000
vt 0.96700 0.12000
vn 0 0 1
vn 0 0 1
vn 0 0 1
vn 0 0 1
f 161/161/161 162/162/162 163/163/163
f 161/161/161 163/163/163 164/164/164
v 70.386 -79.294 0
v 75.292 -75.292 0
v 68.448 -68.448 0
v 63.987 -72.086 0
vt 0.96700 0.12000
vt 0.96700 0.12000
vt 0.96700 0.12000
vt 0.96700 0.12000
vn 0 0 1
vn 0 0 1
vn 0 0 1
vn 0 0 1
f 165/165/165 166/166/166 167/167/167
f 165/165/165 167/167/167 168/168/168
v 75.292 -75.292 0
v 79.294 -70.386 0
v 72.086 -63.987 0
v 68.448 -68.448 0
vt 0.96700 0.12000
vt 0.96700 0.12000
vt 0.96700 0.12000
vt 0.96700 0.12000
vn 0 0 1
vn 0 0 1
vn 0 0 1
vn 0 0 1
f 169/169/169 170/170/170 171/171/171
f 169/169/169 171/171/171 172/172/172
v 79.294 -70.386 0
v 82.484 -64.420 0
v 74.986 -58.563 0
v 72.086 -63.987 0
vt 0.96700 0.12000
vt 0.96700 0.12000
vt 0.96700 0.12000
vt 0.96700 0.12000
vn 0 0 1
vn 0 0 1
vn 0 0 1
vn 0 0 1
f 173/173/173 174/174/174 175/175/175
f 173/173/173 175/175/175 176/176/176
v 82.484 -64.420 0
v 84.920 -57.116 0
v 77.200 -51.924 0
v 74.986 -58.563 0
vt 0.96700 0.12000
vt 0.96700 0.12000
vt 0.96700 0.12000
vt 0.96700 0.12000
vn 0 0 1
vn 0 0 1
vn 0 0 1
vn 0 0 1
f 177/177/177 178/178/178 179/179/179
f 177/177/177 179/179/179 180/180/180
v 84.920 -57.116 0
v 86.638 -47.899 0
v 78.762 -43.545 0
v 77.200 -51.924 0
vt 0.96700 0.12000
vt 0.96700 0.12000
vt 0.96700 0.12000
vt 0.96700 0.12000
vn 0 0 1
vn 0 0 1
vn 0 0 1
vn 0 0 1
f 181/181/181 182/182/182 183/183/183
f 181/181/181 183/183/183 184/184/184
v 86.638 -47.899 0
v 87.660 -35.200 0
v 79.691 -32.000 0
v 78.762 -43.545 0
vt 0.96700 0.12000
vt 0.96700 0.12000
vt 0.96700 0.12000
vt 0.96700 0.12000
vn 0 0 1
vn 0 0 1
vn 0 0 1
vn 0 0 1
f 185/185/185 186/186/186 187/187/187
f 185/185/185 187/187/187 188/188/188
v 87.660 -35.200 0
v 88.000 -0.000 0
v 80.000 -0.000 0
v 79.691 -32.000 0
vt 0.96700 0.12000
vt 0.96700 0.12000
vt 0.96700 0.12000
vt 0.96700 0.12000
vn 0 0 1
vn 0 0 1
vn 0 0 1
vn 0 0 1
f 189/189/189 190/190/190 191/191/191
f 189/189/189 191/191/191 192/192/192
