# glbtool toobj from FarmDirt.glb, texture: dirt_palette.png
v 1.0762 56.7016 2.3058
v -25.0910 58.2075 4.4161
v -26.4862 56.3133 2.3058
v 25.9120 57.0012 2.3058
v 25.3947 58.6270 4.4161
v 0.5832 55.4487 -0.5080
v -28.3466 54.9513 -0.5080
v -47.4932 64.0512 4.4161
v -63.0776 61.1665 5.1195
v -46.6722 61.1665 5.1195
v -26.4862 66.0197 2.3058
v -49.9559 65.8980 2.3058
v -67.5535 65.6154 2.3058
v -64.1966 63.8789 4.4161
v -28.3466 67.3816 -0.5080
v -53.2396 67.2257 -0.5080
v 26.6017 55.8323 -0.5080
v 40.0328 58.3904 4.4161
v 41.2020 56.6132 2.3058
v 51.3854 56.1807 2.3058
v 49.6987 58.1267 4.4161
v 42.7609 55.3355 -0.5080
v 1.0762 65.6314 2.3058
v -25.0910 64.1254 4.4161
v 25.3947 63.7060 4.4161
v 25.9120 65.3318 2.3058
v 0.5832 66.8843 -0.5080
v 26.6017 66.5006 -0.5080
v 1.4459 63.8887 4.4161
v -24.6259 61.1665 5.1195
v 25.2223 61.1665 5.1195
v 1.5691 61.1665 5.1195
v 1.4459 58.4443 4.4161
v 49.1365 61.1665 5.1195
v 39.6430 61.1665 5.1195
v 40.0328 63.9426 4.4161
v 49.6987 64.2063 4.4161
v 41.2020 65.7198 2.3058
v 51.3853 66.1523 2.3058
v 42.7609 66.9975 -0.5080
v 53.6342 67.5514 -0.5080
v 53.6342 54.7816 -0.5080
v 58.7312 58.2279 4.4161
v 60.9013 56.3466 2.3058
v 63.7948 54.9941 -0.5080
v 69.4211 56.6955 2.3058
v 66.8181 58.4406 4.4161
v -47.4932 58.2817 4.4161
v -64.1966 58.4540 4.4161
v -49.9559 56.4350 2.3058
v -53.2396 55.1072 -0.5080
v -67.5535 56.7175 2.3058
v -72.0293 55.4691 -0.5080
v -72.3496 61.1665 5.1195
v -72.0293 66.8639 -0.5080
v -82.6489 66.7432 -0.5080
v -77.4993 65.5212 2.3058
v -73.6370 63.8215 4.4161
v -78.0197 61.1665 4.4161
v -82.0892 64.4325 2.3058
v -77.9462 63.3142 3.8690
v 72.8918 55.4408 -0.5080
v 73.6474 58.5115 4.4161
v 76.6160 56.8118 2.3058
v 81.5152 57.9005 2.3058
v 77.9478 59.0188 3.8690
v 80.5740 55.5897 -0.5080
v 60.9013 65.9864 2.3058
v 58.7312 64.1051 4.4161
v 66.8181 63.8924 4.4161
v 69.4211 65.6375 2.3058
v 63.7948 67.3389 -0.5080
v 72.8918 66.8922 -0.5080
v 58.0078 61.1665 5.1195
v 65.9505 61.1665 5.1195
v 78.3254 61.1665 4.4161
v 72.6579 61.1665 5.1195
v 73.6474 63.8215 4.4161
v 77.9478 63.3142 3.8690
v 80.5740 66.7433 -0.5080
v 81.5152 64.4326 2.3058
v 85.8052 65.3491 -0.5080
v 76.6160 65.5212 2.3058
v -87.5498 65.3490 -0.5080
v -83.6192 61.1665 2.3058
v -73.6370 58.5114 4.4161
v -82.0892 57.9004 2.3058
v -77.9462 59.0187 3.8690
v -89.1834 61.1665 -0.5080
v -87.5498 56.9839 -0.5080
v -82.6489 55.5897 -0.5080
v -77.4993 56.8117 2.3058
v 85.8052 56.9839 -0.5080
v 83.1483 61.1665 2.3058
v 87.5489 61.1665 -0.5080
v 4.9867 35.9389 2.3058
v 25.0358 34.4330 4.4161
v 26.4101 36.3272 2.3058
v -14.4053 35.6393 2.3058
v -13.7058 34.0135 4.4161
v 5.3678 37.1918 -0.5080
v 28.2425 37.6891 -0.5080
v 44.5498 31.4740 5.1195
v 24.5777 31.4740 5.1195
v 25.0358 28.5151 4.4161
v 45.3707 28.5893 4.4161
v 26.4101 26.6208 2.3058
v 47.8335 26.7425 2.3058
v 60.9552 31.4740 5.1195
v 65.4310 27.0251 2.3058
v 62.0741 28.7616 4.4161
v 28.2425 25.2589 -0.5080
v 51.1172 25.4148 -0.5080
v -28.2562 34.2501 4.4161
v -15.3380 36.8082 -0.5080
v -29.7346 36.0273 2.3058
v -42.6107 36.4598 2.3058
v -40.4781 34.5138 4.4161
v -31.7058 37.3050 -0.5080
v 4.9867 27.0091 2.3058
v -13.7058 28.9345 4.4161
v -14.4053 27.3087 2.3058
v 5.3678 25.7562 -0.5080
v -15.3380 26.1398 -0.5080
v 4.7010 28.7518 4.4161
v -13.4726 31.4740 5.1195
v 4.6057 31.4740 5.1195
v 4.7010 34.1962 4.4161
v -27.7635 31.4740 5.1195
v -39.7672 31.4740 5.1195
v -28.2562 28.6979 4.4161
v -40.4781 28.4342 4.4161
v -29.7346 26.9207 2.3058
v -42.6107 26.4882 2.3058
v -31.7058 25.6430 -0.5080
v -45.4541 25.0891 -0.5080
v -51.8989 34.4126 4.4161
v -45.4541 37.8589 -0.5080
v -54.6428 36.2939 2.3058
v -58.3014 37.6464 -0.5080
v -65.4154 35.9450 2.3058
v -62.1242 34.1999 4.4161
v 45.3707 34.3588 4.4161
v 62.0741 34.1865 4.4161
v 47.8335 36.2055 2.3058
v 51.1172 37.5333 -0.5080
v 65.4310 35.9229 2.3058
v 69.9068 37.1714 -0.5080
v 70.2272 31.4740 5.1195
v 71.5146 28.8190 4.4161
v 69.9069 25.7766 -0.5080
v 80.5264 25.8973 -0.5080
v 75.3768 27.1193 2.3058
v 75.8972 31.4740 4.4161
v 75.8237 29.3263 3.8690
v 79.9668 28.2080 2.3058
v -69.8038 37.1997 -0.5080
v -79.5174 37.0507 -0.5080
v -74.5127 35.8287 2.3058
v -70.7592 34.1290 4.4161
v -80.7075 34.7400 2.3058
v -76.1967 33.6217 3.8690
v -51.8989 28.5354 4.4161
v -54.6428 26.6541 2.3058
v -58.3014 25.3015 -0.5080
v -65.4154 27.0030 2.3058
v -69.8038 25.7483 -0.5080
v -50.9843 31.4740 5.1195
v -62.1242 28.7481 4.4161
v -61.0271 31.4740 5.1195
v -69.5081 31.4740 5.1195
v -76.6742 31.4740 4.4161
v -70.7592 28.8190 4.4161
v -76.1967 29.3263 3.8690
v -74.5127 27.1193 2.3058
v -79.5174 25.8972 -0.5080
v -80.7075 28.2079 2.3058
v -86.1318 27.2914 -0.5080
v 85.4273 27.2914 -0.5080
v 79.9668 34.7401 2.3058
v 75.8237 33.6218 3.8690
v 81.4967 31.4740 2.3058
v 71.5146 34.1291 4.4161
v 87.0610 31.4740 -0.5080
v 85.4273 35.6566 -0.5080
v 80.5264 37.0508 -0.5080
v 75.3768 35.8288 2.3058
v -86.1318 35.6566 -0.5080
v -82.7724 31.4740 2.3058
v -88.3366 31.4740 -0.5080
v 1.0762 -7.7311 2.3058
v 25.9120 -7.4315 2.3058
v 25.3947 -5.8057 4.4161
v -25.0909 -6.2251 4.4161
v -26.4862 -8.1194 2.3058
v 0.5833 -8.9840 -0.5080
v -28.3465 -9.4813 -0.5080
v -47.4931 -0.3814 4.4161
v -63.0776 -3.2662 5.1195
v -46.6722 -3.2662 5.1195
v -26.4862 1.5870 2.3058
v -49.9559 1.4653 2.3058
v -67.5534 1.1827 2.3058
v -64.1966 -0.5537 4.4161
v -28.3465 2.9490 -0.5080
v -53.2396 2.7931 -0.5080
v 26.6018 -8.6003 -0.5080
v 40.0328 -6.0422 4.4161
v 41.2020 -7.8194 2.3058
v 51.3854 -8.2520 2.3058
v 49.6988 -6.3059 4.4161
v 42.7610 -9.0972 -0.5080
v 1.0762 1.1987 2.3058
v -25.0909 -0.3072 4.4161
v 25.3947 -0.7266 4.4161
v 25.9120 0.8991 2.3058
v 0.5833 2.4517 -0.5080
v 26.6018 2.0680 -0.5080
v -24.6259 -3.2662 5.1195
v 1.4459 -0.5440 4.4161
v 25.2223 -3.2662 5.1195
v 1.5691 -3.2662 5.1195
v 1.4459 -5.9884 4.4161
v 49.1365 -3.2662 5.1195
v 39.6431 -3.2662 5.1195
v 40.0328 -0.4901 4.4161
v 49.6988 -0.2264 4.4161
v 41.2020 1.2871 2.3058
v 51.3854 1.7196 2.3058
v 42.7610 2.5649 -0.5080
v 53.6342 3.1188 -0.5080
v 58.7312 -6.2048 4.4161
v 53.6342 -9.6511 -0.5080
v 60.9013 -8.0860 2.3058
v 63.7948 -9.4386 -0.5080
v 69.4211 -7.7372 2.3058
v 66.8182 -5.9921 4.4161
v -47.4931 -6.1509 4.4161
v -64.1966 -5.9787 4.4161
v -49.9559 -7.9977 2.3058
v -53.2396 -9.3254 -0.5080
v -67.5534 -7.7151 2.3058
v -72.0293 -8.9636 -0.5080
v -72.3496 -3.2662 5.1195
v -72.0293 2.4312 -0.5080
v -82.6489 2.3106 -0.5080
v -77.4992 1.0885 2.3058
v -73.6370 -0.6112 4.4161
v -78.0197 -3.2662 4.4161
v -82.0892 -0.0001 2.3058
v -77.9462 -1.1185 3.8690
v 72.8918 -8.9918 -0.5080
v 76.6160 -7.6209 2.3058
v 73.6474 -5.9212 4.4161
v 80.5740 -8.8429 -0.5080
v 81.5152 -6.5322 2.3058
v 77.9478 -5.4139 3.8690
v 58.7312 -0.3275 4.4161
v 60.9013 1.5537 2.3058
v 66.8182 -0.5402 4.4161
v 69.4211 1.2049 2.3058
v 63.7948 2.9063 -0.5080
v 72.8918 2.4595 -0.5080
v 58.0079 -3.2662 5.1195
v 65.9505 -3.2662 5.1195
v 78.3254 -3.2661 4.4161
v 72.6579 -3.2661 5.1195
v 73.6474 -0.6111 4.4161
v 77.9478 -1.1184 3.8690
v 80.5740 2.3106 -0.5080
v 81.5152 -0.0001 2.3058
v 85.8052 0.9164 -0.5080
v 76.6160 1.0886 2.3058
v -87.5498 0.9164 -0.5080
v -83.6192 -3.2662 2.3058
v -73.6370 -5.9212 4.4161
v -82.0892 -6.5323 2.3058
v -77.9462 -5.4139 3.8690
v -87.5498 -7.4488 -0.5080
v -89.1834 -3.2662 -0.5080
v -82.6489 -8.8430 -0.5080
v -77.4992 -7.6209 2.3058
v 85.8052 -7.4487 -0.5080
v 83.1483 -3.2661 2.3058
v 87.5489 -3.2661 -0.5080
v 7.6591 -30.8692 2.3058
v 27.7082 -32.3751 4.4161
v 29.0825 -30.4808 2.3058
v -11.7330 -31.1688 2.3058
v -11.0334 -32.7945 4.4161
v 8.0401 -29.6162 -0.5080
v 30.9148 -29.1189 -0.5080
v 47.2221 -35.3340 5.1195
v 27.2501 -35.3340 5.1195
v 27.7082 -38.2930 4.4161
v 48.0431 -38.2188 4.4161
v 29.0825 -40.1873 2.3058
v 50.5058 -40.0655 2.3058
v 63.6275 -35.3340 5.1195
v 68.1034 -39.7830 2.3058
v 64.7465 -38.0465 4.4161
v 30.9148 -41.5492 -0.5080
v 53.7895 -41.3933 -0.5080
v -25.5839 -32.5580 4.4161
v -12.6656 -29.9999 -0.5080
v -27.0623 -30.7808 2.3058
v -39.9383 -30.3483 2.3058
v -37.8057 -32.2943 4.4161
v -29.0335 -29.5030 -0.5080
v 7.6591 -39.7989 2.3058
v -11.0334 -37.8736 4.4161
v -11.7330 -39.4993 2.3058
v 8.0401 -41.0519 -0.5080
v -12.6656 -40.6682 -0.5080
v 7.3733 -38.0562 4.4161
v 7.2780 -35.3340 5.1195
v -10.8003 -35.3340 5.1195
v 7.3733 -32.6119 4.4161
v -25.0911 -35.3341 5.1195
v -37.0949 -35.3341 5.1195
v -25.5839 -38.1101 4.4161
v -37.8057 -38.3738 4.4161
v -27.0623 -39.8873 2.3058
v -39.9383 -40.3199 2.3058
v -29.0334 -41.1651 -0.5080
v -42.7818 -41.7190 -0.5080
v -42.7818 -28.9491 -0.5080
v -49.2266 -32.3954 4.4161
v -51.9705 -30.5142 2.3058
v -55.6291 -29.1616 -0.5080
v -62.7431 -30.8630 2.3058
v -59.4518 -32.6081 4.4161
v 48.0431 -32.4493 4.4161
v 64.7465 -32.6216 4.4161
v 50.5058 -30.6025 2.3058
v 53.7895 -29.2748 -0.5080
v 68.1034 -30.8851 2.3058
v 72.5792 -29.6366 -0.5080
v 72.8995 -35.3340 5.1195
v 74.1869 -37.9891 4.4161
v 72.5792 -41.0314 -0.5080
v 83.1988 -40.9108 -0.5080
v 78.0492 -39.6888 2.3058
v 78.4961 -37.4818 3.8690
v 78.5696 -35.3340 4.4161
v 82.6391 -38.6001 2.3058
v -67.1315 -29.6084 -0.5080
v -76.8450 -29.7573 -0.5080
v -71.8404 -30.9793 2.3058
v -68.0869 -32.6790 4.4161
v -78.0351 -32.0680 2.3058
v -73.5244 -33.1863 3.8690
v -49.2266 -38.2727 4.4161
v -51.9705 -40.1539 2.3058
v -55.6291 -41.5065 -0.5080
v -62.7431 -39.8051 2.3058
v -67.1315 -41.0597 -0.5080
v -58.3547 -35.3341 5.1195
v -59.4518 -38.0600 4.4161
v -48.3119 -35.3341 5.1195
v -66.8357 -35.3341 5.1195
v -74.0018 -35.3341 4.4161
v -68.0869 -37.9891 4.4161
v -73.5244 -37.4818 3.8690
v -71.8404 -39.6888 2.3058
v -76.8450 -40.9108 -0.5080
v -78.0351 -38.6001 2.3058
v -83.4594 -39.5166 -0.5080
v 88.0997 -39.5166 -0.5080
v 74.1869 -32.6790 4.4161
v 82.6391 -32.0680 2.3058
v 78.4961 -33.1863 3.8690
v 84.1691 -35.3340 2.3058
v 89.7333 -35.3340 -0.5080
v 88.0997 -31.1514 -0.5080
v 83.1988 -29.7573 -0.5080
v 78.0492 -30.9793 2.3058
v -83.4594 -31.1515 -0.5080
v -80.1000 -35.3341 2.3058
v -85.6642 -35.3341 -0.5080
v -4.4368 -74.5391 2.3058
v 14.9552 -74.2395 2.3058
v 14.2557 -72.6138 4.4161
v -24.4859 -73.0332 4.4161
v -25.8602 -74.9275 2.3058
v -4.8178 -75.7921 -0.5080
v -27.6926 -76.2894 -0.5080
v -44.8208 -67.1895 4.4161
v -25.8602 -65.2210 2.3058
v -47.2836 -65.3427 2.3058
v -60.4053 -70.0742 5.1195
v -43.9999 -70.0742 5.1195
v -27.6926 -63.8591 -0.5080
v -50.5673 -64.0150 -0.5080
v -64.8811 -65.6253 2.3058
v -61.5242 -67.3618 4.4161
v 28.8062 -72.8503 4.4161
v 15.8879 -75.4084 -0.5080
v 30.2845 -74.6275 2.3058
v 32.2557 -75.9052 -0.5080
v 43.1606 -75.0600 2.3058
v 41.0280 -73.1140 4.4161
v -4.4368 -65.6093 2.3058
v 14.2557 -67.5347 4.4161
v 14.9552 -65.9089 2.3058
v -24.4859 -67.1153 4.4161
v -4.8178 -64.3564 -0.5080
v 15.8879 -64.7401 -0.5080
v -4.1510 -67.3520 4.4161
v -24.0278 -70.0742 5.1195
v 14.0225 -70.0742 5.1195
v -4.0558 -70.0742 5.1195
v -4.1510 -72.7964 4.4161
v 40.3171 -70.0742 5.1195
v 28.3134 -70.0742 5.1195
v 28.8062 -67.2981 4.4161
v 41.0280 -67.0344 4.4161
v 30.2845 -65.5209 2.3058
v 43.1606 -65.0884 2.3058
v 32.2557 -64.2432 -0.5080
v 46.0040 -63.6893 -0.5080
v 52.4488 -73.0128 4.4161
v 46.0040 -76.4591 -0.5080
v 55.1928 -74.8941 2.3058
v 65.9654 -74.5452 2.3058
v 62.6741 -72.8001 4.4161
v 58.8513 -76.2467 -0.5080
v -44.8208 -72.9590 4.4161
v -61.5242 -72.7867 4.4161
v -47.2836 -74.8057 2.3058
v -50.5673 -76.1335 -0.5080
v -64.8811 -74.5232 2.3058
v -69.3569 -75.7716 -0.5080
v -69.6773 -70.0742 5.1195
v -69.3569 -64.3769 -0.5080
v -79.9765 -64.4975 -0.5080
v -74.8269 -65.7195 2.3058
v -70.9647 -67.4192 4.4161
v -75.3473 -70.0742 4.4161
v -79.4168 -66.8082 2.3058
v -75.2738 -67.9265 3.8690
v 70.3537 -75.7999 -0.5080
v 80.0673 -75.6510 -0.5080
v 75.0626 -74.4289 2.3058
v 71.3091 -72.7292 4.4161
v 81.2574 -73.3403 2.3058
v 76.7466 -72.2219 3.8690
v 55.1928 -65.2543 2.3058
v 52.4488 -67.1356 4.4161
v 58.8513 -63.9018 -0.5080
v 65.9654 -65.6032 2.3058
v 70.3537 -64.3485 -0.5080
v 51.5342 -70.0742 5.1195
v 62.6741 -67.3483 4.4161
v 61.5770 -70.0742 5.1195
v 77.2241 -70.0742 4.4161
v 70.0580 -70.0742 5.1195
v 71.3091 -67.4192 4.4161
v 76.7466 -67.9265 3.8690
v 80.0673 -64.4974 -0.5080
v 81.2574 -66.8081 2.3058
v 86.6817 -65.8916 -0.5080
v 75.0626 -65.7195 2.3058
v -84.8774 -65.8917 -0.5080
v -80.9468 -70.0742 2.3058
v -79.4168 -73.3403 2.3058
v -75.2738 -72.2220 3.8690
v -70.9647 -72.7293 4.4161
v -84.8774 -74.2568 -0.5080
v -86.5110 -70.0742 -0.5080
v -79.9765 -75.6510 -0.5080
v -74.8269 -74.4290 2.3058
v 86.6817 -74.2568 -0.5080
v 83.3223 -70.0742 2.3058
v 88.8865 -70.0742 -0.5080
vt 0.031250 0.500000
vt 0.031250 0.500000
vt 0.031250 0.500000
vt 0.031250 0.500000
vt 0.031250 0.500000
vt 0.031250 0.500000
vt 0.031250 0.500000
vt 0.031250 0.500000
vt 0.031250 0.500000
vt 0.031250 0.500000
vt 0.031250 0.500000
vt 0.031250 0.500000
vt 0.031250 0.500000
vt 0.031250 0.500000
vt 0.031250 0.500000
vt 0.031250 0.500000
vt 0.031250 0.500000
vt 0.031250 0.500000
vt 0.031250 0.500000
vt 0.031250 0.500000
vt 0.031250 0.500000
vt 0.031250 0.500000
vt 0.031250 0.500000
vt 0.031250 0.500000
vt 0.031250 0.500000
vt 0.031250 0.500000
vt 0.031250 0.500000
vt 0.031250 0.500000
vt 0.031250 0.500000
vt 0.031250 0.500000
vt 0.031250 0.500000
vt 0.031250 0.500000
vt 0.031250 0.500000
vt 0.031250 0.500000
vt 0.031250 0.500000
vt 0.031250 0.500000
vt 0.031250 0.500000
vt 0.031250 0.500000
vt 0.031250 0.500000
vt 0.031250 0.500000
vt 0.031250 0.500000
vt 0.031250 0.500000
vt 0.031250 0.500000
vt 0.031250 0.500000
vt 0.031250 0.500000
vt 0.031250 0.500000
vt 0.031250 0.500000
vt 0.031250 0.500000
vt 0.031250 0.500000
vt 0.031250 0.500000
vt 0.031250 0.500000
vt 0.031250 0.500000
vt 0.031250 0.500000
vt 0.031250 0.500000
vt 0.031250 0.500000
vt 0.031250 0.500000
vt 0.031250 0.500000
vt 0.031250 0.500000
vt 0.031250 0.500000
vt 0.031250 0.500000
vt 0.031250 0.500000
vt 0.031250 0.500000
vt 0.031250 0.500000
vt 0.031250 0.500000
vt 0.031250 0.500000
vt 0.031250 0.500000
vt 0.031250 0.500000
vt 0.031250 0.500000
vt 0.031250 0.500000
vt 0.031250 0.500000
vt 0.031250 0.500000
vt 0.031250 0.500000
vt 0.031250 0.500000
vt 0.031250 0.500000
vt 0.031250 0.500000
vt 0.031250 0.500000
vt 0.031250 0.500000
vt 0.031250 0.500000
vt 0.031250 0.500000
vt 0.031250 0.500000
vt 0.031250 0.500000
vt 0.031250 0.500000
vt 0.031250 0.500000
vt 0.031250 0.500000
vt 0.031250 0.500000
vt 0.031250 0.500000
vt 0.031250 0.500000
vt 0.031250 0.500000
vt 0.031250 0.500000
vt 0.031250 0.500000
vt 0.031250 0.500000
vt 0.031250 0.500000
vt 0.031250 0.500000
vt 0.031250 0.500000
vt 0.031250 0.500000
vt 0.031250 0.500000
vt 0.031250 0.500000
vt 0.031250 0.500000
vt 0.031250 0.500000
vt 0.031250 0.500000
vt 0.031250 0.500000
vt 0.031250 0.500000
vt 0.031250 0.500000
vt 0.031250 0.500000
vt 0.031250 0.500000
vt 0.031250 0.500000
vt 0.031250 0.500000
vt 0.031250 0.500000
vt 0.031250 0.500000
vt 0.031250 0.500000
vt 0.031250 0.500000
vt 0.031250 0.500000
vt 0.031250 0.500000
vt 0.031250 0.500000
vt 0.031250 0.500000
vt 0.031250 0.500000
vt 0.031250 0.500000
vt 0.031250 0.500000
vt 0.031250 0.500000
vt 0.031250 0.500000
vt 0.031250 0.500000
vt 0.031250 0.500000
vt 0.031250 0.500000
vt 0.031250 0.500000
vt 0.031250 0.500000
vt 0.031250 0.500000
vt 0.031250 0.500000
vt 0.031250 0.500000
vt 0.031250 0.500000
vt 0.031250 0.500000
vt 0.031250 0.500000
vt 0.031250 0.500000
vt 0.031250 0.500000
vt 0.031250 0.500000
vt 0.031250 0.500000
vt 0.031250 0.500000
vt 0.031250 0.500000
vt 0.031250 0.500000
vt 0.031250 0.500000
vt 0.031250 0.500000
vt 0.031250 0.500000
vt 0.031250 0.500000
vt 0.031250 0.500000
vt 0.031250 0.500000
vt 0.031250 0.500000
vt 0.031250 0.500000
vt 0.031250 0.500000
vt 0.031250 0.500000
vt 0.031250 0.500000
vt 0.031250 0.500000
vt 0.031250 0.500000
vt 0.031250 0.500000
vt 0.031250 0.500000
vt 0.031250 0.500000
vt 0.031250 0.500000
vt 0.031250 0.500000
vt 0.031250 0.500000
vt 0.031250 0.500000
vt 0.031250 0.500000
vt 0.031250 0.500000
vt 0.031250 0.500000
vt 0.031250 0.500000
vt 0.031250 0.500000
vt 0.031250 0.500000
vt 0.031250 0.500000
vt 0.031250 0.500000
vt 0.031250 0.500000
vt 0.031250 0.500000
vt 0.031250 0.500000
vt 0.031250 0.500000
vt 0.031250 0.500000
vt 0.031250 0.500000
vt 0.031250 0.500000
vt 0.031250 0.500000
vt 0.031250 0.500000
vt 0.031250 0.500000
vt 0.031250 0.500000
vt 0.031250 0.500000
vt 0.031250 0.500000
vt 0.031250 0.500000
vt 0.031250 0.500000
vt 0.031250 0.500000
vt 0.031250 0.500000
vt 0.031250 0.500000
vt 0.031250 0.500000
vt 0.031250 0.500000
vt 0.031250 0.500000
vt 0.031250 0.500000
vt 0.031250 0.500000
vt 0.031250 0.500000
vt 0.031250 0.500000
vt 0.031250 0.500000
vt 0.031250 0.500000
vt 0.031250 0.500000
vt 0.031250 0.500000
vt 0.031250 0.500000
vt 0.031250 0.500000
vt 0.031250 0.500000
vt 0.031250 0.500000
vt 0.031250 0.500000
vt 0.031250 0.500000
vt 0.031250 0.500000
vt 0.031250 0.500000
vt 0.031250 0.500000
vt 0.031250 0.500000
vt 0.031250 0.500000
vt 0.031250 0.500000
vt 0.031250 0.500000
vt 0.031250 0.500000
vt 0.031250 0.500000
vt 0.031250 0.500000
vt 0.031250 0.500000
vt 0.031250 0.500000
vt 0.031250 0.500000
vt 0.031250 0.500000
vt 0.031250 0.500000
vt 0.031250 0.500000
vt 0.031250 0.500000
vt 0.031250 0.500000
vt 0.031250 0.500000
vt 0.031250 0.500000
vt 0.031250 0.500000
vt 0.031250 0.500000
vt 0.031250 0.500000
vt 0.031250 0.500000
vt 0.031250 0.500000
vt 0.031250 0.500000
vt 0.031250 0.500000
vt 0.031250 0.500000
vt 0.031250 0.500000
vt 0.031250 0.500000
vt 0.031250 0.500000
vt 0.031250 0.500000
vt 0.031250 0.500000
vt 0.031250 0.500000
vt 0.031250 0.500000
vt 0.031250 0.500000
vt 0.031250 0.500000
vt 0.031250 0.500000
vt 0.031250 0.500000
vt 0.031250 0.500000
vt 0.031250 0.500000
vt 0.031250 0.500000
vt 0.031250 0.500000
vt 0.031250 0.500000
vt 0.031250 0.500000
vt 0.031250 0.500000
vt 0.031250 0.500000
vt 0.031250 0.500000
vt 0.031250 0.500000
vt 0.031250 0.500000
vt 0.031250 0.500000
vt 0.031250 0.500000
vt 0.031250 0.500000
vt 0.031250 0.500000
vt 0.031250 0.500000
vt 0.031250 0.500000
vt 0.031250 0.500000
vt 0.031250 0.500000
vt 0.031250 0.500000
vt 0.031250 0.500000
vt 0.031250 0.500000
vt 0.031250 0.500000
vt 0.031250 0.500000
vt 0.031250 0.500000
vt 0.031250 0.500000
vt 0.031250 0.500000
vt 0.031250 0.500000
vt 0.031250 0.500000
vt 0.031250 0.500000
vt 0.031250 0.500000
vt 0.031250 0.500000
vt 0.031250 0.500000
vt 0.031250 0.500000
vt 0.031250 0.500000
vt 0.031250 0.500000
vt 0.031250 0.500000
vt 0.031250 0.500000
vt 0.031250 0.500000
vt 0.031250 0.500000
vt 0.031250 0.500000
vt 0.031250 0.500000
vt 0.031250 0.500000
vt 0.031250 0.500000
vt 0.031250 0.500000
vt 0.031250 0.500000
vt 0.031250 0.500000
vt 0.031250 0.500000
vt 0.031250 0.500000
vt 0.031250 0.500000
vt 0.031250 0.500000
vt 0.031250 0.500000
vt 0.031250 0.500000
vt 0.031250 0.500000
vt 0.031250 0.500000
vt 0.031250 0.500000
vt 0.031250 0.500000
vt 0.031250 0.500000
vt 0.031250 0.500000
vt 0.031250 0.500000
vt 0.031250 0.500000
vt 0.031250 0.500000
vt 0.031250 0.500000
vt 0.031250 0.500000
vt 0.031250 0.500000
vt 0.031250 0.500000
vt 0.031250 0.500000
vt 0.031250 0.500000
vt 0.031250 0.500000
vt 0.031250 0.500000
vt 0.031250 0.500000
vt 0.031250 0.500000
vt 0.031250 0.500000
vt 0.031250 0.500000
vt 0.031250 0.500000
vt 0.031250 0.500000
vt 0.031250 0.500000
vt 0.031250 0.500000
vt 0.031250 0.500000
vt 0.031250 0.500000
vt 0.031250 0.500000
vt 0.031250 0.500000
vt 0.031250 0.500000
vt 0.031250 0.500000
vt 0.031250 0.500000
vt 0.031250 0.500000
vt 0.031250 0.500000
vt 0.031250 0.500000
vt 0.031250 0.500000
vt 0.031250 0.500000
vt 0.031250 0.500000
vt 0.031250 0.500000
vt 0.031250 0.500000
vt 0.031250 0.500000
vt 0.031250 0.500000
vt 0.031250 0.500000
vt 0.031250 0.500000
vt 0.031250 0.500000
vt 0.031250 0.500000
vt 0.031250 0.500000
vt 0.031250 0.500000
vt 0.031250 0.500000
vt 0.031250 0.500000
vt 0.031250 0.500000
vt 0.031250 0.500000
vt 0.031250 0.500000
vt 0.031250 0.500000
vt 0.031250 0.500000
vt 0.031250 0.500000
vt 0.031250 0.500000
vt 0.031250 0.500000
vt 0.031250 0.500000
vt 0.031250 0.500000
vt 0.031250 0.500000
vt 0.031250 0.500000
vt 0.031250 0.500000
vt 0.031250 0.500000
vt 0.031250 0.500000
vt 0.031250 0.500000
vt 0.031250 0.500000
vt 0.031250 0.500000
vt 0.031250 0.500000
vt 0.031250 0.500000
vt 0.031250 0.500000
vt 0.031250 0.500000
vt 0.031250 0.500000
vt 0.031250 0.500000
vt 0.031250 0.500000
vt 0.031250 0.500000
vt 0.031250 0.500000
vt 0.031250 0.500000
vt 0.031250 0.500000
vt 0.031250 0.500000
vt 0.031250 0.500000
vt 0.031250 0.500000
vt 0.031250 0.500000
vt 0.031250 0.500000
vt 0.031250 0.500000
vt 0.031250 0.500000
vt 0.031250 0.500000
vt 0.031250 0.500000
vt 0.031250 0.500000
vt 0.031250 0.500000
vt 0.031250 0.500000
vt 0.031250 0.500000
vt 0.031250 0.500000
vt 0.031250 0.500000
vt 0.031250 0.500000
vt 0.031250 0.500000
vt 0.031250 0.500000
vt 0.031250 0.500000
vt 0.031250 0.500000
vt 0.031250 0.500000
vt 0.031250 0.500000
vt 0.031250 0.500000
vt 0.031250 0.500000
vt 0.031250 0.500000
vt 0.031250 0.500000
vt 0.031250 0.500000
vt 0.031250 0.500000
vt 0.031250 0.500000
vt 0.031250 0.500000
vt 0.031250 0.500000
vt 0.031250 0.500000
vt 0.031250 0.500000
vt 0.031250 0.500000
vt 0.031250 0.500000
vt 0.031250 0.500000
vt 0.031250 0.500000
vt 0.031250 0.500000
vt 0.031250 0.500000
vt 0.031250 0.500000
vt 0.031250 0.500000
vt 0.031250 0.500000
vt 0.031250 0.500000
vt 0.031250 0.500000
vt 0.031250 0.500000
vt 0.031250 0.500000
vt 0.031250 0.500000
vt 0.031250 0.500000
vt 0.031250 0.500000
vt 0.031250 0.500000
vt 0.031250 0.500000
vt 0.031250 0.500000
vt 0.031250 0.500000
vt 0.031250 0.500000
vt 0.031250 0.500000
vt 0.031250 0.500000
vt 0.031250 0.500000
vt 0.031250 0.500000
vt 0.031250 0.500000
vt 0.031250 0.500000
vt 0.031250 0.500000
vt 0.031250 0.500000
vt 0.031250 0.500000
vt 0.031250 0.500000
vt 0.031250 0.500000
vt 0.031250 0.500000
vt 0.031250 0.500000
vt 0.031250 0.500000
vt 0.031250 0.500000
vt 0.031250 0.500000
vt 0.031250 0.500000
vt 0.031250 0.500000
vt 0.031250 0.500000
vt 0.031250 0.500000
vt 0.031250 0.500000
vt 0.031250 0.500000
vt 0.031250 0.500000
vt 0.031250 0.500000
vt 0.031250 0.500000
vt 0.031250 0.500000
vt 0.031250 0.500000
vt 0.031250 0.500000
vt 0.031250 0.500000
vt 0.031250 0.500000
vt 0.031250 0.500000
vt 0.031250 0.500000
vt 0.031250 0.500000
vt 0.031250 0.500000
vt 0.031250 0.500000
vt 0.031250 0.500000
vt 0.031250 0.500000
vt 0.031250 0.500000
vt 0.031250 0.500000
vt 0.031250 0.500000
vt 0.031250 0.500000
vt 0.031250 0.500000
vt 0.031250 0.500000
vt 0.031250 0.500000
vt 0.031250 0.500000
vt 0.031250 0.500000
vt 0.031250 0.500000
vt 0.031250 0.500000
vt 0.031250 0.500000
vn 0.010834 -0.849904 0.526826
vn 0.002503 -0.521331 0.853351
vn 0.004486 -0.837527 0.546378
vn -0.004944 -0.857865 0.513852
vn -0.001770 -0.545198 0.838306
vn 0.013367 -0.913260 0.407158
vn 0.001190 -0.903313 0.428981
vn -0.003113 0.518334 0.855172
vn -0.001099 0.000000 0.999999
vn -0.000763 0.000000 1.000000
vn 0.004486 0.837527 0.546378
vn -0.008026 0.834415 0.551078
vn -0.010865 0.841318 0.540431
vn -0.005280 0.528139 0.849142
vn 0.001190 0.903313 0.428980
vn -0.013306 0.900588 0.434470
vn -0.009491 -0.919753 0.392384
vn -0.011964 -0.535185 0.844650
vn -0.027559 -0.851244 0.524047
vn -0.013367 -0.835648 0.549103
vn -0.007935 -0.518544 0.855014
vn -0.036928 -0.915752 0.400043
vn 0.010834 0.849904 0.526826
vn 0.002503 0.521331 0.853351
vn -0.001770 0.545198 0.838306
vn -0.004944 0.857865 0.513852
vn 0.013367 0.913260 0.407158
vn -0.009491 0.919753 0.392383
vn 0.004853 0.536555 0.843851
vn 0.000427 0.000000 1.000000
vn -0.000488 0.000000 1.000000
vn 0.001038 0.000000 0.999999
vn 0.004853 -0.536555 0.843851
vn -0.001251 0.000000 0.999999
vn -0.002686 0.000000 0.999996
vn -0.011964 0.535185 0.844650
vn -0.007935 0.518544 0.855014
vn -0.027559 0.851244 0.524046
vn -0.013367 0.835648 0.549103
vn -0.036928 0.915752 0.400043
vn -0.000702 0.898850 0.438255
vn -0.000702 -0.898850 0.438255
vn 0.009034 -0.510088 0.860075
vn 0.022249 -0.823867 0.566346
vn 0.033998 -0.889497 0.455674
vn 0.024477 -0.833118 0.552553
vn 0.012177 -0.521089 0.853415
vn -0.003113 -0.518334 0.855172
vn -0.005280 -0.528138 0.849142
vn -0.008026 -0.834415 0.551078
vn -0.013306 -0.900588 0.434470
vn -0.010865 -0.841318 0.540431
vn -0.010743 -0.907842 0.419175
vn -0.048953 0.000000 0.998801
vn -0.010743 0.907836 0.419187
vn -0.161416 0.776589 0.608978
vn -0.086003 0.778853 0.621282
vn -0.061832 0.511320 0.857163
vn -0.234175 0.000000 0.972194
vn -0.293227 0.475700 0.829293
vn -0.205301 0.381274 0.901378
vn 0.021821 -0.902907 0.429282
vn 0.064761 -0.514945 0.854773
vn 0.089117 -0.793442 0.602086
vn 0.325369 -0.522007 0.788444
vn 0.214460 -0.412531 0.885339
vn 0.155100 -0.820212 0.550633
vn 0.022249 0.823867 0.566346
vn 0.009034 0.510088 0.860075
vn 0.012177 0.521089 0.853415
vn 0.024477 0.833118 0.552553
vn 0.033998 0.889497 0.455674
vn 0.021821 0.902907 0.429281
vn 0.002136 0.000000 0.999998
vn 0.002503 0.000000 0.999997
vn 0.265332 0.000000 0.964157
vn 0.053562 0.000000 0.998565
vn 0.064761 0.514945 0.854773
vn 0.214460 0.412532 0.885339
vn 0.155100 0.820212 0.550633
vn 0.325369 0.522007 0.788443
vn 0.439629 0.417228 0.795391
vn 0.089117 0.793442 0.602086
vn -0.386736 0.346420 0.854651
vn -0.402301 0.000000 0.915508
vn -0.061832 -0.511319 0.857164
vn -0.293227 -0.475700 0.829293
vn -0.205301 -0.381273 0.901378
vn -0.442189 0.000000 0.896922
vn -0.386736 -0.346420 0.854651
vn -0.161416 -0.776589 0.608978
vn -0.086003 -0.778853 0.621282
vn 0.439629 -0.417228 0.795391
vn 0.471439 0.000000 0.881899
vn 0.525699 0.000000 0.850671
vn -0.013886 0.849900 0.526762
vn -0.003388 0.521669 0.853141
vn -0.006104 0.837765 0.545997
vn 0.003235 0.858088 0.513492
vn 0.000793 0.545163 0.838330
vn -0.016999 0.913366 0.406785
vn -0.002197 0.903370 0.428856
vn 0.000794 0.000000 1.000000
vn -0.000580 0.000000 1.000000
vn -0.003388 -0.521669 0.853141
vn 0.003235 -0.518276 0.855207
vn -0.006104 -0.837765 0.545997
vn 0.008271 -0.834306 0.551240
vn 0.001099 0.000000 0.999999
vn 0.010865 -0.841318 0.540431
vn 0.005280 -0.528138 0.849142
vn -0.002197 -0.903370 0.428857
vn 0.013428 -0.900545 0.434556
vn 0.010682 0.536373 0.843913
vn 0.008942 0.920277 0.391165
vn 0.024111 0.851926 0.523107
vn 0.010926 0.835705 0.549069
vn 0.006775 0.518433 0.855092
vn 0.031282 0.916056 0.399828
vn -0.013886 -0.849899 0.526762
vn 0.000793 -0.545163 0.838330
vn 0.003235 -0.858088 0.513492
vn -0.016999 -0.913366 0.406785
vn 0.008942 -0.920277 0.391165
vn -0.006287 -0.536401 0.843940
vn 0.000305 0.000000 1.000000
vn -0.001373 0.000000 0.999999
vn -0.006287 0.536401 0.843940
vn 0.002381 0.000000 0.999997
vn 0.001038 0.000000 0.999999
vn 0.010682 -0.536373 0.843914
vn 0.006775 -0.518432 0.855092
vn 0.024111 -0.851926 0.523107
vn 0.010926 -0.835705 0.549070
vn 0.031282 -0.916056 0.399829
vn -0.001099 -0.898059 0.439874
vn -0.006928 0.509790 0.860271
vn -0.001099 0.898059 0.439874
vn -0.017457 0.824086 0.566196
vn -0.027589 0.889574 0.455957
vn -0.019502 0.833247 0.552557
vn -0.009827 0.520866 0.853582
vn 0.003235 0.518276 0.855207
vn 0.005280 0.528139 0.849142
vn 0.008240 0.834306 0.551240
vn 0.013428 0.900545 0.434555
vn 0.010865 0.841318 0.540431
vn 0.010743 0.907842 0.419175
vn 0.048953 0.000000 0.998801
vn 0.061832 -0.511319 0.857164
vn 0.010743 -0.907842 0.419175
vn 0.161416 -0.776589 0.608978
vn 0.086003 -0.778853 0.621282
vn 0.234175 0.000000 0.972194
vn 0.205301 -0.381273 0.901378
vn 0.293227 -0.475700 0.829293
vn -0.016572 0.903653 0.427945
vn -0.128729 0.818854 0.559381
vn -0.070409 0.793905 0.603951
vn -0.050815 0.517395 0.854237
vn -0.262586 0.531398 0.805398
vn -0.168620 0.420984 0.891257
vn -0.006928 -0.509790 0.860271
vn -0.017457 -0.824085 0.566196
vn -0.027589 -0.889574 0.455957
vn -0.019502 -0.833246 0.552558
vn -0.016572 -0.903653 0.427945
vn -0.001648 0.000000 0.999999
vn -0.009827 -0.520865 0.853582
vn -0.002014 0.000000 0.999998
vn -0.039766 0.000000 0.999209
vn -0.217386 0.000000 0.976086
vn -0.050784 -0.517395 0.854238
vn -0.168620 -0.420984 0.891257
vn -0.070409 -0.793905 0.603952
vn -0.128729 -0.818853 0.559382
vn -0.262586 -0.531397 0.805398
vn -0.375963 -0.394793 0.838326
vn 0.386736 -0.346420 0.854651
vn 0.293227 0.475700 0.829293
vn 0.205301 0.381274 0.901378
vn 0.402301 0.000000 0.915508
vn 0.061832 0.511320 0.857163
vn 0.442189 0.000000 0.896922
vn 0.386736 0.346420 0.854651
vn 0.161416 0.776589 0.608978
vn 0.086003 0.778853 0.621282
vn -0.375963 0.394794 0.838326
vn -0.394892 0.000000 0.918728
vn -0.439114 0.000000 0.898431
vn 0.010834 -0.849904 0.526826
vn -0.004944 -0.857865 0.513852
vn -0.001770 -0.545198 0.838306
vn 0.002503 -0.521331 0.853351
vn 0.004486 -0.837527 0.546378
vn 0.013367 -0.913260 0.407158
vn 0.001190 -0.903313 0.428981
vn -0.003113 0.518348 0.855164
vn -0.001099 0.000000 0.999999
vn -0.000763 0.000000 1.000000
vn 0.004486 0.837527 0.546378
vn -0.008026 0.834415 0.551078
vn -0.010865 0.841318 0.540431
vn -0.005280 0.528139 0.849142
vn 0.001190 0.903313 0.428980
vn -0.013306 0.900588 0.434470
vn -0.009491 -0.919753 0.392384
vn -0.011964 -0.535185 0.844650
vn -0.027559 -0.851244 0.524047
vn -0.013367 -0.835648 0.549103
vn -0.007935 -0.518544 0.855014
vn -0.036928 -0.915752 0.400043
vn 0.010834 0.849904 0.526826
vn 0.002503 0.521331 0.853351
vn -0.001770 0.545198 0.838306
vn -0.004944 0.857865 0.513852
vn 0.013367 0.913260 0.407158
vn -0.009491 0.919753 0.392383
vn 0.000427 0.000000 1.000000
vn 0.004853 0.536555 0.843851
vn -0.000488 0.000000 1.000000
vn 0.001038 0.000000 0.999999
vn 0.004853 -0.536555 0.843851
vn -0.001251 0.000000 0.999999
vn -0.002686 0.000000 0.999996
vn -0.011964 0.535185 0.844650
vn -0.007935 0.518544 0.855014
vn -0.027559 0.851244 0.524046
vn -0.013367 0.835648 0.549103
vn -0.036928 0.915752 0.400043
vn -0.000702 0.898850 0.438255
vn 0.009034 -0.510088 0.860075
vn -0.000702 -0.898850 0.438255
vn 0.022249 -0.823867 0.566346
vn 0.033998 -0.889497 0.455674
vn 0.024477 -0.833118 0.552553
vn 0.012177 -0.521089 0.853415
vn -0.003113 -0.518348 0.855164
vn -0.005280 -0.528138 0.849142
vn -0.008026 -0.834415 0.551078
vn -0.013306 -0.900588 0.434470
vn -0.010865 -0.841318 0.540431
vn -0.010743 -0.907842 0.419175
vn -0.048953 0.000000 0.998801
vn -0.010743 0.907842 0.419175
vn -0.161416 0.776589 0.608978
vn -0.086003 0.778853 0.621282
vn -0.061832 0.511320 0.857163
vn -0.234175 0.000000 0.972194
vn -0.293227 0.475700 0.829293
vn -0.205301 0.381274 0.901378
vn 0.021821 -0.902907 0.429282
vn 0.089117 -0.793442 0.602086
vn 0.064761 -0.514945 0.854773
vn 0.155100 -0.820212 0.550633
vn 0.325369 -0.522007 0.788444
vn 0.214460 -0.412531 0.885339
vn 0.009034 0.510088 0.860075
vn 0.022249 0.823867 0.566346
vn 0.012177 0.521089 0.853415
vn 0.024477 0.833118 0.552553
vn 0.033998 0.889497 0.455674
vn 0.021821 0.902907 0.429281
vn 0.002136 0.000000 0.999998
vn 0.002503 0.000000 0.999997
vn 0.265332 0.000000 0.964157
vn 0.053562 0.000000 0.998565
vn 0.064761 0.514945 0.854773
vn 0.214460 0.412532 0.885339
vn 0.155100 0.820212 0.550633
vn 0.325369 0.522007 0.788443
vn 0.439629 0.417228 0.795391
vn 0.089117 0.793442 0.602086
vn -0.386736 0.346420 0.854651
vn -0.402301 0.000000 0.915508
vn -0.061832 -0.511319 0.857164
vn -0.293227 -0.475700 0.829293
vn -0.205301 -0.381273 0.901378
vn -0.386736 -0.346420 0.854651
vn -0.442189 0.000000 0.896922
vn -0.161416 -0.776589 0.608978
vn -0.086003 -0.778853 0.621282
vn 0.439629 -0.417228 0.795391
vn 0.471439 0.000000 0.881899
vn 0.525699 0.000000 0.850671
vn -0.013886 0.849900 0.526762
vn -0.003388 0.521669 0.853141
vn -0.006104 0.837765 0.545997
vn 0.003235 0.858088 0.513492
vn 0.000793 0.545163 0.838330
vn -0.016999 0.913366 0.406785
vn -0.002197 0.903370 0.428856
vn 0.000794 0.000000 1.000000
vn -0.000580 0.000000 1.000000
vn -0.003388 -0.521669 0.853141
vn 0.003235 -0.518276 0.855207
vn -0.006104 -0.837765 0.545997
vn 0.008271 -0.834306 0.551240
vn 0.001099 0.000000 0.999999
vn 0.010865 -0.841318 0.540431
vn 0.005280 -0.528138 0.849142
vn -0.002197 -0.903370 0.428857
vn 0.013428 -0.900545 0.434556
vn 0.010682 0.536373 0.843913
vn 0.008942 0.920277 0.391165
vn 0.024111 0.851926 0.523107
vn 0.010926 0.835705 0.549069
vn 0.006775 0.518433 0.855092
vn 0.031282 0.916056 0.399828
vn -0.013886 -0.849899 0.526762
vn 0.000793 -0.545163 0.838330
vn 0.003235 -0.858088 0.513492
vn -0.016999 -0.913366 0.406785
vn 0.008942 -0.920277 0.391165
vn -0.006287 -0.536401 0.843940
vn -0.001373 0.000000 0.999999
vn 0.000305 0.000000 1.000000
vn -0.006287 0.536401 0.843940
vn 0.002381 0.000000 0.999997
vn 0.001038 0.000000 0.999999
vn 0.010682 -0.536373 0.843914
vn 0.006775 -0.518432 0.855092
vn 0.024111 -0.851926 0.523107
vn 0.010926 -0.835705 0.549070
vn 0.031282 -0.916056 0.399829
vn -0.001099 -0.898059 0.439874
vn -0.001099 0.898059 0.439874
vn -0.006928 0.509790 0.860271
vn -0.017457 0.824086 0.566196
vn -0.027589 0.889574 0.455957
vn -0.019502 0.833247 0.552557
vn -0.009827 0.520866 0.853582
vn 0.003235 0.518276 0.855207
vn 0.005280 0.528139 0.849142
vn 0.008240 0.834306 0.551240
vn 0.013428 0.900545 0.434555
vn 0.010865 0.841318 0.540431
vn 0.010743 0.907842 0.419175
vn 0.048953 0.000000 0.998801
vn 0.061832 -0.511319 0.857164
vn 0.010743 -0.907842 0.419175
vn 0.161416 -0.776589 0.608978
vn 0.086003 -0.778853 0.621282
vn 0.205301 -0.381273 0.901378
vn 0.234175 0.000000 0.972194
vn 0.293227 -0.475700 0.829293
vn -0.016572 0.903653 0.427945
vn -0.128729 0.818854 0.559381
vn -0.070409 0.793905 0.603951
vn -0.050815 0.517395 0.854237
vn -0.262590 0.531376 0.805411
vn -0.168620 0.420984 0.891257
vn -0.006928 -0.509790 0.860271
vn -0.017457 -0.824085 0.566196
vn -0.027589 -0.889574 0.455957
vn -0.019502 -0.833246 0.552558
vn -0.016572 -0.903653 0.427945
vn -0.002014 0.000000 0.999998
vn -0.009827 -0.520865 0.853582
vn -0.001648 0.000000 0.999999
vn -0.039766 0.000000 0.999209
vn -0.217386 0.000000 0.976086
vn -0.050784 -0.517395 0.854238
vn -0.168620 -0.420984 0.891257
vn -0.070409 -0.793905 0.603952
vn -0.128729 -0.818853 0.559382
vn -0.262586 -0.531397 0.805398
vn -0.375937 -0.394798 0.838335
vn 0.386736 -0.346420 0.854651
vn 0.061832 0.511320 0.857163
vn 0.293227 0.475700 0.829293
vn 0.205301 0.381274 0.901378
vn 0.402301 0.000000 0.915508
vn 0.442189 0.000000 0.896922
vn 0.386736 0.346420 0.854651
vn 0.161416 0.776589 0.608978
vn 0.086003 0.778853 0.621282
vn -0.375963 0.394794 0.838326
vn -0.394892 0.000000 0.918728
vn -0.439114 0.000000 0.898431
vn 0.013886 -0.849886 0.526784
vn -0.003235 -0.858088 0.513492
vn -0.000793 -0.545163 0.838330
vn 0.003388 -0.521669 0.853141
vn 0.006104 -0.837765 0.545997
vn 0.016999 -0.913366 0.406785
vn 0.002197 -0.903370 0.428857
vn -0.003235 0.518276 0.855207
vn 0.006104 0.837765 0.545997
vn -0.008271 0.834306 0.551239
vn -0.001099 0.000000 0.999999
vn -0.000794 0.000000 1.000000
vn 0.002197 0.903370 0.428856
vn -0.013428 0.900545 0.434555
vn -0.010865 0.841318 0.540431
vn -0.005280 0.528139 0.849142
vn -0.010682 -0.536373 0.843914
vn -0.008942 -0.920277 0.391165
vn -0.024111 -0.851926 0.523107
vn -0.031282 -0.916056 0.399829
vn -0.010926 -0.835705 0.549070
vn -0.006775 -0.518432 0.855092
vn 0.013886 0.849900 0.526762
vn -0.000793 0.545163 0.838330
vn -0.003235 0.858088 0.513492
vn 0.003388 0.521669 0.853141
vn 0.016999 0.913366 0.406785
vn -0.008942 0.920277 0.391165
vn 0.006287 0.536401 0.843940
vn 0.000580 0.000000 1.000000
vn -0.000305 0.000000 1.000000
vn 0.001373 0.000000 0.999999
vn 0.006287 -0.536401 0.843940
vn -0.001038 0.000000 0.999999
vn -0.002381 0.000000 0.999997
vn -0.010682 0.536373 0.843913
vn -0.006775 0.518433 0.855092
vn -0.024111 0.851926 0.523107
vn -0.010926 0.835705 0.549069
vn -0.031282 0.916056 0.399828
vn 0.001099 0.898047 0.439898
vn 0.006928 -0.509790 0.860271
vn 0.001099 -0.898059 0.439874
vn 0.017457 -0.824085 0.566196
vn 0.019502 -0.833246 0.552558
vn 0.009827 -0.520865 0.853582
vn 0.027589 -0.889574 0.455957
vn -0.003235 -0.518276 0.855207
vn -0.005280 -0.528138 0.849142
vn -0.008240 -0.834306 0.551240
vn -0.013428 -0.900545 0.434556
vn -0.010865 -0.841318 0.540431
vn -0.010743 -0.907842 0.419175
vn -0.048953 0.000000 0.998801
vn -0.010743 0.907836 0.419187
vn -0.161416 0.776589 0.608978
vn -0.086003 0.778853 0.621282
vn -0.061832 0.511320 0.857163
vn -0.234175 0.000000 0.972194
vn -0.293227 0.475700 0.829293
vn -0.205301 0.381274 0.901378
vn 0.016572 -0.903641 0.427970
vn 0.128729 -0.818853 0.559382
vn 0.070409 -0.793905 0.603952
vn 0.050784 -0.517395 0.854238
vn 0.262586 -0.531397 0.805398
vn 0.168620 -0.420984 0.891257
vn 0.017457 0.824086 0.566196
vn 0.006928 0.509790 0.860271
vn 0.027589 0.889574 0.455957
vn 0.019502 0.833256 0.552543
vn 0.016572 0.903653 0.427945
vn 0.001648 0.000000 0.999999
vn 0.009827 0.520866 0.853582
vn 0.002014 0.000000 0.999998
vn 0.217386 0.000000 0.976086
vn 0.039766 0.000000 0.999209
vn 0.050784 0.517396 0.854238
vn 0.168620 0.420984 0.891257
vn 0.128729 0.818854 0.559381
vn 0.262586 0.531398 0.805398
vn 0.375937 0.394798 0.838335
vn 0.070409 0.793905 0.603951
vn -0.386736 0.346420 0.854651
vn -0.402301 0.000000 0.915508
vn -0.293227 -0.475700 0.829293
vn -0.205301 -0.381273 0.901378
vn -0.061832 -0.511319 0.857164
vn -0.386736 -0.346420 0.854651
vn -0.442189 0.000000 0.896922
vn -0.161416 -0.776589 0.608978
vn -0.086003 -0.778853 0.621282
vn 0.375963 -0.394793 0.838326
vn 0.394892 0.000000 0.918728
vn 0.439114 0.000000 0.898431
f 1/1/1 2/2/2 3/3/3
f 1/1/1 4/4/4 5/5/5
f 6/6/6 3/3/3 7/7/7
f 6/6/6 4/4/4 1/1/1
f 8/8/8 9/9/9 10/10/10
f 8/8/8 11/11/11 12/12/12
f 12/12/12 13/13/13 14/14/14
f 12/12/12 11/11/11 15/15/15
f 12/12/12 15/15/15 16/16/16
f 16/16/16 13/13/13 12/12/12
f 4/4/4 6/6/6 17/17/17
f 4/4/4 18/18/18 5/5/5
f 19/19/19 20/20/20 21/21/21
f 19/19/19 4/4/4 17/17/17
f 19/19/19 17/17/17 22/22/22
f 22/22/22 20/20/20 19/19/19
f 23/23/23 11/11/11 24/24/24
f 23/23/23 25/25/25 26/26/26
f 11/11/11 8/8/8 24/24/24
f 11/11/11 27/27/27 15/15/15
f 27/27/27 26/26/26 28/28/28
f 27/27/27 11/11/11 23/23/23
f 24/24/24 29/29/29 23/23/23
f 24/24/24 8/8/8 10/10/10
f 24/24/24 10/10/10 30/30/30
f 29/29/29 31/31/31 25/25/25
f 29/29/29 30/30/30 32/32/32
f 33/33/33 31/31/31 32/32/32
f 33/33/33 30/30/30 2/2/2
f 30/30/30 29/29/29 24/24/24
f 30/30/30 33/33/33 32/32/32
f 30/30/30 10/10/10 2/2/2
f 18/18/18 4/4/4 19/19/19
f 18/18/18 34/34/34 35/35/35
f 5/5/5 33/33/33 1/1/1
f 31/31/31 29/29/29 32/32/32
f 31/31/31 33/33/33 5/5/5
f 35/35/35 25/25/25 31/31/31
f 35/35/35 5/5/5 18/18/18
f 35/35/35 31/31/31 5/5/5
f 25/25/25 23/23/23 29/29/29
f 25/25/25 35/35/35 36/36/36
f 36/36/36 37/37/37 38/38/38
f 36/36/36 34/34/34 37/37/37
f 36/36/36 26/26/26 25/25/25
f 26/26/26 27/27/27 23/23/23
f 26/26/26 38/38/38 28/28/28
f 26/26/26 36/36/36 38/38/38
f 38/38/38 37/37/37 39/39/39
f 40/40/40 28/28/28 38/38/38
f 40/40/40 39/39/39 41/41/41
f 20/20/20 22/22/22 42/42/42
f 20/20/20 43/43/43 21/21/21
f 44/44/44 42/42/42 45/45/45
f 44/44/44 20/20/20 42/42/42
f 44/44/44 46/46/46 47/47/47
f 45/45/45 46/46/46 44/44/44
f 2/2/2 1/1/1 33/33/33
f 48/48/48 3/3/3 2/2/2
f 48/48/48 49/49/49 50/50/50
f 48/48/48 9/9/9 49/49/49
f 48/48/48 2/2/2 10/10/10
f 3/3/3 6/6/6 1/1/1
f 3/3/3 50/50/50 7/7/7
f 3/3/3 48/48/48 50/50/50
f 51/51/51 7/7/7 50/50/50
f 51/51/51 52/52/52 53/53/53
f 9/9/9 54/54/54 49/49/49
f 9/9/9 8/8/8 14/14/14
f 9/9/9 48/48/48 10/10/10
f 54/54/54 9/9/9 14/14/14
f 55/55/55 56/56/56 57/57/57
f 14/14/14 58/58/58 54/54/54
f 14/14/14 8/8/8 12/12/12
f 13/13/13 58/58/58 14/14/14
f 13/13/13 16/16/16 55/55/55
f 58/58/58 59/59/59 54/54/54
f 58/58/58 13/13/13 57/57/57
f 57/57/57 60/60/60 61/61/61
f 57/57/57 13/13/13 55/55/55
f 56/56/56 60/60/60 57/57/57
f 46/46/46 45/45/45 62/62/62
f 46/46/46 63/63/63 47/47/47
f 46/46/46 62/62/62 64/64/64
f 64/64/64 65/65/65 66/66/66
f 64/64/64 62/62/62 67/67/67
f 67/67/67 65/65/65 64/64/64
f 39/39/39 68/68/68 41/41/41
f 39/39/39 40/40/40 38/38/38
f 39/39/39 69/69/69 68/68/68
f 68/68/68 70/70/70 71/71/71
f 72/72/72 71/71/71 73/73/73
f 72/72/72 41/41/41 68/68/68
f 37/37/37 74/74/74 69/69/69
f 69/69/69 70/70/70 68/68/68
f 69/69/69 39/39/39 37/37/37
f 69/69/69 75/75/75 70/70/70
f 43/43/43 20/20/20 44/44/44
f 43/43/43 75/75/75 74/74/74
f 21/21/21 18/18/18 19/19/19
f 34/34/34 18/18/18 21/21/21
f 34/34/34 36/36/36 35/35/35
f 74/74/74 34/34/34 21/21/21
f 74/74/74 37/37/37 34/34/34
f 74/74/74 21/21/21 43/43/43
f 63/63/63 46/46/46 64/64/64
f 63/63/63 76/76/76 77/77/77
f 47/47/47 43/43/43 44/44/44
f 75/75/75 69/69/69 74/74/74
f 75/75/75 43/43/43 47/47/47
f 77/77/77 70/70/70 75/75/75
f 77/77/77 47/47/47 63/63/63
f 77/77/77 75/75/75 47/47/47
f 70/70/70 77/77/77 78/78/78
f 78/78/78 76/76/76 79/79/79
f 78/78/78 71/71/71 70/70/70
f 80/80/80 81/81/81 82/82/82
f 83/83/83 80/80/80 73/73/73
f 83/83/83 78/78/78 79/79/79
f 71/71/71 78/78/78 83/83/83
f 71/71/71 72/72/72 68/68/68
f 71/71/71 83/83/83 73/73/73
f 84/84/84 85/85/85 60/60/60
f 61/61/61 58/58/58 57/57/57
f 60/60/60 56/56/56 84/84/84
f 60/60/60 59/59/59 61/61/61
f 59/59/59 86/86/86 54/54/54
f 59/59/59 60/60/60 85/85/85
f 59/59/59 58/58/58 61/61/61
f 59/59/59 87/87/87 88/88/88
f 85/85/85 84/84/84 89/89/89
f 85/85/85 90/90/90 87/87/87
f 89/89/89 90/90/90 85/85/85
f 87/87/87 59/59/59 85/85/85
f 87/87/87 91/91/91 92/92/92
f 87/87/87 92/92/92 88/88/88
f 86/86/86 88/88/88 92/92/92
f 86/86/86 52/52/52 49/49/49
f 86/86/86 59/59/59 88/88/88
f 86/86/86 49/49/49 54/54/54
f 52/52/52 86/86/86 92/92/92
f 52/52/52 92/92/92 53/53/53
f 52/52/52 51/51/51 50/50/50
f 52/52/52 50/50/50 49/49/49
f 91/91/91 87/87/87 90/90/90
f 91/91/91 53/53/53 92/92/92
f 66/66/66 63/63/63 64/64/64
f 65/65/65 67/67/67 93/93/93
f 65/65/65 76/76/76 66/66/66
f 76/76/76 63/63/63 66/66/66
f 76/76/76 78/78/78 77/77/77
f 76/76/76 81/81/81 79/79/79
f 76/76/76 65/65/65 94/94/94
f 95/95/95 94/94/94 93/93/93
f 94/94/94 95/95/95 82/82/82
f 94/94/94 65/65/65 93/93/93
f 81/81/81 80/80/80 83/83/83
f 81/81/81 76/76/76 94/94/94
f 81/81/81 83/83/83 79/79/79
f 82/82/82 81/81/81 94/94/94
f 96/96/96 97/97/97 98/98/98
f 96/96/96 99/99/99 100/100/100
f 101/101/101 98/98/98 102/102/102
f 101/101/101 99/99/99 96/96/96
f 103/103/103 97/97/97 104/104/104
f 103/103/103 105/105/105 106/106/106
f 103/103/103 104/104/104 105/105/105
f 106/106/106 107/107/107 108/108/108
f 106/106/106 109/109/109 103/103/103
f 108/108/108 110/110/110 111/111/111
f 108/108/108 107/107/107 112/112/112
f 108/108/108 112/112/112 113/113/113
f 113/113/113 110/110/110 108/108/108
f 99/99/99 114/114/114 100/100/100
f 99/99/99 101/101/101 115/115/115
f 116/116/116 117/117/117 118/118/118
f 116/116/116 99/99/99 115/115/115
f 116/116/116 115/115/115 119/119/119
f 119/119/119 117/117/117 116/116/116
f 120/120/120 121/121/121 122/122/122
f 120/120/120 107/107/107 105/105/105
f 107/107/107 123/123/123 112/112/112
f 107/107/107 106/106/106 105/105/105
f 123/123/123 107/107/107 120/120/120
f 123/123/123 122/122/122 124/124/124
f 105/105/105 125/125/125 120/120/120
f 125/125/125 126/126/126 121/121/121
f 125/125/125 104/104/104 127/127/127
f 104/104/104 128/128/128 127/127/127
f 104/104/104 125/125/125 105/105/105
f 128/128/128 104/104/104 97/97/97
f 128/128/128 126/126/126 127/127/127
f 126/126/126 129/129/129 121/121/121
f 126/126/126 128/128/128 100/100/100
f 126/126/126 125/125/125 127/127/127
f 114/114/114 130/130/130 129/129/129
f 114/114/114 99/99/99 116/116/116
f 100/100/100 128/128/128 96/96/96
f 100/100/100 114/114/114 129/129/129
f 100/100/100 129/129/129 126/126/126
f 121/121/121 120/120/120 125/125/125
f 131/131/131 130/130/130 132/132/132
f 131/131/131 121/121/121 129/129/129
f 131/131/131 132/132/132 133/133/133
f 131/131/131 122/122/122 121/121/121
f 122/122/122 123/123/123 120/120/120
f 122/122/122 131/131/131 133/133/133
f 122/122/122 133/133/133 124/124/124
f 133/133/133 132/132/132 134/134/134
f 135/135/135 134/134/134 136/136/136
f 135/135/135 124/124/124 133/133/133
f 117/117/117 137/137/137 118/118/118
f 117/117/117 119/119/119 138/138/138
f 139/139/139 138/138/138 140/140/140
f 139/139/139 117/117/117 138/138/138
f 139/139/139 141/141/141 142/142/142
f 140/140/140 141/141/141 139/139/139
f 97/97/97 96/96/96 128/128/128
f 97/97/97 103/103/103 143/143/143
f 143/143/143 144/144/144 145/145/145
f 143/143/143 98/98/98 97/97/97
f 143/143/143 109/109/109 144/144/144
f 98/98/98 143/143/143 145/145/145
f 98/98/98 101/101/101 96/96/96
f 98/98/98 145/145/145 102/102/102
f 146/146/146 102/102/102 145/145/145
f 146/146/146 147/147/147 148/148/148
f 109/109/109 106/106/106 111/111/111
f 109/109/109 143/143/143 103/103/103
f 149/149/149 144/144/144 109/109/109
f 149/149/149 109/109/109 111/111/111
f 149/149/149 111/111/111 150/150/150
f 151/151/151 152/152/152 153/153/153
f 111/111/111 106/106/106 108/108/108
f 110/110/110 150/150/150 111/111/111
f 110/110/110 113/113/113 151/151/151
f 150/150/150 110/110/110 153/153/153
f 150/150/150 154/154/154 149/149/149
f 150/150/150 153/153/153 155/155/155
f 153/153/153 156/156/156 155/155/155
f 153/153/153 110/110/110 151/151/151
f 152/152/152 156/156/156 153/153/153
f 157/157/157 158/158/158 159/159/159
f 141/141/141 140/140/140 157/157/157
f 141/141/141 160/160/160 142/142/142
f 141/141/141 157/157/157 159/159/159
f 159/159/159 161/161/161 162/162/162
f 158/158/158 161/161/161 159/159/159
f 134/134/134 163/163/163 164/164/164
f 134/134/134 164/164/164 136/136/136
f 134/134/134 135/135/135 133/133/133
f 165/165/165 166/166/166 167/167/167
f 165/165/165 136/136/136 164/164/164
f 163/163/163 132/132/132 168/168/168
f 163/163/163 169/169/169 164/164/164
f 163/163/163 134/134/134 132/132/132
f 163/163/163 170/170/170 169/169/169
f 130/130/130 131/131/131 129/129/129
f 130/130/130 168/168/168 132/132/132
f 130/130/130 114/114/114 118/118/118
f 168/168/168 130/130/130 118/118/118
f 137/137/137 117/117/117 139/139/139
f 137/137/137 170/170/170 168/168/168
f 118/118/118 137/137/137 168/168/168
f 118/118/118 114/114/114 116/116/116
f 170/170/170 163/163/163 168/168/168
f 170/170/170 137/137/137 142/142/142
f 170/170/170 171/171/171 169/169/169
f 171/171/171 170/170/170 142/142/142
f 160/160/160 172/172/172 171/171/171
f 160/160/160 141/141/141 159/159/159
f 142/142/142 160/160/160 171/171/171
f 142/142/142 137/137/137 139/139/139
f 173/173/173 172/172/172 174/174/174
f 173/173/173 174/174/174 175/175/175
f 173/173/173 169/169/169 171/171/171
f 173/173/173 166/166/166 169/169/169
f 176/176/176 177/177/177 178/178/178
f 175/175/175 176/176/176 167/167/167
f 166/166/166 165/165/165 164/164/164
f 166/166/166 175/175/175 167/167/167
f 166/166/166 173/173/173 175/175/175
f 166/166/166 164/164/164 169/169/169
f 156/156/156 154/154/154 155/155/155
f 156/156/156 152/152/152 179/179/179
f 154/154/154 180/180/180 181/181/181
f 154/154/154 156/156/156 182/182/182
f 154/154/154 150/150/150 155/155/155
f 154/154/154 183/183/183 149/149/149
f 184/184/184 182/182/182 179/179/179
f 182/182/182 184/184/184 185/185/185
f 182/182/182 156/156/156 179/179/179
f 185/185/185 180/180/180 182/182/182
f 180/180/180 186/186/186 187/187/187
f 180/180/180 154/154/154 182/182/182
f 181/181/181 180/180/180 187/187/187
f 183/183/183 147/147/147 144/144/144
f 183/183/183 154/154/154 181/181/181
f 183/183/183 144/144/144 149/149/149
f 147/147/147 183/183/183 187/187/187
f 147/147/147 187/187/187 148/148/148
f 147/147/147 145/145/145 144/144/144
f 147/147/147 146/146/146 145/145/145
f 187/187/187 183/183/183 181/181/181
f 186/186/186 180/180/180 185/185/185
f 186/186/186 148/148/148 187/187/187
f 162/162/162 160/160/160 159/159/159
f 161/161/161 188/188/188 189/189/189
f 161/161/161 172/172/172 162/162/162
f 161/161/161 158/158/158 188/188/188
f 172/172/172 161/161/161 189/189/189
f 172/172/172 177/177/177 174/174/174
f 172/172/172 160/160/160 162/162/162
f 172/172/172 173/173/173 171/171/171
f 177/177/177 175/175/175 174/174/174
f 177/177/177 176/176/176 175/175/175
f 177/177/177 172/172/172 189/189/189
f 189/189/189 178/178/178 177/177/177
f 189/189/189 188/188/188 190/190/190
f 190/190/190 178/178/178 189/189/189
f 191/191/191 192/192/192 193/193/193
f 191/191/191 194/194/194 195/195/195
f 196/196/196 195/195/195 197/197/197
f 196/196/196 192/192/192 191/191/191
f 198/198/198 199/199/199 200/200/200
f 198/198/198 201/201/201 202/202/202
f 202/202/202 203/203/203 204/204/204
f 202/202/202 205/205/205 206/206/206
f 202/202/202 201/201/201 205/205/205
f 206/206/206 203/203/203 202/202/202
f 192/192/192 196/196/196 207/207/207
f 192/192/192 208/208/208 193/193/193
f 209/209/209 210/210/210 211/211/211
f 209/209/209 192/192/192 207/207/207
f 209/209/209 207/207/207 212/212/212
f 212/212/212 210/210/210 209/209/209
f 213/213/213 201/201/201 214/214/214
f 213/213/213 215/215/215 216/216/216
f 201/201/201 198/198/198 214/214/214
f 201/201/201 217/217/217 205/205/205
f 217/217/217 201/201/201 213/213/213
f 217/217/217 216/216/216 218/218/218
f 214/214/214 198/198/198 200/200/200
f 214/214/214 200/200/200 219/219/219
f 214/214/214 220/220/220 213/213/213
f 220/220/220 221/221/221 215/215/215
f 220/220/220 219/219/219 222/222/222
f 223/223/223 219/219/219 194/194/194
f 223/223/223 221/221/221 222/222/222
f 219/219/219 200/200/200 194/194/194
f 219/219/219 223/223/223 222/222/222
f 219/219/219 220/220/220 214/214/214
f 208/208/208 192/192/192 209/209/209
f 208/208/208 224/224/224 225/225/225
f 193/193/193 223/223/223 191/191/191
f 221/221/221 220/220/220 222/222/222
f 221/221/221 223/223/223 193/193/193
f 225/225/225 215/215/215 221/221/221
f 225/225/225 193/193/193 208/208/208
f 225/225/225 221/221/221 193/193/193
f 215/215/215 213/213/213 220/220/220
f 215/215/215 225/225/225 226/226/226
f 226/226/226 224/224/224 227/227/227
f 226/226/226 227/227/227 228/228/228
f 226/226/226 216/216/216 215/215/215
f 216/216/216 226/226/226 228/228/228
f 216/216/216 228/228/228 218/218/218
f 216/216/216 217/217/217 213/213/213
f 228/228/228 227/227/227 229/229/229
f 230/230/230 218/218/218 228/228/228
f 230/230/230 229/229/229 231/231/231
f 210/210/210 232/232/232 211/211/211
f 210/210/210 212/212/212 233/233/233
f 234/234/234 233/233/233 235/235/235
f 234/234/234 210/210/210 233/233/233
f 234/234/234 236/236/236 237/237/237
f 235/235/235 236/236/236 234/234/234
f 194/194/194 191/191/191 223/223/223
f 238/238/238 199/199/199 239/239/239
f 238/238/238 195/195/195 194/194/194
f 238/238/238 239/239/239 240/240/240
f 238/238/238 194/194/194 200/200/200
f 195/195/195 196/196/196 191/191/191
f 195/195/195 238/238/238 240/240/240
f 195/195/195 240/240/240 197/197/197
f 241/241/241 197/197/197 240/240/240
f 241/241/241 242/242/242 243/243/243
f 199/199/199 238/238/238 200/200/200
f 199/199/199 244/244/244 239/239/239
f 199/199/199 198/198/198 204/204/204
f 244/244/244 199/199/199 204/204/204
f 245/245/245 246/246/246 247/247/247
f 204/204/204 198/198/198 202/202/202
f 204/204/204 248/248/248 244/244/244
f 203/203/203 248/248/248 204/204/204
f 203/203/203 206/206/206 245/245/245
f 248/248/248 203/203/203 247/247/247
f 248/248/248 249/249/249 244/244/244
f 247/247/247 250/250/250 251/251/251
f 247/247/247 203/203/203 245/245/245
f 246/246/246 250/250/250 247/247/247
f 236/236/236 252/252/252 253/253/253
f 236/236/236 254/254/254 237/237/237
f 236/236/236 235/235/235 252/252/252
f 253/253/253 252/252/252 255/255/255
f 253/253/253 256/256/256 257/257/257
f 255/255/255 256/256/256 253/253/253
f 229/229/229 258/258/258 259/259/259
f 229/229/229 259/259/259 231/231/231
f 229/229/229 230/230/230 228/228/228
f 259/259/259 260/260/260 261/261/261
f 262/262/262 231/231/231 259/259/259
f 262/262/262 261/261/261 263/263/263
f 227/227/227 264/264/264 258/258/258
f 258/258/258 229/229/229 227/227/227
f 258/258/258 260/260/260 259/259/259
f 258/258/258 265/265/265 260/260/260
f 232/232/232 210/210/210 234/234/234
f 232/232/232 265/265/265 264/264/264
f 211/211/211 208/208/208 209/209/209
f 224/224/224 226/226/226 225/225/225
f 224/224/224 208/208/208 211/211/211
f 264/264/264 211/211/211 232/232/232
f 264/264/264 224/224/224 211/211/211
f 264/264/264 227/227/227 224/224/224
f 254/254/254 266/266/266 267/267/267
f 254/254/254 236/236/236 253/253/253
f 237/237/237 232/232/232 234/234/234
f 265/265/265 258/258/258 264/264/264
f 265/265/265 232/232/232 237/237/237
f 267/267/267 265/265/265 237/237/237
f 267/267/267 237/237/237 254/254/254
f 267/267/267 260/260/260 265/265/265
f 260/260/260 267/267/267 268/268/268
f 268/268/268 261/261/261 260/260/260
f 268/268/268 266/266/266 269/269/269
f 270/270/270 271/271/271 272/272/272
f 273/273/273 268/268/268 269/269/269
f 273/273/273 270/270/270 263/263/263
f 261/261/261 273/273/273 263/263/263
f 261/261/261 268/268/268 273/273/273
f 261/261/261 262/262/262 259/259/259
f 274/274/274 275/275/275 250/250/250
f 251/251/251 248/248/248 247/247/247
f 250/250/250 249/249/249 251/251/251
f 250/250/250 246/246/246 274/274/274
f 249/249/249 250/250/250 275/275/275
f 249/249/249 276/276/276 244/244/244
f 249/249/249 248/248/248 251/251/251
f 249/249/249 277/277/277 278/278/278
f 275/275/275 279/279/279 277/277/277
f 275/275/275 274/274/274 280/280/280
f 280/280/280 279/279/279 275/275/275
f 277/277/277 249/249/249 275/275/275
f 277/277/277 281/281/281 282/282/282
f 277/277/277 282/282/282 278/278/278
f 276/276/276 249/249/249 278/278/278
f 276/276/276 278/278/278 282/282/282
f 276/276/276 242/242/242 239/239/239
f 276/276/276 239/239/239 244/244/244
f 242/242/242 241/241/241 240/240/240
f 242/242/242 240/240/240 239/239/239
f 242/242/242 282/282/282 243/243/243
f 242/242/242 276/276/276 282/282/282
f 281/281/281 243/243/243 282/282/282
f 281/281/281 277/277/277 279/279/279
f 257/257/257 254/254/254 253/253/253
f 256/256/256 266/266/266 257/257/257
f 256/256/256 255/255/255 283/283/283
f 266/266/266 271/271/271 269/269/269
f 266/266/266 256/256/256 284/284/284
f 266/266/266 268/268/268 267/267/267
f 266/266/266 254/254/254 257/257/257
f 285/285/285 284/284/284 283/283/283
f 284/284/284 285/285/285 272/272/272
f 284/284/284 256/256/256 283/283/283
f 271/271/271 273/273/273 269/269/269
f 271/271/271 270/270/270 273/273/273
f 271/271/271 266/266/266 284/284/284
f 272/272/272 271/271/271 284/284/284
f 286/286/286 287/287/287 288/288/288
f 286/286/286 289/289/289 290/290/290
f 291/291/291 288/288/288 292/292/292
f 291/291/291 289/289/289 286/286/286
f 293/293/293 287/287/287 294/294/294
f 293/293/293 295/295/295 296/296/296
f 293/293/293 294/294/294 295/295/295
f 296/296/296 297/297/297 298/298/298
f 296/296/296 299/299/299 293/293/293
f 298/298/298 300/300/300 301/301/301
f 298/298/298 297/297/297 302/302/302
f 298/298/298 302/302/302 303/303/303
f 303/303/303 300/300/300 298/298/298
f 289/289/289 304/304/304 290/290/290
f 289/289/289 291/291/291 305/305/305
f 306/306/306 307/307/307 308/308/308
f 306/306/306 289/289/289 305/305/305
f 306/306/306 305/305/305 309/309/309
f 309/309/309 307/307/307 306/306/306
f 310/310/310 311/311/311 312/312/312
f 310/310/310 297/297/297 295/295/295
f 297/297/297 296/296/296 295/295/295
f 297/297/297 313/313/313 302/302/302
f 313/313/313 297/297/297 310/310/310
f 313/313/313 312/312/312 314/314/314
f 295/295/295 315/315/315 310/310/310
f 315/315/315 294/294/294 316/316/316
f 315/315/315 317/317/317 311/311/311
f 294/294/294 315/315/315 295/295/295
f 294/294/294 318/318/318 316/316/316
f 318/318/318 294/294/294 287/287/287
f 318/318/318 317/317/317 316/316/316
f 317/317/317 319/319/319 311/311/311
f 317/317/317 315/315/315 316/316/316
f 317/317/317 318/318/318 290/290/290
f 304/304/304 320/320/320 319/319/319
f 304/304/304 289/289/289 306/306/306
f 290/290/290 318/318/318 286/286/286
f 290/290/290 304/304/304 319/319/319
f 290/290/290 319/319/319 317/317/317
f 311/311/311 310/310/310 315/315/315
f 321/321/321 311/311/311 319/319/319
f 321/321/321 320/320/320 322/322/322
f 321/321/321 322/322/322 323/323/323
f 321/321/321 312/312/312 311/311/311
f 312/312/312 313/313/313 310/310/310
f 312/312/312 321/321/321 323/323/323
f 312/312/312 323/323/323 314/314/314
f 323/323/323 322/322/322 324/324/324
f 325/325/325 324/324/324 326/326/326
f 325/325/325 314/314/314 323/323/323
f 307/307/307 309/309/309 327/327/327
f 307/307/307 328/328/328 308/308/308
f 329/329/329 307/307/307 327/327/327
f 329/329/329 327/327/327 330/330/330
f 329/329/329 331/331/331 332/332/332
f 330/330/330 331/331/331 329/329/329
f 287/287/287 286/286/286 318/318/318
f 287/287/287 293/293/293 333/333/333
f 333/333/333 288/288/288 287/287/287
f 333/333/333 334/334/334 335/335/335
f 333/333/333 299/299/299 334/334/334
f 288/288/288 291/291/291 286/286/286
f 288/288/288 335/335/335 292/292/292
f 288/288/288 333/333/333 335/335/335
f 336/336/336 337/337/337 338/338/338
f 336/336/336 292/292/292 335/335/335
f 299/299/299 333/333/333 293/293/293
f 299/299/299 296/296/296 301/301/301
f 339/339/339 334/334/334 299/299/299
f 339/339/339 299/299/299 301/301/301
f 339/339/339 301/301/301 340/340/340
f 341/341/341 342/342/342 343/343/343
f 301/301/301 296/296/296 298/298/298
f 300/300/300 303/303/303 341/341/341
f 300/300/300 340/340/340 301/301/301
f 340/340/340 300/300/300 343/343/343
f 340/340/340 343/343/343 344/344/344
f 340/340/340 345/345/345 339/339/339
f 343/343/343 346/346/346 344/344/344
f 343/343/343 300/300/300 341/341/341
f 342/342/342 346/346/346 343/343/343
f 347/347/347 348/348/348 349/349/349
f 331/331/331 330/330/330 347/347/347
f 331/331/331 347/347/347 349/349/349
f 331/331/331 350/350/350 332/332/332
f 349/349/349 351/351/351 352/352/352
f 348/348/348 351/351/351 349/349/349
f 324/324/324 325/325/325 323/323/323
f 324/324/324 353/353/353 354/354/354
f 324/324/324 354/354/354 326/326/326
f 355/355/355 356/356/356 357/357/357
f 355/355/355 326/326/326 354/354/354
f 353/353/353 358/358/358 359/359/359
f 353/353/353 359/359/359 354/354/354
f 353/353/353 324/324/324 322/322/322
f 353/353/353 322/322/322 360/360/360
f 320/320/320 360/360/360 322/322/322
f 320/320/320 321/321/321 319/319/319
f 320/320/320 304/304/304 308/308/308
f 360/360/360 320/320/320 308/308/308
f 328/328/328 358/358/358 360/360/360
f 328/328/328 307/307/307 329/329/329
f 308/308/308 328/328/328 360/360/360
f 308/308/308 304/304/304 306/306/306
f 358/358/358 361/361/361 359/359/359
f 358/358/358 328/328/328 332/332/332
f 358/358/358 353/353/353 360/360/360
f 361/361/361 358/358/358 332/332/332
f 350/350/350 331/331/331 349/349/349
f 350/350/350 362/362/362 361/361/361
f 332/332/332 350/350/350 361/361/361
f 332/332/332 328/328/328 329/329/329
f 363/363/363 364/364/364 365/365/365
f 363/363/363 359/359/359 361/361/361
f 363/363/363 362/362/362 364/364/364
f 363/363/363 356/356/356 359/359/359
f 366/366/366 367/367/367 368/368/368
f 365/365/365 366/366/366 357/357/357
f 356/356/356 354/354/354 359/359/359
f 356/356/356 355/355/355 354/354/354
f 356/356/356 365/365/365 357/357/357
f 356/356/356 363/363/363 365/365/365
f 346/346/346 345/345/345 344/344/344
f 346/346/346 342/342/342 369/369/369
f 345/345/345 370/370/370 339/339/339
f 345/345/345 371/371/371 372/372/372
f 345/345/345 340/340/340 344/344/344
f 345/345/345 346/346/346 373/373/373
f 374/374/374 373/373/373 369/369/369
f 373/373/373 374/374/374 375/375/375
f 373/373/373 346/346/346 369/369/369
f 375/375/375 371/371/371 373/373/373
f 371/371/371 345/345/345 373/373/373
f 371/371/371 376/376/376 377/377/377
f 372/372/372 371/371/371 377/377/377
f 370/370/370 345/345/345 372/372/372
f 370/370/370 334/334/334 339/339/339
f 370/370/370 337/337/337 334/334/334
f 337/337/337 370/370/370 377/377/377
f 337/337/337 377/377/377 338/338/338
f 337/337/337 336/336/336 335/335/335
f 337/337/337 335/335/335 334/334/334
f 377/377/377 370/370/370 372/372/372
f 376/376/376 371/371/371 375/375/375
f 376/376/376 338/338/338 377/377/377
f 352/352/352 350/350/350 349/349/349
f 351/351/351 348/348/348 378/378/378
f 351/351/351 362/362/362 352/352/352
f 351/351/351 378/378/378 379/379/379
f 362/362/362 350/350/350 352/352/352
f 362/362/362 363/363/363 361/361/361
f 362/362/362 367/367/367 364/364/364
f 362/362/362 351/351/351 379/379/379
f 367/367/367 366/366/366 365/365/365
f 367/367/367 362/362/362 379/379/379
f 367/367/367 365/365/365 364/364/364
f 379/379/379 378/378/378 380/380/380
f 379/379/379 368/368/368 367/367/367
f 380/380/380 368/368/368 379/379/379
f 381/381/381 382/382/382 383/383/383
f 381/381/381 384/384/384 385/385/385
f 386/386/386 382/382/382 381/381/381
f 386/386/386 385/385/385 387/387/387
f 388/388/388 389/389/389 390/390/390
f 388/388/388 391/391/391 392/392/392
f 390/390/390 389/389/389 393/393/393
f 390/390/390 393/393/393 394/394/394
f 390/390/390 395/395/395 396/396/396
f 394/394/394 395/395/395 390/390/390
f 382/382/382 397/397/397 383/383/383
f 382/382/382 386/386/386 398/398/398
f 399/399/399 382/382/382 398/398/398
f 399/399/399 398/398/398 400/400/400
f 399/399/399 401/401/401 402/402/402
f 400/400/400 401/401/401 399/399/399
f 403/403/403 404/404/404 405/405/405
f 403/403/403 389/389/389 406/406/406
f 389/389/389 407/407/407 393/393/393
f 389/389/389 388/388/388 406/406/406
f 407/407/407 405/405/405 408/408/408
f 407/407/407 389/389/389 403/403/403
f 406/406/406 409/409/409 403/403/403
f 406/406/406 388/388/388 392/392/392
f 406/406/406 392/392/392 410/410/410
f 409/409/409 411/411/411 404/404/404
f 409/409/409 410/410/410 412/412/412
f 413/413/413 410/410/410 384/384/384
f 413/413/413 411/411/411 412/412/412
f 410/410/410 413/413/413 412/412/412
f 410/410/410 392/392/392 384/384/384
f 410/410/410 409/409/409 406/406/406
f 397/397/397 382/382/382 399/399/399
f 397/397/397 414/414/414 415/415/415
f 383/383/383 413/413/413 381/381/381
f 411/411/411 409/409/409 412/412/412
f 411/411/411 413/413/413 383/383/383
f 415/415/415 383/383/383 397/397/397
f 415/415/415 411/411/411 383/383/383
f 415/415/415 404/404/404 411/411/411
f 404/404/404 403/403/403 409/409/409
f 404/404/404 415/415/415 416/416/416
f 416/416/416 405/405/405 404/404/404
f 416/416/416 417/417/417 418/418/418
f 416/416/416 414/414/414 417/417/417
f 405/405/405 407/407/407 403/403/403
f 405/405/405 418/418/418 408/408/408
f 405/405/405 416/416/416 418/418/418
f 418/418/418 417/417/417 419/419/419
f 420/420/420 408/408/408 418/418/418
f 420/420/420 419/419/419 421/421/421
f 401/401/401 422/422/422 402/402/402
f 401/401/401 400/400/400 423/423/423
f 424/424/424 425/425/425 426/426/426
f 424/424/424 401/401/401 423/423/423
f 424/424/424 423/423/423 427/427/427
f 427/427/427 425/425/425 424/424/424
f 384/384/384 381/381/381 413/413/413
f 428/428/428 429/429/429 430/430/430
f 428/428/428 385/385/385 384/384/384
f 428/428/428 391/391/391 429/429/429
f 428/428/428 384/384/384 392/392/392
f 385/385/385 428/428/428 430/430/430
f 385/385/385 386/386/386 381/381/381
f 385/385/385 430/430/430 387/387/387
f 431/431/431 432/432/432 433/433/433
f 431/431/431 387/387/387 430/430/430
f 391/391/391 388/388/388 396/396/396
f 391/391/391 434/434/434 429/429/429
f 391/391/391 428/428/428 392/392/392
f 434/434/434 391/391/391 396/396/396
f 435/435/435 436/436/436 437/437/437
f 396/396/396 388/388/388 390/390/390
f 396/396/396 438/438/438 434/434/434
f 395/395/395 438/438/438 396/396/396
f 395/395/395 394/394/394 435/435/435
f 438/438/438 395/395/395 437/437/437
f 438/438/438 439/439/439 434/434/434
f 437/437/437 395/395/395 435/435/435
f 437/437/437 440/440/440 441/441/441
f 436/436/436 440/440/440 437/437/437
f 442/442/442 443/443/443 444/444/444
f 425/425/425 445/445/445 426/426/426
f 425/425/425 442/442/442 444/444/444
f 425/425/425 427/427/427 442/442/442
f 444/444/444 446/446/446 447/447/447
f 443/443/443 446/446/446 444/444/444
f 419/419/419 448/448/448 421/421/421
f 419/419/419 449/449/449 448/448/448
f 419/419/419 420/420/420 418/418/418
f 450/450/450 421/421/421 448/448/448
f 450/450/450 451/451/451 452/452/452
f 417/417/417 453/453/453 449/449/449
f 449/449/449 419/419/419 417/417/417
f 449/449/449 454/454/454 448/448/448
f 449/449/449 455/455/455 454/454/454
f 422/422/422 401/401/401 424/424/424
f 422/422/422 455/455/455 453/453/453
f 402/402/402 397/397/397 399/399/399
f 414/414/414 416/416/416 415/415/415
f 414/414/414 397/397/397 402/402/402
f 453/453/453 417/417/417 414/414/414
f 453/453/453 402/402/402 422/422/422
f 453/453/453 414/414/414 402/402/402
f 445/445/445 425/425/425 444/444/444
f 445/445/445 456/456/456 457/457/457
f 426/426/426 422/422/422 424/424/424
f 455/455/455 449/449/449 453/453/453
f 455/455/455 422/422/422 426/426/426
f 457/457/457 455/455/455 426/426/426
f 457/457/457 454/454/454 455/455/455
f 457/457/457 426/426/426 445/445/445
f 458/458/458 451/451/451 454/454/454
f 458/458/458 456/456/456 459/459/459
f 458/458/458 454/454/454 457/457/457
f 460/460/460 461/461/461 462/462/462
f 463/463/463 460/460/460 452/452/452
f 463/463/463 458/458/458 459/459/459
f 451/451/451 450/450/450 448/448/448
f 451/451/451 458/458/458 463/463/463
f 451/451/451 463/463/463 452/452/452
f 451/451/451 448/448/448 454/454/454
f 464/464/464 465/465/465 440/440/440
f 441/441/441 438/438/438 437/437/437
f 440/440/440 436/436/436 464/464/464
f 440/440/440 439/439/439 441/441/441
f 439/439/439 440/440/440 465/465/465
f 439/439/439 466/466/466 467/467/467
f 439/439/439 438/438/438 441/441/441
f 439/439/439 468/468/468 434/434/434
f 465/465/465 469/469/469 466/466/466
f 465/465/465 464/464/464 470/470/470
f 470/470/470 469/469/469 465/465/465
f 466/466/466 471/471/471 472/472/472
f 466/466/466 472/472/472 467/467/467
f 466/466/466 439/439/439 465/465/465
f 468/468/468 467/467/467 472/472/472
f 468/468/468 432/432/432 429/429/429
f 468/468/468 439/439/439 467/467/467
f 468/468/468 429/429/429 434/434/434
f 432/432/432 468/468/468 472/472/472
f 432/432/432 472/472/472 433/433/433
f 432/432/432 430/430/430 429/429/429
f 432/432/432 431/431/431 430/430/430
f 471/471/471 466/466/466 469/469/469
f 471/471/471 433/433/433 472/472/472
f 447/447/447 445/445/445 444/444/444
f 446/446/446 443/443/443 473/473/473
f 446/446/446 456/456/456 447/447/447
f 456/456/456 461/461/461 459/459/459
f 456/456/456 445/445/445 447/447/447
f 456/456/456 458/458/458 457/457/457
f 456/456/456 446/446/446 474/474/474
f 475/475/475 474/474/474 473/473/473
f 474/474/474 475/475/475 462/462/462
f 474/474/474 446/446/446 473/473/473
f 461/461/461 456/456/456 474/474/474
f 461/461/461 460/460/460 463/463/463
f 461/461/461 463/463/463 459/459/459
f 462/462/462 461/461/461 474/474/474
