# Shared OBJ attributes; Tools/Art/compact_obj.py
v -1080 -1180 -39
v -1091.547 -1191.547 -30.547
v -1094.142 -1180 -33.142
v -1080 -1200 -19
v -1080 -1194.142 -33.142
v -1100 -1180 -19
v -1094.142 -1194.142 -19
v -1091.547 -1191.547 -7.453
v -1080 -1180 1
v -1080 -1194.142 -4.858
v -1094.142 -1180 -4.858
v -1080 1380 -39
v -1091.547 1391.547 -30.547
v -1080 1394.142 -33.142
v -1100 1380 -19
v -1094.142 1380 -33.142
v -1080 1400 -19
v -1094.142 1394.142 -19
v -1080 1380 1
v -1091.547 1391.547 -7.453
v -1094.142 1380 -4.858
v -1080 1394.142 -4.858
v 1080 -1180 -39
v 1091.547 -1191.547 -30.547
v 1080 -1194.142 -33.142
v 1100 -1180 -19
v 1094.142 -1180 -33.142
v 1080 -1200 -19
v 1094.142 -1194.142 -19
v 1080 -1180 1
v 1091.547 -1191.547 -7.453
v 1094.142 -1180 -4.858
v 1080 -1194.142 -4.858
v 1080 1380 -39
v 1091.547 1391.547 -30.547
v 1094.142 1380 -33.142
v 1080 1400 -19
v 1080 1394.142 -33.142
v 1100 1380 -19
v 1094.142 1394.142 -19
v 1080 1380 1
v 1091.547 1391.547 -7.453
v 1080 1394.142 -4.858
v 1094.142 1380 -4.858
vt 0.00909 0.00769
vt 0.00384 0.00325
vt 0.00266 0.00769
vt 0.00909 0
vt 0.00909 0.00225
vt 0 0.00769
vt 0.00266 0.00225
vt 0.00909 0.99231
vt 0.00384 0.99675
vt 0.00909 0.99775
vt 0 0.99231
vt 0.00266 0.99231
vt 0.00909 1
vt 0.00266 0.99775
vt 0.99091 0.00769
vt 0.99616 0.00325
vt 0.99091 0.00225
vt 1 0.00769
vt 0.99734 0.00769
vt 0.99091 0
vt 0.99734 0.00225
vt 0.99091 0.99231
vt 0.99616 0.99675
vt 0.99734 0.99231
vt 0.99091 1
vt 0.99091 0.99775
vt 1 0.99231
vt 0.99734 0.99775
vn 0.073 -0.164 -0.984
vn -0.577 -0.577 -0.577
vn -0.708 0.021 -0.706
vn 0.091 -0.971 -0.219
vn -0.136 -0.572 -0.809
vn -0.88 -0.181 -0.439
vn -0.82 -0.551 -0.157
vn -0.182 -0.88 0.439
vn -0.577 -0.577 0.577
vn -0.665 -0.668 0.333
vn -0.165 0.072 0.984
vn -0.136 -0.809 0.572
vn -0.971 0.091 0.219
vn -0.571 -0.136 0.809
vn -0.165 -0.072 -0.984
vn -0.577 0.577 -0.577
vn 0.021 0.708 -0.706
vn -0.971 -0.091 -0.219
vn -0.571 0.136 -0.809
vn -0.182 0.88 -0.439
vn -0.551 0.82 -0.157
vn 0.073 0.164 0.984
vn -0.577 0.577 0.577
vn -0.708 -0.021 0.706
vn 0.091 0.971 0.219
vn -0.136 0.572 0.809
vn -0.88 0.181 0.439
vn -0.82 0.551 0.157
vn 0.165 0.072 -0.984
vn 0.577 -0.577 -0.577
vn -0.021 -0.708 -0.706
vn 0.971 0.091 -0.219
vn 0.571 -0.136 -0.809
vn 0.182 -0.88 -0.439
vn 0.551 -0.82 -0.157
vn -0.073 -0.164 0.984
vn 0.577 -0.577 0.577
vn 0.708 0.021 0.706
vn -0.091 -0.971 0.219
vn 0.136 -0.572 0.809
vn 0.88 -0.181 0.439
vn 0.82 -0.551 0.157
vn -0.073 0.164 -0.984
vn 0.577 0.577 -0.577
vn 0.708 -0.021 -0.706
vn -0.091 0.971 -0.219
vn 0.136 0.572 -0.809
vn 0.88 0.181 -0.439
vn 0.82 0.551 -0.157
vn 0.165 -0.072 0.984
vn 0.577 0.577 0.577
vn -0.021 0.708 0.706
vn 0.971 -0.091 0.219
vn 0.571 0.136 0.809
vn 0.182 0.88 0.439
vn 0.551 0.82 0.157
f 1/1/1 2/2/2 3/3/3
f 4/4/4 2/2/2 5/5/5
f 6/6/6 2/2/2 7/7/7
f 4/4/8 8/2/9 7/7/10
f 9/1/11 8/2/9 10/5/12
f 6/6/13 8/2/9 11/3/14
f 12/8/15 13/9/16 14/10/17
f 15/11/18 13/9/16 16/12/19
f 17/13/20 13/9/16 18/14/21
f 19/8/22 20/9/23 21/12/24
f 17/13/25 20/9/23 22/10/26
f 15/11/27 20/9/23 18/14/28
f 23/15/29 24/16/30 25/17/31
f 26/18/32 24/16/30 27/19/33
f 28/20/34 24/16/30 29/21/35
f 30/15/36 31/16/37 32/19/38
f 28/20/39 31/16/37 33/17/40
f 26/18/41 31/16/37 29/21/42
f 34/22/43 35/23/44 36/24/45
f 37/25/46 35/23/44 38/26/47
f 39/27/48 35/23/44 40/28/49
f 41/22/50 42/23/51 43/26/52
f 39/27/53 42/23/51 44/24/54
f 37/25/55 42/23/51 40/28/56
f 1/1/1 16/12/19 12/8/15
f 3/3/3 15/11/18 16/12/19
f 4/4/8 7/7/7 4/4/4
f 7/7/10 6/6/6 7/7/7
f 19/8/22 11/3/14 9/1/11
f 21/12/24 6/6/13 11/3/14
f 17/13/20 18/14/28 17/13/25
f 18/14/21 15/11/27 18/14/28
f 12/8/15 38/26/47 34/22/43
f 14/10/17 37/25/46 38/26/47
f 41/22/50 22/10/26 19/8/22
f 43/26/52 17/13/25 22/10/26
f 39/27/48 40/28/56 39/27/53
f 40/28/49 37/25/55 40/28/56
f 34/22/43 27/19/33 23/15/29
f 36/24/45 26/18/32 27/19/33
f 30/15/36 44/24/54 41/22/50
f 32/19/38 39/27/53 44/24/54
f 28/20/34 29/21/42 28/20/39
f 29/21/35 26/18/41 29/21/42
f 23/15/29 5/5/5 1/1/1
f 25/17/31 4/4/4 5/5/5
f 9/1/11 33/17/40 30/15/36
f 10/5/12 28/20/39 33/17/40
f 34/22/43 1/1/1 12/8/15
f 6/6/13 15/11/18 6/6/6
f 28/20/39 4/4/4 28/20/34
f 19/8/22 30/15/36 41/22/50
f 17/13/25 37/25/46 17/13/20
f 39/27/53 26/18/32 39/27/48
f 1/1/1 5/5/5 2/2/2
f 4/4/4 7/7/7 2/2/2
f 6/6/6 3/3/3 2/2/2
f 4/4/8 10/5/12 8/2/9
f 9/1/11 11/3/14 8/2/9
f 6/6/13 7/7/10 8/2/9
f 12/8/15 16/12/19 13/9/16
f 15/11/18 18/14/21 13/9/16
f 17/13/20 14/10/17 13/9/16
f 19/8/22 22/10/26 20/9/23
f 17/13/25 18/14/28 20/9/23
f 15/11/27 21/12/24 20/9/23
f 23/15/29 27/19/33 24/16/30
f 26/18/32 29/21/35 24/16/30
f 28/20/34 25/17/31 24/16/30
f 30/15/36 33/17/40 31/16/37
f 28/20/39 29/21/42 31/16/37
f 26/18/41 32/19/38 31/16/37
f 34/22/43 38/26/47 35/23/44
f 37/25/46 40/28/49 35/23/44
f 39/27/48 36/24/45 35/23/44
f 41/22/50 44/24/54 42/23/51
f 39/27/53 40/28/56 42/23/51
f 37/25/55 43/26/52 42/23/51
f 1/1/1 3/3/3 16/12/19
f 3/3/3 6/6/6 15/11/18
f 4/4/8 7/7/10 7/7/7
f 7/7/10 6/6/13 6/6/6
f 19/8/22 21/12/24 11/3/14
f 21/12/24 15/11/27 6/6/13
f 17/13/20 18/14/21 18/14/28
f 18/14/21 15/11/18 15/11/27
f 12/8/15 14/10/17 38/26/47
f 14/10/17 17/13/20 37/25/46
f 41/22/50 43/26/52 22/10/26
f 43/26/52 37/25/55 17/13/25
f 39/27/48 40/28/49 40/28/56
f 40/28/49 37/25/46 37/25/55
f 34/22/43 36/24/45 27/19/33
f 36/24/45 39/27/48 26/18/32
f 30/15/36 32/19/38 44/24/54
f 32/19/38 26/18/41 39/27/53
f 28/20/34 29/21/35 29/21/42
f 29/21/35 26/18/32 26/18/41
f 23/15/29 25/17/31 5/5/5
f 25/17/31 28/20/34 4/4/4
f 9/1/11 10/5/12 33/17/40
f 10/5/12 4/4/8 28/20/39
f 34/22/43 23/15/29 1/1/1
f 6/6/13 15/11/27 15/11/18
f 28/20/39 4/4/8 4/4/4
f 19/8/22 9/1/11 30/15/36
f 17/13/25 37/25/55 37/25/46
f 39/27/53 26/18/41 26/18/32
